<svg id="Layer_1" data-name="Layer 1" xmlns="http://www.w3.org/2000/svg" viewBox="0 0 476.076 259"><title>logo</title><path d="M486.622,316.822a20.677,20.677,0,0,0,7.524-16.395V278.306H481.793v2.582c-3.031-2.245-7.073-3.256-11.453-3.256-13.251,0-22.571,10.106-22.571,22.8a21.2,21.2,0,0,0,7.524,16.395,16.7,16.7,0,0,0-5.5,4.829l8.983,8.871a13.778,13.778,0,0,1,12.239-7.411c8.309,0,13.7,5.727,13.7,14.148s-5.392,14.261-13.7,14.261c-7.523,0-11.565-4.267-13.25-9.77h-12.8c2.246,12.689,12.24,21.448,26.051,21.448,14.712,0,26.277-10.218,26.277-25.939A24.629,24.629,0,0,0,486.622,316.822Zm-15.609-5.39c-6.288,0-10.892-4.379-10.892-11,0-6.737,4.6-11.116,10.892-11.116,6.177,0,10.78,4.379,10.78,11.116C481.793,307.053,477.19,311.432,471.013,311.432Z" transform="translate(-444.962 -254.5)"/><path d="M515.364,303.46c0-8.31,5.5-13.924,13.362-13.924h1.124v-11.9c-7.861,0-11.791,2.92-14.486,6.513v-5.839H503.013v56.146h12.351Z" transform="translate(-444.962 -254.5)"/><path d="M559.717,335.126c12.689,0,23.581-6.85,27.4-17.068H572.406c-2.359,3.593-6.963,5.389-12.689,5.389a16.007,16.007,0,0,1-15.833-12.8h43.681a26.347,26.347,0,0,0,.336-4.267,28.522,28.522,0,1,0-28.184,28.747Zm-.338-46.04c7.076,0,13.138,4.716,14.936,10.556h-29.87C546.241,293.8,552.3,289.086,559.379,289.086Z" transform="translate(-444.962 -254.5)"/><path d="M620.686,335.126c12.689,0,23.581-6.85,27.4-17.068H633.375c-2.359,3.593-6.963,5.389-12.689,5.389a16.008,16.008,0,0,1-15.834-12.8h43.682a26.349,26.349,0,0,0,.335-4.267,28.522,28.522,0,1,0-28.183,28.747Zm-.338-46.04c7.075,0,13.138,4.716,14.935,10.556H605.414C607.21,293.8,613.274,289.086,620.348,289.086Z" transform="translate(-444.962 -254.5)"/><path d="M666.945,303.46c0-8.31,4.265-14.149,12.352-14.149s12.238,4.266,12.238,14.149v30.992h12.354V300.764c0-14.934-7.636-23.132-21.561-23.132-7.747,0-12.8,3.706-15.383,7.074v-6.4H654.592v56.146h12.353Z" transform="translate(-444.962 -254.5)"/><polygon points="297.997 79.952 302.939 65.242 307.88 79.952 319.108 79.952 341.23 23.806 328.652 23.806 313.831 64.119 309.002 49.745 318.772 23.806 306.643 23.806 302.939 35.484 299.233 23.806 287.106 23.806 296.875 49.745 292.046 64.119 277.223 23.806 264.647 23.806 286.769 79.952 297.997 79.952"/><ellipse cx="352.227" cy="9.096" rx="8.309" ry="8.422"/><rect x="346.05" y="23.806" width="12.354" height="56.146"/><path d="M837.614,335.126c16.281,0,28.634-12.353,28.634-28.747H853.9c0,10.106-6.737,17.068-16.281,17.068-9.659,0-16.171-6.962-16.171-17.068s6.512-17.068,16.171-17.068a15.032,15.032,0,0,1,11.454,5.053l9.094-8.2a27.519,27.519,0,0,0-20.548-8.534c-16.509,0-28.747,12.24-28.747,28.747S821.105,335.126,837.614,335.126Z" transform="translate(-444.962 -254.5)"/><path d="M899.478,277.632c-7.3,0-12.689,3.032-16.058,7.074V254.5l-12.351,1.348v78.6H883.42V303.46c0-8.2,5.053-14.149,13.027-14.149,8.533,0,12.24,5.39,12.24,14.149v30.992h12.351V300.764C921.038,285.83,912.841,277.632,899.478,277.632Z" transform="translate(-444.962 -254.5)"/><path d="M553.205,392.066H540.854c0,10.106-6.737,17.068-16.283,17.068-9.656,0-16.17-6.962-16.17-17.068S514.915,375,524.571,375a15.026,15.026,0,0,1,11.454,5.053l9.1-8.2a27.527,27.527,0,0,0-20.551-8.533c-16.507,0-28.746,12.239-28.746,28.746s12.239,28.747,28.746,28.747C540.854,420.813,553.205,408.46,553.205,392.066Z" transform="translate(-444.962 -254.5)"/><path d="M556.455,392.066c0,16.394,12.129,28.747,28.747,28.747s28.746-12.353,28.746-28.747S601.823,363.32,585.2,363.32,556.455,375.671,556.455,392.066Zm44.917,0c0,9.77-6.512,16.844-16.17,16.844s-16.169-7.074-16.169-16.844,6.514-16.843,16.169-16.843S601.372,382.3,601.372,392.066Z" transform="translate(-444.962 -254.5)"/><path d="M680.2,363.32c-8.085,0-12.689,3.256-16.956,7.747-3.032-4.94-7.86-7.747-14.71-7.747a18.092,18.092,0,0,0-14.6,7.073v-6.4H621.581v56.146h12.351V386.451c0-7.3,4.268-11.453,9.994-11.453,6.515,0,10,4.155,10,11.453v33.688h12.352V386.451c0-7.3,4.267-11.453,9.993-11.453,6.625,0,9.994,4.155,9.994,11.453v33.688h12.354V383.307C698.614,369.5,691.651,363.32,680.2,363.32Z" transform="translate(-444.962 -254.5)"/><path d="M733.079,420.813c12.689,0,23.581-6.85,27.4-17.068h-14.71c-2.359,3.593-6.961,5.389-12.689,5.389a16.009,16.009,0,0,1-15.834-12.8h43.682a26.337,26.337,0,0,0,.337-4.267,28.523,28.523,0,1,0-28.185,28.747Zm-.337-46.04c7.074,0,13.137,4.716,14.934,10.556H717.807C719.6,379.489,725.667,374.773,732.742,374.773Z" transform="translate(-444.962 -254.5)"/><path d="M765.19,392.066c0,17.518,11.117,28.747,27.848,28.747a23.3,23.3,0,0,0,16.5-6.513v5.839H821.9V340.187l-12.354,1.348v28.3c-3.48-3.818-9.542-6.512-16.5-6.512C776.307,363.32,765.19,374.549,765.19,392.066Zm44.579,0c0,9.657-6.4,16.844-16.171,16.844s-16.281-7.187-16.281-16.844,6.513-16.843,16.281-16.843S809.769,382.409,809.769,392.066Z" transform="translate(-444.962 -254.5)"/><polygon points="406.461 142.17 392.537 109.493 379.737 109.493 400.286 155.757 400.286 179.82 389.507 189.723 389.507 258.327 401.859 258.327 401.859 193.614 412.638 183.712 412.638 155.757 433.187 109.493 420.385 109.493 406.461 142.17"/><path d="M560.278,456.681H542.31v-7.748c0-2.246,1.35-3.706,3.369-3.706a3.617,3.617,0,0,1,3.258,1.685l8.31-8.2c-2.921-3.594-7.075-5.166-12.128-5.166-7.862,0-15.16,4.267-15.16,14.6v8.534H518.617v11.678h11.342v44.468H542.31V468.359h17.968Z" transform="translate(-444.962 -254.5)"/><path d="M588.01,456.007a28.747,28.747,0,0,0,.338,57.493c12.689,0,23.581-6.849,27.4-17.067H601.037c-2.359,3.592-6.963,5.389-12.689,5.389a16.008,16.008,0,0,1-15.834-12.8H616.2a26.343,26.343,0,0,0,.335-4.268A28.468,28.468,0,0,0,588.01,456.007Zm-14.934,22.009c1.8-5.839,7.86-10.555,14.934-10.555s13.138,4.716,14.935,10.555Z" transform="translate(-444.962 -254.5)"/><path d="M647.072,478.578c-6.064-2.246-12.352-2.134-12.352-7.074a4.359,4.359,0,0,1,4.491-4.492,5.364,5.364,0,0,1,4.94,3.7l7.636-7.523a15.679,15.679,0,0,0-28.859,8.31c0,9.095,6.064,13.475,11.679,15.046,5.5,1.572,11,2.021,11,8.309,0,4.493-2.92,6.963-7.187,6.963a7.351,7.351,0,0,1-7.411-7.523h-11.79c0,10.668,7.636,19.2,19.2,19.2,11.341,0,19.539-7.636,19.539-18.864C657.964,485.091,652.8,480.711,647.072,478.578Z" transform="translate(-444.962 -254.5)"/><polygon points="234.444 178.375 222.094 179.723 222.094 202.181 210.751 202.181 210.751 213.859 222.094 213.859 222.094 258.327 234.444 258.327 234.444 213.859 251.288 213.859 251.288 202.181 234.444 202.181 234.444 178.375"/><ellipse cx="262.74" cy="187.471" rx="8.309" ry="8.422"/><rect x="256.563" y="202.181" width="12.354" height="56.146"/><polygon points="313.268 202.181 299.793 240.809 286.318 202.181 273.067 202.181 293.729 258.327 305.857 258.327 326.517 202.181 313.268 202.181"/><path d="M812.126,462.52c-2.357-3.032-8.645-6.513-16.058-6.513-16.057,0-28.184,11.9-28.184,28.746S780.011,513.5,796.068,513.5c7.524,0,13.7-3.48,16.058-6.512v5.839H824.7V456.681H812.126ZM796.519,501.6a16.847,16.847,0,0,1,0-33.688c9.1,0,16.058,7.636,16.058,16.843S805.614,501.6,796.519,501.6Z" transform="translate(-444.962 -254.5)"/></svg>