<?xml version="1.0" standalone="no"?>
<!DOCTYPE svg PUBLIC "-//W3C//DTD SVG 20010904//EN"
 "http://www.w3.org/TR/2001/REC-SVG-20010904/DTD/svg10.dtd">
<svg version="1.0" xmlns="http://www.w3.org/2000/svg"
 width="1632.000000pt" height="1632.000000pt" viewBox="0 0 1632.000000 1632.000000"
 preserveAspectRatio="xMidYMid meet">
<metadata>
Created by potrace 1.11, written by Peter Selinger 2001-2013
</metadata>
<g transform="translate(0.000000,1632.000000) scale(0.100000,-0.100000)"
fill="#000000" stroke="none">
<path d="M14870 12717 c-3 -3 -40 -8 -83 -12 -43 -3 -88 -8 -100 -10 -12 -2
-49 -7 -82 -10 -71 -9 -98 -12 -105 -14 -9 -2 -5 -2669 3 -2678 5 -4 100 -8
212 -8 l203 0 1 115 c1 63 1 122 1 130 1 8 0 99 -1 201 -1 102 1 191 5 197 4
7 4 17 0 24 -9 14 -9 283 0 297 4 5 3 12 -2 15 -4 2 -7 24 -5 48 10 198 45
298 139 394 52 52 144 104 195 109 14 1 30 4 35 7 11 7 171 2 204 -5 86 -21
175 -84 216 -153 60 -101 80 -216 74 -414 0 -8 1 -51 3 -95 2 -44 -1 -86 -6
-92 -5 -7 -6 -13 -1 -13 11 0 11 -130 1 -147 -5 -7 -5 -13 0 -13 10 0 10 -211
0 -227 -5 -7 -5 -13 0 -13 10 0 10 -291 0 -307 -5 -7 -4 -13 1 -13 6 0 8 -9 5
-20 -3 -11 -1 -21 3 -21 5 -1 98 -2 207 -3 168 -1 200 1 206 14 9 18 6 1211
-3 1285 -3 28 -8 60 -11 73 -3 12 -7 32 -10 44 -33 152 -118 286 -247 393 -32
26 -171 95 -193 95 -9 0 -24 4 -33 9 -42 22 -326 39 -338 20 -3 -5 -10 -7 -15
-3 -13 8 -99 -13 -173 -43 -71 -29 -167 -91 -214 -139 -18 -19 -36 -34 -40
-34 -9 0 -7 194 2 209 4 6 4 16 0 23 -6 10 -9 266 -4 293 1 6 1 15 0 20 -1 6
-1 57 -1 115 1 58 1 119 0 135 0 17 -2 73 -2 125 -2 87 -4 95 -22 98 -12 2
-23 1 -25 -1z"/>
<path d="M11868 12694 c-2 -1 -16 -5 -31 -8 -45 -8 -67 -17 -67 -27 0 -5 -6
-9 -12 -9 -32 -1 -98 -83 -119 -145 -13 -42 -20 -143 -10 -160 3 -5 6 -15 7
-21 4 -22 34 -79 56 -104 104 -117 297 -128 403 -24 33 33 70 78 67 81 -2 3 6
29 18 59 15 38 5 146 -17 194 -35 75 -113 140 -186 156 -30 7 -105 12 -109 8z"/>
<path d="M768 11925 c-2 -2 -23 -6 -47 -10 -23 -3 -53 -10 -65 -14 -11 -5 -25
-9 -29 -9 -16 1 -143 -56 -166 -74 -13 -10 -28 -18 -32 -18 -10 0 -19 -8 -95
-80 -90 -86 -159 -195 -198 -316 -27 -84 -39 -170 -37 -267 1 -96 26 -225 44
-238 5 -3 8 -10 8 -15 -2 -15 43 -114 52 -114 4 0 5 -4 2 -10 -3 -5 -2 -10 2
-10 5 0 16 -13 26 -29 9 -15 39 -51 68 -79 l51 -50 -29 -19 c-26 -16 -74 -57
-110 -92 -8 -8 -21 -25 -30 -38 -16 -23 -14 -25 138 -173 l153 -150 14 26 c37
70 130 152 217 189 64 27 170 42 245 34 75 -8 194 -51 225 -81 11 -10 32 -29
46 -41 54 -46 140 -211 124 -238 -4 -5 -2 -9 2 -9 5 0 8 -48 7 -107 -1 -105
-8 -161 -25 -193 -4 -8 -18 -37 -30 -64 -45 -100 -187 -206 -299 -223 -53 -8
-192 -7 -235 2 -66 13 -158 66 -209 118 -46 48 -97 130 -102 166 -6 33 -25 36
-239 36 -244 1 -221 13 -192 -95 27 -101 104 -259 142 -290 8 -7 15 -16 15
-21 0 -8 87 -97 131 -134 68 -57 203 -127 294 -151 71 -20 99 -25 150 -31 172
-19 325 -4 465 46 213 75 394 236 483 431 62 133 81 229 81 395 0 102 -5 153
-21 215 -9 36 -10 40 -13 43 -1 1 -3 10 -5 20 -6 30 -78 177 -87 177 -4 0 -8
5 -8 11 0 23 -108 144 -190 211 l-33 27 41 41 c114 112 192 269 206 415 4 33
7 240 8 460 l1 400 -204 1 c-159 0 -207 -3 -217 -13 -10 -10 -11 -17 -4 -26 7
-8 7 -18 2 -27 -8 -13 -13 -12 -39 3 -50 30 -160 67 -215 73 -62 7 -233 14
-238 9z m226 -409 c86 -20 187 -103 225 -186 60 -132 44 -330 -34 -414 -13
-14 -22 -26 -19 -26 3 0 -7 -11 -23 -24 -149 -126 -390 -119 -520 14 -32 33
-81 118 -87 153 -3 12 -5 22 -6 22 -4 0 -10 61 -10 90 3 114 37 209 102 274
54 55 98 78 203 106 16 4 137 -2 169 -9z"/>
<path d="M2827 11924 c-1 -1 -18 -5 -37 -8 -59 -10 -73 -13 -120 -32 -47 -18
-170 -94 -170 -105 0 -4 -13 -21 -30 -39 l-29 -31 -3 98 -3 98 -207 0 c-115 1
-208 -2 -209 -5 -5 -34 -2 -1895 3 -1903 5 -8 70 -12 213 -12 l205 0 0 525 c1
597 2 630 19 685 39 122 128 236 216 274 88 39 106 44 177 45 27 1 48 4 48 7
0 4 8 6 17 5 16 -1 18 15 18 199 l0 200 -53 1 c-29 0 -53 -1 -55 -2z"/>
<path d="M3808 11924 c-2 -1 -26 -6 -53 -9 -28 -4 -54 -9 -58 -12 -5 -3 -23
-7 -40 -10 -18 -3 -39 -9 -48 -14 -9 -4 -19 -5 -23 -2 -3 3 -6 1 -6 -5 0 -7
-8 -12 -17 -12 -20 0 -174 -82 -225 -119 -49 -37 -206 -199 -213 -222 -4 -10
-11 -19 -16 -19 -5 0 -9 -5 -9 -12 0 -6 -11 -26 -26 -45 -14 -18 -22 -33 -18
-33 3 0 0 -10 -8 -22 -17 -27 -53 -117 -68 -173 -33 -120 -45 -324 -25 -425 4
-19 9 -42 10 -50 15 -95 75 -240 141 -340 46 -69 60 -86 109 -136 120 -122
291 -225 430 -261 117 -29 147 -33 270 -36 91 -3 233 11 283 27 11 4 29 9 39
11 82 18 282 112 320 151 8 8 18 14 22 14 9 0 122 109 161 155 29 35 60 82 61
92 0 5 7 15 14 23 14 16 45 83 45 98 0 4 -111 8 -247 7 l-248 -1 -50 -50 c-81
-80 -198 -123 -350 -129 -168 -7 -322 52 -435 166 -46 46 -112 156 -124 204
-4 17 -9 39 -13 49 -4 15 -1 18 16 13 11 -3 21 -2 21 2 0 8 47 7 56 -2 3 -3
17 -2 30 3 13 5 25 6 28 2 5 -9 82 -6 98 4 6 4 8 3 5 -3 -4 -7 7 -8 33 -3 22
4 42 5 45 2 8 -8 65 -8 65 0 0 4 10 4 23 -1 12 -5 31 -5 42 -1 11 4 24 5 29 2
14 -8 66 -8 66 0 0 4 11 3 25 -2 16 -6 34 -6 50 0 14 5 25 6 25 1 0 -5 16 -5
35 -1 19 4 37 4 40 -1 3 -4 17 -4 30 1 13 5 26 6 29 2 5 -9 82 -6 98 4 6 4 8
3 5 -3 -4 -7 7 -8 33 -3 22 4 42 5 45 2 8 -8 65 -8 65 0 0 4 10 4 23 -1 12 -5
31 -5 42 -1 11 4 24 5 29 2 14 -8 66 -8 66 0 0 4 11 3 25 -2 16 -6 34 -6 50 0
14 5 25 6 25 1 0 -5 16 -5 35 -1 19 4 37 4 40 -1 3 -4 17 -4 30 1 13 5 27 6
29 1 6 -9 56 -2 57 8 0 3 2 15 5 26 6 31 5 195 -2 245 -16 121 -94 341 -128
362 -6 4 -8 8 -3 8 13 0 -25 54 -102 144 -50 58 -83 90 -131 126 -18 14 -38
30 -44 35 -61 54 -279 143 -391 160 -52 8 -271 15 -277 9z m270 -414 c37 -12
90 -35 118 -51 68 -39 163 -135 193 -196 12 -26 27 -56 32 -65 7 -14 5 -18 -8
-19 -68 -4 -987 -3 -993 1 -5 3 -1 21 7 40 9 19 17 37 17 40 8 32 156 190 179
190 6 0 18 6 26 14 22 19 119 53 172 61 24 4 45 8 47 9 10 11 154 -6 210 -24z"/>
<path d="M5868 11925 c-2 -2 -21 -6 -43 -9 -47 -8 -152 -34 -180 -45 -33 -13
-179 -85 -190 -93 -5 -5 -39 -30 -75 -57 -75 -56 -145 -129 -195 -203 -19 -29
-39 -58 -44 -64 -10 -12 -56 -111 -77 -164 -12 -32 -29 -91 -41 -145 -16 -76
-22 -251 -10 -330 16 -102 21 -128 28 -140 4 -5 10 -23 14 -40 69 -257 316
-513 589 -612 143 -51 365 -73 511 -49 22 4 54 9 70 12 102 17 274 89 383 161
67 45 167 142 218 213 41 56 94 155 94 175 0 8 -70 11 -247 10 l-248 -1 -50
-50 c-46 -45 -117 -88 -169 -101 -130 -33 -266 -36 -371 -8 -47 13 -131 53
-145 70 -7 8 -18 15 -24 15 -6 0 -36 24 -66 54 -60 59 -123 166 -138 233 -9
39 -8 41 14 46 13 2 21 1 19 -3 -3 -4 11 -4 30 0 19 4 37 4 40 -1 3 -4 17 -4
30 1 13 5 26 6 29 2 5 -9 82 -6 98 4 6 4 9 3 5 -2 -4 -7 84 -10 103 -3 3 1 9
0 15 -1 22 -4 133 -2 141 2 5 3 18 2 28 -1 11 -4 39 -4 62 -1 24 4 46 5 49 2
8 -8 65 -8 65 0 0 4 11 3 25 -2 16 -6 34 -6 50 0 14 5 25 6 25 1 0 -5 16 -5
35 -1 19 4 37 4 40 -1 3 -4 17 -4 30 1 13 5 26 6 29 2 5 -9 82 -6 98 4 6 4 8
3 5 -3 -4 -7 7 -8 33 -3 22 4 42 5 45 2 8 -9 65 -8 65 1 0 5 5 5 10 2 14 -9
98 -11 106 -3 3 4 12 4 20 1 17 -6 134 -9 135 -3 21 83 11 287 -20 400 -21 75
-69 199 -84 219 -12 15 -32 48 -43 71 -4 8 -10 17 -13 20 -4 3 -19 23 -36 45
-39 53 -144 155 -197 191 -24 16 -45 32 -48 35 -3 4 -15 9 -27 13 -13 4 -23
12 -23 17 0 5 -5 9 -12 9 -6 0 -36 12 -66 26 -29 14 -61 27 -71 29 -9 2 -41
11 -71 19 -30 8 -71 18 -90 21 -35 7 -267 15 -272 10z m276 -417 c112 -35 219
-113 283 -208 35 -51 66 -119 55 -121 -28 -5 -996 -3 -1003 2 -5 3 5 34 23 70
43 87 133 174 228 222 77 38 96 45 165 54 22 3 42 7 44 9 10 9 143 -9 205 -28z"/>
<path d="M7990 11914 c-35 -8 -81 -20 -101 -28 -20 -8 -39 -12 -43 -9 -3 4 -6
1 -6 -5 0 -7 -5 -12 -10 -12 -21 0 -116 -67 -168 -118 l-53 -52 1 73 c1 39 1
88 1 107 l-1 36 -210 0 -210 0 0 -60 c-4 -464 0 -1849 5 -1854 7 -8 393 -9
405 -2 5 3 10 260 10 578 2 467 4 582 16 628 60 227 202 337 422 329 104 -3
131 -9 199 -40 66 -30 118 -85 153 -160 49 -107 49 -113 50 -792 1 -408 4
-542 13 -545 10 -3 354 -3 397 1 13 1 15 77 13 628 -1 346 -4 644 -6 663 -27
205 -95 357 -211 476 -26 25 -152 104 -168 104 -10 0 -18 5 -18 10 0 6 -3 9
-7 8 -5 -1 -28 5 -53 12 -25 8 -52 15 -60 16 -8 1 -28 5 -45 9 -58 14 -249 13
-315 -1z"/>
<path d="M13143 11914 c-251 -42 -481 -181 -621 -375 -42 -58 -120 -206 -125
-236 -1 -10 -5 -22 -8 -28 -5 -9 -18 -56 -35 -130 -23 -101 -22 -269 1 -397 3
-16 8 -43 11 -60 7 -40 84 -238 93 -238 3 0 12 -13 19 -28 6 -16 21 -38 32
-50 11 -12 20 -25 20 -31 0 -15 135 -147 193 -188 141 -102 262 -149 452 -180
61 -10 253 -6 320 6 33 6 72 13 87 16 15 3 47 14 72 25 25 10 46 18 46 16 0
-8 126 60 180 96 71 47 174 147 228 221 55 74 134 233 147 297 1 3 9 39 19 80
9 41 18 107 19 145 l2 70 -210 0 -210 0 -1 -30 c-1 -28 -14 -118 -20 -140 -2
-5 -5 -19 -8 -31 -7 -33 -68 -154 -78 -154 -4 0 -8 -5 -8 -12 0 -31 -167 -162
-220 -173 -8 -2 -28 -9 -45 -16 -72 -29 -223 -32 -342 -5 -104 23 -243 127
-297 223 -66 117 -90 211 -88 353 2 213 104 404 262 494 30 17 57 31 60 32 3
0 17 6 31 12 15 6 47 14 70 18 53 9 215 10 247 1 12 -4 31 -9 43 -12 41 -9
130 -60 179 -103 l50 -44 33 29 c40 35 93 82 161 144 28 25 66 60 85 77 l34
30 -38 34 c-21 18 -43 38 -49 43 -19 19 -103 74 -157 104 -67 36 -181 77 -263
92 -83 17 -285 18 -373 3z"/>
<path d="M8926 11900 c-3 -4 20 -65 69 -185 4 -11 9 -24 11 -30 1 -5 17 -44
34 -85 17 -41 33 -79 34 -85 2 -5 8 -21 13 -35 6 -14 23 -56 38 -95 15 -38 31
-79 36 -90 42 -100 129 -329 129 -341 0 -8 5 -14 10 -14 6 0 10 -6 10 -12 0
-11 64 -184 91 -243 8 -19 30 -73 34 -85 1 -3 5 -14 10 -25 4 -11 20 -51 35
-90 15 -38 31 -79 35 -90 5 -11 9 -22 10 -25 4 -11 25 -64 92 -230 21 -52 39
-98 39 -102 1 -5 3 -10 4 -13 1 -3 3 -8 4 -12 5 -25 25 -28 198 -27 100 1 188
2 194 3 6 0 15 16 19 34 4 17 9 34 10 37 13 35 60 174 64 192 1 7 61 175 77
218 3 8 43 -98 89 -235 l83 -250 179 0 c98 0 185 1 194 3 10 2 26 29 39 65 12
34 28 76 35 92 32 76 78 191 79 200 2 6 10 28 20 50 10 22 19 45 20 50 1 6 10
28 20 49 9 22 19 50 22 63 4 13 10 26 15 29 5 3 9 12 9 20 0 8 8 34 19 57 10
23 36 87 57 142 21 55 41 102 44 105 3 3 6 12 8 20 3 16 55 153 78 205 20 46
158 399 160 410 1 6 13 35 27 65 13 30 25 57 25 60 1 7 13 38 55 143 20 48 35
88 34 88 -1 1 -97 2 -214 3 l-212 2 -10 -25 c-27 -69 -34 -87 -37 -96 -1 -5
-8 -23 -15 -40 -7 -16 -13 -32 -14 -35 -1 -3 -6 -20 -10 -37 -4 -18 -11 -33
-15 -33 -3 0 -7 -6 -7 -12 0 -12 -74 -216 -141 -393 -15 -38 -27 -74 -27 -80
0 -5 -3 -13 -8 -16 -4 -3 -9 -14 -11 -25 -2 -11 -18 -55 -34 -99 -75 -198
-134 -361 -137 -376 -2 -9 -8 -25 -13 -35 -6 -11 -14 -30 -20 -44 -9 -25 -9
-25 -26 14 -9 22 -14 41 -11 44 2 2 -1 14 -7 26 -7 11 -13 23 -14 26 0 3 -3
12 -7 20 -10 26 -87 261 -97 300 -9 33 -4 52 40 171 28 74 53 141 57 149 3 8
7 20 9 25 6 23 29 80 34 85 3 3 6 10 7 15 2 13 60 173 72 200 9 19 101 265
101 269 0 1 -93 2 -207 2 l-206 -1 -18 -52 c-9 -28 -15 -54 -11 -57 3 -3 0 -6
-6 -6 -7 0 -11 -3 -11 -7 1 -5 0 -10 -1 -13 -1 -3 -3 -13 -5 -22 -3 -17 -51
-169 -62 -198 -4 -8 -5 -19 -4 -23 1 -5 -3 -6 -8 -2 -6 3 -22 45 -37 93 -14
48 -41 132 -60 187 l-33 100 -205 1 c-113 0 -206 -1 -206 -3 0 -4 42 -116 102
-273 22 -58 41 -109 43 -115 1 -5 8 -23 15 -40 7 -16 14 -32 14 -35 1 -3 6
-18 13 -35 6 -16 25 -68 43 -115 17 -47 35 -94 40 -105 7 -16 18 -47 25 -75 1
-3 9 -22 19 -43 16 -36 15 -68 -4 -112 -8 -19 -83 -245 -85 -255 0 -3 -14 -43
-30 -90 -18 -53 -31 -78 -33 -65 -2 11 -8 25 -12 30 -4 6 -13 26 -18 45 -6 19
-27 78 -47 130 -20 52 -38 102 -40 110 -2 8 -17 49 -33 90 -16 41 -39 104 -51
140 -22 63 -27 79 -49 130 -5 14 -15 41 -22 60 -7 19 -16 44 -21 55 -5 11 -22
61 -39 110 -17 50 -35 99 -40 110 -5 11 -19 47 -30 80 -12 33 -27 76 -35 95
-7 19 -25 67 -39 105 l-26 71 -211 0 c-116 0 -212 -3 -213 -6z"/>
<path d="M11696 11900 c-1 -3 -2 -435 -2 -960 l1 -954 208 -1 c114 0 208 2
208 5 4 13 6 1896 2 1906 -4 11 -412 15 -417 4z"/>
<path d="M12757 9673 c-2 -1 -30 -5 -62 -8 -33 -3 -76 -7 -95 -10 -42 -5 -160
-17 -177 -18 -8 0 -13 -15 -14 -36 0 -20 0 -238 0 -484 l0 -448 -37 33 c-33
30 -152 108 -165 108 -2 0 -22 8 -43 17 -22 9 -41 17 -44 18 -3 1 -23 6 -45
13 -149 41 -373 36 -539 -12 -31 -9 -58 -16 -61 -16 -12 1 -164 -81 -206 -112
-89 -64 -209 -188 -209 -216 0 -7 -3 -12 -8 -12 -9 0 -72 -121 -72 -139 0 -6
-5 -11 -12 -11 -6 0 -9 -3 -5 -6 3 -4 0 -23 -8 -43 -13 -33 -34 -104 -42 -141
-23 -110 -23 -382 0 -485 30 -129 42 -162 101 -283 28 -56 94 -145 153 -205
40 -41 192 -150 212 -153 3 0 27 -10 53 -22 72 -32 150 -53 258 -69 63 -9 237
-8 285 1 22 4 51 10 65 12 14 3 33 6 43 7 9 1 17 5 17 9 0 4 3 7 8 6 29 -6
184 79 270 148 l32 27 -1 -69 c0 -38 -1 -82 0 -99 l1 -30 207 0 208 1 0 1364
0 1365 -33 0 c-18 1 -34 0 -35 -2z m-757 -1205 c61 -16 142 -52 184 -82 60
-41 164 -164 170 -199 1 -7 7 -21 13 -32 11 -19 30 -83 40 -135 11 -52 5 -207
-10 -265 -8 -33 -17 -67 -19 -75 -1 -8 -5 -17 -8 -20 -3 -3 -17 -30 -33 -61
-23 -46 -116 -159 -131 -159 -3 0 -24 -13 -48 -29 -113 -75 -297 -99 -453 -59
-44 11 -82 23 -85 27 -3 3 -23 15 -45 26 -22 11 -69 49 -106 85 -149 148 -201
385 -134 610 27 89 93 195 150 241 11 9 31 26 44 38 13 12 30 21 38 21 7 0 13
4 13 9 0 8 35 22 44 18 1 -1 10 4 18 10 29 25 131 41 238 38 58 -2 112 -5 120
-7z"/>
<path d="M2588 8885 c-2 -2 -24 -5 -49 -8 -26 -3 -67 -11 -90 -17 -24 -7 -53
-14 -64 -16 -60 -12 -315 -145 -327 -172 -2 -4 -21 -22 -43 -41 -34 -30 -52
-50 -120 -133 -7 -9 -19 -27 -26 -40 -6 -13 -15 -25 -18 -28 -8 -6 -51 -95
-75 -154 -18 -42 -43 -135 -52 -188 -13 -78 -13 -286 0 -353 8 -38 14 -71 15
-72 2 -5 2 -7 7 -32 11 -59 79 -222 97 -229 4 -2 7 -9 7 -16 0 -38 175 -226
270 -290 131 -88 236 -129 410 -161 64 -12 242 -12 314 1 119 20 186 36 186
45 0 5 9 9 20 9 25 0 181 81 234 122 60 46 176 166 212 218 65 93 136 258 150
348 3 20 8 40 10 44 2 4 7 46 10 95 l7 88 -212 0 c-181 0 -211 -2 -211 -15 -2
-45 -15 -145 -20 -145 -1 0 -6 -18 -13 -47 -12 -56 -78 -168 -129 -219 -36
-35 -112 -89 -127 -89 -6 0 -11 -4 -11 -9 0 -5 -15 -13 -32 -16 -18 -4 -37
-10 -43 -13 -12 -8 -15 -8 -84 -20 -64 -11 -236 -5 -236 8 0 1 -12 3 -27 5
-53 7 -162 70 -219 126 -107 106 -158 230 -164 394 -5 136 8 213 51 312 8 17
14 36 14 42 0 6 4 11 9 11 5 0 13 10 16 21 4 12 35 49 69 83 65 65 156 117
241 137 68 17 199 20 260 7 94 -20 200 -78 257 -142 18 -19 23 -18 64 19 6 6
47 42 90 80 43 39 96 87 117 108 20 20 37 34 37 30 0 -5 5 0 11 10 9 16 4 25
-32 58 -53 47 -52 47 -111 87 -47 32 -171 95 -205 104 -10 3 -21 6 -25 7 -112
34 -170 43 -300 46 -65 1 -119 1 -120 0z"/>
<path d="M4615 8879 c-22 -4 -53 -10 -70 -12 -66 -13 -88 -18 -138 -38 -84
-33 -191 -88 -222 -115 -15 -13 -32 -24 -36 -24 -14 0 -178 -170 -184 -191 -4
-10 -10 -19 -14 -19 -18 0 -126 -233 -132 -285 -1 -5 -6 -21 -11 -35 -9 -23
-14 -49 -20 -117 -1 -13 -5 -23 -8 -23 -10 0 0 -244 14 -317 10 -47 40 -150
52 -174 7 -15 10 -29 7 -33 -4 -3 -2 -6 4 -6 5 0 16 -18 23 -40 7 -22 17 -40
22 -40 4 0 8 -5 8 -11 0 -19 84 -131 147 -194 110 -112 248 -193 406 -239 196
-57 376 -54 631 9 11 2 53 21 94 40 202 96 343 231 446 428 25 48 45 90 45 92
0 3 9 37 21 75 12 38 23 83 25 100 2 17 7 49 10 72 9 56 9 196 0 250 -4 23 -8
54 -11 68 -2 14 -8 40 -13 58 -5 17 -8 32 -6 32 3 0 -4 20 -15 45 -11 25 -17
45 -15 45 10 0 -90 179 -128 230 -110 145 -262 256 -452 326 -25 9 -31 11
-140 35 -60 13 -283 19 -340 8z m282 -414 c62 -15 150 -51 168 -69 6 -6 27
-22 46 -35 77 -53 159 -189 185 -306 15 -73 16 -221 0 -285 -9 -36 -18 -74
-21 -85 -12 -50 -66 -135 -125 -196 -131 -133 -340 -191 -522 -143 -27 7 -48
10 -48 8 0 -2 -31 12 -70 31 -99 50 -188 137 -233 227 -42 86 -48 106 -64 198
-8 53 -3 225 7 225 1 0 3 9 5 20 8 51 17 75 50 140 94 183 260 281 477 283 48
0 114 -6 145 -13z"/>
<path d="M6818 8884 c-2 -1 -23 -5 -48 -9 -24 -4 -48 -9 -52 -11 -4 -3 -16 -7
-25 -9 -74 -14 -196 -94 -266 -172 -12 -13 -23 -23 -26 -23 -3 0 -6 46 -6 102
l0 103 -210 0 -210 0 0 -960 0 -960 208 0 c130 0 208 4 208 10 1 6 3 273 4
595 2 539 7 668 23 695 4 6 7 15 8 21 5 30 40 88 76 125 100 103 275 126 415
54 68 -34 134 -129 148 -210 6 -34 17 -247 16 -295 0 -8 -1 -44 0 -80 0 -36 0
-72 0 -80 -1 -8 -1 -44 0 -80 0 -36 0 -72 0 -80 -1 -8 -1 -44 0 -80 0 -36 0
-72 0 -80 -1 -8 0 -51 0 -95 1 -44 1 -87 0 -95 -1 -8 -1 -31 0 -50 1 -19 1
-42 0 -50 -2 -38 0 -124 4 -129 2 -4 0 -13 -4 -20 -5 -7 -5 -27 -2 -44 l7 -32
207 0 c131 0 207 4 208 10 0 6 2 285 3 620 2 336 6 624 10 640 20 87 81 179
145 219 107 68 272 70 377 5 55 -33 120 -126 130 -184 1 -5 6 -26 10 -45 4
-19 8 -309 8 -645 1 -482 4 -611 14 -615 10 -4 378 -5 404 -1 8 1 4 1378 -4
1426 -17 100 -48 188 -99 275 -49 85 -185 180 -299 210 -25 6 -59 15 -77 19
-35 9 -261 6 -307 -4 -62 -13 -153 -48 -206 -78 -56 -32 -78 -49 -163 -127
l-50 -45 -15 24 c-62 93 -181 183 -272 207 -8 2 -33 8 -55 14 -35 10 -230 22
-237 14z"/>
<path d="M9650 8876 c0 -5 -3 -7 -6 -4 -3 3 -31 0 -62 -8 -31 -8 -67 -17 -78
-19 -12 -3 -39 -13 -60 -22 -22 -9 -41 -17 -44 -18 -28 -6 -193 -108 -230
-142 -158 -146 -251 -287 -303 -463 -33 -110 -40 -162 -41 -290 -1 -98 5 -159
19 -220 3 -14 8 -35 10 -46 8 -35 55 -157 71 -181 8 -13 12 -23 9 -23 -3 0 -1
-6 5 -12 5 -7 29 -42 52 -77 49 -75 151 -182 228 -239 54 -40 227 -132 248
-132 6 0 23 -5 39 -12 15 -6 31 -11 34 -10 4 1 22 -3 40 -9 130 -38 398 -29
539 18 25 8 50 16 55 17 76 19 240 108 310 167 74 63 155 152 155 169 0 6 4
10 9 10 9 0 91 151 91 167 0 6 -104 9 -247 9 l-248 -1 -53 -52 c-29 -29 -63
-55 -75 -59 -12 -4 -24 -10 -27 -13 -7 -9 -112 -42 -158 -49 -21 -3 -78 -6
-127 -6 -171 0 -329 77 -439 214 -25 31 -75 123 -79 146 -2 11 -7 27 -11 36
-4 9 -5 21 -2 27 4 6 269 10 742 10 405 0 739 3 743 6 8 9 7 262 -2 305 -4 19
-9 47 -12 61 -11 57 -46 151 -84 228 -43 86 -116 191 -134 191 -6 0 -7 3 -4 6
8 8 -67 80 -144 139 -49 38 -205 125 -224 125 -4 0 -21 6 -38 14 -36 16 -106
34 -157 42 -67 10 -310 10 -310 0z m261 -392 c5 -3 21 -7 35 -10 36 -7 111
-42 163 -77 72 -49 132 -120 180 -214 l21 -43 -22 -1 c-107 -6 -998 -2 -998 4
0 5 12 34 27 65 26 53 130 170 178 199 54 33 134 64 193 76 63 13 203 14 223
1z"/>
<path d="M12945 8862 c-3 -3 46 -115 129 -295 14 -32 26 -59 26 -61 0 -2 14
-34 32 -72 17 -38 32 -71 33 -74 2 -6 16 -37 56 -125 15 -33 29 -67 31 -75 2
-8 5 -17 8 -20 3 -3 34 -70 69 -150 36 -80 75 -170 89 -200 13 -30 31 -71 39
-90 9 -19 25 -55 37 -80 11 -25 21 -47 22 -50 0 -3 9 -23 19 -45 10 -22 19
-42 20 -45 2 -5 24 -56 65 -144 17 -39 22 -70 24 -148 1 -54 -2 -98 -7 -98 -4
0 -4 -8 1 -17 7 -16 9 -91 2 -118 -1 -5 -1 -12 0 -15 8 -20 3 -482 -5 -493 -5
-8 -68 -41 -140 -75 -71 -34 -137 -67 -145 -72 -8 -6 -24 -15 -35 -21 -20 -10
-20 -20 -20 -1267 0 -691 3 -1259 7 -1262 5 -4 385 -5 411 -1 4 0 7 502 7
1115 l0 1115 58 26 c31 14 66 31 77 37 11 7 47 25 80 41 33 15 76 36 95 45
l35 17 1 575 c0 474 3 579 14 600 8 14 15 27 15 30 0 3 13 31 28 62 15 31 27
59 27 62 0 2 13 33 29 68 76 165 271 609 271 618 0 6 5 10 10 10 6 0 10 6 10
13 0 8 25 69 56 138 58 129 76 170 79 179 0 3 11 24 23 46 11 23 18 44 15 48
-4 3 0 6 7 6 7 0 11 2 8 6 -3 3 7 32 23 65 16 32 29 61 29 64 0 3 13 32 29 65
16 33 26 61 23 61 -19 4 -419 5 -429 1 -7 -2 -13 -9 -13 -14 0 -6 -6 -24 -14
-41 -51 -113 -66 -149 -66 -160 0 -7 -5 -18 -12 -25 -6 -6 -13 -17 -14 -24 -2
-12 -82 -202 -118 -280 -12 -26 -106 -249 -169 -398 -6 -14 -10 -28 -9 -32 1
-5 -3 -8 -8 -8 -5 0 -9 -3 -8 -7 2 -5 -8 -33 -21 -63 -22 -50 -24 -53 -37 -35
-8 10 -14 23 -14 28 0 5 -13 38 -30 74 -16 35 -30 66 -30 69 0 2 -10 26 -21
52 -12 26 -27 61 -34 77 -7 17 -59 138 -115 270 -56 132 -112 263 -124 290
-12 28 -39 91 -60 140 l-38 91 -215 0 c-118 -1 -216 -2 -218 -4z"/>
<path d="M7938 6475 c-1 -2 -36 -6 -76 -10 -41 -3 -81 -8 -91 -10 -10 -2 -51
-6 -92 -10 -92 -8 -93 -9 -99 -17 -3 -3 -5 -175 -5 -381 1 -330 -1 -376 -15
-379 -8 -2 -95 -3 -192 -3 l-178 2 -1 -41 c-3 -205 1 -350 9 -355 6 -3 93 -5
194 -5 l183 1 0 -758 c0 -666 2 -758 15 -761 8 -2 103 -4 210 -3 l195 0 1 308
c1 169 4 313 7 321 3 8 3 17 0 20 -4 4 -7 822 -3 866 0 3 128 6 285 5 157 0
286 2 286 5 3 13 5 376 2 386 -3 7 -95 10 -284 10 -155 -1 -283 3 -286 7 -3 5
-5 187 -5 406 l0 398 -28 1 c-16 0 -30 -1 -32 -3z"/>
<path d="M3282 6449 c-35 -4 -80 -13 -100 -20 -107 -34 -219 -119 -258 -197
-11 -20 -21 -39 -24 -42 -9 -7 -29 -82 -37 -132 -4 -24 -7 -121 -7 -215 l-1
-173 -25 -1 c-14 -1 -98 -2 -187 -3 -89 0 -165 -4 -169 -9 -4 -4 -8 -93 -8
-197 -1 -162 1 -190 14 -191 8 -1 96 -2 195 -3 l180 -1 0 -760 0 -759 210 -1
210 0 2 755 c1 415 2 758 2 761 1 3 138 5 306 5 l305 -1 1 35 c0 40 0 265 -1
326 l0 40 -297 -1 c-164 0 -303 3 -308 6 -6 5 -9 64 -8 153 2 159 12 195 61
220 36 18 113 12 129 -11 7 -9 13 -13 13 -8 0 5 6 1 13 -8 11 -15 28 -1 154
124 l142 141 -39 36 c-53 51 -60 56 -100 76 -99 50 -243 72 -368 55z"/>
<path d="M8852 6440 c-154 -52 -230 -215 -174 -374 52 -147 221 -219 372 -159
64 26 92 50 132 112 22 35 49 131 43 159 -1 9 -6 36 -10 59 -4 24 -11 45 -16
49 -5 3 -9 14 -9 25 0 11 -4 17 -10 14 -5 -3 -10 0 -10 7 0 8 -15 28 -32 45
-75 70 -190 96 -286 63z"/>
<path d="M4714 5678 c-3 -5 -9 -6 -13 -4 -12 8 -129 -22 -201 -50 -102 -40
-120 -48 -120 -57 0 -5 -4 -6 -9 -3 -5 3 -14 -1 -21 -9 -7 -8 -19 -15 -26 -15
-8 0 -14 -4 -14 -8 0 -4 -14 -16 -31 -26 -89 -53 -230 -216 -296 -342 -41 -77
-92 -229 -96 -286 -2 -25 -6 -49 -9 -54 -6 -10 -2 -246 5 -284 7 -36 26 -107
45 -165 9 -27 15 -53 14 -57 -1 -5 2 -8 7 -8 5 0 16 -18 25 -41 46 -114 220
-317 314 -368 11 -6 27 -17 34 -23 22 -21 118 -70 118 -61 0 4 4 3 8 -3 7 -10
131 -54 197 -69 84 -19 263 -25 365 -12 74 10 222 47 238 59 6 6 12 8 12 5 0
-12 178 83 235 125 112 83 205 190 257 293 51 101 73 92 -211 91 l-248 -1 -44
-46 c-59 -62 -133 -99 -254 -126 -11 -2 -59 -5 -108 -7 -163 -6 -309 49 -418
156 -67 66 -96 114 -137 225 l-19 51 33 4 c19 2 34 2 34 -2 0 -3 24 -4 52 -2
29 2 60 3 68 3 8 0 44 -1 80 0 36 0 72 0 80 -1 56 -1 180 0 187 1 4 1 13 0 18
-1 6 -1 42 -1 80 0 78 1 84 1 205 0 47 0 108 0 135 1 28 0 55 0 60 -1 6 -1 30
-1 55 -1 25 1 52 2 60 2 8 -1 44 -1 80 0 36 0 72 0 80 -1 79 -1 183 0 186 3
14 14 19 178 8 267 -12 99 -61 259 -103 332 -10 20 -25 46 -33 59 -81 144
-246 294 -408 371 -63 30 -167 69 -178 66 -9 -2 -61 11 -89 22 -15 6 -23 6
-23 -1 0 -6 -5 -7 -12 -2 -17 11 -248 12 -254 1z m261 -400 c65 -14 108 -33
169 -72 53 -34 153 -132 149 -146 -1 -4 7 -16 17 -25 11 -10 20 -23 20 -29 0
-6 7 -23 14 -38 11 -21 12 -28 3 -29 -63 -6 -1007 -2 -1007 4 0 24 59 123 101
171 135 151 327 210 534 164z"/>
<path d="M6476 5683 c-2 -2 -12 -5 -22 -7 -52 -11 -83 -21 -121 -43 -24 -13
-43 -21 -43 -18 0 9 -53 -38 -112 -99 -32 -33 -58 -65 -58 -73 0 -7 -3 -13 -8
-13 -7 0 -21 -27 -41 -83 -45 -120 -38 -305 17 -420 32 -68 110 -164 157 -192
49 -30 155 -84 155 -79 0 2 16 -2 36 -11 19 -8 38 -14 42 -13 15 2 73 -15 78
-23 3 -5 10 -7 15 -4 5 4 15 3 22 -2 6 -4 18 -8 25 -9 23 -4 86 -36 120 -61
36 -27 76 -97 68 -119 -3 -8 -2 -14 2 -14 11 0 5 -74 -8 -125 -49 -180 -338
-204 -442 -36 -13 20 -23 39 -24 44 -1 4 -2 8 -3 10 -2 1 -4 12 -6 23 -8 41
-25 75 -35 69 -12 -7 -300 -9 -307 -1 -3 2 -15 1 -27 -3 -11 -5 -26 -6 -33 -4
-9 3 -11 -12 -8 -54 1 -32 4 -58 5 -58 1 0 3 -10 6 -22 9 -49 11 -59 18 -78
79 -210 185 -320 391 -405 42 -17 115 -32 129 -27 9 4 18 3 20 -2 6 -9 175 -6
226 4 81 16 99 22 190 64 64 29 220 161 220 185 0 3 13 24 29 48 29 44 67 150
79 223 19 118 -2 287 -48 386 -31 67 -40 79 -107 145 -67 66 -176 127 -268
150 -5 2 -57 17 -115 34 -58 17 -109 32 -115 33 -18 5 -69 36 -90 54 -68 60
-47 194 35 235 86 44 179 9 235 -87 10 -16 27 -2 138 107 70 69 127 131 127
137 0 18 -122 136 -170 164 -45 26 -109 51 -159 63 -28 7 -209 13 -215 7z"/>
<path d="M11857 5684 c-2 -2 -24 -6 -50 -8 -25 -3 -66 -10 -89 -17 -24 -6 -47
-12 -53 -13 -15 -2 -73 -25 -135 -53 -174 -79 -328 -229 -420 -409 -36 -70
-74 -176 -85 -235 -3 -13 -7 -35 -10 -49 -5 -26 -18 -153 -18 -180 1 -85 17
-219 34 -280 11 -41 22 -79 23 -85 8 -31 74 -173 86 -185 3 -3 18 -25 34 -50
42 -64 141 -165 212 -216 68 -49 190 -114 214 -114 9 0 20 -4 25 -9 11 -10
119 -38 186 -48 58 -8 199 -9 271 -1 130 15 327 105 398 183 l25 27 5 -99 5
-98 208 0 c116 0 211 4 214 9 8 13 7 202 -1 215 -4 6 -4 11 1 11 9 0 8 203 -1
226 -3 8 -2 14 2 14 8 0 7 201 -1 224 -4 9 -3 16 1 16 8 0 6 204 -2 226 -3 8
-2 14 2 14 8 0 7 201 -1 224 -4 9 -3 16 1 16 8 0 6 204 -2 226 -3 8 -2 14 2
14 8 0 7 201 -1 224 -4 9 -3 16 1 16 6 0 6 59 2 230 0 14 -28 16 -212 15
l-213 0 -5 -100 c-4 -73 -8 -95 -15 -83 -20 34 -148 120 -205 139 -14 4 -44
15 -67 23 -23 9 -55 18 -70 21 -15 2 -39 8 -53 11 -26 7 -238 13 -243 8z m179
-408 c269 -20 496 -287 487 -571 -3 -114 -14 -162 -56 -255 -63 -141 -201
-260 -347 -300 -69 -19 -194 -22 -265 -5 -64 14 -164 57 -199 85 -68 53 -176
179 -172 200 1 3 -6 17 -15 30 -45 72 -67 235 -46 350 9 51 29 115 43 134 8
11 14 26 14 34 0 7 4 18 10 25 5 7 27 35 49 63 42 55 105 109 161 140 19 10
38 24 42 29 4 6 8 6 8 1 0 -5 7 -3 15 4 8 7 15 9 15 5 0 -4 6 -3 13 2 14 12
44 20 112 29 28 3 52 8 54 10 2 2 7 1 11 -1 4 -2 34 -6 66 -9z"/>
<path d="M8730 4705 l0 -961 203 2 c111 1 207 2 212 3 7 1 9 320 8 939 -1 515
-2 946 -2 958 -1 20 -6 20 -211 20 l-210 0 0 -961z"/>
<path d="M9266 5645 c6 -20 69 -196 81 -225 3 -8 7 -19 9 -25 1 -5 17 -46 34
-90 17 -44 32 -87 34 -95 1 -8 8 -26 14 -40 6 -14 30 -77 52 -140 23 -63 55
-151 72 -195 16 -44 39 -105 50 -135 11 -30 26 -71 33 -90 13 -34 22 -62 26
-78 1 -4 15 -38 31 -76 15 -38 28 -76 28 -85 0 -10 4 -21 9 -26 5 -6 16 -30
24 -55 9 -25 46 -126 82 -225 37 -99 68 -184 69 -190 3 -9 11 -30 37 -97 7
-16 14 -29 18 -29 3 -1 96 -2 207 -3 l201 -1 15 40 c25 63 31 79 34 90 2 10
52 146 79 215 7 19 26 69 40 110 15 41 35 98 46 125 43 114 131 351 133 360 2
6 8 21 13 35 6 14 42 113 81 220 39 107 89 245 112 305 23 61 43 115 44 120 2
6 7 19 11 30 4 11 21 56 37 100 16 44 36 96 45 117 8 20 13 40 10 45 -3 5
-102 8 -219 8 -248 -2 -234 -1 -235 -17 -1 -7 -15 -51 -32 -98 -18 -47 -32
-87 -33 -90 -2 -14 -45 -135 -71 -205 -6 -16 -12 -34 -13 -40 -1 -5 -11 -35
-22 -65 -11 -30 -39 -107 -60 -170 -22 -63 -70 -200 -107 -305 -37 -104 -68
-197 -70 -207 -2 -9 -11 -30 -19 -47 -9 -16 -16 -40 -16 -53 0 -13 -4 -18 -9
-12 -9 9 -90 234 -97 269 -2 11 -8 29 -13 40 -11 23 -71 192 -76 215 -2 8 -9
29 -15 45 -13 32 -125 353 -130 370 -1 6 -6 19 -10 30 -4 11 -24 67 -44 125
-21 58 -40 112 -43 120 -3 8 -7 21 -9 29 -1 7 -8 26 -14 40 l-11 27 -224 0
c-222 0 -225 0 -219 -21z"/>
</g>
</svg>
