<?xml version="1.0" standalone="no"?>
<!DOCTYPE svg PUBLIC "-//W3C//DTD SVG 20010904//EN"
 "http://www.w3.org/TR/2001/REC-SVG-20010904/DTD/svg10.dtd">
<svg version="1.0" xmlns="http://www.w3.org/2000/svg"
 width="700.000000pt" height="700.000000pt" viewBox="0 0 700.000000 700.000000"
 preserveAspectRatio="xMidYMid meet">
<metadata>
Created by potrace 1.11, written by Peter Selinger 2001-2013
</metadata>
<g transform="translate(0.000000,700.000000) scale(0.100000,-0.100000)"
fill="#000000" stroke="none">
<path d="M1559 5416 c-2 -2 -33 -7 -69 -10 -36 -4 -74 -9 -85 -11 -11 -2 -22
-4 -25 -4 -3 -1 -5 -262 -5 -581 l0 -580 102 0 103 0 0 30 c0 17 2 30 5 30 2
0 21 -10 42 -21 55 -31 89 -40 165 -44 197 -11 342 89 408 279 28 82 24 226
-9 319 -29 78 -101 166 -165 200 -130 68 -294 71 -403 7 -19 -11 -36 -20 -39
-20 -2 0 -4 90 -4 199 0 174 -5 222 -21 207z m341 -561 c79 -41 114 -103 114
-205 1 -64 -3 -82 -27 -122 -71 -121 -244 -144 -343 -44 -60 59 -80 153 -53
250 13 47 81 117 129 133 47 16 138 10 180 -12z"/>
<path d="M4089 5415 c-3 -2 -38 -7 -79 -10 -116 -9 -106 7 -106 -173 l0 -157
-82 -3 -82 -3 0 -98 0 -98 76 1 c58 1 78 -2 83 -14 4 -8 6 -153 6 -322 l-1
-308 103 0 103 0 2 322 3 323 110 0 c61 0 115 3 120 7 9 5 10 37 6 156 l-1 32
-120 0 -120 0 0 169 c0 148 -5 192 -21 176z"/>
<path d="M5495 5409 c-63 -8 -108 -15 -126 -18 -4 0 -6 -261 -6 -578 l0 -578
61 -5 61 -5 -62 -30 -62 -30 0 -140 c0 -77 0 -147 0 -156 -1 -13 -12 -10 -63
15 -102 50 -259 47 -368 -9 -86 -44 -166 -146 -192 -245 -14 -52 -18 -178 -7
-235 37 -203 192 -328 406 -327 73 0 91 4 153 34 l70 34 0 -32 0 -31 104 1
103 0 1 1173 c1 645 0 1172 -1 1172 -1 -1 -33 -6 -72 -10z m-252 -1708 c66
-26 120 -117 121 -201 0 -104 -69 -208 -150 -225 -161 -34 -283 52 -289 205
-7 182 147 290 318 221z"/>
<path d="M2925 5402 c-55 -12 -105 -74 -105 -132 0 -74 54 -131 124 -132 81
-2 136 53 136 136 0 36 -6 52 -30 79 -30 35 -86 57 -125 49z"/>
<path d="M2643 5065 c-23 -7 -55 -22 -72 -34 l-31 -22 0 30 0 31 -103 0 -102
0 1 -412 c1 -227 2 -416 3 -420 1 -5 46 -8 101 -8 l100 0 0 38 c1 20 2 138 3
262 2 207 4 228 23 260 27 47 76 78 135 86 l49 7 0 98 0 98 -33 -1 c-18 -1
-52 -7 -74 -13z"/>
<path d="M3369 5067 c-95 -35 -149 -105 -157 -202 -11 -140 50 -216 213 -265
84 -26 108 -47 107 -91 -2 -64 -28 -89 -95 -89 -35 0 -87 49 -87 82 0 23 -2
23 -97 23 l-98 0 2 -44 c4 -57 44 -143 85 -182 58 -53 113 -73 203 -73 125 0
215 51 265 151 20 39 25 63 25 133 0 75 -3 90 -28 132 -35 60 -82 92 -180 123
-102 33 -114 39 -119 69 -9 47 52 75 86 40 9 -8 16 -20 16 -25 0 -5 6 -9 13
-9 15 0 127 111 127 127 0 14 -61 68 -100 88 -43 22 -137 28 -181 12z"/>
<path d="M4690 5063 c-186 -47 -306 -196 -314 -388 -10 -204 103 -373 289
-432 103 -33 257 -19 348 32 131 74 205 197 213 351 6 133 -33 241 -119 327
-107 106 -267 149 -417 110z m182 -195 c124 -37 184 -195 124 -324 -48 -104
-169 -151 -278 -107 -55 22 -74 38 -106 93 -22 37 -27 56 -27 120 0 68 4 82
30 126 51 84 158 122 257 92z"/>
<path d="M2850 4980 c-1 -49 -1 -146 -1 -215 0 -69 0 -217 1 -330 l0 -205 99
0 c70 0 100 4 103 13 2 6 3 194 3 417 l-1 405 -102 3 -102 3 0 -91z"/>
<path d="M3378 3925 c-2 -2 -23 -6 -47 -9 -52 -7 -117 -36 -157 -71 l-29 -25
-35 34 c-82 79 -241 88 -337 19 -17 -13 -34 -23 -37 -23 -2 0 -6 14 -8 32 l-3
32 -97 0 -98 1 -1 -35 c-1 -44 -1 -745 0 -781 l1 -27 101 2 101 1 0 271 c1
227 3 276 17 304 31 64 97 91 165 67 73 -25 78 -51 81 -362 2 -148 3 -273 4
-276 1 -8 187 -6 195 2 4 3 6 125 7 271 0 291 3 309 62 352 34 25 105 26 141
2 55 -36 59 -56 60 -356 l1 -275 103 -1 103 0 -2 309 c-1 281 -3 316 -21 369
-23 67 -80 131 -134 148 -33 11 -132 29 -136 25z"/>
<path d="M4199 3926 c-2 -2 -24 -6 -49 -9 -167 -21 -310 -146 -353 -310 -44
-166 18 -353 151 -454 24 -18 38 -33 30 -34 -25 -1 -73 -10 -77 -14 -2 -3 -4
-89 -4 -193 l0 -190 -31 19 c-57 34 -120 50 -191 51 -250 2 -414 -164 -417
-424 -3 -261 175 -439 429 -426 75 3 86 7 206 66 5 2 8 -2 6 -9 -7 -53 -5 -54
96 -53 52 0 98 3 101 7 4 4 7 258 7 565 l0 558 49 -6 c50 -7 65 -6 153 5 114
14 239 101 294 204 l32 60 -120 0 c-116 -1 -120 -1 -150 -28 -40 -36 -90 -51
-160 -47 -59 3 -99 19 -142 58 -23 19 -59 76 -59 92 0 2 127 4 283 5 155 0
297 0 315 1 l33 0 -2 73 c-4 130 -41 219 -128 306 -63 62 -153 108 -233 117
-29 4 -56 8 -59 10 -3 2 -8 2 -10 0z m73 -208 c41 -12 116 -73 120 -98 3 -12
-27 -14 -189 -15 -106 0 -193 3 -193 6 0 4 19 27 43 51 61 63 134 82 219 56z
m-502 -1140 c75 -32 130 -123 130 -216 0 -206 -252 -302 -388 -148 -79 91 -64
266 29 335 64 48 156 59 229 29z"/>
<path d="M890 3902 c-80 -27 -111 -45 -167 -99 -77 -74 -121 -173 -127 -282
-14 -257 167 -451 423 -453 128 -1 230 41 314 131 70 75 99 141 112 252 l6 55
-102 0 -102 -1 -4 -30 c-17 -137 -103 -216 -230 -211 -135 6 -215 99 -208 246
5 102 59 179 145 204 76 23 143 11 201 -35 l37 -28 76 67 77 67 -38 33 c-44
38 -70 54 -139 79 -69 26 -202 28 -274 5z"/>
<path d="M1835 3906 c-112 -35 -208 -113 -256 -207 -65 -128 -64 -286 4 -418
27 -54 108 -136 161 -163 178 -91 398 -58 527 79 78 83 114 182 112 308 -2
175 -104 325 -263 386 -67 27 -224 34 -285 15z m232 -210 c97 -50 139 -208 85
-313 -82 -158 -314 -158 -388 1 -54 117 -14 259 90 313 62 33 149 33 213 -1z"/>
<path d="M5635 3912 c-1 -2 3 -15 10 -30 8 -15 76 -166 151 -337 l138 -310 1
-290 2 -290 69 2 c113 3 134 10 135 41 0 15 1 140 1 277 l0 250 51 115 c27 63
62 142 77 175 15 33 51 114 80 180 29 66 61 139 71 162 11 23 19 46 19 50 0
11 -199 8 -209 -3 -4 -5 -25 -49 -45 -99 -21 -49 -44 -103 -51 -120 -8 -16
-30 -68 -50 -115 -20 -47 -40 -88 -43 -92 -4 -4 -49 92 -100 213 -52 120 -98
219 -103 220 -33 2 -201 3 -204 1z"/>
<path d="M1250 2785 c-217 -45 -328 -270 -235 -474 14 -29 35 -62 46 -72 l21
-18 -36 -32 c-20 -17 -36 -36 -36 -42 0 -5 32 -41 72 -79 l72 -68 29 35 c42
51 92 74 157 72 106 -4 173 -78 171 -192 -1 -122 -82 -193 -206 -183 -65 6
-113 39 -139 96 l-18 41 -105 0 -105 1 7 -38 c19 -102 107 -216 200 -258 145
-66 323 -49 439 42 167 131 184 408 35 562 l-39 40 23 29 c64 76 74 124 73
348 l-1 190 -99 0 c-67 0 -100 -3 -103 -11 -3 -10 -12 -9 -37 1 -46 19 -122
24 -186 10z m145 -203 c43 -20 68 -58 73 -111 9 -95 -48 -161 -138 -161 -85 0
-143 61 -142 148 3 108 107 171 207 124z"/>
<path d="M2150 2789 c-169 -25 -296 -136 -340 -298 -29 -109 -14 -246 38 -347
27 -52 124 -141 181 -166 113 -48 228 -52 326 -11 22 9 48 23 58 31 16 14 17
13 17 -16 0 -18 3 -32 8 -33 4 0 51 -2 105 -2 l97 -2 0 110 c1 116 1 554 0
665 l0 66 -102 -1 -103 0 -3 -32 -3 -32 -37 23 c-65 42 -153 58 -242 45z m180
-227 c122 -74 142 -255 41 -359 -43 -44 -89 -64 -150 -65 -154 -1 -262 152
-211 301 47 139 198 197 320 123z"/>
<path d="M3165 2793 c-52 -6 -109 -25 -137 -45 l-28 -19 0 28 0 29 -102 -1
-103 0 0 -417 c-1 -282 3 -418 10 -420 9 -3 134 -2 177 1 15 1 17 26 20 264
l3 264 27 41 c38 56 70 72 171 81 4 1 7 46 7 101 0 55 -3 99 -7 99 -5 -1 -21
-4 -38 -6z"/>
<path d="M4625 2793 c-179 -18 -327 -145 -375 -321 -10 -40 -15 -138 -7 -172
16 -70 23 -91 44 -134 70 -138 227 -229 393 -227 116 1 212 39 299 117 42 38
101 124 101 149 0 3 -53 5 -117 5 -112 0 -118 -1 -144 -26 -51 -49 -163 -64
-241 -31 -33 14 -108 81 -108 97 0 5 -3 15 -6 24 -6 14 25 16 304 16 259 0
311 2 315 14 9 23 -1 148 -15 191 -52 156 -194 278 -340 291 -29 3 -57 6 -63
7 -5 2 -23 1 -40 0z m163 -232 c17 -12 41 -35 52 -51 l21 -30 -23 -1 c-86 -4
-360 -1 -364 4 -9 9 27 52 63 77 54 37 110 49 169 35 28 -6 65 -22 82 -34z"/>
<path d="M5570 2789 c-48 -6 -88 -22 -132 -52 l-28 -18 0 29 c0 17 -6 32 -12
34 -7 3 -53 4 -103 4 l-90 -1 0 -419 0 -420 80 1 c44 0 90 1 103 2 l22 1 0
258 c0 248 1 259 23 302 32 63 66 84 135 86 72 2 124 -25 149 -75 15 -32 18
-68 18 -303 0 -171 4 -268 10 -269 6 -1 52 -2 103 -3 86 -1 92 0 93 19 4 103
1 504 -5 553 -22 193 -163 297 -366 271z"/>
</g>
</svg>
