<?xml version="1.0" standalone="no"?>
<!DOCTYPE svg PUBLIC "-//W3C//DTD SVG 20010904//EN"
 "http://www.w3.org/TR/2001/REC-SVG-20010904/DTD/svg10.dtd">
<svg version="1.0" xmlns="http://www.w3.org/2000/svg"
 width="902.000000pt" height="902.000000pt" viewBox="0 0 902.000000 902.000000"
 preserveAspectRatio="xMidYMid meet">
<metadata>
Created by potrace 1.11, written by Peter Selinger 2001-2013
</metadata>
<g transform="translate(0.000000,902.000000) scale(0.100000,-0.100000)"
fill="#000000" stroke="none">
<path d="M1427 7765 c-48 -6 -90 -12 -92 -13 -3 -1 -16 -2 -29 -2 -28 0 -36
-21 -25 -62 4 -16 4 -28 -1 -28 -5 0 -5 -13 0 -30 5 -17 5 -30 0 -30 -5 0 -5
-13 0 -30 5 -17 5 -30 0 -30 -5 0 -5 -13 0 -30 5 -17 5 -30 0 -30 -5 0 -5 -13
0 -30 5 -17 5 -30 0 -30 -5 0 -5 -13 0 -30 5 -17 5 -30 0 -30 -5 0 -5 -13 0
-30 5 -17 5 -30 0 -30 -5 0 -5 -13 0 -30 5 -17 5 -30 0 -30 -5 0 -5 -13 0 -30
5 -17 5 -30 0 -30 -5 0 -5 -13 0 -30 5 -17 5 -30 0 -30 -5 0 -5 -13 0 -30 5
-17 5 -30 0 -30 -5 0 -5 -13 0 -30 5 -17 5 -30 0 -30 -5 0 -5 -13 0 -30 5 -17
5 -30 0 -30 -5 0 -5 -13 0 -30 5 -17 5 -30 0 -30 -5 0 -5 -13 0 -30 5 -17 5
-30 0 -30 -5 0 -5 -13 0 -30 5 -17 5 -30 0 -30 -5 0 -5 -13 0 -30 5 -17 5 -30
0 -30 -5 0 -5 -13 0 -30 5 -17 5 -30 0 -30 -5 0 -5 -13 0 -30 5 -17 5 -30 0
-30 -5 0 -5 -13 0 -30 5 -17 5 -30 0 -30 -5 0 -5 -13 0 -30 5 -17 5 -30 0 -30
-5 0 -5 -13 0 -30 5 -17 5 -30 0 -30 -5 0 -5 -13 0 -30 5 -17 5 -30 0 -30 -5
0 -5 -13 0 -30 5 -17 5 -30 0 -30 -5 0 -5 -13 0 -30 5 -17 5 -30 0 -30 -5 0
-5 -13 0 -30 5 -17 5 -30 0 -30 -5 0 -5 -13 0 -30 5 -17 5 -30 0 -30 -5 0 -5
-13 0 -30 5 -17 5 -30 0 -30 -5 0 -5 -13 0 -29 4 -15 4 -34 0 -42 -5 -7 -5
-20 -1 -28 5 -9 6 -22 4 -28 -6 -16 -15 -15 145 -17 74 0 136 3 139 7 3 5 5
35 4 68 l-1 60 38 -28 c67 -52 152 -94 224 -110 55 -12 239 -9 303 6 200 45
364 188 434 376 23 61 26 72 41 160 9 51 6 238 -4 286 -69 322 -309 513 -643
512 -134 -1 -268 -44 -345 -111 -19 -18 -38 -32 -41 -32 -3 0 -6 127 -6 283 0
455 3 406 -28 404 -16 0 -67 -6 -116 -12z m626 -825 c88 -18 184 -90 227 -170
43 -80 63 -213 45 -300 -29 -146 -134 -259 -275 -297 -36 -10 -167 -10 -207 0
-90 23 -195 107 -232 189 -89 194 -35 427 124 533 40 26 112 50 160 53 22 2
41 5 43 6 4 5 49 -1 115 -14z"/>
<path d="M5285 7767 c-53 -6 -124 -14 -162 -16 -10 -1 -13 -61 -13 -265 l0
-265 -112 0 c-62 0 -122 0 -134 -1 -12 0 -21 -7 -22 -17 -3 -44 -1 -177 3
-181 2 -3 1 -12 -4 -21 -5 -9 -5 -25 -1 -36 7 -19 16 -20 136 -20 l129 0 5
-520 c4 -451 7 -520 20 -523 8 -2 38 -4 65 -3 62 1 144 1 153 0 4 -1 12 0 17
1 6 1 16 3 24 4 11 1 14 88 15 521 l1 520 195 0 195 0 5 120 c3 66 4 127 2
136 -3 11 -17 16 -50 17 -26 1 -62 4 -79 5 -18 2 -33 0 -33 -4 0 -4 -8 -5 -18
-2 -10 2 -63 5 -118 6 l-99 2 -2 260 c-1 143 -2 267 -2 276 -1 18 -17 19 -116
6z"/>
<path d="M7568 7774 c-3 -2 -52 -8 -168 -19 -14 -2 -33 -3 -42 -4 -17 -1 -18
-52 -18 -926 l0 -925 23 -1 c12 -1 27 0 32 1 28 5 73 5 98 -1 16 -5 27 -4 27
2 0 6 5 7 12 3 15 -10 90 -5 101 5 6 6 12 1440 7 1832 0 34 -2 36 -35 36 -19
0 -36 -1 -37 -3z"/>
<path d="M3619 7751 c-105 -33 -164 -154 -124 -258 39 -102 166 -155 265 -110
80 36 114 89 114 178 1 60 -2 72 -30 110 -51 71 -146 104 -225 80z"/>
<path d="M3284 7223 c-67 -17 -127 -49 -169 -91 -19 -19 -36 -31 -36 -26 -1 5
-3 29 -4 54 -2 25 -3 50 -4 55 -1 8 -238 13 -283 6 -5 0 -8 -298 -8 -661 l0
-660 23 -1 c12 -1 27 0 32 1 13 2 97 2 110 0 19 -4 119 1 124 6 3 2 5 181 6
397 1 416 2 428 51 513 35 59 87 100 159 124 35 12 56 15 123 19 9 1 12 36 12
141 l0 140 -44 -2 c-23 -1 -65 -8 -92 -15z"/>
<path d="M4337 7234 c-2 -3 -13 -6 -24 -8 -84 -17 -185 -101 -229 -193 -24
-49 -29 -72 -31 -155 -2 -93 -1 -99 33 -167 60 -120 147 -177 332 -217 41 -8
109 -44 132 -69 43 -46 47 -143 8 -201 -67 -97 -240 -83 -295 24 -7 13 -15 36
-18 49 -2 14 -7 28 -10 31 -2 3 -66 6 -141 6 l-135 1 7 -60 c18 -155 107 -284
239 -346 79 -37 150 -50 249 -45 149 9 256 66 354 190 14 18 52 102 57 127 9
43 17 95 17 104 -3 52 -11 127 -17 146 -29 97 -102 187 -185 229 -37 18 -149
58 -178 63 -43 7 -121 39 -140 58 -44 40 -41 116 5 152 32 25 47 29 91 22 31
-6 92 -57 92 -77 0 -5 41 31 90 80 50 49 90 93 90 97 0 5 -23 31 -51 58 -45
43 -112 83 -159 95 -24 6 -178 11 -183 6z"/>
<path d="M6409 7235 c-2 -1 -22 -5 -44 -8 -22 -3 -56 -11 -75 -17 -46 -15 -59
-19 -68 -21 -13 -2 -96 -52 -137 -82 -121 -90 -213 -234 -248 -389 -20 -92
-15 -272 11 -360 20 -65 72 -174 102 -212 61 -78 208 -196 242 -196 8 0 18 -4
24 -9 14 -13 102 -42 154 -49 58 -9 202 -9 260 0 248 36 468 240 527 488 22
91 24 268 4 350 -61 249 -253 437 -506 493 -53 12 -237 21 -246 12z m232 -301
c24 -10 58 -26 74 -37 35 -23 105 -98 105 -111 0 -5 6 -17 14 -25 20 -22 43
-109 42 -154 0 -20 2 -37 6 -37 4 0 6 -6 3 -12 -2 -7 -6 -37 -9 -66 -14 -149
-146 -297 -286 -320 -42 -7 -145 -7 -180 0 -196 39 -321 244 -286 466 7 43 42
138 59 158 76 91 123 124 207 146 79 20 188 16 251 -8z"/>
<path d="M3534 7206 c-2 -6 -3 -303 -1 -661 2 -572 4 -650 17 -646 23 6 108 3
120 -4 5 -3 10 -2 10 4 0 5 11 7 28 3 15 -4 36 -6 47 -6 11 1 32 2 47 3 l26 1
1 658 0 658 -145 1 c-100 0 -147 -3 -150 -11z"/>
<path d="M7618 5795 c-3 -2 -51 -8 -172 -20 -28 -3 -52 -8 -55 -10 -2 -3 -4
-151 -3 -330 0 -179 -2 -325 -4 -325 -3 0 -15 9 -27 21 -50 47 -170 102 -253
115 -20 3 -68 6 -108 6 -332 4 -573 -189 -641 -511 -20 -94 -13 -296 13 -382
18 -61 65 -167 87 -198 46 -64 150 -152 223 -189 45 -23 82 -39 82 -37 0 3 12
0 28 -6 55 -22 256 -33 323 -17 24 5 51 11 60 13 34 7 117 50 167 87 l53 40
-2 -61 c-1 -33 1 -64 5 -68 4 -4 70 -8 147 -8 116 0 139 2 140 15 3 43 -1 111
-6 120 -3 6 -3 10 2 10 9 0 8 83 -1 106 -3 8 -2 14 2 14 8 0 6 85 -2 106 -3 8
-2 14 2 14 8 0 6 85 -2 106 -3 8 -2 14 2 14 8 0 6 85 -2 106 -3 8 -2 14 2 14
8 0 6 85 -2 106 -3 8 -2 14 2 14 8 0 6 85 -2 106 -3 8 -2 14 2 14 8 0 6 85 -2
106 -3 8 -2 14 2 14 8 0 6 85 -2 106 -3 8 -2 14 2 14 8 0 6 85 -2 106 -3 8 -2
14 2 14 8 0 6 85 -2 106 -3 8 -2 14 2 14 8 0 6 85 -2 106 -3 8 -2 14 2 14 8 0
6 85 -2 106 -3 8 -2 14 2 14 8 0 6 85 -2 106 -3 8 -2 14 2 14 4 0 6 21 4 47
-1 27 -4 66 -5 88 -2 36 -5 40 -29 41 -15 1 -29 0 -30 -1z m-523 -831 c58 -7
135 -48 184 -97 74 -72 112 -170 112 -286 0 -225 -142 -386 -351 -396 -246
-12 -401 136 -414 395 0 12 10 90 18 130 1 3 13 30 28 60 55 110 155 183 273
197 22 3 41 6 43 8 3 3 21 1 107 -11z"/>
<path d="M520 5241 c-199 -44 -367 -175 -449 -352 -52 -110 -70 -198 -66 -329
5 -199 70 -350 204 -479 43 -41 149 -111 168 -111 7 0 13 -4 13 -9 0 -5 10
-11 23 -14 12 -3 49 -13 82 -22 70 -20 254 -28 317 -13 24 5 50 11 58 13 252
57 461 308 485 583 l7 70 -151 1 c-119 1 -149 -1 -146 -11 5 -12 0 -46 -19
-128 -16 -70 -80 -156 -152 -204 -71 -47 -186 -68 -284 -53 -129 20 -236 109
-283 235 -22 58 -25 81 -22 167 1 55 5 110 8 122 12 48 60 130 99 170 130 134
375 141 510 16 34 -32 21 -40 206 129 17 16 32 33 32 38 0 10 -92 90 -103 90
-5 0 -25 12 -44 28 -20 15 -37 25 -37 23 -1 -2 -18 4 -39 13 -106 44 -286 56
-417 27z"/>
<path d="M1950 5244 c-59 -12 -188 -60 -200 -73 -3 -4 -25 -19 -50 -35 -61
-40 -132 -115 -177 -189 -21 -33 -38 -63 -38 -66 0 -3 -3 -10 -6 -16 -6 -10
-30 -79 -35 -100 -17 -74 -22 -126 -19 -205 4 -121 9 -148 45 -243 26 -69 105
-190 152 -232 81 -74 201 -139 303 -165 72 -17 239 -21 315 -6 62 12 199 62
210 76 3 3 22 17 44 30 119 72 235 240 262 380 3 14 9 40 14 58 5 19 7 84 5
145 -7 224 -96 400 -265 528 -34 26 -135 81 -155 85 -5 1 -35 9 -65 19 -72 22
-254 27 -340 9z m251 -278 c44 -7 125 -53 169 -97 46 -46 95 -141 105 -204 6
-42 8 -129 2 -155 -15 -68 -23 -91 -44 -134 -56 -111 -174 -184 -306 -190
-170 -9 -303 67 -367 208 -69 151 -51 324 46 451 44 58 143 115 224 128 26 5
125 1 171 -7z"/>
<path d="M5510 5256 c-3 -2 -26 -7 -52 -10 -45 -6 -82 -19 -158 -53 -71 -33
-200 -131 -200 -153 0 -5 -4 -10 -9 -10 -24 0 -132 -195 -145 -261 -2 -13 -7
-31 -10 -39 -5 -13 -16 -102 -17 -135 -1 -33 11 -137 20 -175 36 -151 131
-297 250 -384 57 -42 162 -96 211 -108 19 -5 44 -11 55 -13 17 -5 151 -17 180
-17 6 -1 30 2 55 6 205 31 369 121 476 262 29 38 74 125 69 133 -2 4 -77 6
-168 6 l-165 -1 -34 -33 c-45 -44 -96 -69 -178 -87 -33 -8 -108 -7 -155 0 -50
8 -137 43 -143 58 -2 4 -9 8 -15 8 -6 0 -31 21 -55 48 -44 46 -79 110 -88 157
l-4 24 506 0 c412 -1 508 2 515 13 13 20 3 206 -14 268 -24 84 -64 165 -120
239 -27 36 -55 69 -61 73 -6 3 -29 22 -50 42 -47 41 -153 95 -246 126 -35 11
-242 25 -250 16z m180 -281 c95 -23 208 -120 239 -207 l10 -28 -57 -1 c-145
-1 -636 2 -638 4 -8 7 38 88 67 118 103 108 234 148 379 114z"/>
<path d="M3508 5235 c-2 -2 -16 -5 -33 -8 -67 -11 -167 -67 -217 -122 l-28
-30 1 66 c1 37 -1 71 -4 75 -4 7 -196 11 -269 5 -17 -1 -18 -40 -18 -660 0
-622 1 -660 18 -660 9 -1 24 -1 32 -1 8 -1 34 1 58 2 23 2 42 0 42 -4 0 -4 14
-3 30 2 17 5 30 6 30 2 0 -8 68 -8 76 0 2 3 6 201 7 439 2 421 3 435 24 481
43 95 113 140 214 139 91 0 161 -38 196 -106 34 -65 38 -126 38 -543 l0 -413
22 4 c13 2 23 1 23 -4 0 -4 14 -4 30 1 17 5 30 5 30 0 0 -5 13 -5 30 0 17 5
30 5 30 0 0 -5 13 -5 30 0 17 5 30 5 30 1 0 -4 15 -5 33 -3 l32 4 1 411 c1
423 3 458 28 517 43 101 156 151 276 125 69 -15 108 -50 144 -125 20 -43 21
-61 23 -474 1 -235 4 -435 8 -443 3 -10 14 -14 30 -11 14 3 25 2 25 -3 0 -4
14 -4 30 1 17 5 30 6 30 2 0 -4 16 -7 35 -7 19 0 35 3 35 7 0 4 13 3 29 -2 15
-4 34 -4 42 0 7 5 17 6 21 4 4 -3 8 34 8 83 2 265 -1 842 -4 868 -30 251 -162
374 -407 380 -53 2 -121 -3 -151 -10 -59 -13 -168 -63 -168 -77 0 -4 -4 -8
-10 -8 -5 0 -28 -18 -52 -40 l-43 -39 -42 48 c-76 87 -182 131 -310 129 -34 0
-64 -2 -65 -3z"/>
<path d="M7776 5203 c9 -21 26 -60 39 -88 13 -27 42 -93 65 -145 23 -52 50
-113 60 -135 10 -22 41 -94 70 -160 29 -66 65 -147 80 -180 15 -33 44 -96 63
-140 19 -44 47 -107 63 -140 l28 -60 0 -460 c0 -300 4 -462 11 -467 5 -4 23
-5 40 -3 29 4 57 7 175 21 30 3 57 8 60 11 3 2 5 210 5 460 0 352 3 457 13
461 6 2 12 8 12 13 0 10 76 187 141 327 16 35 29 65 29 67 0 2 13 32 29 67 16
35 57 125 90 201 33 75 68 154 78 175 9 20 17 39 18 42 3 9 45 104 60 135 l14
30 -146 3 c-147 3 -173 -3 -173 -34 0 -8 -4 -22 -10 -32 -5 -9 -34 -75 -64
-147 -30 -71 -62 -148 -72 -170 -9 -22 -18 -42 -18 -45 -1 -3 -9 -21 -18 -40
-40 -85 -120 -276 -120 -288 -2 -22 -14 0 -68 128 -29 69 -63 149 -76 178 -13
29 -24 55 -24 57 0 3 -10 27 -21 53 -12 26 -27 61 -34 77 -49 116 -79 184 -91
209 -8 16 -14 35 -14 43 0 10 -32 13 -154 13 l-155 0 15 -37z"/>
<path d="M5367 3794 c-1 -1 -27 -5 -57 -8 -30 -4 -77 -9 -105 -12 -27 -4 -52
-8 -54 -10 -2 -2 -3 -150 -3 -329 0 -179 -2 -325 -5 -325 -2 0 -16 11 -31 26
-35 32 -152 88 -218 104 -54 12 -170 16 -244 7 -235 -27 -428 -180 -503 -397
-35 -102 -38 -118 -42 -245 -5 -152 12 -242 68 -365 65 -141 206 -260 362
-306 80 -24 80 -24 160 -29 39 -2 72 -5 75 -6 6 -2 7 -2 60 6 104 14 212 59
278 116 18 16 34 29 36 29 2 0 4 -17 4 -37 0 -21 1 -52 1 -68 l1 -30 138 1
c75 1 140 2 144 3 7 1 9 41 8 116 0 11 0 29 0 40 1 11 1 27 1 35 -1 8 -1 29 0
45 0 17 0 36 0 43 -1 22 -1 45 0 144 0 53 -2 102 -6 107 -3 6 -3 11 2 11 7 0
9 75 3 105 -2 6 -1 13 0 18 6 20 4 107 -2 107 -4 0 -5 6 -2 14 7 19 10 106 3
106 -3 0 -3 20 1 44 3 24 3 53 -1 64 -4 12 -4 34 0 50 5 16 5 35 1 42 -5 7 -5
23 0 34 4 12 4 30 0 41 -4 11 -4 32 0 46 4 15 4 32 0 40 -5 7 -6 17 -3 22 5 8
7 190 3 212 -1 6 -1 15 0 20 1 6 1 30 1 55 -1 25 -2 51 -2 58 1 6 1 32 1 57 0
25 0 52 0 60 0 49 -1 112 -1 127 0 14 -8 17 -35 15 -20 -1 -36 -3 -37 -3z
m-487 -835 c247 -58 357 -400 201 -622 -71 -101 -161 -147 -294 -152 -89 -4
-165 16 -234 62 -132 87 -191 256 -153 437 6 31 16 58 21 62 5 3 7 9 4 14 -3
4 2 13 10 20 8 7 15 16 15 21 0 25 84 104 138 129 93 44 190 54 292 29z"/>
<path d="M1050 3249 c-137 -27 -261 -110 -334 -224 -29 -45 -47 -80 -48 -95 0
-3 -4 -13 -10 -23 -5 -10 -11 -28 -14 -40 -2 -12 -7 -35 -10 -52 -28 -142 24
-324 123 -432 l44 -48 -23 -15 c-32 -21 -98 -86 -98 -96 0 -5 47 -56 104 -112
l105 -104 15 31 c14 27 97 105 114 107 4 0 25 9 46 18 42 19 139 25 194 13 80
-18 132 -55 203 -144 22 -29 41 -136 35 -207 -7 -86 -15 -126 -27 -126 -5 0
-9 -8 -9 -18 0 -19 -79 -112 -95 -112 -4 0 -16 -6 -24 -13 -21 -18 -118 -44
-156 -42 -65 4 -131 18 -165 35 -52 27 -110 88 -137 146 l-23 52 -147 -2
c-131 -1 -146 -3 -149 -18 -1 -10 2 -20 7 -24 5 -3 7 -9 4 -14 -7 -11 33 -106
73 -170 86 -139 227 -235 392 -267 61 -12 220 -11 273 1 89 21 92 22 172 61
191 95 305 283 310 513 5 180 -47 313 -171 438 l-72 73 25 23 c62 58 122 169
139 258 12 60 11 620 -1 621 -29 3 -252 4 -265 1 -9 -2 -17 -12 -17 -24 -2
-27 -10 -33 -25 -20 -7 6 -38 20 -68 32 -61 24 -213 34 -290 19z m183 -273
c50 -8 91 -30 127 -68 47 -48 62 -87 67 -169 5 -66 2 -82 -21 -130 -47 -100
-132 -150 -244 -143 -72 4 -122 25 -167 69 -46 47 -67 96 -70 172 -3 64 11
143 26 143 5 0 9 6 9 13 0 35 85 96 160 115 36 9 48 9 113 -2z"/>
<path d="M2429 3256 c-2 -2 -18 -6 -36 -9 -158 -25 -327 -135 -419 -274 -37
-56 -80 -151 -88 -197 -2 -14 -8 -31 -11 -37 -12 -18 -15 -231 -4 -284 5 -27
11 -59 13 -70 4 -19 12 -40 44 -115 39 -90 123 -192 210 -252 198 -137 476
-154 672 -41 25 15 55 37 67 50 26 27 30 22 27 -37 -4 -79 -11 -76 145 -75 77
0 142 3 146 6 3 3 5 59 5 125 0 175 1 217 6 225 2 4 0 10 -4 13 -5 3 -6 25 -2
49 3 24 4 52 0 62 -3 9 -3 39 0 66 4 27 4 53 1 58 -3 5 -4 47 -1 93 3 45 3
111 0 146 -3 35 -4 65 -2 67 6 6 8 345 2 345 -3 0 -5 17 -5 37 l0 37 -135 1
c-74 1 -140 0 -146 -2 -7 -3 -11 -29 -10 -69 1 -35 -2 -64 -6 -64 -4 0 -8 4
-8 9 0 18 -123 91 -189 112 -58 19 -260 37 -272 25z m217 -294 c111 -32 213
-141 254 -275 12 -37 15 -153 7 -192 -17 -74 -71 -169 -124 -216 -181 -165
-479 -106 -591 118 -30 59 -52 149 -46 189 2 11 5 40 8 65 8 75 58 166 123
227 40 36 123 80 170 88 15 3 29 7 31 9 7 7 128 -3 168 -13z"/>
<path d="M3962 3249 c-61 -11 -147 -56 -185 -95 -17 -19 -34 -34 -37 -34 -4 0
-6 24 -5 53 1 28 0 57 -2 62 -2 8 -235 13 -287 6 -4 -1 -6 -19 -4 -41 2 -22 1
-40 -2 -40 -6 0 -3 -109 4 -127 3 -7 1 -13 -4 -13 -5 0 -5 -12 0 -29 4 -16 6
-31 4 -34 -7 -7 -10 -107 -2 -107 3 0 4 -8 2 -17 -7 -31 -9 -143 -2 -143 3 0
4 -8 2 -17 -7 -31 -9 -143 -2 -143 3 0 4 -8 2 -17 -7 -30 -9 -143 -3 -143 3 0
3 -19 -1 -42 -3 -24 -3 -58 1 -75 3 -18 3 -33 -2 -33 -4 0 -4 -12 -1 -27 4
-16 6 -41 5 -58 -6 -62 -5 -136 0 -142 4 -3 2 -13 -3 -23 -6 -11 -5 -23 3 -33
12 -17 48 -19 212 -18 l80 1 1 403 c1 390 2 404 23 459 41 107 143 183 257
192 31 3 58 7 61 10 7 7 6 94 -2 106 -3 5 -2 10 3 10 6 0 7 14 2 35 -4 19 -5
35 -1 35 3 0 5 20 3 44 -4 43 -4 43 -40 43 -21 0 -56 -4 -80 -8z"/>
<path d="M6112 3239 c-96 -24 -151 -50 -227 -104 -57 -40 -175 -160 -175 -177
0 -4 -13 -29 -29 -56 -24 -41 -46 -100 -68 -182 -11 -39 -9 -239 3 -282 7 -27
10 -48 8 -48 -3 0 2 -13 11 -30 8 -16 16 -32 16 -35 1 -25 69 -140 114 -194
75 -89 194 -165 313 -200 56 -17 185 -35 237 -32 32 1 105 13 140 22 22 6 50
13 63 15 51 10 199 97 252 148 71 69 85 86 114 144 42 81 51 76 -138 76 -161
1 -169 0 -185 -21 -28 -35 -88 -71 -149 -89 -56 -16 -163 -21 -212 -9 -14 3
-29 7 -35 8 -5 2 -32 14 -60 27 -72 36 -149 117 -174 185 -12 31 -21 60 -21
64 0 5 201 9 448 10 246 0 477 1 513 1 l66 0 1 93 c1 229 -98 426 -289 570
-32 24 -138 74 -196 93 -75 24 -253 26 -341 3z m286 -273 c54 -20 97 -49 143
-97 32 -34 83 -118 76 -126 -2 -1 -80 -3 -173 -2 -203 0 -174 0 -363 -1 -84 0
-155 1 -156 2 -8 8 39 91 68 121 83 88 174 126 287 122 41 -1 94 -10 118 -19z"/>
<path d="M7637 3245 c-26 -6 -51 -13 -55 -14 -47 -15 -123 -65 -178 -119 -12
-11 -14 -2 -14 56 0 47 -4 71 -12 74 -7 2 -71 4 -143 4 l-130 -1 -3 -662 -2
-663 145 0 145 0 1 378 c0 418 1 438 25 502 49 132 169 200 316 180 102 -14
158 -50 197 -128 38 -76 39 -96 40 -559 l1 -373 145 0 145 0 -1 438 c0 370 -5
488 -23 557 -36 143 -141 263 -269 308 -75 27 -82 28 -187 32 -55 2 -115 -2
-143 -10z"/>
</g>
</svg>
