<?xml version="1.0" encoding="utf-8"?>
<!-- Generator: Adobe Illustrator 21.0.0, SVG Export Plug-In . SVG Version: 6.00 Build 0)  -->
<svg version="1.1" id="Layer_1" xmlns="http://www.w3.org/2000/svg" xmlns:xlink="http://www.w3.org/1999/xlink" x="0px" y="0px"
	 viewBox="0 0 570.7 174.1" style="enable-background:new 0 0 570.7 174.1;" xml:space="preserve">
<style type="text/css">
	.st0{fill:#1D1D1B;}
</style>
<g>
	<g>
		<path class="st0" d="M124.2,81.5c-4,4.9-9.9,7.3-16.3,7.3c-14.3,0-24.9-11.4-24.9-25.6s10.7-25.6,24.9-25.6
			c8.1,0,14.6,3.7,19.2,9.2l-5.6,5.6c-3-4.4-7.4-7.2-13.5-7.2c-9.8,0-16.7,7.9-16.7,18s6.9,18,16.7,18c8.8,0,14.8-5.7,16.3-14.4
			h-16.6v-7.6h24.1v29.2h-7.5V81.5z"/>
		<path class="st0" d="M155.9,37.9c8,0,14.5,5.2,14.5,14.4c0,8.1-5.3,12.9-11.4,14.1l11.4,21.9h-9.2l-10.8-21.6h-1.2v21.6h-8.1V37.9
			H155.9z M149.2,59.1h6.8c4.3,0,6.5-2.9,6.5-6.8c0-3.9-2.2-6.8-6.5-6.8h-6.8V59.1z"/>
		<path class="st0" d="M178.5,37.9h31.6v7.6h-23.5v13.5h11.4v7.6h-11.4v14h24v7.6h-32V37.9z"/>
		<path class="st0" d="M218.3,37.9h31.6v7.6h-23.5v13.5h11.4v7.6h-11.4v14h24v7.6h-32V37.9z"/>
		<path class="st0" d="M258.1,37.9h8.9l16.2,34.7V37.9h8.1v50.4h-8.9l-16.2-34.7v34.7h-8.1V37.9z"/>
		<path class="st0" d="M325.4,37.9l5.1,15.3l5.1-15.3h8.1l-9.2,26.8l4.4,12.8l14.3-39.6h8.5l-18.7,50.4h-8.1l-4.3-12.5l-4.3,12.5
			h-8.1l-18.7-50.4h8.5l14.3,39.6l4.4-12.8l-9.2-26.8H325.4z"/>
		<path class="st0" d="M388.6,45.6H381v35.1h7.6v7.6h-23.3v-7.6h7.6V45.6h-7.6v-7.6h23.3V45.6z"/>
		<path class="st0" d="M418.2,81.1c9.8,0,16.7-7.6,16.7-18h8.2c0,14.2-10.7,25.6-24.9,25.6c-14.3,0-24.9-11.4-24.9-25.6
			s10.7-25.6,24.9-25.6c8.1,0,14.6,3.7,19.2,9.2l-5.6,5.6c-3-4.4-7.4-7.2-13.5-7.2c-9.8,0-16.7,7.9-16.7,18S408.4,81.1,418.2,81.1z"
			/>
		<path class="st0" d="M458.6,37.9v21.2h17.1V37.9h8.1v50.4h-8.1V66.7h-17.1v21.6h-8.1V37.9H458.6z"/>
	</g>
	<g>
		<path class="st0" d="M97.3,131.5c6.5,0,11.1-5.1,11.1-12h5.5c0,9.5-7.1,17.1-16.6,17.1c-9.5,0-16.6-7.6-16.6-17.1
			c0-9.5,7.1-17.1,16.6-17.1c5.4,0,9.7,2.4,12.8,6.1l-3.7,3.7c-2-2.9-4.9-4.8-9-4.8c-6.5,0-11.1,5.3-11.1,12S90.7,131.5,97.3,131.5z
			"/>
		<path class="st0" d="M134,136.6c-9.5,0-16.6-7.6-16.6-17.1c0-9.5,7.1-17.1,16.6-17.1c9.5,0,16.6,7.6,16.6,17.1
			C150.6,129,143.5,136.6,134,136.6z M134,107.5c-6.5,0-11.1,5.3-11.1,12s4.6,12,11.1,12c6.5,0,11.1-5.3,11.1-12
			S140.5,107.5,134,107.5z"/>
		<path class="st0" d="M153.8,102.7h6l10.7,25.9l10.7-25.9h6v33.6h-5.4V115l-8.8,21.3H168l-8.8-21.3v21.3h-5.4V102.7z"/>
		<path class="st0" d="M193.9,102.7H215v5.1h-15.7v9h7.6v5.1h-7.6v9.3h16v5.1h-21.4V102.7z"/>
		<path class="st0" d="M230.3,102.7c9.6,0,16.6,6.4,16.6,16.8c0,10.4-7,16.8-16.6,16.8h-9.8v-33.6H230.3z M225.8,107.8v23.4h4.6
			c6.1,0,10.9-4.2,10.9-11.7c0-7.5-4.8-11.7-10.9-11.7H225.8z"/>
		<path class="st0" d="M253.6,102.7l6.2,13.7l6.2-13.7h5.7l-9.2,19.2v14.4h-5.4v-14.4l-9.2-19.2H253.6z"/>
		<path class="st0" d="M290.4,102.7h21.4v5.1h-16v9h8.2v5.1h-8.2v14.4h-5.4V102.7z"/>
		<path class="st0" d="M317.1,102.7h21.1v5.1h-15.7v9h7.6v5.1h-7.6v9.3h16v5.1h-21.4V102.7z"/>
		<path class="st0" d="M356.7,116.2c4.2,1.6,6.9,4.4,6.9,9.5c0,6.2-4.8,10.9-10.8,10.9c-6.1,0-10.8-4.8-10.8-10.8h5.4
			c0,3.1,2,5.7,5.4,5.7s5.4-2.4,5.4-5.7c0-5-4.4-5-9.1-6.9c-3.1-1.2-5.3-3.9-5.3-7.6c0-5.2,3.8-8.9,8.8-8.9c3.6,0,6.3,1.5,8,4.3
			l-3.6,3.6c-0.8-1.8-2.5-2.8-4.2-2.8c-2.2,0-3.7,1.5-3.7,3.6C349.1,114.2,352.3,114.5,356.7,116.2z"/>
		<path class="st0" d="M364.8,102.7h20.6v5.1h-7.6v28.5h-5.4v-28.5h-7.6V102.7z"/>
		<path class="st0" d="M404.9,107.8h-5.1v23.4h5.1v5.1h-15.6v-5.1h5.1v-23.4h-5.1v-5.1h15.6V107.8z"/>
		<path class="st0" d="M408.1,102.7h5.7l9.5,26.3l9.5-26.3h5.7L426,136.3h-5.4L408.1,102.7z"/>
		<path class="st0" d="M458.9,136.3l-2-5.5h-15l-2,5.5h-5.6l12.4-33.6h5.4l12.4,33.6H458.9z M443.7,125.7h11.4l-5.7-15.8
			L443.7,125.7z"/>
		<path class="st0" d="M468.7,102.7h5.4v28.5h16v5.1h-21.4V102.7z"/>
	</g>
</g>
</svg>
