<svg xmlns="http://www.w3.org/2000/svg" width="451" height="327" viewBox="0 0 451 327"><title>logo</title><g fill="#000" fill-rule="evenodd"><path d="M97.434 80.971c11.542 0 19.237-8.467 19.237-19.844 0-11.378-7.695-19.845-19.237-19.845-11.543 0-19.105 8.467-19.105 19.845 0 11.377 7.562 19.844 19.105 19.844zM64 94.201V1.593L78.594 0v34.926c4.113-4.492 11.277-7.667 19.503-7.667 19.768 0 32.903 13.23 32.903 33.868C131 81.77 117.865 95 98.097 95c-8.756 0-15.257-3.578-19.503-7.679v6.88H64zM139 27.794h14.728v6.885C156.941 30.437 161.628 27 171 27v14.034h-1.339c-9.378 0-15.933 6.626-15.933 16.418V94H139V27.794zM176.568 94h14.864V28.134h-14.864V94zm7.426-93C189.541 1 194 5.347 194 10.879c0 5.538-4.46 9.879-10.006 9.879-5.535 0-9.994-4.341-9.994-9.879C174 5.347 178.46 1 183.994 1zM212.004 72.285c0 5.584 4.4 8.904 8.799 8.904 5.066 0 8.532-2.928 8.532-8.234 0-7.443-6.538-7.968-13.065-9.833-6.671-1.86-13.87-7.038-13.87-17.795C202.4 34.702 210.67 27 220.802 27c6.932 0 12.132 3.054 15.865 8.5l-9.066 8.897c-1.067-2.656-3.205-4.382-5.866-4.382-3.466 0-5.333 2.656-5.333 5.312 0 5.843 7.466 5.71 14.665 8.372 6.8 2.517 12.932 7.697 12.932 18.985C244 85.969 234.268 95 220.803 95 207.066 95 198 84.907 198 72.285h14.004zM255.428 1.59L270.058 0v27.991H290V41.72h-19.942V94h-14.63V41.72H242V27.991h13.428zM325 80.917c11.414 0 19.122-8.366 19.122-19.92 0-11.554-7.708-19.92-19.122-19.92-11.42 0-19.127 8.366-19.127 19.92 0 11.554 7.707 19.92 19.127 19.92M325 27c19.653 0 34 14.608 34 33.997C359 80.387 344.653 95 325 95c-19.659 0-34-14.614-34-34.003S305.341 27 325 27M367 1.59L382 0v94h-15zM34.07 180.189c11.31 0 19.293-8.234 19.293-20.186H68C68 179.386 53.363 194 34.07 194 14.51 194 0 179.52 0 160.003 0 140.47 14.51 126 34.07 126c10.378 0 18.229 3.846 24.35 10.093l-10.778 9.694c-3.327-3.585-7.718-5.976-13.573-5.976-11.443 0-19.166 8.234-19.166 20.192 0 11.952 7.723 20.186 19.166 20.186M105 179.917c11.414 0 19.122-8.366 19.122-19.92 0-11.554-7.708-19.92-19.122-19.92-11.42 0-19.127 8.366-19.127 19.92 0 11.554 7.707 19.92 19.127 19.92M105 126c19.653 0 34 14.608 34 33.997 0 19.39-14.347 34.003-34 34.003-19.659 0-34-14.614-34-34.003S85.341 126 105 126M147 127.794h14.591v7.547c3.581-4.904 9.943-8.341 17.244-8.341 8.097 0 13.795 3.31 17.376 9.141 5.04-5.301 10.485-9.141 20.03-9.141 13.535 0 21.759 7.288 21.759 23.567V194h-14.591v-39.726c0-8.606-3.985-13.499-11.81-13.499-6.76 0-11.8 4.893-11.8 13.5V194h-14.597v-39.726c0-8.606-4.112-13.499-11.806-13.499-6.765 0-11.805 4.893-11.805 13.5V194H147v-66.206zM261.959 152.03h35.082c-2.11-6.912-9.232-12.49-17.541-12.49-8.31 0-15.431 5.578-17.541 12.49zm-.66 13.02c1.583 8.36 9.1 15.139 18.597 15.139 6.726 0 12.134-2.13 14.909-6.375h17.272C307.598 185.894 294.805 194 279.896 194 260.766 194 246 178.86 246 159.997 246 141.14 260.766 126 279.5 126s33.5 15.14 33.5 33.997c0 1.727-.126 3.448-.39 5.052H261.3zM350.564 140.282c-11.542 0-19.236 8.467-19.236 19.85 0 11.372 7.694 19.839 19.236 19.839 11.541 0 19.103-8.467 19.103-19.839 0-11.383-7.562-19.85-19.103-19.85zm18.838 52.924v-6.88c-4.24 4.102-10.746 7.674-19.502 7.674-19.766 0-32.9-13.23-32.9-33.868 0-20.644 13.134-33.873 32.9-33.873 8.225 0 15.39 3.175 19.502 7.673v-33.339L384 99v94.206h-14.598zM403.087 127l16.416 38.567L435.913 127H451l-24.218 54.608v44.796L412.218 228v-46.392L388 127zM58.867 265.9c7.318 0 12.778-5.175 12.778-12.995 0-7.952-5.46-13.121-12.778-13.121-7.45 0-12.906 5.169-12.906 13.121 0 7.82 5.455 12.995 12.906 12.995m-.798-39.9c5.189 0 9.978 1.187 13.576 3.844v-3.049h14.63v26.11c0 7.688-3.055 14.58-8.914 19.351C85.343 277.828 90 286.576 90 296.384 90 314.944 76.302 327 58.867 327 42.502 327 30.655 316.662 28 301.685h15.167c1.996 6.495 6.786 11.531 15.7 11.531 9.845 0 16.237-6.892 16.237-16.832 0-9.94-6.392-16.7-16.237-16.7-6.386 0-11.974 3.71-14.502 8.747l-10.644-10.47c1.597-2.12 3.587-4.115 6.52-5.705-5.727-4.898-8.92-11.663-8.92-19.35C31.32 237.933 42.364 226 58.069 226M126.765 240.077c-10.99 0-19.465 9.03-19.465 19.926 0 10.884 8.475 19.914 19.465 19.914 10.725 0 18.94-9.03 18.94-19.914 0-10.896-8.215-19.926-18.94-19.926zM160 226.797v66.406h-14.83v-6.905c-2.78 3.585-10.058 7.702-18.935 7.702C107.3 294 93 279.917 93 260.003 93 240.077 107.3 226 126.235 226c8.74 0 16.154 4.117 18.935 7.702v-6.905H160zM172 226.794h14.728v6.885c3.213-4.242 7.9-7.679 17.272-7.679v14.034h-1.339c-9.378 0-15.933 6.626-15.933 16.418V293H172v-66.206zM238.564 240.282c-11.542 0-19.236 8.467-19.236 19.85 0 11.372 7.694 19.839 19.236 19.839 11.541 0 19.103-8.467 19.103-19.839 0-11.383-7.562-19.85-19.103-19.85zm18.838 52.924v-6.88c-4.24 4.102-10.746 7.674-19.502 7.674-19.766 0-32.9-13.23-32.9-33.868 0-20.644 13.134-33.873 32.9-33.873 8.225 0 15.39 3.175 19.502 7.673v-33.339L272 199v94.206h-14.598zM295.959 252.03h35.082c-2.11-6.912-9.232-12.49-17.541-12.49-8.31 0-15.431 5.578-17.541 12.49zm-.66 13.02c1.583 8.36 9.1 15.139 18.597 15.139 6.726 0 12.134-2.13 14.909-6.375h17.272C341.598 285.894 328.805 294 313.896 294 294.766 294 280 278.86 280 259.997 280 241.14 294.766 226 313.5 226s33.5 15.14 33.5 33.997c0 1.727-.126 3.448-.39 5.052H295.3zM355 226.794h14.533v7.547c3.033-3.977 8.979-8.341 18.1-8.341 16.383 0 25.367 9.665 25.367 27.274V293h-14.533v-36.548c0-11.646-4.888-16.677-14.4-16.677-9.513 0-14.534 6.885-14.534 16.677V293H355v-66.206z"/></g></svg>