<?xml version="1.0" encoding="UTF-8"?>
<svg width="102px" height="57px" viewBox="0 0 102 57" version="1.1" xmlns="http://www.w3.org/2000/svg" xmlns:xlink="http://www.w3.org/1999/xlink">
    <!-- Generator: Sketch 52.6 (67491) - http://www.bohemiancoding.com/sketch -->
    <title>Group 31</title>
    <desc>Created with Sketch.</desc>
    <g id="Page-1" stroke="none" stroke-width="1" fill="none" fill-rule="evenodd">
        <g id="Group-31" fill="#000000">
            <path d="M5.5684,12.1689 C6.8884,12.1689 7.8734,11.2329 7.8734,9.8169 C7.8734,8.3769 6.8884,7.4399 5.5684,7.4399 C4.2244,7.4399 3.2404,8.3769 3.2404,9.8169 C3.2404,11.2329 4.2244,12.1689 5.5684,12.1689 M5.4244,4.9439 C6.3604,4.9439 7.2244,5.1599 7.8734,5.6399 L7.8734,5.0879 L10.5124,5.0879 L10.5124,9.8169 C10.5124,11.2089 9.9614,12.4569 8.9044,13.3209 C10.3444,14.3289 11.1844,15.9129 11.1844,17.6899 C11.1844,21.0499 8.7134,23.2339 5.5684,23.2339 C2.6164,23.2339 0.4794,21.3619 0.0004,18.6489 L2.7364,18.6489 C3.0954,19.8259 3.9604,20.7379 5.5684,20.7379 C7.3444,20.7379 8.4974,19.4899 8.4974,17.6899 C8.4974,15.8889 7.3444,14.6649 5.5684,14.6649 C4.4164,14.6649 3.4084,15.3369 2.9524,16.2499 L1.0324,14.3529 C1.3204,13.9689 1.6794,13.6089 2.2084,13.3209 C1.1754,12.4329 0.5994,11.2089 0.5994,9.8169 C0.5994,7.1049 2.5914,4.9439 5.4244,4.9439" id="Fill-1"></path>
            <path d="M12.6104,5.0884 L15.2504,5.0884 L15.2504,6.3364 C15.8264,5.5684 16.6664,4.9444 18.3464,4.9444 L18.3464,7.4884 L18.1064,7.4884 C16.4254,7.4884 15.2504,8.6884 15.2504,10.4644 L15.2504,17.0894 L12.6104,17.0894 L12.6104,5.0884 Z" id="Fill-3"></path>
            <path d="M21.2949,9.6489 L27.6789,9.6489 C27.2949,8.3999 25.9989,7.3929 24.4869,7.3929 C22.9749,7.3929 21.6789,8.3999 21.2949,9.6489 Z M21.1749,12.0009 C21.4629,13.5129 22.8309,14.7369 24.5589,14.7369 C25.7829,14.7369 26.7669,14.3529 27.2719,13.5849 L30.4149,13.5849 C29.5999,15.7689 27.2719,17.2329 24.5589,17.2329 C21.0779,17.2329 18.3909,14.4969 18.3909,11.0889 C18.3909,7.6809 21.0779,4.9439 24.4869,4.9439 C27.8959,4.9439 30.5829,7.6809 30.5829,11.0889 C30.5829,11.4009 30.5599,11.7129 30.5119,12.0009 L21.1749,12.0009 Z" id="Fill-5"></path>
            <path d="M34.1758,9.6489 L40.5598,9.6489 C40.1758,8.3999 38.8798,7.3929 37.3678,7.3929 C35.8558,7.3929 34.5598,8.3999 34.1758,9.6489 Z M34.0558,12.0009 C34.3438,13.5129 35.7118,14.7369 37.4398,14.7369 C38.6638,14.7369 39.6478,14.3529 40.1528,13.5849 L43.2958,13.5849 C42.4808,15.7689 40.1528,17.2329 37.4398,17.2329 C33.9588,17.2329 31.2718,14.4969 31.2718,11.0889 C31.2718,7.6809 33.9588,4.9439 37.3678,4.9439 C40.7768,4.9439 43.4638,7.6809 43.4638,11.0889 C43.4638,11.4009 43.4408,11.7129 43.3928,12.0009 L34.0558,12.0009 Z" id="Fill-7"></path>
            <path d="M44.9248,5.0884 L47.5648,5.0884 L47.5648,6.4564 C48.1158,5.7364 49.1958,4.9444 50.8528,4.9444 C53.8288,4.9444 55.4608,6.6964 55.4608,9.8884 L55.4608,17.0894 L52.8208,17.0894 L52.8208,10.4644 C52.8208,8.3524 51.9328,7.4404 50.2048,7.4404 C48.4768,7.4404 47.5648,8.6884 47.5648,10.4644 L47.5648,17.0894 L44.9248,17.0894 L44.9248,5.0884 Z" id="Fill-9"></path>
            <polygon id="Fill-11" points="63.1426 5.0884 63.9346 7.5844 64.7266 5.0884 67.3196 5.0884 65.2316 10.6324 66.2626 13.7054 69.4316 5.0884 72.1196 5.0884 67.3916 17.0894 64.9916 17.0894 63.9346 13.9454 62.8786 17.0894 60.4786 17.0894 55.7496 5.0884 58.4386 5.0884 61.6066 13.7054 62.6386 10.6324 60.5506 5.0884"></polygon>
            <path d="M73.091,17.0894 L75.731,17.0894 L75.731,5.0884 L73.091,5.0884 L73.091,17.0894 Z M74.41,0.1444 C75.395,0.1444 76.187,0.9364 76.187,1.9434 C76.187,2.9524 75.395,3.7444 74.41,3.7444 C73.427,3.7444 72.635,2.9524 72.635,1.9434 C72.635,0.9364 73.427,0.1444 74.41,0.1444 Z" id="Fill-13"></path>
            <path d="M83.2402,14.7373 C85.2802,14.7373 86.7202,13.2493 86.7202,11.0893 L89.3602,11.0893 C89.3602,14.5933 86.7202,17.2333 83.2402,17.2333 C79.7122,17.2333 77.0952,14.6173 77.0952,11.0893 C77.0952,7.5603 79.7122,4.9443 83.2402,4.9443 C85.1122,4.9443 86.5282,5.6403 87.6332,6.7683 L85.6882,8.5203 C85.0882,7.8723 84.2962,7.4403 83.2402,7.4403 C81.1762,7.4403 79.7832,8.9283 79.7832,11.0893 C79.7832,13.2493 81.1762,14.7373 83.2402,14.7373" id="Fill-15"></path>
            <path d="M90.6006,0.2881 L93.2406,0.0001 L93.2406,6.4561 C93.9596,5.5921 95.1126,4.9441 96.6726,4.9441 C99.5296,4.9441 101.2816,6.6961 101.2816,9.8891 L101.2816,17.0891 L98.6406,17.0891 L98.6406,10.4651 C98.6406,8.5931 97.8486,7.4401 96.0246,7.4401 C94.3206,7.4401 93.2406,8.7121 93.2406,10.4651 L93.2406,17.0891 L90.6006,17.0891 L90.6006,0.2881 Z" id="Fill-16"></path>
            <path d="M16.8291,33.7373 C18.8691,33.7373 20.3091,32.2493 20.3091,30.0893 L22.9491,30.0893 C22.9491,33.5933 20.3091,36.2333 16.8291,36.2333 C13.3011,36.2333 10.6841,33.6173 10.6841,30.0893 C10.6841,26.5603 13.3011,23.9443 16.8291,23.9443 C18.7011,23.9443 20.1171,24.6403 21.2211,25.7683 L19.2771,27.5203 C18.6771,26.8723 17.8851,26.4403 16.8291,26.4403 C14.7651,26.4403 13.3721,27.9283 13.3721,30.0893 C13.3721,32.2493 14.7651,33.7373 16.8291,33.7373" id="Fill-17"></path>
            <path d="M29.7451,33.689 C31.8081,33.689 33.2011,32.177 33.2011,30.089 C33.2011,28.001 31.8081,26.489 29.7451,26.489 C27.6811,26.489 26.2881,28.001 26.2881,30.089 C26.2881,32.177 27.6811,33.689 29.7451,33.689 M29.7451,23.944 C33.2971,23.944 35.8901,26.585 35.8901,30.089 C35.8901,33.593 33.2971,36.233 29.7451,36.233 C26.1921,36.233 23.6001,33.593 23.6001,30.089 C23.6001,26.585 26.1921,23.944 29.7451,23.944" id="Fill-18"></path>
            <path d="M37.3389,24.0884 L39.9789,24.0884 L39.9789,25.4564 C40.6269,24.5684 41.7779,23.9444 43.0989,23.9444 C44.5639,23.9444 45.5949,24.5444 46.2429,25.6004 C47.1549,24.6404 48.1399,23.9444 49.8669,23.9444 C52.3159,23.9444 53.8039,25.2644 53.8039,28.2164 L53.8039,36.0894 L51.1639,36.0894 L51.1639,28.8884 C51.1639,27.3284 50.4429,26.4404 49.0269,26.4404 C47.8039,26.4404 46.8919,27.3284 46.8919,28.8884 L46.8919,36.0894 L44.2509,36.0894 L44.2509,28.8884 C44.2509,27.3284 43.5069,26.4404 42.1149,26.4404 C40.8909,26.4404 39.9789,27.3284 39.9789,28.8884 L39.9789,36.0894 L37.3389,36.0894 L37.3389,24.0884 Z" id="Fill-19"></path>
            <path d="M58.0342,28.6489 L64.4182,28.6489 C64.0342,27.3999 62.7382,26.3929 61.2262,26.3929 C59.7142,26.3929 58.4182,27.3999 58.0342,28.6489 Z M57.9142,31.0009 C58.2022,32.5129 59.5702,33.7369 61.2982,33.7369 C62.5222,33.7369 63.5062,33.3529 64.0112,32.5849 L67.1542,32.5849 C66.3392,34.7689 64.0112,36.2329 61.2982,36.2329 C57.8172,36.2329 55.1302,33.4969 55.1302,30.0889 C55.1302,26.6809 57.8172,23.9439 61.2262,23.9439 C64.6352,23.9439 67.3222,26.6809 67.3222,30.0889 C67.3222,30.4009 67.2992,30.7129 67.2512,31.0009 L57.9142,31.0009 Z" id="Fill-20"></path>
            <path d="M74.1406,26.4888 C72.0526,26.4888 70.6606,28.0248 70.6606,30.0888 C70.6606,32.1528 72.0526,33.6888 74.1406,33.6888 C76.2286,33.6888 77.5966,32.1528 77.5966,30.0888 C77.5966,28.0248 76.2286,26.4888 74.1406,26.4888 Z M77.5486,36.0898 L77.5486,34.8418 C76.7816,35.5858 75.6046,36.2338 74.0206,36.2338 C70.4446,36.2338 68.0686,33.8328 68.0686,30.0888 C68.0686,26.3448 70.4446,23.9448 74.0206,23.9448 C75.5086,23.9448 76.8046,24.5208 77.5486,25.3368 L77.5486,19.2878 L80.1896,18.9998 L80.1896,36.0898 L77.5486,36.0898 Z" id="Fill-21"></path>
            <polygon id="Fill-22" points="83.6113 24.0884 86.5883 31.0724 89.5643 24.0884 92.3003 24.0884 87.9083 33.9774 87.9083 41.0894 85.2673 42.3784 85.2673 33.9774 80.8753 24.0884"></polygon>
            <path d="M17.8398,42.2642 C17.8398,40.0562 19.3998,39.1442 21.0798,39.1442 C22.1598,39.1442 23.0478,39.4802 23.6718,40.2482 L21.8958,42.0002 C21.7758,41.8082 21.5598,41.6402 21.1998,41.6402 C20.7678,41.6402 20.4798,41.9522 20.4798,42.4322 L20.4798,44.0882 L24.3198,44.0882 L24.3198,46.5842 L20.4798,46.5842 L20.4798,56.0892 L17.8398,56.0892 L17.8398,46.5842 L15.4148,46.5842 L15.4148,44.0882 L17.8398,44.0882 L17.8398,42.2642 Z" id="Fill-23"></path>
            <path d="M27.0967,48.6489 L33.4807,48.6489 C33.0967,47.3999 31.8007,46.3929 30.2887,46.3929 C28.7767,46.3929 27.4807,47.3999 27.0967,48.6489 Z M26.9767,51.0009 C27.2647,52.5129 28.6327,53.7369 30.3607,53.7369 C31.5847,53.7369 32.5687,53.3529 33.0737,52.5849 L36.2167,52.5849 C35.4017,54.7689 33.0737,56.2329 30.3607,56.2329 C26.8797,56.2329 24.1927,53.4969 24.1927,50.0889 C24.1927,46.6809 26.8797,43.9439 30.2887,43.9439 C33.6977,43.9439 36.3847,46.6809 36.3847,50.0889 C36.3847,50.4009 36.3617,50.7129 36.3137,51.0009 L26.9767,51.0009 Z" id="Fill-24"></path>
            <path d="M39.4697,52.1289 C39.4697,53.1369 40.2617,53.7369 41.0537,53.7369 C41.9657,53.7369 42.5897,53.2089 42.5897,52.2489 C42.5897,50.9049 41.4137,50.8089 40.2377,50.4729 C39.0367,50.1369 37.7407,49.2009 37.7407,47.2559 C37.7407,45.3369 39.2297,43.9439 41.0537,43.9439 C42.3017,43.9439 43.2377,44.4969 43.9097,45.4809 L42.2777,47.0879 C42.0857,46.6079 41.7007,46.2959 41.2217,46.2959 C40.5977,46.2959 40.2617,46.7759 40.2617,47.2559 C40.2617,48.3129 41.6057,48.2889 42.9017,48.7689 C44.1257,49.2249 45.2297,50.1609 45.2297,52.2009 C45.2297,54.6009 43.4777,56.2329 41.0537,56.2329 C38.5807,56.2329 36.9487,54.4089 36.9487,52.1289 L39.4697,52.1289 Z" id="Fill-25"></path>
            <polygon id="Fill-26" points="47.3506 39.2881 49.9916 39.0001 49.9916 44.0881 53.5916 44.0881 53.5916 46.5841 49.9916 46.5841 49.9916 56.0891 47.3506 56.0891 47.3506 46.5841 44.9266 46.5841 44.9266 44.0881 47.3506 44.0881"></polygon>
            <path d="M54.562,56.0894 L57.202,56.0894 L57.202,44.0884 L54.562,44.0884 L54.562,56.0894 Z M55.881,39.1444 C56.865,39.1444 57.657,39.9364 57.657,40.9434 C57.657,41.9524 56.865,42.7444 55.881,42.7444 C54.897,42.7444 54.105,41.9524 54.105,40.9434 C54.105,39.9364 54.897,39.1444 55.881,39.1444 Z" id="Fill-27"></path>
            <polygon id="Fill-28" points="60.6855 44.0884 63.5655 52.3454 66.4465 44.0884 69.2785 44.0884 64.8625 56.0894 62.2695 56.0894 57.8535 44.0884"></polygon>
            <path d="M74.8555,46.4888 C72.8635,46.4888 71.3275,48.1208 71.3275,50.0888 C71.3275,52.0568 72.8635,53.6888 74.8555,53.6888 C76.7995,53.6888 78.2885,52.0568 78.2885,50.0888 C78.2885,48.1208 76.7995,46.4888 74.8555,46.4888 Z M80.8795,44.0888 L80.8795,56.0898 L78.1915,56.0898 L78.1915,54.8418 C77.6875,55.4888 76.3685,56.2338 74.7595,56.2338 C71.3275,56.2338 68.7355,53.6888 68.7355,50.0888 C68.7355,46.4888 71.3275,43.9448 74.7595,43.9448 C76.3435,43.9448 77.6875,44.6888 78.1915,45.3368 L78.1915,44.0888 L80.8795,44.0888 Z" id="Fill-29"></path>
            <polygon id="Fill-30" points="83.1064 40.2881 85.7464 39.0001 85.7464 56.0891 83.1064 56.0891"></polygon>
        </g>
    </g>
</svg>