<svg xmlns="http://www.w3.org/2000/svg" data-name="Layer 1" viewBox="0 0 476.076 259"><path d="M41.66 62.322a20.677 20.677 0 0 0 7.524-16.395V23.806H36.831v2.582c-3.031-2.245-7.073-3.256-11.453-3.256-13.251 0-22.571 10.106-22.571 22.8a21.2 21.2 0 0 0 7.524 16.395 16.7 16.7 0 0 0-5.5 4.829l8.983 8.871a13.778 13.778 0 0 1 12.239-7.411c8.309 0 13.7 5.727 13.7 14.148s-5.392 14.261-13.7 14.261c-7.523 0-11.565-4.267-13.25-9.77H.003c2.246 12.689 12.24 21.448 26.051 21.448 14.712 0 26.277-10.218 26.277-25.939A24.629 24.629 0 0 0 41.66 62.322zm-15.609-5.39c-6.288 0-10.892-4.379-10.892-11 0-6.737 4.6-11.116 10.892-11.116 6.177 0 10.78 4.379 10.78 11.116 0 6.621-4.603 11-10.78 11zM70.402 48.96c0-8.31 5.5-13.924 13.362-13.924h1.124v-11.9c-7.861 0-11.791 2.92-14.486 6.513V23.81H58.051v56.146h12.351zM114.755 80.626c12.689 0 23.581-6.85 27.4-17.068h-14.711c-2.359 3.593-6.963 5.389-12.689 5.389a16.007 16.007 0 0 1-15.833-12.8h43.681a26.347 26.347 0 0 0 .336-4.267 28.522 28.522 0 1 0-28.184 28.747zm-.338-46.04c7.076 0 13.138 4.716 14.936 10.556h-29.87c1.796-5.842 7.855-10.556 14.934-10.556z"/><path d="M175.724 80.626c12.689 0 23.581-6.85 27.4-17.068h-14.711c-2.359 3.593-6.963 5.389-12.689 5.389a16.008 16.008 0 0 1-15.834-12.8h43.682a26.349 26.349 0 0 0 .335-4.267 28.522 28.522 0 1 0-28.183 28.747zm-.338-46.04c7.075 0 13.138 4.716 14.935 10.556h-29.869c1.796-5.842 7.86-10.556 14.934-10.556zM221.983 48.96c0-8.31 4.265-14.149 12.352-14.149s12.238 4.266 12.238 14.149v30.992h12.354V46.264c0-14.934-7.636-23.132-21.561-23.132-7.747 0-12.8 3.706-15.383 7.074v-6.4H209.63v56.146h12.353zM297.997 79.952l4.942-14.71 4.941 14.71h11.228l22.122-56.146h-12.578l-14.821 40.313-4.829-14.374 9.77-25.939h-12.129l-3.704 11.678-3.706-11.678h-12.127l9.769 25.939-4.829 14.374-14.823-40.313h-12.576l22.122 56.146h11.228z"/><ellipse cx="352.227" cy="9.096" rx="8.309" ry="8.422"/><path d="M346.05 23.806h12.354v56.146H346.05zM392.652 80.626c16.281 0 28.634-12.353 28.634-28.747h-12.348c0 10.106-6.737 17.068-16.281 17.068-9.659 0-16.171-6.962-16.171-17.068s6.512-17.068 16.171-17.068a15.032 15.032 0 0 1 11.454 5.053l9.094-8.2a27.519 27.519 0 0 0-20.548-8.534c-16.509 0-28.747 12.24-28.747 28.747s12.233 28.749 28.742 28.749zM454.516 23.132c-7.3 0-12.689 3.032-16.058 7.074V0l-12.351 1.348v78.6h12.351V48.96c0-8.2 5.053-14.149 13.027-14.149 8.533 0 12.24 5.39 12.24 14.149v30.992h12.351V46.264c0-14.934-8.197-23.132-21.56-23.132zM108.243 137.566H95.892c0 10.106-6.737 17.068-16.283 17.068-9.656 0-16.17-6.962-16.17-17.068s6.514-17.066 16.17-17.066a15.026 15.026 0 0 1 11.454 5.053l9.1-8.2a27.527 27.527 0 0 0-20.551-8.533c-16.507 0-28.746 12.239-28.746 28.746s12.239 28.747 28.746 28.747c16.28 0 28.631-12.353 28.631-28.747zM111.493 137.566c0 16.394 12.129 28.747 28.747 28.747s28.746-12.353 28.746-28.747-12.125-28.746-28.748-28.746-28.745 12.351-28.745 28.746zm44.917 0c0 9.77-6.512 16.844-16.17 16.844s-16.169-7.074-16.169-16.844 6.514-16.843 16.169-16.843 16.17 7.077 16.17 16.843zM235.238 108.82c-8.085 0-12.689 3.256-16.956 7.747-3.032-4.94-7.86-7.747-14.71-7.747a18.092 18.092 0 0 0-14.6 7.073v-6.4h-12.353v56.146h12.351v-33.688c0-7.3 4.268-11.453 9.994-11.453 6.515 0 10 4.155 10 11.453v33.688h12.352v-33.688c0-7.3 4.267-11.453 9.993-11.453 6.625 0 9.994 4.155 9.994 11.453v33.688h12.354v-36.832c-.005-13.807-6.968-19.987-18.419-19.987zM288.117 166.313c12.689 0 23.581-6.85 27.4-17.068h-14.71c-2.359 3.593-6.961 5.389-12.689 5.389a16.009 16.009 0 0 1-15.834-12.8h43.682a26.337 26.337 0 0 0 .337-4.267 28.523 28.523 0 1 0-28.185 28.747zm-.337-46.04c7.074 0 13.137 4.716 14.934 10.556h-29.869c1.793-5.84 7.86-10.556 14.935-10.556zM320.228 137.566c0 17.518 11.117 28.747 27.848 28.747a23.3 23.3 0 0 0 16.5-6.513v5.839h12.362V85.687l-12.354 1.348v28.3c-3.48-3.818-9.542-6.512-16.5-6.512-16.739-.003-27.856 11.226-27.856 28.743zm44.579 0c0 9.657-6.4 16.844-16.171 16.844s-16.281-7.187-16.281-16.844 6.513-16.843 16.281-16.843 16.171 7.186 16.171 16.843zM406.461 142.17l-13.924-32.677h-12.8l20.549 46.264v24.063l-10.779 9.903v68.604h12.352v-64.713l10.779-9.902v-27.955l20.549-46.264h-12.802l-13.924 32.677zM115.316 202.181H97.348v-7.748c0-2.246 1.35-3.706 3.369-3.706a3.617 3.617 0 0 1 3.258 1.685l8.31-8.2c-2.921-3.594-7.075-5.166-12.128-5.166-7.862 0-15.16 4.267-15.16 14.6v8.534H73.655v11.678h11.342v44.468h12.351v-44.467h17.968z"/><path d="M143.048 201.507a28.747 28.747 0 0 0 .338 57.493c12.689 0 23.581-6.849 27.4-17.067h-14.711c-2.359 3.592-6.963 5.389-12.689 5.389a16.008 16.008 0 0 1-15.834-12.8h43.686a26.343 26.343 0 0 0 .335-4.268 28.468 28.468 0 0 0-28.525-28.747zm-14.934 22.009c1.8-5.839 7.86-10.555 14.934-10.555s13.138 4.716 14.935 10.555zM202.11 224.078c-6.064-2.246-12.352-2.134-12.352-7.074a4.359 4.359 0 0 1 4.491-4.492 5.364 5.364 0 0 1 4.94 3.7l7.636-7.523a15.679 15.679 0 0 0-28.859 8.31c0 9.095 6.064 13.475 11.679 15.046 5.5 1.572 11 2.021 11 8.309 0 4.493-2.92 6.963-7.187 6.963a7.351 7.351 0 0 1-7.411-7.523h-11.79c0 10.668 7.636 19.2 19.2 19.2 11.341 0 19.539-7.636 19.539-18.864.006-9.539-5.158-13.919-10.886-16.052zM234.444 178.375l-12.35 1.348v22.458h-11.343v11.678h11.343v44.468h12.35v-44.468h16.844v-11.678h-16.844v-23.806z"/><ellipse cx="262.74" cy="187.471" rx="8.309" ry="8.422"/><path d="M256.563 202.181h12.354v56.146h-12.354zM313.268 202.181l-13.475 38.628-13.475-38.628h-13.251l20.662 56.146h12.128l20.66-56.146h-13.249zM367.164 208.02c-2.357-3.032-8.645-6.513-16.058-6.513-16.057 0-28.184 11.9-28.184 28.746S335.049 259 351.106 259c7.524 0 13.7-3.48 16.058-6.512v5.839h12.574v-56.146h-12.574zm-15.607 39.08a16.847 16.847 0 0 1 0-33.688c9.1 0 16.058 7.636 16.058 16.843s-6.963 16.845-16.058 16.845z"/></svg>