<?xml version="1.0" encoding="utf-8"?>
<!-- Generator: Adobe Illustrator 21.0.0, SVG Export Plug-In . SVG Version: 6.00 Build 0)  -->
<svg version="1.1" id="Layer_1" xmlns="http://www.w3.org/2000/svg" xmlns:xlink="http://www.w3.org/1999/xlink" x="0px" y="0px"
	 viewBox="0 0 570.7 174.1" style="enable-background:new 0 0 570.7 174.1;" xml:space="preserve">
<g>
	<g>
		<path d="M84.7,44.2c7.8,3.9,15.6,13.2,15.6,25.5c0,18.4-14.5,32-32.3,32H34.4V0.9h32.8C84,0.9,94,11.5,94,26.9
			C94,35,89.4,41.5,84.7,44.2z M50.5,37.7h16.7c6.9,0,10.9-4.2,10.9-10.8s-4-10.8-10.9-10.8H50.5V37.7z M50.5,86.4h16.7
			c10.5,0,16.8-6.8,16.8-16.7c0-9.9-6.3-16.7-16.8-16.7H50.5V86.4z"/>
		<path d="M145.1,0.9c16,0,28.9,10.4,28.9,28.8c0,16.1-10.5,25.8-22.9,28.2l22.9,43.8h-18.4l-21.6-43.2h-2.3v43.2h-16.1V0.9H145.1z
			 M131.8,43.2h13.5c8.6,0,13-5.8,13-13.5c0-7.8-4.3-13.5-13-13.5h-13.5V43.2z"/>
		<path d="M230.7,16.1h-15.3v70.3h15.3v15.3H184V86.4h15.3V16.1H184V0.9h46.7V16.1z"/>
		<path d="M283,41.2c12.5,4.8,20.6,13.1,20.6,28.5c0,18.7-14.3,32.8-32.4,32.8c-18.4,0-32.4-14.5-32.4-32.4h16.1
			c0,9.4,6,17.1,16.3,17.1s16.3-7.1,16.3-17.1c0-15.1-13.2-15.1-27.4-20.6c-9.2-3.6-15.8-11.7-15.8-22.8c0-15.7,11.5-26.8,26.5-26.8
			c10.9,0,19,4.6,23.9,13l-10.8,10.8c-2.4-5.5-7.5-8.5-12.7-8.5c-6.6,0-11.1,4.5-11.1,10.7C260.1,35.3,269.7,36.1,283,41.2z"/>
		<path d="M306,0.9h61.9v15.3H345v85.5h-16.1V16.1H306V0.9z"/>
		<path d="M422.3,102.5c-28.5,0-49.8-22.9-49.8-51.3c0-28.4,21.3-51.3,49.8-51.3c28.5,0,49.8,22.9,49.8,51.3
			C472.2,79.6,450.9,102.5,422.3,102.5z M422.3,15.3c-19.6,0-33.4,15.8-33.4,36c0,20.2,13.8,36,33.4,36c19.6,0,33.4-15.8,33.4-36
			C455.8,31.1,441.9,15.3,422.3,15.3z"/>
		<path d="M485.3,0.9h16.1v85.5h48v15.3h-64.1V0.9z"/>
	</g>
	<g>
		<path d="M24.9,166.5c9.8,0,16.7-7.6,16.7-18h8.2c0,14.2-10.7,25.6-24.9,25.6S0,162.6,0,148.5s10.7-25.6,24.9-25.6
			c8.1,0,14.6,3.7,19.2,9.2l-5.6,5.6c-3-4.4-7.4-7.2-13.5-7.2c-9.8,0-16.7,7.9-16.7,18S15.1,166.5,24.9,166.5z"/>
		<path d="M80.1,174.1c-14.3,0-24.9-11.4-24.9-25.6s10.7-25.6,24.9-25.6s24.9,11.4,24.9,25.6S94.4,174.1,80.1,174.1z M80.1,130.5
			c-9.8,0-16.7,7.9-16.7,18s6.9,18,16.7,18c9.8,0,16.7-7.9,16.7-18S89.9,130.5,80.1,130.5z"/>
		<path d="M112.6,123.3h8.9l16,38.9l16-38.9h8.9v50.4h-8.1v-32l-13.2,32h-7.2l-13.2-32v32h-8.1V123.3z"/>
		<path d="M172.2,123.3h31.6v7.6h-23.5v13.5h11.4v7.6h-11.4v14h24v7.6h-32V123.3z"/>
		<path d="M225.9,123.3c14.4,0,24.8,9.6,24.8,25.2s-10.4,25.2-24.8,25.2h-14.8v-50.4H225.9z M219.2,130.9V166h6.9
			c9.1,0,16.4-6.3,16.4-17.6s-7.3-17.6-16.4-17.6H219.2z"/>
		<path d="M260.3,123.3l9.3,20.6l9.3-20.6h8.5l-13.8,28.8v21.6h-8.1v-21.6l-13.8-28.8H260.3z"/>
		<path d="M352.6,166.8c-4,4.9-9.9,7.3-16.3,7.3c-14.3,0-24.9-11.4-24.9-25.6s10.7-25.6,24.9-25.6c8.1,0,14.6,3.7,19.2,9.2l-5.6,5.6
			c-3-4.4-7.4-7.2-13.5-7.2c-9.8,0-16.7,7.9-16.7,18s6.9,18,16.7,18c8.8,0,14.8-5.7,16.3-14.4H336v-7.6h24.1v29.2h-7.5V166.8z"/>
		<path d="M401.7,173.7l-3-8.3h-22.5l-3,8.3h-8.4l18.6-50.4h8.1l18.6,50.4H401.7z M378.9,157.7H396l-8.6-23.7L378.9,157.7z"/>
		<path d="M430.3,123.3c8,0,14.5,5.2,14.5,14.4c0,8.1-5.3,12.9-11.4,14.1l11.4,21.9h-9.2l-10.8-21.6h-1.2v21.6h-8.1v-50.4H430.3z
			 M423.6,144.4h6.8c4.3,0,6.5-2.9,6.5-6.8c0-3.9-2.2-6.8-6.5-6.8h-6.8V144.4z"/>
		<path d="M467.1,123.3c14.4,0,24.8,9.6,24.8,25.2s-10.4,25.2-24.8,25.2h-14.8v-50.4H467.1z M460.4,130.9V166h6.9
			c9.1,0,16.4-6.3,16.4-17.6s-7.3-17.6-16.4-17.6H460.4z"/>
		<path d="M498.5,123.3h31.6v7.6h-23.5v13.5H518v7.6h-11.4v14h24v7.6h-32V123.3z"/>
		<path d="M537.5,123.3h8.9l16.2,34.7v-34.7h8.1v50.4h-8.9L545.6,139v34.7h-8.1V123.3z"/>
	</g>
</g>
</svg>
