<?xml version="1.0" standalone="no"?>
<!DOCTYPE svg PUBLIC "-//W3C//DTD SVG 20010904//EN"
 "http://www.w3.org/TR/2001/REC-SVG-20010904/DTD/svg10.dtd">
<svg version="1.0" xmlns="http://www.w3.org/2000/svg"
 width="700.000000pt" height="700.000000pt" viewBox="0 0 700.000000 700.000000"
 preserveAspectRatio="xMidYMid meet">
<metadata>
Created by potrace 1.11, written by Peter Selinger 2001-2013
</metadata>
<g transform="translate(0.000000,700.000000) scale(0.100000,-0.100000)"
fill="#000000" stroke="none">
<path d="M6049 5166 c-2 -2 -31 -6 -64 -10 -33 -3 -61 -5 -61 -6 -1 0 -1 -227
-1 -505 l-1 -505 32 -1 c70 -2 118 0 123 4 3 3 5 99 5 212 0 114 5 224 10 244
36 143 240 164 300 31 7 -16 12 -108 13 -251 1 -124 4 -230 7 -235 5 -8 34 -9
134 -5 21 1 21 3 19 254 -2 278 -9 316 -63 384 -45 57 -111 86 -201 89 -79 2
-123 -11 -178 -52 -17 -13 -34 -24 -36 -24 -2 0 -4 75 -5 168 0 92 -1 177 -1
190 -1 19 -19 30 -32 18z"/>
<path d="M4924 5145 c-37 -19 -57 -53 -57 -95 0 -112 150 -145 198 -44 43 90
-53 183 -141 139z"/>
<path d="M653 4849 c-174 -66 -238 -297 -121 -443 l31 -38 -32 -30 c-17 -16
-31 -31 -31 -34 0 -3 25 -29 56 -59 l55 -54 30 34 c76 87 223 72 280 -29 17
-30 23 -55 22 -97 -1 -68 -21 -109 -70 -146 -32 -24 -45 -28 -104 -28 -77 0
-106 16 -151 81 l-26 39 -76 0 c-70 0 -76 -2 -76 -21 0 -32 48 -120 88 -160
101 -102 280 -123 420 -50 15 8 44 31 65 53 125 124 124 339 -2 460 l-41 40
21 19 c12 10 34 44 49 75 25 54 27 65 29 228 l2 171 -80 0 c-66 0 -81 -3 -81
-15 0 -14 -4 -13 -32 1 -49 26 -161 27 -225 3z m207 -164 c36 -35 49 -70 45
-124 -4 -55 -27 -89 -77 -111 -66 -29 -135 -10 -176 50 -20 29 -23 43 -19 87
3 29 13 63 21 75 43 61 154 73 206 23z"/>
<path d="M1203 4862 l-23 -3 1 -360 c0 -224 3 -359 9 -360 6 0 30 0 55 0 25 0
56 0 70 0 l25 1 0 215 c0 171 3 223 15 252 30 72 74 101 167 112 4 1 7 35 7
77 l-1 76 -36 -6 c-55 -7 -94 -24 -124 -54 l-28 -26 0 36 0 36 -57 4 c-32 1
-68 2 -80 0z"/>
<path d="M1810 4854 c-134 -40 -222 -131 -256 -264 -49 -191 61 -386 251 -444
105 -32 241 -11 334 52 49 34 121 118 121 143 0 5 -42 9 -94 9 -75 0 -96 -3
-107 -17 -49 -58 -186 -67 -261 -16 -41 27 -95 104 -85 120 3 5 129 8 281 8
256 0 276 1 277 17 1 10 2 28 3 41 3 32 -21 133 -40 169 -31 60 -112 134 -177
163 -73 33 -176 41 -247 19z m188 -155 c40 -20 109 -95 97 -107 -2 -3 -88 -5
-190 -6 -139 -1 -185 2 -185 11 0 20 60 83 99 103 49 26 123 25 179 -1z"/>
<path d="M2572 4847 c-108 -38 -196 -131 -229 -240 -83 -281 169 -537 457
-463 107 28 189 88 231 169 l19 37 -90 0 c-84 0 -92 -2 -134 -31 -36 -26 -55
-32 -108 -35 -91 -4 -155 27 -197 96 -41 68 -51 65 257 65 l277 0 1 65 c2 245
-248 419 -484 337z m203 -146 c41 -18 105 -82 105 -104 0 -9 -45 -12 -182 -10
-101 1 -187 2 -192 2 -10 1 19 49 48 76 55 53 150 69 221 36z"/>
<path d="M3385 4845 c-27 -12 -56 -29 -64 -38 -22 -27 -33 -20 -28 18 l5 35
-82 0 -82 0 0 -360 c0 -318 2 -360 15 -361 61 -3 132 -1 137 4 4 3 7 106 8
229 1 204 3 226 22 262 32 62 65 81 138 81 72 0 106 -18 133 -68 16 -27 18
-65 21 -269 l3 -238 30 -1 c16 -1 40 -1 54 -1 14 0 37 0 51 1 l26 1 -4 268
c-5 298 -10 322 -78 389 -71 70 -208 91 -305 48z"/>
<path d="M5375 4851 c-168 -56 -257 -190 -249 -378 5 -135 85 -252 212 -311
49 -23 70 -27 152 -27 83 0 103 4 156 28 112 52 194 164 209 285 l6 52 -79 0
-79 0 -7 -42 c-18 -110 -104 -179 -214 -174 -93 4 -148 44 -181 132 -78 209
133 386 312 262 31 -22 29 -23 101 44 34 32 38 39 26 53 -18 21 -89 63 -132
77 -56 18 -177 18 -233 -1z"/>
<path d="M3982 4508 c76 -194 143 -357 147 -361 12 -12 130 -12 140 -1 5 5 21
45 36 89 15 44 28 81 29 82 2 2 15 -34 31 -80 15 -45 31 -86 36 -91 7 -8 137
-12 144 -4 1 1 30 73 63 158 34 85 96 245 140 355 l79 200 -75 3 c-41 2 -79
-1 -83 -5 -9 -9 -168 -435 -176 -471 -3 -12 -9 -24 -13 -27 -8 -5 -60 145 -60
173 0 13 69 201 115 315 6 15 -1 17 -73 17 l-79 0 -23 -72 -23 -73 -24 73 -25
72 -78 0 -78 0 63 -167 63 -167 -29 -84 c-16 -47 -30 -87 -32 -89 -2 -2 -46
112 -98 252 l-93 255 -82 0 -81 0 139 -352z"/>
<path d="M4892 4498 l3 -361 55 1 c30 0 65 1 78 1 l22 1 0 360 0 360 -80 0
-80 0 2 -362z"/>
<path d="M5280 4067 c-5 -5 -82 -15 -127 -16 -22 -1 -23 -3 -25 -181 l-3 -180
-35 25 c-110 77 -304 61 -414 -37 -82 -71 -117 -166 -112 -297 5 -101 15 -140
55 -203 95 -149 331 -198 469 -98 l42 30 0 -38 0 -38 78 1 77 0 3 263 c3 331
-1 775 -8 769z m-265 -476 c77 -34 115 -103 115 -207 0 -66 -33 -130 -89 -169
-38 -27 -51 -30 -116 -30 -65 0 -78 3 -117 30 -115 80 -122 265 -13 352 19 15
45 31 57 35 45 12 123 7 163 -11z"/>
<path d="M1368 3754 c-93 -22 -178 -83 -224 -161 -34 -57 -45 -96 -51 -179 -8
-123 51 -253 147 -319 131 -91 321 -88 445 7 75 57 130 156 139 252 l5 42 -80
0 c-51 1 -79 -3 -80 -10 -9 -123 -93 -207 -208 -208 -75 0 -137 34 -176 97
-26 42 -30 57 -29 119 1 137 76 219 202 219 55 0 91 -13 128 -45 20 -18 22
-17 78 33 l57 52 -23 25 c-67 71 -208 104 -330 76z"/>
<path d="M2160 3756 c-127 -27 -223 -109 -266 -228 -23 -62 -26 -177 -7 -240
47 -161 183 -259 357 -259 126 0 231 54 300 154 45 65 65 136 63 225 -3 233
-214 397 -447 348z m176 -166 c96 -47 138 -182 91 -292 -45 -105 -175 -147
-283 -93 -95 48 -133 161 -94 280 14 43 73 102 113 114 56 16 128 12 173 -9z"/>
<path d="M3010 3760 c-54 -11 -83 -25 -112 -55 l-27 -26 -3 38 -3 38 -77 2
-78 2 0 -363 0 -362 78 1 77 0 5 245 c4 203 8 250 22 275 42 77 168 78 213 2
17 -28 19 -57 21 -272 1 -132 2 -243 3 -246 0 -3 36 -6 78 -5 l78 1 0 240 c1
261 4 279 58 319 31 23 99 26 135 7 53 -28 57 -46 62 -315 l5 -251 78 -1 77
-2 0 117 c2 457 -2 493 -66 555 -82 80 -226 83 -335 7 l-55 -39 -33 34 c-47
47 -128 69 -201 54z"/>
<path d="M4051 3753 c-172 -44 -286 -202 -274 -381 13 -195 171 -344 365 -343
122 1 194 28 284 107 24 22 64 84 64 100 0 7 -30 11 -89 10 -69 -1 -93 -5
-108 -18 -55 -50 -160 -64 -234 -31 -52 24 -82 54 -104 105 l-15 38 282 2 283
3 -1 60 c-2 82 -18 132 -60 196 -85 128 -245 190 -393 152z m176 -157 c48 -24
103 -83 103 -109 0 -2 -85 -3 -190 -3 -104 0 -190 2 -190 5 0 3 12 22 26 43
52 75 171 106 251 64z"/>
<path d="M5336 3737 c5 -17 99 -230 159 -362 7 -16 32 -72 54 -123 l41 -93 0
-154 0 -154 -70 -62 -70 -63 0 -443 0 -443 80 0 80 0 0 418 0 418 70 63 70 63
0 181 0 181 125 281 c68 155 127 289 131 299 6 15 -1 17 -76 14 l-83 -3 -86
-202 c-47 -112 -88 -203 -91 -203 -4 0 -44 89 -90 198 -46 108 -88 200 -94
204 -6 4 -44 7 -84 7 -69 -1 -72 -2 -66 -22z"/>
<path d="M3380 2864 c-8 -2 -31 -5 -51 -8 l-35 -6 1 -136 c0 -74 -2 -138 -5
-143 -3 -4 -34 -7 -70 -7 l-65 1 -3 -76 -3 -76 58 -1 c32 0 65 -1 73 -1 13 -1
15 -38 15 -283 l0 -283 74 -3 c41 -2 77 1 80 7 3 5 6 133 5 285 0 271 0 276
20 277 12 1 61 1 109 1 l88 1 -3 76 -3 76 -105 0 -105 0 -1 140 c-1 77 -2 146
-3 153 -1 11 -21 13 -71 6z"/>
<path d="M1621 2838 c-63 -31 -85 -76 -89 -183 l-4 -93 -64 2 c-35 1 -68 0
-73 -4 -6 -3 -9 -37 -8 -75 l2 -70 60 -2 c33 -1 66 -2 73 -2 9 -1 12 -65 12
-286 l0 -285 80 0 80 0 2 287 3 287 110 1 110 0 0 75 0 75 -112 -1 -113 -1 0
62 c0 34 5 66 12 73 15 15 55 16 64 1 4 -7 27 9 60 42 61 60 59 69 -14 101
-53 24 -139 22 -191 -4z"/>
<path d="M3754 2838 c-28 -23 -47 -77 -38 -112 26 -105 179 -101 203 6 21 93
-90 164 -165 106z"/>
<path d="M2170 2556 c-99 -31 -183 -106 -228 -204 -34 -76 -40 -187 -12 -267
75 -219 318 -313 535 -209 62 30 102 65 144 127 l32 47 -33 1 c-121 3 -162 -3
-192 -26 -111 -85 -291 -30 -330 102 l-7 21 276 0 c152 0 278 2 281 5 3 3 6
29 6 57 -2 203 -171 366 -374 359 -35 -1 -79 -7 -98 -13z m194 -153 c41 -20
75 -52 92 -85 l15 -28 -191 0 c-212 0 -215 1 -157 62 67 72 161 92 241 51z"/>
<path d="M2845 2556 c-74 -34 -117 -103 -117 -186 1 -109 50 -160 195 -205 73
-23 101 -55 92 -105 -9 -45 -19 -56 -60 -70 -48 -16 -100 9 -117 56 l-12 34
-74 0 -74 0 7 -47 c7 -46 44 -116 74 -141 70 -56 172 -72 260 -42 103 34 163
129 155 244 -7 110 -65 170 -206 210 -31 9 -64 23 -72 32 -21 21 -20 57 2 77
25 23 54 21 81 -4 l23 -21 49 48 49 48 -22 23 c-53 57 -164 80 -233 49z"/>
<path d="M3740 2533 c-1 -43 -1 -589 0 -648 l0 -45 80 0 79 0 -2 362 -2 362
-78 1 -77 0 0 -32z"/>
<path d="M3967 2560 c-13 -5 8 -68 197 -575 l52 -140 79 0 80 0 53 145 c29 80
60 161 67 180 8 19 30 80 50 135 20 55 47 127 60 160 39 102 40 99 -40 100
-87 1 -94 -1 -107 -34 -20 -52 -120 -337 -139 -399 -11 -35 -22 -62 -23 -60
-3 3 -158 446 -168 478 -3 11 -22 14 -76 15 -40 0 -78 -2 -85 -5z"/>
<path d="M4850 2556 c-159 -45 -263 -195 -254 -368 8 -157 91 -278 227 -330
100 -39 232 -26 305 28 33 26 36 24 34 -23 -1 -22 2 -23 81 -23 l83 0 -1 362
0 363 -80 0 -80 0 0 -37 0 -37 -30 24 c-68 51 -187 69 -285 41z m208 -165 c47
-24 66 -45 91 -102 23 -52 22 -136 -3 -185 -84 -165 -321 -150 -381 24 -21 63
-19 109 9 168 50 108 176 150 284 95z"/>
</g>
</svg>
