<svg style="position: absolute; width: 0; height: 0; overflow: hidden;" version="1.1" xmlns="http://www.w3.org/2000/svg" xmlns:xlink="http://www.w3.org/1999/xlink">
<defs>
<symbol id="icon-grid" viewBox="0 0 16 16">
<title>grid</title>
<path d="M0 0v16h16v-16h-16zM15 5h-4v-4h4v4zM6 10v-4h4v4h-4zM10 11v4h-4v-4h4zM5 10h-4v-4h4v4zM6 5v-4h4v4h-4zM11 6h4v4h-4v-4zM5 1v4h-4v-4h4zM1 11h4v4h-4v-4zM11 15v-4h4v4h-4z"></path>
</symbol>
<symbol id="icon-footer-stacked" viewBox="0 0 17 16">
<title>footer-stacked</title>
<path fill="#9b9b9b" style="fill: var(--color1, #9b9b9b)" d="M11.983 4.057c-0.011-0.361-0.438-0.552-0.839-0.484-0.243 0.041-0.555 0.072-0.749-0.026-0.428-0.218-0.868-0.468-1.185-0.797-1.2-1.245-1.997-1.118-3.602-0.7-0.143 0.037-0.32 0.279-0.313 0.419 0.039 0.774 0.131 1.544 0.204 2.316 0.014 0.236 0.040 0.471 0.040 0.706 0 0.908-0.006 1.816-0.016 2.724-0.013 1.248-0.031 5.712-0.048 6.96 0.036 0.049 0.063 0.107 0.11 0.144 0.113 0.087 0.235 0.166 0.353 0.247 0.093-0.119 0.214-0.229 0.273-0.36s0.055-0.281 0.079-0.423c-0.003-1.701-0.005-6.618-0.007-8.318 0.472-0.255 0.972-0.494 1.512-0.226 0.629 0.314 1.235 0.671 1.82 1.047 0.52 0.334 1.669 0.375 2.154 0.006 0.112-0.085 0.216-0.243 0.218-0.369 0.017-0.956 0.024-1.912-0.004-2.868v0.002z"></path>
<path fill="#9b9b9b" style="fill: var(--color1, #9b9b9b)" d="M5.691 1.579c0.381-0.044 0.588-0.253 0.59-0.511-0.007-0.418-0.272-0.64-0.646-0.635-0.343 0.006-0.646 0.275-0.636 0.568 0.011 0.308 0.36 0.619 0.692 0.579v0z"></path>
<path fill="#fff" style="fill: var(--color2, #fff)" d="M3.641 4.417c0.184 0.093 0.369 0.314 0.369 0.605 0 0.436-0.345 0.757-0.765 0.757h-0.795v-2.389h0.778c0.396 0 0.635 0.253 0.635 0.617-0.001 0.191-0.11 0.345-0.222 0.41v0zM2.832 4.264h0.396c0.164 0 0.259-0.099 0.259-0.256s-0.096-0.256-0.259-0.256h-0.396c0 0 0 0.512 0 0.512zM2.832 5.418h0.396c0.249 0 0.399-0.161 0.399-0.396s-0.15-0.396-0.399-0.396h-0.396v0.792z"></path>
<path fill="#fff" style="fill: var(--color2, #fff)" d="M5.073 3.39c0.379 0 0.686 0.246 0.686 0.682 0 0.382-0.249 0.611-0.542 0.669l0.542 1.037h-0.436l-0.512-1.024h-0.054v1.024h-0.382v-2.389h0.7l-0.002 0.001zM4.755 4.394h0.321c0.205 0 0.307-0.137 0.307-0.321s-0.103-0.321-0.307-0.321h-0.321c0 0 0 0.642 0 0.642z"></path>
<path fill="#fff" style="fill: var(--color2, #fff)" d="M7.098 3.752h-0.362v1.666h0.362v0.362h-1.106v-0.362h0.362v-1.666h-0.362v-0.362h1.106v0.362z"></path>
<path fill="#fff" style="fill: var(--color2, #fff)" d="M8.334 4.346c0.296 0.113 0.487 0.31 0.487 0.676 0 0.444-0.338 0.778-0.768 0.778-0.436 0-0.768-0.345-0.768-0.768h0.383c0 0.221 0.143 0.406 0.386 0.406s0.386-0.168 0.386-0.406c0-0.358-0.314-0.358-0.648-0.488-0.218-0.085-0.376-0.276-0.376-0.539 0-0.372 0.273-0.635 0.628-0.635 0.259 0 0.451 0.109 0.567 0.308l-0.256 0.256c-0.058-0.13-0.177-0.202-0.3-0.202-0.157 0-0.263 0.106-0.263 0.253-0.001 0.221 0.228 0.242 0.542 0.361v0z"></path>
<path fill="#fff" style="fill: var(--color2, #fff)" d="M8.878 3.39h1.467v0.362h-0.542v2.027h-0.383v-2.027h-0.542c0 0 0-0.362 0-0.362z"></path>
<path fill="#fff" style="fill: var(--color2, #fff)" d="M11.633 5.8c-0.675 0-1.181-0.542-1.181-1.215s0.505-1.215 1.181-1.215 1.181 0.542 1.181 1.215-0.505 1.215-1.181 1.215zM11.633 3.731c-0.464 0-0.792 0.376-0.792 0.853s0.327 0.853 0.792 0.853c0.465 0 0.792-0.376 0.792-0.853s-0.328-0.853-0.792-0.853z"></path>
<path fill="#fff" style="fill: var(--color2, #fff)" d="M13.126 3.39h0.382v2.027h1.137v0.362h-1.519v-2.389z"></path>
<path fill="#fff" style="fill: var(--color2, #fff)" d="M2.869 8.853c0.464 0 0.792-0.362 0.792-0.853h0.389c0 0.673-0.505 1.215-1.181 1.215s-1.18-0.542-1.18-1.215c0-0.673 0.505-1.215 1.181-1.215 0.386 0 0.693 0.174 0.908 0.436l-0.266 0.267c-0.143-0.208-0.351-0.342-0.642-0.342-0.464 0-0.792 0.376-0.792 0.853s0.328 0.853 0.791 0.854v0z"></path>
<path fill="#fff" style="fill: var(--color2, #fff)" d="M5.489 9.215c-0.675 0-1.181-0.542-1.181-1.215s0.505-1.215 1.181-1.215 1.181 0.542 1.181 1.215c0 0.673-0.505 1.215-1.181 1.215zM5.489 7.147c-0.464 0-0.792 0.375-0.792 0.853s0.327 0.853 0.792 0.853c0.465 0 0.792-0.376 0.792-0.853s-0.327-0.853-0.792-0.853z"></path>
<path fill="#fff" style="fill: var(--color2, #fff)" d="M7.030 6.805h0.423l0.757 1.843 0.757-1.843h0.423v2.389h-0.381v-1.515l-0.628 1.516h-0.342l-0.627-1.516v1.516h-0.382c0 0 0-2.39 0-2.39z"></path>
<path fill="#fff" style="fill: var(--color2, #fff)" d="M9.851 6.805h1.498v0.362h-1.116v0.642h0.542v0.361h-0.542v0.663h1.137v0.362h-1.519v-2.39z"></path>
<path fill="#fff" style="fill: var(--color2, #fff)" d="M12.401 6.805c0.683 0 1.177 0.458 1.177 1.195s-0.495 1.195-1.177 1.195h-0.7v-2.39c0.001 0 0.7 0 0.7 0zM12.084 7.167v1.666h0.328c0.434 0 0.778-0.297 0.778-0.833s-0.345-0.833-0.778-0.833h-0.328z"></path>
<path fill="#fff" style="fill: var(--color2, #fff)" d="M14.028 6.805l0.44 0.976 0.44-0.976h0.402l-0.65 1.365v1.024h-0.383v-1.024l-0.652-1.365h0.403z"></path>
<path fill="#fff" style="fill: var(--color2, #fff)" d="M4.173 12.285c-0.187 0.232-0.471 0.345-0.775 0.345-0.675 0-1.181-0.542-1.181-1.215s0.505-1.215 1.181-1.215c0.386 0 0.693 0.174 0.908 0.436l-0.266 0.266c-0.143-0.208-0.351-0.342-0.642-0.342-0.464 0-0.792 0.376-0.792 0.853s0.327 0.853 0.792 0.853c0.417 0 0.703-0.27 0.775-0.682h-0.788v-0.361h1.143v1.386h-0.355c0 0 0-0.324 0-0.324z"></path>
<path fill="#fff" style="fill: var(--color2, #fff)" d="M6.499 12.609l-0.143-0.393h-1.065l-0.143 0.393h-0.399l0.884-2.389h0.382l0.884 2.389h-0.4zM5.418 11.856h0.812l-0.406-1.123-0.406 1.123z"></path>
<path fill="#fff" style="fill: var(--color2, #fff)" d="M7.859 10.22c0.379 0 0.686 0.246 0.686 0.682 0 0.382-0.249 0.611-0.542 0.669l0.542 1.037h-0.436l-0.512-1.024h-0.054v1.024h-0.382v-2.389h0.7l-0.002 0.001zM7.541 11.224h0.321c0.205 0 0.307-0.137 0.307-0.321s-0.103-0.321-0.307-0.321h-0.321c0 0 0 0.642 0 0.642z"></path>
<path fill="#fff" style="fill: var(--color2, #fff)" d="M9.597 10.22c0.683 0 1.177 0.458 1.177 1.195s-0.495 1.195-1.177 1.195h-0.7v-2.39c0 0 0.7 0 0.7 0zM9.28 10.582v1.666h0.327c0.434 0 0.778-0.297 0.778-0.833s-0.345-0.833-0.778-0.833h-0.327z"></path>
<path fill="#fff" style="fill: var(--color2, #fff)" d="M11.087 10.22h1.498v0.362h-1.116v0.642h0.542v0.361h-0.542v0.663h1.137v0.362h-1.519v-2.39z"></path>
<path fill="#fff" style="fill: var(--color2, #fff)" d="M12.938 10.22h0.423l0.768 1.645v-1.645h0.382v2.389h-0.423l-0.768-1.645v1.645h-0.382c0 0 0-2.389 0-2.389z"></path>
</symbol>
<symbol id="icon-footer" viewBox="0 0 74 16">
<title>footer</title>
<path fill="#9b9b9b" style="fill: var(--color1, #9b9b9b)" d="M40.758 3.832c-0.011-0.381-0.413-0.584-0.789-0.513-0.229 0.043-0.522 0.076-0.705-0.028-0.403-0.229-0.817-0.495-1.114-0.842-1.13-1.317-1.88-1.182-3.39-0.74-0.135 0.040-0.301 0.295-0.294 0.442 0.037 0.817 0.123 1.633 0.192 2.449 0.013 0.249 0.038 0.497 0.038 0.747-0.001 0.96-0.005 1.92-0.014 2.88-0.013 1.319-0.029 6.039-0.045 7.359 0.034 0.052 0.059 0.114 0.103 0.152 0.105 0.092 0.221 0.175 0.332 0.261 0.088-0.126 0.202-0.242 0.258-0.381 0.055-0.136 0.052-0.297 0.074-0.447-0.002-1.798-0.005-6.996-0.008-8.795 0.444-0.269 0.915-0.522 1.423-0.237 0.592 0.332 1.163 0.709 1.713 1.106 0.489 0.354 1.572 0.396 2.027 0.005 0.105-0.090 0.203-0.256 0.205-0.389 0.016-1.011 0.023-2.021-0.004-3.031z"></path>
<path fill="#9b9b9b" style="fill: var(--color1, #9b9b9b)" d="M34.837 1.212c0.359-0.047 0.553-0.268 0.555-0.54-0.007-0.443-0.256-0.677-0.608-0.671-0.323 0.005-0.608 0.29-0.599 0.599 0.009 0.326 0.339 0.653 0.651 0.613z"></path>
<path fill="#fff" style="fill: var(--color2, #fff)" d="M3.679 7.473c0.323 0.162 0.648 0.551 0.648 1.061 0 0.768-0.606 1.332-1.343 1.332h-1.397v-4.198h1.367c0.696 0 1.115 0.444 1.115 1.085 0 0.337-0.192 0.606-0.389 0.72zM2.257 7.203h0.696c0.288 0 0.456-0.174 0.456-0.449s-0.167-0.45-0.456-0.45h-0.696v0.899zM2.257 9.23h0.696c0.438 0 0.701-0.281 0.701-0.696s-0.264-0.696-0.702-0.696h-0.696v1.391z"></path>
<path fill="#fff" style="fill: var(--color2, #fff)" d="M6.193 5.668c0.665 0 1.205 0.432 1.205 1.199 0 0.671-0.438 1.073-0.954 1.175l0.954 1.823h-0.768l-0.899-1.799h-0.096v1.799h-0.671v-4.198h1.229zM5.635 7.431h0.564c0.36 0 0.54-0.24 0.54-0.564s-0.18-0.564-0.54-0.564h-0.564v1.127z"></path>
<path fill="#fff" style="fill: var(--color2, #fff)" d="M9.751 6.303h-0.636v2.927h0.636v0.636h-1.943v-0.636h0.636v-2.926h-0.636v-0.635h1.943v0.636z"></path>
<path fill="#fff" style="fill: var(--color2, #fff)" d="M11.922 7.347c0.521 0.198 0.857 0.545 0.857 1.187 0 0.78-0.594 1.367-1.35 1.367-0.768 0-1.349-0.605-1.349-1.348h0.672c0 0.389 0.252 0.713 0.678 0.713s0.678-0.294 0.678-0.713c0-0.63-0.552-0.63-1.139-0.858-0.384-0.15-0.659-0.486-0.659-0.947 0-0.654 0.479-1.115 1.104-1.115 0.456 0 0.791 0.192 0.995 0.54l-0.45 0.449c-0.102-0.228-0.312-0.354-0.528-0.354-0.276 0-0.461 0.186-0.461 0.444 0 0.391 0.402 0.426 0.954 0.636z"></path>
<path fill="#fff" style="fill: var(--color2, #fff)" d="M12.878 5.668h2.579v0.635h-0.954v3.562h-0.671v-3.562h-0.954v-0.636z"></path>
<path fill="#fff" style="fill: var(--color2, #fff)" d="M17.719 9.902c-1.188 0-2.075-0.953-2.075-2.135s0.887-2.135 2.075-2.135c1.188 0 2.075 0.954 2.075 2.135s-0.887 2.135-2.075 2.135zM17.719 6.268c-0.816 0-1.392 0.659-1.392 1.5s0.576 1.5 1.392 1.5c0.816 0 1.391-0.659 1.391-1.5s-0.576-1.5-1.391-1.5z"></path>
<path fill="#fff" style="fill: var(--color2, #fff)" d="M20.342 5.668h0.672v3.562h1.997v0.636h-2.669v-4.197z"></path>
<path fill="#fff" style="fill: var(--color2, #fff)" d="M27.145 9.266c0.816 0 1.392-0.636 1.392-1.5h0.683c0 1.182-0.887 2.135-2.075 2.135s-2.075-0.953-2.075-2.135 0.887-2.135 2.075-2.135c0.677 0 1.218 0.306 1.595 0.768l-0.468 0.468c-0.252-0.366-0.617-0.6-1.128-0.6-0.816 0-1.391 0.66-1.391 1.5s0.576 1.499 1.392 1.499z"></path>
<path fill="#fff" style="fill: var(--color2, #fff)" d="M31.747 9.902c-1.187 0-2.075-0.953-2.075-2.135s0.887-2.135 2.075-2.135c1.188 0 2.075 0.954 2.075 2.135s-0.888 2.135-2.075 2.135zM31.747 6.268c-0.816 0-1.391 0.659-1.391 1.5s0.576 1.5 1.391 1.5 1.392-0.659 1.392-1.5-0.576-1.5-1.392-1.5z"></path>
<path fill="#fff" style="fill: var(--color2, #fff)" d="M34.455 5.668h0.743l1.331 3.239 1.331-3.239h0.743v4.198h-0.672v-2.662l-1.103 2.662h-0.599l-1.103-2.662v2.662h-0.672v-4.198z"></path>
<path fill="#fff" style="fill: var(--color2, #fff)" d="M39.41 5.668h2.633v0.635h-1.961v1.127h0.953v0.636h-0.953v1.164h1.997v0.636h-2.669v-4.197z"></path>
<path fill="#fff" style="fill: var(--color2, #fff)" d="M43.891 5.668c1.2 0 2.069 0.803 2.069 2.099s-0.869 2.099-2.069 2.099h-1.229v-4.198h1.229zM43.334 6.303v2.927h0.575c0.761 0 1.367-0.522 1.367-1.463s-0.605-1.463-1.367-1.463h-0.575z"></path>
<path fill="#fff" style="fill: var(--color2, #fff)" d="M46.748 5.668l0.773 1.715 0.773-1.715h0.708l-1.145 2.398v1.799h-0.672v-1.799l-1.145-2.399h0.708z"></path>
<path fill="#fff" style="fill: var(--color2, #fff)" d="M54.438 9.296c-0.33 0.408-0.828 0.605-1.361 0.605-1.187 0-2.075-0.953-2.075-2.135s0.888-2.135 2.075-2.135c0.678 0 1.218 0.306 1.595 0.768l-0.468 0.468c-0.252-0.366-0.617-0.6-1.127-0.6-0.816 0-1.391 0.66-1.391 1.5s0.575 1.499 1.391 1.499c0.732 0 1.236-0.474 1.361-1.2h-1.386v-0.636h2.009v2.434h-0.623v-0.57z"></path>
<path fill="#fff" style="fill: var(--color2, #fff)" d="M58.525 9.866l-0.252-0.69h-1.87l-0.252 0.69h-0.702l1.553-4.198h0.672l1.553 4.198h-0.702zM56.623 8.54h1.427l-0.714-1.973-0.713 1.973z"></path>
<path fill="#fff" style="fill: var(--color2, #fff)" d="M60.913 5.668c0.666 0 1.206 0.432 1.206 1.199 0 0.671-0.438 1.073-0.953 1.175l0.953 1.823h-0.767l-0.9-1.799h-0.096v1.799h-0.672v-4.198h1.229zM60.355 7.431h0.564c0.359 0 0.539-0.24 0.539-0.564s-0.18-0.564-0.539-0.564h-0.564v1.127z"></path>
<path fill="#fff" style="fill: var(--color2, #fff)" d="M63.967 5.668c1.2 0 2.069 0.803 2.069 2.099s-0.869 2.099-2.069 2.099h-1.229v-4.198h1.229zM63.409 6.303v2.927h0.575c0.761 0 1.367-0.522 1.367-1.463s-0.606-1.463-1.367-1.463h-0.575z"></path>
<path fill="#fff" style="fill: var(--color2, #fff)" d="M66.584 5.668h2.632v0.635h-1.961v1.127h0.954v0.636h-0.954v1.164h1.997v0.636h-2.668v-4.197z"></path>
<path fill="#fff" style="fill: var(--color2, #fff)" d="M69.836 5.668h0.743l1.35 2.891v-2.89h0.671v4.198h-0.743l-1.349-2.89v2.89h-0.671v-4.198z"></path>
</symbol>
<symbol id="icon-flag" viewBox="0 0 16 16">
<title>flag</title>
<path d="M10.82 4.906c-0.008-0.284-0.306-0.433-0.586-0.38-0.17 0.032-0.387 0.056-0.523-0.021-0.299-0.17-0.607-0.367-0.828-0.625-0.838-0.978-1.396-0.877-2.516-0.55-0.1 0.030-0.223 0.219-0.218 0.329 0.027 0.607 0.091 1.212 0.143 1.818 0.010 0.184 0.028 0.37 0.028 0.554 0 0.713-0.004 1.425-0.011 2.137-0.009 0.979-0.022 4.482-0.034 5.463 0.025 0.039 0.044 0.084 0.077 0.113 0.079 0.069 0.163 0.13 0.246 0.194 0.066-0.094 0.149-0.18 0.191-0.283 0.041-0.101 0.038-0.22 0.055-0.332-0.002-1.335-0.003-5.193-0.005-6.527 0.33-0.2 0.679-0.388 1.056-0.176 0.44 0.246 0.863 0.526 1.271 0.822 0.363 0.262 1.167 0.293 1.505 0.004 0.078-0.067 0.15-0.191 0.152-0.289 0.012-0.75 0.018-1.5-0.002-2.25z"></path>
<path d="M6.425 2.962c0.266-0.035 0.41-0.199 0.412-0.401-0.005-0.329-0.19-0.502-0.451-0.498-0.239 0.004-0.451 0.216-0.444 0.445 0.007 0.241 0.252 0.485 0.484 0.454z"></path>
</symbol>
<symbol id="icon-icon-rev" viewBox="0 0 16 16">
<title>icon-rev</title>
<path d="M9.564 11.586c-0.073-0.077-0.158-0.146-0.218-0.233-0.134-0.193-0.257-0.395-0.384-0.592-0.315-0.566-0.585-1.152-0.758-1.779-0.028-0.104-0.076-0.201-0.114-0.302-0.031-0.123-0.059-0.245-0.095-0.366-0.009-0.031-0.043-0.055-0.066-0.082-0.023 0.024-0.055 0.046-0.068 0.075-0.090 0.201-0.175 0.403-0.264 0.605-0.020 0.046-0.048 0.087-0.072 0.13-0.082 0.19-0.163 0.38-0.248 0.569-0.119 0.262-0.231 0.529-0.365 0.783-0.123 0.233-0.273 0.453-0.412 0.678-0.074 0.234-0.217 0.418-0.405 0.57-0.025 0.031-0.050 0.063-0.075 0.094-0.008 0.007-0.016 0.014-0.024 0.021-0.007 0.001-0.013 0.003-0.019 0.007l0-0.002c-0.105 0.134-0.21 0.268-0.315 0.402-0.045 0.055-0.090 0.11-0.131 0.162 1.619 0 3.242 0 4.907 0-0.105-0.074-0.18-0.127-0.254-0.178-0.259-0.13-0.418-0.368-0.62-0.562z"></path>
<path d="M12.264 12.148c-0.229-0.259-0.43-0.537-0.54-0.87l0.003 0.002c-0.007-0.008-0.012-0.017-0.019-0.025-0.155-0.332-0.313-0.662-0.463-0.996-0.092-0.204-0.179-0.411-0.258-0.62-0.111-0.298-0.213-0.6-0.319-0.9-0.008-0.030-0.017-0.060-0.025-0.091l0.002 0.003c-0.025-0.037-0.062-0.072-0.072-0.113-0.027-0.111-0.055-0.198-0.175-0.265s-0.215-0.037-0.323-0.013c-0.041 0.009-0.082 0.037-0.122 0.034-0.053-0.004-0.117-0.015-0.153-0.049-0.1-0.092-0.237-0.111-0.33-0.028-0.146 0.13-0.153 0.13-0.289-0.021-0.047-0.008-0.094-0.015-0.141-0.024-0.028 0.014-0.062 0.021-0.085 0.041-0.162 0.144-0.162 0.145-0.299-0.039-0.052 0.001-0.103 0.001-0.155 0.001-0.15 0.151-0.15 0.151-0.029 0.325 0.034 0.050 0.069 0.098 0.104 0.148 0.007 0.002 0.013 0.005 0.020 0.009l0.008 0.008c0.132 0.1 0.254 0.214 0.396 0.294 0.242 0.136 0.504 0.241 0.744 0.38 0.103 0.060 0.262 0.082 0.275 0.249-0.001 0.056 0 0.113-0.003 0.169-0.009 0.2-0.021 0.4-0.031 0.601 0.029 0.176 0.058 0.352 0.088 0.528 0.081 0.149 0.162 0.297 0.142 0.476 0.055 0.135 0.11 0.271 0.165 0.405 0.021 0.052 0.042 0.103 0.063 0.155 0.048 0.059 0.098 0.116 0.144 0.175 0.127 0.163 0.278 0.248 0.498 0.236 0.336-0.018 0.674-0.005 1.011-0.005 0.047 0 0.094 0.008 0.142 0.009 0.043 0.001 0.086-0.002 0.129-0.004-0.014-0.042-0.024-0.086-0.043-0.126-0.012-0.024-0.039-0.040-0.057-0.062z"></path>
<path d="M5.465 9.733c0.231-0.104 0.463-0.207 0.695-0.31 0.069-0.031 0.138-0.063 0.206-0.095 0.125-0.091 0.251-0.182 0.377-0.273 0.229-0.185 0.465-0.364 0.683-0.562 0.063-0.057 0.078-0.172 0.101-0.264 0.003-0.010-0.088-0.043-0.135-0.066-0.135 0.063-0.261 0.191-0.424 0.064-0.078 0.006-0.159 0.002-0.234 0.020-0.133 0.030-0.261 0.054-0.383-0.031-0.068 0.035-0.136 0.070-0.239 0.123-0.083-0.037-0.204-0.091-0.324-0.144-0.038 0.001-0.076 0.001-0.114 0.001-0.046 0.084-0.084 0.172-0.205 0.172-0.027 0-0.056 0.037-0.083 0.057-0.016 0.064-0.024 0.132-0.048 0.193-0.085 0.217-0.174 0.431-0.262 0.647-0.013 0.101-0.014 0.206-0.042 0.303-0.046 0.164-0.074 0.351-0.175 0.475-0.096 0.12-0.16 0.246-0.219 0.379-0.235 0.531-0.444 1.076-0.819 1.534-0.083 0.101-0.132 0.231-0.213 0.376 0.497 0 0.947 0 1.398 0 0.228 0 0.239-0.014 0.293-0.235 0.040-0.162 0.096-0.322 0.144-0.482 0.005-0.165 0.011-0.329 0.017-0.495-0.067-0.389-0.136-0.777-0.194-1.167-0.008-0.050 0.042-0.108 0.064-0.163 0.045-0.019 0.089-0.038 0.133-0.057z"></path>
<path d="M12.076 6.077c0.256 0.064 0.508 0.144 0.764 0.202 0.178 0.040 0.361 0.061 0.543 0.077 0.089 0.008 0.146-0.039 0.148-0.147 0.002-0.213 0.017-0.425 0.026-0.637 0.005-0.127 0.022-0.255 0.012-0.381-0.008-0.113-0.037-0.232-0.203-0.141-0.021 0.011-0.057 0.003-0.084-0.005-0.198-0.072-0.402-0.134-0.592-0.224-0.221-0.104-0.433-0.193-0.69-0.149-0.244 0.041-0.307 0.107-0.284 0.346 0.022 0.231 0.024 0.463 0.036 0.696 0.011 0.080 0.024 0.16 0.031 0.24 0.005 0.046 0.015 0.084 0.038 0.11s0.057 0.040 0.11 0.037c0.049-0.008 0.101-0.032 0.146-0.021z"></path>
<path d="M3.332 8.243c-0.14 0.134-0.252 0.063-0.377-0.003-0.079-0.002-0.147-0.002-0.226-0.004-0.079 0.038-0.157 0.076-0.224 0.107-0.061-0.018-0.119-0.035-0.179-0.052-0.014 0.061-0.080 0.066-0.084 0.127-0.006 0.114-0.087 0.291-0.089 0.405 0 0.009-0.001 0.019-0.001 0.028-0.008-0.001-0.016-0.001-0.024-0.002-0.013 0.063-0.032 0.126-0.038 0.189-0.018 0.179-0.008 0.364-0.050 0.537-0.145 0.592-0.268 1.188-0.333 1.795-0.030 0.271-0.092 0.538-0.133 0.809-0.008 0.049 0.020 0.102 0.030 0.149 0.169 0 0.317 0.004 0.464-0.002 0.039-0.002 0.076-0.033 0.115-0.050 0-0.264 0-0.529 0-0.793 0-0.139 0-0.278 0-0.418 0.128-0.232 0.308-0.571 0.326-0.586 0.203-0.353 0.401-0.709 0.609-1.059 0.196-0.329 0.409-0.649 0.51-1.024-0.034-0.127-0.212-0.232-0.295-0.153z"></path>
<path d="M14.398 12.219c-0.182-0.284-0.216-0.616-0.296-0.931-0.085-0.333-0.155-0.671-0.219-1.008-0.044-0.232-0.068-0.467-0.101-0.701-0.066-0.186-0.051-0.396-0.161-0.57-0.005 0.017-0.005 0.033-0.008 0.049-0.031-0.161-0.071-0.316-0.124-0.489-0.002-0.148-0.284-0.351-0.427-0.317-0.018 0.005-0.040 0.011-0.050 0.024-0.122 0.168-0.222 0.067-0.323-0.024-0.017-0.006-0.033-0.011-0.050-0.018-0.059-0.007-0.149-0.040-0.171-0.014-0.080 0.091-0.155 0.059-0.242 0.030-0.043-0.014-0.095-0.005-0.143-0.005 0.005 0.050-0.005 0.105 0.015 0.148 0.159 0.337 0.338 0.665 0.483 1.008 0.149 0.354 0.29 0.707 0.552 0.998 0.017 0.018 0.017 0.050 0.025 0.076l-0.002-0.002c0.011 0.016 0.021 0.032 0.031 0.048 0.342 0.342 0.386 1.058 0.428 1.401-0.014 0.041-0.034 0.082-0.046 0.122-0.004 0.052-0.008 0.104-0.012 0.156 0.015 0.017 0.044 0.033 0.044 0.050 0.003 0.125 0.075 0.149 0.184 0.152 0.215 0.005 0.431 0.036 0.642-0.032-0.008-0.050-0.004-0.11-0.030-0.149z"></path>
<path d="M7.816 5.749l0 0.002v0z"></path>
<path d="M7.816 5.75c-0.113-0.043-0.124 0.045-0.144 0.117-0.105 0.366-0.3 0.689-0.542 0.972-0.206 0.242-0.463 0.439-0.698 0.657-0.003 0.075 0.011 0.127 0.109 0.122 0.378-0.016 0.755-0.027 1.133-0.038 0.122-0.003 0.17-0.064 0.147-0.183 0.003-0.502 0.008-1.004 0.011-1.506 0-0.047-0.010-0.093-0.014-0.141z"></path>
<path d="M2.296 5.758c0 0.29-0.002 0.582-0.005 0.872-0.003 0.399-0.009 0.799-0.014 1.199 0.010 0.016 0.018 0.035 0.031 0.046 0.032 0.028 0.067 0.053 0.1 0.079 0.026-0.038 0.061-0.074 0.078-0.115s0.015-0.090 0.022-0.136c-0.001-0.545-0.002-1.089-0.002-1.633 0.135-0.082 0.277-0.158 0.431-0.072 0.179 0.101 0.352 0.215 0.518 0.335 0.148 0.107 0.476 0.12 0.613 0.002 0.032-0.027 0.061-0.077 0.062-0.118 0.005-0.306 0.007-0.612-0.001-0.918-0.003-0.115-0.125-0.177-0.239-0.155-0.070 0.013-0.158 0.023-0.213-0.008-0.122-0.069-0.248-0.15-0.337-0.255-0.342-0.399-0.569-0.358-1.026-0.224-0.042 0.013-0.091 0.090-0.090 0.135 0.011 0.247 0.037 0.495 0.058 0.742 0.004 0.075 0.011 0.151 0.011 0.226z"></path>
<path d="M1.97 9.099l-0.006 0.002 0.002 0.002z"></path>
<path d="M7.359 1.526c0.015 0.214 0.175 0.328 0.34 0.422 0.104 0.060 0.133 0.122 0.129 0.229-0.005 0.158-0.002 0.317-0.002 0.481 0.002 0 0.003 0 0.005 0-0.003 0.256 0.026 1.311 0.029 1.445 0.001 0.050 0.005 0.082 0.014 0.104-0.005 0.011-0.008 0.024-0.007 0.043 0.006 0.109-0.022 1.168-0.024 1.373 0.037 0.039 0.154 0.111 0.226-0.027 0.004-0.006 0.007-0.013 0.009-0.020 0.027 0.067 0.053 0.135 0.080 0.202 0.174 0.257 0.362 0.505 0.518 0.773 0.165 0.282 0.415 0.469 0.655 0.67 0.030 0.026 0.056 0.058 0.084 0.087 0.011 0.008 0.021 0.016 0.031 0.023 0.034 0.022 0.069 0.044 0.104 0.066 0.098 0.045 0.197 0.088 0.294 0.133 0.042 0.013 0.083 0.035 0.126 0.037 0.22 0.011 0.439 0.021 0.659 0.024 0.293 0.005 0.588 0.003 0.881 0.004 0.091 0.019 0.223-0.059 0.249 0.108 0.050-0.002 0.101-0.003 0.152-0.005 0.009-0.015 0.017-0.042 0.029-0.044 0.147-0.030 0.134-0.078 0.024-0.149-0.021-0.013-0.037-0.054-0.037-0.082-0.001-0.441 0.002-0.881 0.003-1.322-0.052 0.003-0.086-0.011-0.11-0.037s-0.034-0.064-0.038-0.11c-0.008-0.080-0.021-0.16-0.031-0.24 0 0.577 0 1.154 0 1.756-0.168-0.053-0.295-0.088-0.419-0.132-0.391-0.141-0.806-0.242-1.165-0.442-0.446-0.25-0.848-0.579-1.264-0.882-0.202-0.147-0.387-0.317-0.586-0.468-0.082-0.062-0.15-0.103-0.198-0.156-0.046-0.051-0.073-0.114-0.075-0.218-0.002-0.183 0.056-0.188 0.227-0.25 0.168-0.061 1.003-0.309 1.082-0.335 0.136-0.027 0.106-0.072 0.050-0.103-0.009-0.005-0.993-0.277-1.295-0.303 0.467-0.162 2.411-0.688 2.632-0.813 0.069-0.039 0.092-0.143-0.052-0.164-0.257-0.039-2.075-0.583-2.683-0.615 0-0.182 0-0.363 0-0.54 0.076-0.030 0.139-0.051 0.197-0.079 0.138-0.067 0.225-0.208 0.256-0.361 0.109-0.132 0.17-0.304 0.192-0.481 0.014-0.115-0.026-0.311-0.088-0.357-0.075-0.056-0.179-0.033-0.216 0.011-0.070 0.086-0.108 0.182-0.19 0.178-0.069-0.003-0.066-0.116-0.070-0.156-0.013-0.106-0.112-0.227-0.223-0.212-0.097 0.013-0.173 0.124-0.194 0.22-0.011 0.048-0.018 0.113-0.066 0.124-0.013 0.003-0.027 0-0.040-0.003-0.061-0.018-0.067-0.063-0.117-0.101s-0.115-0.071-0.176-0.052c-0.058 0.017-0.095 0.077-0.102 0.136s-0.017 0.141 0.005 0.234c0.037 0.151 0.095 0.268 0.184 0.379z"></path>
<path d="M7.582 5.543c-0.172 0.090-0.814 1.312-4.217 1.982-0.072 0.127 0.643 0.236 1.321 0.127 0.216-0.035 1.068-0.009 1.33-0.263s1.692-1.436 1.565-1.846z"></path>
<path d="M9.416 7.308l-0.001-0-0.002-0.001z"></path>
</symbol>
<symbol id="icon-arrow-left" viewBox="0 0 16 16">
<title>arrow-left</title>
<path d="M14.667 7.583h-11.737l2.329-2.329-0.592-0.587-3.333 3.333 3.333 3.333 0.587-0.587-2.325-2.329h11.737v-0.833z"></path>
</symbol>
<symbol id="icon-arrow-right" viewBox="0 0 16 16">
<title>arrow-right</title>
<path d="M1.333 8.417h11.737l-2.329 2.329 0.592 0.587 3.333-3.333-3.333-3.333-0.587 0.587 2.325 2.329h-11.738v0.833z"></path>
</symbol>
<symbol id="icon-festivals" viewBox="0 0 16 16">
<title>festivals</title>
<path d="M5.871 7.12c0-0.523-0.185-0.97-0.555-1.34s-0.817-0.555-1.341-0.555c0-0.247 0-0.464 0-0.652 0-0.194 0-0.359 0-0.494 0-0.112 0-0.208 0-0.291s0-0.152 0-0.211c0-0.241 0-0.379 0-0.414s0-0.188 0-0.459c0.499 0 1.245 0 2.239 0 0 0.076 0 0.194 0 0.353-0.417 0-1.046 0-1.886 0 0 0.412 0 1.028 0 1.851 0.535 0.083 0.981 0.332 1.34 0.749 0.364 0.417 0.546 0.905 0.546 1.463 0 0.218-0.030 0.426-0.088 0.626s-0.141 0.385-0.247 0.555c-0.2 0.318-0.467 0.573-0.802 0.767s-0.703 0.291-1.103 0.291v-0.353c0.523 0 0.97-0.182 1.34-0.546 0.371-0.37 0.556-0.816 0.556-1.34z"></path>
<path d="M11.662 5.569c-0.647 1.322-1.613 3.309-2.9 5.959-0.088 0-0.218 0-0.388 0 0.676-1.404 1.695-3.508 3.059-6.311-0.764 0-1.916 0-3.455 0 0-0.076 0-0.191 0-0.344 0.723 0 1.804 0 3.244 0 0.176 0 0.435 0 0.776 0-0.076 0.153-0.188 0.385-0.335 0.697z"></path>
<path d="M4.002 12.21h0.581v0.113h-0.454v0.365h0.425v0.113h-0.425v0.478h-0.127v-1.069z"></path>
<path d="M4.944 12.21h0.581v0.113h-0.454v0.35h0.417v0.113h-0.417v0.38h0.462v0.113h-0.589v-1.070z"></path>
<path d="M6.398 13.007c0-0.043-0.013-0.078-0.038-0.104s-0.057-0.051-0.095-0.072c-0.038-0.021-0.080-0.041-0.124-0.059s-0.086-0.041-0.124-0.067c-0.038-0.026-0.070-0.058-0.095-0.097s-0.038-0.087-0.038-0.146c0-0.083 0.029-0.149 0.087-0.198s0.141-0.073 0.247-0.073c0.062 0 0.118 0.004 0.169 0.014s0.091 0.021 0.119 0.035l-0.038 0.113c-0.023-0.012-0.058-0.023-0.103-0.033s-0.097-0.016-0.153-0.016c-0.067 0-0.118 0.015-0.151 0.045s-0.050 0.065-0.050 0.106c0 0.040 0.013 0.073 0.038 0.099s0.057 0.050 0.095 0.071c0.038 0.021 0.080 0.041 0.124 0.062s0.086 0.044 0.124 0.071c0.038 0.027 0.070 0.059 0.095 0.097s0.038 0.084 0.038 0.141c0 0.046-0.008 0.087-0.025 0.123s-0.040 0.068-0.072 0.094c-0.031 0.026-0.070 0.047-0.115 0.061s-0.096 0.021-0.152 0.021c-0.076 0-0.139-0.006-0.189-0.017s-0.089-0.025-0.116-0.039l0.043-0.113c0.023 0.013 0.058 0.025 0.104 0.038s0.097 0.019 0.154 0.019c0.033 0 0.065-0.004 0.094-0.010s0.055-0.017 0.076-0.032 0.038-0.033 0.051-0.056c0.014-0.020 0.020-0.047 0.020-0.078z"></path>
<path d="M7.569 12.323h-0.332v0.956h-0.127v-0.956h-0.332v-0.113h0.793v0.113z"></path>
<path d="M7.908 12.21h0.127v1.069h-0.127v-1.069z"></path>
<path d="M8.754 12.944l0.037 0.162h0.001l0.040-0.165 0.257-0.732h0.127l-0.404 1.086h-0.057l-0.412-1.086h0.139l0.272 0.735z"></path>
<path d="M9.935 12.982h-0.392l-0.107 0.296h-0.127l0.404-1.086h0.058l0.406 1.086h-0.134l-0.109-0.296zM9.584 12.872h0.313l-0.118-0.325-0.038-0.162h-0.001l-0.038 0.165-0.118 0.322z"></path>
<path d="M11.105 13.278h-0.632v-1.068h0.127v0.956h0.505v0.113z"></path>
<path d="M11.898 13.007c0-0.043-0.013-0.078-0.038-0.104s-0.057-0.051-0.095-0.072c-0.038-0.021-0.080-0.041-0.124-0.059s-0.086-0.041-0.124-0.067c-0.038-0.026-0.070-0.058-0.095-0.097s-0.038-0.087-0.038-0.146c0-0.083 0.029-0.149 0.087-0.198s0.141-0.073 0.248-0.073c0.062 0 0.118 0.004 0.17 0.014s0.091 0.021 0.119 0.035l-0.038 0.113c-0.023-0.012-0.058-0.023-0.103-0.033s-0.097-0.016-0.153-0.016c-0.068 0-0.118 0.015-0.151 0.045s-0.050 0.065-0.050 0.106c0 0.040 0.013 0.073 0.038 0.099s0.057 0.050 0.095 0.071c0.038 0.021 0.080 0.041 0.124 0.062s0.086 0.044 0.124 0.071c0.038 0.027 0.070 0.059 0.095 0.097s0.038 0.084 0.038 0.141c0 0.046-0.008 0.087-0.025 0.123s-0.040 0.068-0.072 0.094c-0.031 0.026-0.070 0.047-0.115 0.061s-0.096 0.021-0.152 0.021c-0.076 0-0.139-0.006-0.189-0.017s-0.089-0.025-0.116-0.039l0.043-0.113c0.023 0.013 0.058 0.025 0.104 0.038s0.097 0.019 0.154 0.019c0.033 0 0.065-0.004 0.094-0.010s0.055-0.017 0.076-0.032 0.038-0.033 0.051-0.056c0.013-0.020 0.020-0.047 0.020-0.078z"></path>
</symbol>
<symbol id="icon-b24" viewBox="0 0 16 16">
<title>b24</title>
<path d="M1.5 10.5h12.966v-5h-12.966v5zM4.312 8.717c0 0.539-0.377 1.118-1.212 1.118h-0.94v-3.675h0.94c0.514 0 0.806 0.223 0.957 0.405 0.162 0.194 0.255 0.458 0.255 0.717 0 0.251-0.081 0.511-0.255 0.717 0.162 0.195 0.255 0.458 0.255 0.717h-0zM6.974 9.835h-2.329c0-0.976 0.287-1.585 0.928-2.050 0.393-0.284 0.543-0.478 0.543-0.66 0-0.166-0.125-0.259-0.259-0.259-0.106 0-0.263 0.093-0.312 0.3l-0.754-0.288c0.178-0.474 0.599-0.782 1.066-0.782 0.58 0 1.050 0.462 1.050 1.029 0 0.657-0.539 1.009-0.859 1.24-0.231 0.166-0.409 0.385-0.51 0.737h1.438v0.733zM9.665 9.102h-0.247v0.733h-0.806v-0.733h-1.277v-0.733l1.277-2.208h0.806v2.208h0.247v0.733zM10.414 9.832h-0.425l1.078-3.671h0.425l-1.078 3.671zM13.806 6.898h-0.004c-0.551 1.005-0.766 1.438-0.766 2.934h-0.806c0-1.431 0.296-2.050 0.77-2.934h-1.159v-0.737h1.966v0.737zM8.611 7.554v0.815h-0.47l0.47-0.814zM3.506 8.729v0.012c-0.004 0.203-0.134 0.357-0.397 0.361h-0.142v-0.733h0.142c0.264 0 0.393 0.158 0.397 0.361v0.001zM3.506 7.258v0.012c-0.004 0.202-0.134 0.361-0.397 0.361h-0.142v-0.734h0.142c0.264 0.004 0.393 0.158 0.397 0.361v0z"></path>
</symbol>
<symbol id="icon-bristol-city-council" viewBox="0 0 16 16">
<title>bristol-city-council</title>
<path d="M7.946 4.768c-1.783 0-3.233 1.45-3.233 3.233s1.45 3.233 3.233 3.233c1.783 0 3.233-1.45 3.233-3.233s-1.451-3.233-3.233-3.233v0zM10.22 8.071c0.010 0.014 0.002 0.037-0.018 0.051s-0.045 0.016-0.055 0.002c-0.010-0.014-0.002-0.037 0.019-0.051s0.044-0.015 0.055-0.002v0zM10.173 8.002c0.010 0.014 0.002 0.037-0.019 0.052s-0.045 0.015-0.055 0.002c-0.009-0.014-0.001-0.037 0.019-0.052s0.044-0.016 0.055-0.002v0zM10.126 7.934c0.010 0.013 0.002 0.037-0.019 0.051s-0.044 0.015-0.055 0.002c-0.010-0.013-0.002-0.037 0.019-0.051s0.044-0.016 0.055-0.002v0zM10.060 7.917c-0.021 0.015-0.045 0.016-0.055 0.002s-0.002-0.037 0.018-0.051c0.021-0.015 0.044-0.016 0.055-0.002s0.002 0.037-0.018 0.051v0zM9.826 9.236l-0.015-0.015c-0.046-0.042-0.095-0.086-0.148-0.13l-0.008-0.007-0.011-0.009c0.521-0.116 0.812-0.312 0.816-0.315l0.014 0.013-0.143 0.258c-0.165 0.082-0.333 0.15-0.505 0.204v0.001zM10.286 9.114l-0.018 0.028c0 0-0.088 0.139-0.204 0.306l-0.011-0.001-0.021-0.002-0.007-0.007-0.137-0.143-0.008-0.008c0.1-0.036 0.221-0.085 0.377-0.159l0.030-0.014zM9.755 9.239l0.008 0.008 0.008 0.008 0.063 0.059 0.008 0.008 0.114 0.118 0.007 0.007 0.004 0.004 0.007 0.008 0.075 0.086 0.002 0.002v0.001l0.005 0.007c-0.046 0.030-0.174 0.094-0.386 0.071l-0.002-0.004-0.002-0.002-0.001-0.002-0.043-0.064-0.005-0.008-0.002-0.002-0.005-0.008-0.089-0.127-0.012-0.018-0.046-0.064-0.006-0.008-0.007-0.009-0.123-0.161-0.007-0.009-0.008-0.010-0.053-0.066-0.008-0.009-0.008-0.009c-0.056-0.066-0.112-0.129-0.165-0.181l-0.009-0.008-0.009-0.009c-0.039-0.037-0.077-0.069-0.111-0.091 0.014-0.005 0.053-0.005 0.093 0.002 0.055 0.023 0.107 0.049 0.159 0.076l0.017 0.008 0.014 0.008c0.088 0.049 0.171 0.104 0.249 0.161l0.011 0.008 0.010 0.008 0.090 0.069 0.009 0.008c0.056 0.044 0.108 0.089 0.155 0.133l0.001-0.001zM6.681 7.495l0.133-0.009c0.010 1.205 0.476 1.909 0.481 1.916l0.013 0.020-0.125-0.024c-0.558-0.819-0.503-1.891-0.502-1.902h0zM7.556 8.188c0.021 0.013 0.032 0.035 0.023 0.050s-0.033 0.016-0.054 0.003c-0.021-0.013-0.032-0.036-0.023-0.050s0.033-0.016 0.054-0.003v0zM7.547 8.125c0.008-0.014 0.033-0.015 0.054-0.003s0.032 0.035 0.023 0.050c-0.008 0.014-0.033 0.015-0.054 0.003s-0.032-0.036-0.023-0.050v0zM7.51 8.255c0.021 0.013 0.032 0.035 0.023 0.050s-0.033 0.015-0.054 0.003c-0.021-0.013-0.032-0.035-0.023-0.050s0.033-0.015 0.054-0.003v0zM7.194 8.338c-0.020-0.015-0.028-0.038-0.018-0.052s0.035-0.012 0.054 0.003 0.028 0.038 0.018 0.052c-0.010 0.013-0.035 0.011-0.054-0.004v0zM7.197 8.402c-0.010 0.014-0.035 0.012-0.054-0.003s-0.028-0.038-0.018-0.052c0.010-0.014 0.034-0.012 0.054 0.003s0.028 0.038 0.018 0.052v0zM7.247 8.277c-0.020-0.015-0.029-0.038-0.018-0.052s0.034-0.012 0.054 0.003c0.020 0.015 0.028 0.039 0.018 0.052s-0.034 0.012-0.054-0.003v0zM7.3 8.215c-0.020-0.015-0.028-0.038-0.018-0.052s0.035-0.012 0.054 0.003c0.020 0.015 0.028 0.038 0.018 0.052s-0.035 0.012-0.054-0.004v0zM7.317 8.457c0.008-0.014 0.033-0.015 0.054-0.003s0.032 0.035 0.023 0.050-0.033 0.015-0.054 0.003c-0.021-0.013-0.032-0.036-0.023-0.050v0zM7.386 8.44c-0.021-0.013-0.032-0.035-0.024-0.049s0.033-0.016 0.054-0.003 0.032 0.035 0.023 0.050c-0.008 0.014-0.033 0.016-0.054 0.002v0zM7.433 8.374c-0.021-0.013-0.032-0.035-0.023-0.050s0.033-0.015 0.054-0.003c0.021 0.013 0.032 0.035 0.023 0.050s-0.033 0.015-0.054 0.002v0zM7.46 8.096c-0.010 0.014-0.035 0.012-0.054-0.003s-0.028-0.038-0.018-0.052 0.035-0.012 0.054 0.003c0.020 0.014 0.028 0.038 0.018 0.052v0zM7.389 8.106c0.020 0.015 0.028 0.038 0.018 0.052s-0.035 0.012-0.054-0.003c-0.020-0.015-0.028-0.038-0.018-0.052s0.035-0.011 0.054 0.004v0zM7.372 7.897c-0.011 0.013-0.035 0.011-0.054-0.005s-0.027-0.039-0.016-0.053c0.011-0.013 0.035-0.011 0.054 0.005s0.027 0.040 0.016 0.053v0zM7.301 7.904c0.019 0.016 0.027 0.039 0.016 0.052s-0.035 0.011-0.054-0.005c-0.019-0.016-0.027-0.039-0.016-0.053s0.035-0.011 0.054 0.005v0zM7.247 7.965c0.019 0.016 0.027 0.039 0.016 0.052s-0.035 0.011-0.054-0.005c-0.019-0.016-0.027-0.039-0.016-0.052s0.035-0.011 0.054 0.005v0zM7.192 8.024c0.019 0.015 0.027 0.039 0.016 0.052s-0.035 0.011-0.054-0.005c-0.019-0.016-0.027-0.039-0.016-0.052s0.035-0.011 0.054 0.005v0zM7.137 8.083c0.019 0.016 0.027 0.039 0.016 0.052s-0.035 0.011-0.054-0.005c-0.019-0.015-0.027-0.039-0.016-0.052s0.035-0.011 0.054 0.005v0zM7.082 8.143c0.019 0.016 0.027 0.039 0.016 0.053s-0.035 0.011-0.054-0.005c-0.019-0.016-0.027-0.039-0.016-0.053 0.010-0.012 0.035-0.011 0.054 0.005v0zM7.027 8.202c0.019 0.016 0.027 0.039 0.016 0.052s-0.035 0.011-0.054-0.005c-0.019-0.015-0.027-0.039-0.016-0.052s0.035-0.011 0.054 0.005v0zM6.968 8.383c0.629 0.315 1.256 0.475 1.863 0.475l0.16-0.005 0.011 0.009 0.011 0.009c0.054 0.049 0.113 0.112 0.171 0.181l0.008 0.010 0.007 0.008c-0.123 0.012-0.247 0.021-0.373 0.021-1.011 0-1.778-0.409-1.786-0.413l-0.093-0.305 0.019 0.011h-0zM8.707 8.624l-0.136-0.194 0.037-1.51 0.155-0.194 0.002 0.026c0.032 0.643 0.047 1.427 0.040 2.046v0.009l-0.009-0.001c-0.12-0.002-0.217-0.015-0.221-0.016-0.008-0.014-0.004-0.141-0.004-0.141l0.145 0.002v-0.002l-0.009-0.027zM9.823 7.574c-0.021 0.014-0.045 0.016-0.055 0.002s-0.002-0.037 0.019-0.051c0.021-0.014 0.044-0.016 0.055-0.002s0.002 0.037-0.018 0.051v0zM9.889 7.592c0.009 0.014 0.002 0.037-0.018 0.051s-0.045 0.016-0.055 0.002c-0.009-0.014-0.002-0.037 0.018-0.051 0.021-0.014 0.046-0.016 0.055-0.002v0zM9.776 7.506c-0.021 0.014-0.045 0.016-0.055 0.002s-0.002-0.037 0.018-0.051c0.021-0.014 0.044-0.016 0.055-0.002s0.002 0.037-0.018 0.051v0zM9.729 7.438c-0.021 0.014-0.045 0.016-0.055 0.002s-0.002-0.037 0.019-0.051 0.045-0.016 0.055-0.002c0.010 0.013 0.002 0.037-0.018 0.051v0zM9.681 7.37c-0.021 0.015-0.045 0.016-0.055 0.002s-0.002-0.037 0.019-0.051c0.021-0.015 0.044-0.016 0.055-0.002s0.002 0.037-0.018 0.051v0zM9.634 7.301c-0.021 0.014-0.045 0.016-0.055 0.002s-0.002-0.037 0.018-0.051 0.045-0.016 0.055-0.002c0.009 0.014 0.002 0.037-0.019 0.051v0zM9.586 7.232c-0.021 0.014-0.045 0.016-0.055 0.002s-0.002-0.037 0.019-0.051 0.044-0.016 0.055-0.002c0.010 0.013 0.002 0.037-0.019 0.051v0zM9.54 7.164c-0.021 0.015-0.045 0.016-0.055 0.002s-0.002-0.037 0.018-0.051c0.021-0.015 0.045-0.016 0.055-0.002s0.002 0.037-0.018 0.051v0zM9.492 7.096c-0.021 0.015-0.044 0.016-0.055 0.002s-0.002-0.037 0.018-0.051 0.045-0.016 0.055-0.002c0.009 0.014 0.002 0.037-0.018 0.051v0zM9.445 7.027c-0.021 0.014-0.045 0.016-0.055 0.002s-0.002-0.037 0.018-0.051 0.044-0.016 0.055-0.002c0.009 0.013 0.002 0.037-0.018 0.051v0zM9.398 6.959c-0.021 0.014-0.044 0.016-0.055 0.002s-0.002-0.037 0.018-0.051 0.044-0.016 0.055-0.002c0.010 0.014 0.002 0.037-0.018 0.051v0zM9.351 6.891c-0.021 0.014-0.045 0.016-0.055 0.002s-0.002-0.037 0.018-0.051c0.021-0.015 0.044-0.016 0.055-0.002s0.002 0.037-0.018 0.051v0zM9.024 6.781c0.023-0.010 0.046-0.006 0.053 0.008s-0.005 0.034-0.028 0.044-0.046 0.006-0.053-0.008c-0.007-0.014 0.005-0.034 0.028-0.044v0zM8.961 6.747c-0.007-0.014 0.005-0.034 0.028-0.044s0.046-0.006 0.053 0.008c0.007 0.014-0.005 0.035-0.028 0.044-0.022 0.011-0.046 0.006-0.053-0.008v0zM9.060 6.858c0.023-0.010 0.046-0.006 0.053 0.008s-0.005 0.034-0.028 0.044c-0.023 0.010-0.046 0.006-0.053-0.008s0.005-0.034 0.028-0.044v0zM9.095 6.936c0.023-0.010 0.046-0.006 0.053 0.008s-0.005 0.034-0.028 0.044-0.046 0.006-0.053-0.008c-0.007-0.014 0.005-0.034 0.028-0.044v0zM9.131 7.013c0.023-0.010 0.046-0.006 0.053 0.008s-0.005 0.034-0.028 0.044-0.046 0.006-0.053-0.008c-0.008-0.014 0.005-0.034 0.028-0.044v0zM9.166 7.090c0.023-0.010 0.046-0.006 0.053 0.008s-0.006 0.034-0.028 0.044c-0.022 0.010-0.046 0.006-0.053-0.008s0.006-0.034 0.028-0.044v0zM9.203 7.168c0.022-0.010 0.046-0.006 0.053 0.008s-0.005 0.034-0.028 0.044-0.046 0.006-0.053-0.008c-0.007-0.014 0.006-0.034 0.028-0.044v0zM9.238 7.245c0.023-0.010 0.046-0.006 0.053 0.008s-0.005 0.034-0.028 0.044-0.046 0.006-0.053-0.008c-0.007-0.014 0.005-0.034 0.028-0.044v0zM9.274 7.322c0.023-0.010 0.046-0.006 0.053 0.008s-0.005 0.034-0.028 0.044c-0.023 0.010-0.046 0.006-0.053-0.008s0.006-0.034 0.028-0.045v0zM9.303 6.822c-0.021 0.015-0.045 0.016-0.055 0.002s-0.002-0.037 0.019-0.051c0.021-0.014 0.044-0.016 0.055-0.002s0.002 0.037-0.018 0.051v0zM9.256 6.753c-0.021 0.014-0.045 0.016-0.055 0.002s-0.002-0.037 0.019-0.051c0.021-0.014 0.044-0.016 0.055-0.002s0.002 0.037-0.018 0.051v0zM9.209 6.685c-0.021 0.014-0.044 0.016-0.055 0.003s-0.002-0.037 0.019-0.051 0.044-0.016 0.055-0.002c0.010 0.014 0.002 0.037-0.019 0.051v0zM9.162 6.617c-0.021 0.015-0.045 0.016-0.055 0.002s-0.002-0.037 0.019-0.051c0.021-0.015 0.044-0.016 0.055-0.002s0.002 0.037-0.019 0.051v0zM9.114 6.548c-0.021 0.015-0.045 0.016-0.055 0.002s-0.002-0.037 0.018-0.051 0.044-0.016 0.055-0.002c0.009 0.014 0.002 0.037-0.019 0.051v0zM9.066 6.479c-0.021 0.014-0.044 0.016-0.055 0.002s-0.002-0.037 0.019-0.051c0.021-0.015 0.045-0.016 0.055-0.002s0.002 0.037-0.019 0.051v0zM8.979 6.678c-0.023 0.010-0.046 0.006-0.053-0.008s0.005-0.035 0.028-0.044 0.046-0.006 0.053 0.008c0.007 0.014-0.005 0.034-0.028 0.044v0zM8.943 6.601c-0.023 0.010-0.046 0.006-0.053-0.008s0.005-0.035 0.028-0.045 0.046-0.006 0.053 0.008c0.007 0.014-0.005 0.034-0.028 0.044v0zM7.352 9.453l-0.011-0.003-0.014-0.050-0.003-0.018 0.016 0.008c0.002 0.001 0.227 0.104 0.679 0.216v0.005l-0.011 0.002c-0.045 0.011-0.097 0.017-0.146 0.010-0.001 0-0.11-0.014-0.218-0.060l-0.036-0.015c-0.052-0.023-0.144-0.063-0.258-0.095v-0.001zM7.316 9.334l-0.13-0.239 0.027 0.013c0.005 0.002 0.492 0.233 1.242 0.337l0.001 0.007-0.008 0.002c-0.065 0.015-0.159 0.046-0.292 0.111l-0.029 0.013-0.015 0.006c-0.104-0.025-0.527-0.132-0.796-0.248v0zM7.167 9.018l-0.096-0.248 0.021 0.008c0.61 0.253 1.211 0.381 1.784 0.381 0.135 0 0.261-0.008 0.381-0.020l0.014 0.018 0.134 0.174 0.007 0.009c-0.196 0.034-0.396 0.052-0.6 0.052-0.936 0-1.636-0.37-1.643-0.373v0zM8.793 9.47c0.005-0.001 0.422-0.027 0.663-0.068l0.007 0.008 0.006 0.008 0.095 0.136 0.004 0.006-0.047 0.019-0.011 0.005-0.067 0.023c-0.040 0.011-0.092 0.021-0.152 0.021l-0.014-0.001-0.081-0.007-0.005-0.001-0.087-0.025-0.31-0.12v-0.006h0.001zM9.309 7.399c0.022-0.010 0.046-0.006 0.053 0.008s-0.006 0.034-0.028 0.044-0.046 0.006-0.053-0.008c-0.007-0.014 0.005-0.034 0.028-0.044v0zM9.345 7.477c0.022-0.010 0.046-0.006 0.053 0.008s-0.005 0.034-0.028 0.044-0.046 0.006-0.053-0.008c-0.007-0.014 0.006-0.034 0.028-0.044v0zM9.38 7.554c0.023-0.010 0.046-0.006 0.053 0.008s-0.005 0.034-0.028 0.044c-0.023 0.010-0.046 0.006-0.053-0.008s0.005-0.034 0.028-0.044v0zM9.416 7.632c0.022-0.010 0.046-0.006 0.053 0.008s-0.005 0.034-0.028 0.044-0.046 0.006-0.053-0.008c-0.007-0.014 0.005-0.035 0.028-0.044v0zM9.451 7.71c0.023-0.010 0.046-0.006 0.053 0.008s-0.005 0.035-0.028 0.045-0.046 0.006-0.053-0.008c-0.008-0.014 0.005-0.034 0.028-0.044v0zM9.487 7.787c0.023-0.010 0.046-0.006 0.053 0.008s-0.006 0.034-0.028 0.044c-0.023 0.010-0.046 0.006-0.053-0.008s0.005-0.034 0.028-0.044v0zM9.523 7.864c0.022-0.010 0.046-0.006 0.053 0.008s-0.005 0.034-0.028 0.044-0.046 0.006-0.053-0.008c-0.007-0.014 0.005-0.035 0.028-0.044v0zM9.558 7.941c0.023-0.010 0.046-0.006 0.053 0.008s-0.005 0.034-0.028 0.044-0.046 0.006-0.053-0.008c-0.007-0.014 0.005-0.034 0.028-0.044v0zM9.594 8.019c0.022-0.010 0.046-0.007 0.053 0.008s-0.005 0.034-0.028 0.044c-0.023 0.010-0.046 0.006-0.053-0.008s0.005-0.034 0.028-0.044v0zM9.629 8.097c0.023-0.010 0.046-0.007 0.054 0.008s-0.006 0.034-0.028 0.044c-0.023 0.010-0.046 0.006-0.053-0.008s0.005-0.034 0.028-0.044v0zM9.665 8.174c0.023-0.010 0.046-0.007 0.053 0.008s-0.005 0.034-0.028 0.044c-0.023 0.009-0.046 0.007-0.053-0.008s0.005-0.034 0.028-0.044v0zM9.7 8.252c0.022-0.010 0.046-0.007 0.053 0.008s-0.005 0.034-0.028 0.044c-0.022 0.010-0.046 0.006-0.053-0.008s0.006-0.034 0.028-0.044v0zM9.736 8.329c0.023-0.010 0.046-0.007 0.053 0.008s-0.005 0.034-0.028 0.044-0.046 0.007-0.053-0.008c-0.007-0.014 0.005-0.034 0.028-0.044v0zM9.771 8.406c0.023-0.010 0.046-0.007 0.053 0.008s-0.005 0.034-0.028 0.044-0.046 0.007-0.053-0.008c-0.008-0.014 0.005-0.034 0.028-0.044v0zM9.807 8.483c0.022-0.010 0.046-0.007 0.053 0.008s-0.006 0.034-0.028 0.044-0.046 0.007-0.053-0.008c-0.007-0.014 0.005-0.034 0.028-0.044v0zM9.842 8.561c0.022-0.010 0.046-0.007 0.053 0.008s-0.005 0.034-0.028 0.044c-0.023 0.010-0.046 0.007-0.053-0.008s0.005-0.034 0.028-0.044v0zM9.864 7.714c-0.010-0.013-0.002-0.037 0.018-0.051 0.021-0.015 0.045-0.016 0.055-0.002s0.002 0.037-0.018 0.051c-0.021 0.014-0.045 0.016-0.055 0.002v0zM9.929 7.731c0.021-0.015 0.044-0.016 0.055-0.002s0.002 0.037-0.018 0.051c-0.021 0.014-0.045 0.016-0.055 0.002s-0.002-0.037 0.018-0.051v0zM9.976 7.799c0.021-0.014 0.044-0.016 0.055-0.002s0.002 0.037-0.019 0.051c-0.021 0.014-0.044 0.016-0.055 0.002s-0.002-0.036 0.018-0.051v0zM10.061 5.746c-0.166 0.074-0.317 0.151-0.454 0.228l-0.024 0.013c-0.066 0.037-0.129 0.074-0.189 0.112l-0.031 0.021-0.127 0.085-0.071 0.051-0.073 0.056-0.073 0.059-0.053 0.046-0.075 0.066-0.011 0.011c-0.099 0.095-0.185 0.192-0.259 0.292l-0.009 0.013-0.067 0.099-0.005 0.008c-0.089 0.144-0.152 0.293-0.188 0.448-0.161 0.684 0.275 1.226 0.28 1.231l0.003 0.004-0.005-0.001c-0.234-0.027-0.441-0.087-0.621-0.177l-0.008-0.004-0.111-0.063-0.018-0.011-0.098-0.069-0.016-0.012c-0.092-0.073-0.174-0.156-0.246-0.251l0.001 0.032c-0.010 0.014-0.035 0.012-0.054-0.003s-0.028-0.038-0.018-0.051c0.010-0.013 0.035-0.012 0.054 0.003l0.007 0.006-0.019-0.026-0.058-0.095-0.014-0.024-0.037-0.011c-0.019-0.016-0.027-0.039-0.016-0.052l0.016-0.005-0.003-0.006c-0.034-0.068-0.063-0.138-0.088-0.208l-0.008-0.024-0.030-0.098-0.011-0.039c-0.016-0.061-0.029-0.123-0.040-0.185l-0.005-0.026-0.013-0.089-0.006-0.053-0.008-0.085-0.003-0.037-0.007-0.168-0-0.030c-0.003-0.423 0.074-0.753 0.075-0.76l2.834-0.221zM8.662 5.021l0.049-0.004 0.024 0.787h-0.089l0.016-0.784zM6.631 5.375c0 0 0.182-0.059 0.309 0.083 0.176 0.118 0.176-0.093 0.185-0.176 0.194-0.614 1.472-0.186 1.472-0.186v0.28c0 0-1.354-0.523-1.377 0.176-0.003 0.319-0.231 0.184-0.231 0.184s-0.379-0.303-0.884 0.168c0.194-0.48 0.525-0.53 0.525-0.53v0zM5.232 7.423l-0.002-0.061 1.34-0.002 0.002 0.063-1.339 0zM6.516 8.239h-0.146c-0.061-0.432-0.463-0.455-0.466-0.455-0.431 0.027-0.464 0.448-0.465 0.453l-0.149 0.002-0.002-0.76 1.226-0.002 0.002 0.761zM4.909 7.149l0.256-0.002 0.002 0.311 0.047-0.002 0.002 0.054h-0.385c0.019-0.123 0.045-0.244 0.078-0.362v0zM4.822 7.562l0.391-0.002 0.002 0.301h-0.419c0.004-0.101 0.013-0.2 0.027-0.299h-0zM4.793 7.912l0.42-0.002 0.002 0.086h-0.426l0.004-0.084zM4.79 8.044l0.423-0.002 0.002 0.041h-0.423l-0.002-0.039zM4.795 8.138h0.006l0.412-0.002 0.002 0.1-0.061 0.002 0.002 0.149 0.014 0.041h-0.35c-0.013-0.095-0.021-0.191-0.026-0.289v0zM4.83 8.488h0.014l0.354-0.002 0.029 0.062 0 0.271h-0.327c-0.029-0.108-0.052-0.218-0.069-0.33v0zM5.045 9.247h0.023l0.157-0.002 0.002 0.352c-0.066-0.113-0.128-0.229-0.181-0.351v0zM5.022 9.188c-0.042-0.101-0.077-0.204-0.107-0.31h0.056l0.253-0.002 0.002 0.312h-0.205zM5.286 9.695l-0-1.11 0.321-0.002 0.002 1.532c-0.119-0.131-0.226-0.271-0.322-0.421v0zM5.607 8.53h-0.319l-0.061-0.118-0-0.116 0.439-0.002 0.002 0.117-0.061 0.119zM5.902 7.949c-0.287 0-0.291 0.286-0.291 0.289l-0.088 0.002 0-0.002 0.006-0.043 0.003-0.024 0.005-0.018 0.011-0.041 0.001-0.002c0.087-0.25 0.351-0.254 0.353-0.254 0.375 0.027 0.379 0.377 0.379 0.381v0.002h-0.088c-0.029-0.287-0.288-0.291-0.291-0.291v0zM6.192 10.625l-0.001-2.040 0.321-0.002 0.002 2.228c-0.111-0.056-0.218-0.117-0.321-0.186v0zM6.513 8.53h-0.319l-0.061-0.118-0-0.116 0.439-0.002 0.002 0.117-0.061 0.119zM5.232 7.306l-0.002-0.554 0.282-0.002 0.002 0.263 0.242-0.002-0.002-0.26 0.295-0.002 0.002 0.263 0.242-0.002-0.002-0.26 0.281-0.002 0.002 0.556-1.341 0zM7.946 11.159c-0.431 0-0.842-0.087-1.217-0.245 0.181-0.039 0.312-0.044 0.314-0.044 0.061 0.001 0.121 0.008 0.177 0.018l0.080 0.017 0.019 0.005c0.086 0.022 0.161 0.049 0.218 0.071l0.064 0.026 0.045 0.018c0.092 0.040 0.162 0.054 0.196 0.059l0.007 0.001 0.003 0.001 0.013 0.002 0.048 0.003 0.005-0.001 0.019-0.001 0.032-0.002 0.019-0.003 0.028-0.005 0.019-0.005 0.024-0.007 0.018-0.005 0.018-0.007 0.016-0.007 0.011-0.005 0.015-0.007 0.001-0.001 0.020-0.010c0.249-0.118 0.355-0.12 0.403-0.123 0.143 0 0.216 0.031 0.216 0.031l0.008 0.004 0.145 0.063c-0.311 0.102-0.641 0.159-0.985 0.159h0zM9.187 10.903l-0.084-0.023-0.324-0.124-0.068-0.018c-0.068-0.013-0.132-0.014-0.152-0.014-0.146 0-0.399 0.124-0.402 0.126l-0.034 0.016c-0.041 0.018-0.116 0.045-0.202 0.049l-0.056-0.001-0.018-0.004c-0.026-0.005-0.079-0.014-0.201-0.059-0.16-0.076-0.309-0.116-0.42-0.136s-0.182-0.021-0.183-0.021l-0.066 0.004-0.006 0.001-0.057 0.007-0.051 0.008-0.007 0.001c-0.12 0.021-0.237 0.050-0.261 0.056l-0.002-0.274c0.131-0.034 0.228-0.052 0.299-0.063l0.149-0.015c0.217 0.007 0.406 0.075 0.513 0.118l0.056 0.024 0.034 0.014 0.059 0.023 0.008 0.002 0.063 0.018 0.047 0.011 0.042 0.007 0.050 0.004h0.003l0.049-0.004 0.027-0.004 0.019-0.004 0.028-0.007 0.013-0.004 0.027-0.009 0.008-0.003 0.024-0.009 0.005-0.002 0.020-0.009 0.001-0.001 0.020-0.010c0.063-0.029 0.115-0.050 0.161-0.067 0.184-0.069 0.241-0.056 0.242-0.056l0.021-0.001c0.119 0 0.194 0.031 0.196 0.031l0.324 0.123c0.056 0.023 0.117 0.034 0.182 0.034h0.001c0.133 0 0.238-0.049 0.239-0.050l0.245-0.091 0.027-0.009 0.083-0.022 0.039-0.008 0.002-0.001 0.005-0.001c-0.223 0.181-0.47 0.332-0.738 0.446v0zM10.112 10.292l-0.013-0.003-0.005-0.001-0.009-0.001c-0.066-0.013-0.123-0.011-0.161-0.005l-0.029 0.005h-0.001l-0.019 0.004c-0.133 0.036-0.304 0.104-0.346 0.121l-0.009 0.004c-0.075 0.033-0.153 0.049-0.232 0.049-0.111 0-0.185-0.034-0.186-0.034l-0.324-0.125c-0.078-0.031-0.223-0.031-0.226-0.031-0.162 0.006-0.395 0.124-0.397 0.126-0.164 0.081-0.291 0.062-0.292 0.062-0.081-0.007-0.186-0.049-0.212-0.059l-0.006-0.002c-0.341-0.152-0.574-0.156-0.604-0.156h-0l-0.117 0.012-0.017 0.002c-0.176 0.024-0.303 0.059-0.313 0.063l-0.002-0.29 0.002-0.001v0.001c0.22-0.059 0.447-0.078 0.449-0.078l0.126 0.014c0.281 0.041 0.472 0.145 0.474 0.146l0.061 0.021c0.074 0.023 0.148 0.037 0.155 0.039l0.002 0.001 0.038 0.002 0.007-0.001 0.033-0.002 0.017-0.002 0.035-0.005 0.010-0.002 0.036-0.008 0.006-0.002 0.035-0.011 0.076-0.031c0.251-0.127 0.396-0.129 0.403-0.129l0.056 0.002c0.118 0.008 0.159 0.030 0.161 0.030l0.324 0.125c0.054 0.022 0.114 0.033 0.177 0.033 0.134 0 0.243-0.050 0.244-0.050 0.271-0.11 0.354-0.124 0.355-0.124 0.036-0.007 0.072-0.011 0.109-0.011 0.124 0 0.214 0.041 0.216 0.042l0.121 0.040c-0.066 0.076-0.137 0.149-0.211 0.22l-0.001 0.001zM10.447 9.921c-0.13-0.039-0.243-0.078-0.243-0.078l-0.072-0.021h-0.001l-0.034-0.006h-0.001l-0.046-0.008h-0.002l-0.007-0.001-0.057-0.005h-0.004l-0.101 0.008c-0.012 0-0.227 0.070-0.357 0.127-0.047 0.021-0.096 0.033-0.145 0.041l-0.077 0.008-0.027-0.001-0.028-0.002c-0.046-0.004-0.085-0.012-0.114-0.022l-0.052-0.018c-0.005-0.004-0.271-0.104-0.3-0.116l-0.021-0.008c-0.069-0.024-0.188-0.028-0.196-0.024h-0.001l-0.020 0.001-0.037 0.003c-0.136 0.015-0.347 0.121-0.348 0.122-0.158 0.066-0.242 0.068-0.274 0.063l-0.017-0.004c-0.001 0-0.111-0.014-0.218-0.060-0.151-0.072-0.292-0.111-0.401-0.133-0.065-0.012-0.118-0.018-0.154-0.021l-0.051-0.002-0.060 0.003-0.024 0.003-0.043 0.005-0.035 0.006-0.033 0.005-0.053 0.010-0.012 0.002c-0.095 0.019-0.175 0.040-0.188 0.044l-0.002-0.261c0.289-0.077 0.447-0.078 0.449-0.078l0.093 0.005 0.078 0.011c0.178 0.030 0.33 0.097 0.396 0.127l0.036 0.015c0.109 0.046 0.218 0.060 0.219 0.060h0.002c0.138 0.018 0.291-0.060 0.293-0.060 0.244-0.117 0.36-0.123 0.403-0.125 0.152 0 0.216 0.031 0.216 0.031l0.324 0.125c0.058 0.023 0.12 0.034 0.185 0.034 0.133 0 0.235-0.050 0.236-0.050l0.099-0.039 0.015 0.022 0.006 0.009 0.011 0.002 0.107 0.007c0.23 0 0.344-0.098 0.348-0.102l0.018-0.016-0.002-0.002 0.047 0.015 0.030 0.008 0.117 0.040 0.040 0.012 0.056 0.017 0.034 0.009 0.044 0.011 0.023 0.005 0.040 0.008 0.011 0.002 0.037 0.005h0.001l0.003 0.001c-0.050 0.078-0.103 0.154-0.16 0.227v0zM11.008 7.361l-0.001 0.010h0.001l-0.001 0.038c0.008 1.171-0.745 2.059-0.753 2.067l-0.004 0.004-0.129-0.021 0.009-0.012c0.669-0.892 0.742-2.062 0.742-2.074l0.134-0.011zM10.652 8.287l-0.012 0.034c-0.062 0.166-0.144 0.35-0.145 0.352-0.296 0.16-0.607 0.272-0.93 0.341l-0.009-0.007-0.012-0.008c-0.073-0.055-0.151-0.108-0.233-0.156l-0.012-0.008-0.014-0.009c0.838-0.114 1.334-0.511 1.339-0.515l0.028-0.023h-0.001zM10.409 8.345c0.010 0.014 0.002 0.037-0.018 0.052s-0.044 0.015-0.055 0.002c-0.009-0.014-0.002-0.037 0.018-0.052 0.021-0.014 0.045-0.015 0.055-0.002v0zM10.362 8.277c0.010 0.014 0.002 0.037-0.018 0.052s-0.045 0.015-0.055 0.002c-0.009-0.014-0.002-0.037 0.019-0.052s0.044-0.015 0.055-0.002v0zM10.315 8.208c0.010 0.014 0.002 0.037-0.018 0.051-0.021 0.015-0.044 0.015-0.055 0.002s-0.002-0.037 0.019-0.051c0.021-0.015 0.045-0.016 0.055-0.002v0zM10.268 8.139c0.010 0.014 0.002 0.037-0.019 0.052s-0.045 0.015-0.055 0.002c-0.009-0.014-0.002-0.037 0.019-0.052s0.044-0.016 0.055-0.002v0zM3.505 5.916c0.029-0.042 0.048-0.061 0.083-0.061 0.046 0 0.122 0.037 0.272 0.12l0.002 0 0.109 0.061c0.316 0.176 0.349 0.194 0.298 0.29l-0.001 0.003 0.051 0.053 0.186-0.335 0.034-0.070 0-0.003c0.091-0.231-0.053-0.341-0.119-0.378-0.026-0.014-0.058-0.024-0.092-0.029h-0.077c-0.064 0.009-0.12 0.042-0.165 0.094 0.005-0.029 0.003-0.058-0.005-0.087h0l-0.002-0.005-0.001-0.003h-0c-0.017-0.055-0.058-0.105-0.111-0.134-0.013-0.008-0.062-0.032-0.123-0.032s-0.151 0.026-0.22 0.149l-0.009 0.016-0.021 0.041-0.060 0.116-0.062 0.104-0.022 0.036-0.001 0.003 0.052 0.056 0.003-0.004zM3.817 5.528c0.029 0 0.059 0.008 0.090 0.026l0.025 0.016 0.003 0.002c0.050 0.038 0.097 0.111 0.026 0.239l-0.029 0.050-0.094-0.054c-0.026-0.014-0.117-0.067-0.143-0.086-0.035-0.024-0.038-0.049-0.011-0.099l0.037-0.051 0.001-0.001c0.028-0.027 0.061-0.042 0.097-0.042h-0.001zM4.018 5.91l0.001-0.001 0.021-0.043c0.034-0.061 0.090-0.163 0.196-0.163 0.036 0 0.075 0.011 0.118 0.035 0.144 0.080 0.109 0.194 0.093 0.23l-0.001 0.002-0.009 0.019-0.068 0.103-0.001 0.001-0.244-0.125-0.106-0.058h-0z"></path>
<path d="M3.711 7.234c0 0.087-0.071 0.157-0.158 0.157s-0.158-0.071-0.158-0.157c0-0.087 0.071-0.157 0.158-0.157s0.158 0.071 0.158 0.157z"></path>
<path d="M4.095 9.767c0.045-0.017 0.079-0.027 0.102-0.027s0.036 0.011 0.051 0.041l0.002 0.004 0.002 0.005 0.072-0.007-0.122-0.287-0.075 0.005 0.002 0.005c0.027 0.075 0.034 0.091-0.076 0.139l-0.231 0.101-0.071 0.030c-0.15 0.063-0.245 0.101-0.3 0.119l-0.054 0.011c-0.031 0-0.042-0.019-0.058-0.056l-0.002-0.002-0.072 0.007 0.131 0.309 0.072-0.005-0.002-0.005c-0.019-0.070-0.025-0.101 0.034-0.133 0.048-0.027 0.131-0.064 0.259-0.118 0.139-0.059 0.226-0.095 0.292-0.12l0.043-0.017zM4.659 10.829l-0.005 0.004 0.075 0.046 0.205-0.148-0.104-0.143h0l-0.338-0.466-0.237 0.172 0.076 0.047 0.002-0.002c0.047-0.030 0.083-0.044 0.115-0.044 0.059 0 0.098 0.052 0.154 0.13-0.042 0.034-0.131 0.101-0.205 0.155l-0.035 0.025-0.034 0.025c-0.104 0.075-0.199 0.142-0.284 0.196-0.057 0.038-0.090 0.056-0.119 0.056-0.027 0-0.051-0.017-0.089-0.063l-0.002-0.002-0.060 0.024 0.252 0.347 0.063-0.020-0.003-0.004c-0.056-0.089-0.080-0.127 0.035-0.216l0.026-0.021c0.057-0.044 0.135-0.107 0.244-0.185l0.29-0.206 0.002 0.002 0.025 0.030 0.011 0.017 0.002 0.002c0.074 0.112 0.048 0.161-0.063 0.242l-0-0.001zM3.151 9.058c-0.022-0.121-0.006-0.214 0.048-0.285s0.148-0.118 0.28-0.142l0.099-0.008c0.103 0 0.199 0.023 0.22 0.039 0.055 0.039 0.096 0.12 0.114 0.22 0.010 0.055 0.005 0.095-0.015 0.124-0.030 0.042-0.087 0.052-0.143 0.062l-0.010 0.002 0.049 0.076 0.263-0.049-0-0.009c-0.005-0.066-0.008-0.119-0.023-0.2-0.045-0.253-0.229-0.404-0.494-0.404-0.039 0-0.079 0.004-0.119 0.011-0.301 0.053-0.463 0.268-0.414 0.548 0.018 0.105 0.042 0.147 0.071 0.2l0.021 0.038 0.001 0.002 0.131 0.002-0.003-0.006c-0.034-0.063-0.058-0.11-0.078-0.22v0z"></path>
<path d="M12.456 7.236c0 0.087-0.070 0.157-0.158 0.157s-0.158-0.071-0.158-0.157c0-0.087 0.070-0.157 0.158-0.157s0.158 0.071 0.158 0.157z"></path>
<path d="M11.33 5.966l0.19 0.342 0.277-0.154-0.059-0.067-0.003 0.002c-0.052 0.029-0.094 0.042-0.129 0.042-0.065 0-0.104-0.048-0.147-0.125l-0.018-0.032-0.003-0.006-0.033-0.069-0.011-0.026 0.431-0.245 0.101-0.056c0.084-0.046 0.136-0.071 0.171-0.071 0.033 0 0.050 0.021 0.082 0.069l0.008 0.012 0.002 0.002 0.070-0.009-0.203-0.366-0.069 0.012 0.002 0.005c0.050 0.107 0.037 0.12-0.082 0.191-0.053 0.032-0.13 0.076-0.259 0.147l-0.013 0.007h0.001l-0.084 0.046-0.056 0.030-0.041 0.022-0.009 0.005c-0.111 0.056-0.155 0.076-0.197 0.002l-0.001-0.003-0.073 0.013 0.155 0.279-0.001-0zM4.475 4.513c0.032-0.027 0.056-0.039 0.079-0.039 0.029 0 0.054 0.021 0.092 0.061 0.043 0.045 0.112 0.121 0.208 0.232l0.107 0.128 0.056 0.066 0.005 0.006 0 0.001 0 0c0.083 0.099 0.093 0.125 0.030 0.187l-0.002 0.002 0.029 0.067 0.324-0.282-0.026-0.072-0.004 0.003c-0.052 0.043-0.093 0.063-0.127 0.063-0.046 0-0.082-0.035-0.128-0.083l-0.136-0.15-0.010-0.011-0.015-0.018c0.038-0.032 0.061-0.047 0.095-0.047 0.042 0 0.104 0.026 0.22 0.074l0.277 0.115 0.162-0.141-0.026-0.070-0.004 0.003c-0.042 0.032-0.066 0.045-0.096 0.045s-0.071-0.014-0.146-0.045l-0.136-0.056c-0.069-0.029-0.114-0.040-0.147-0.040l-0.057 0.012c0.032-0.034 0.063-0.093 0.064-0.163v-0.003c-0-0.058-0.024-0.114-0.066-0.163-0.048-0.054-0.111-0.085-0.177-0.085-0.061 0-0.123 0.026-0.18 0.075l-0.172 0.157-0.010 0.008-0.008 0.006-0.001 0.001-0.079 0.064-0.026 0.021-0.002 0.002 0.029 0.072 0.004-0.003h0zM4.952 4.569l-0.042 0.030-0.014 0.010-0.074-0.088-0.082-0.099c-0.019-0.026-0.028-0.043-0.028-0.061v-0.002c0.001-0.021 0.014-0.042 0.045-0.069 0.085-0.074 0.167-0.071 0.237 0.011l0.039 0.063c0.038 0.101-0.051 0.179-0.082 0.205v0zM10.3 4.829c0.092 0.072 0.208 0.111 0.325 0.111 0.165 0 0.315-0.074 0.421-0.21 0.098-0.125 0.141-0.247 0.13-0.364h0.001l-0.001-0.004c-0.012-0.119-0.080-0.227-0.202-0.322-0.106-0.083-0.209-0.121-0.325-0.121l-0.072 0.005c-0.128 0.014-0.249 0.081-0.324 0.177-0.069 0.087-0.113 0.174-0.133 0.258l-0.001 0.003c-0.059 0.257 0.123 0.423 0.181 0.468v0zM11.021 4.362c0.007 0.097-0.035 0.205-0.126 0.322-0.114 0.146-0.163 0.152-0.21 0.157l-0.031 0.002c-0.072 0-0.149-0.032-0.233-0.099-0.136-0.106-0.184-0.234-0.14-0.379l0.001-0.003c0.026-0.085 0.076-0.157 0.118-0.209 0.082-0.106 0.166-0.133 0.229-0.144 0.066-0.008 0.142 0.024 0.236 0.096 0.097 0.075 0.149 0.16 0.157 0.252l0.001 0.004zM9.333 4.2l-0.005-0.002c-0.118-0.046-0.154-0.067-0.114-0.2l0.008-0.029 0.061-0.21 0.001-0.005 0.027-0.083 0.086-0.256 0.027-0.079 0.046 0.012c0.162 0.053 0.176 0.111 0.132 0.245l-0.002 0.006 0.097-0.003 0.076-0.236 0.002-0.003-0.794-0.258-0.091 0.279 0.097-0.003 0.001-0.002c0.034-0.085 0.072-0.119 0.133-0.119 0.043 0 0.095 0.017 0.161 0.038-0.020 0.076-0.082 0.268-0.101 0.326l-0.048 0.142-0.067 0.183c-0.036 0.093-0.056 0.125-0.108 0.125l-0.081-0.014-0.037 0.054 0.452 0.147 0.041-0.052h-0.001zM11.13 11.709c-0.065-0.079-0.132-0.161-0.194-0.242-0.106-0.136-0.17-0.217-0.211-0.277l-0.004-0.006c-0.080-0.114-0.066-0.13-0.030-0.173l0.002-0.002-0.026-0.069-0.307 0.241 0.001 0.002h-0.001l0.021 0.066 0.005-0.003c0.039-0.028 0.075-0.047 0.107-0.055h0.001l0.068-0.001v0.001c0.031 0.008 0.062 0.028 0.089 0.059l0.021 0.025 0.101 0.126 0.005 0.007 0.069 0.091 0.111 0.143c-0.209-0.046-0.642-0.184-0.844-0.264l-0.002-0.001-0.143 0.112 0.024 0.064 0.004-0.002c0.028-0.017 0.051-0.027 0.073-0.027 0.053 0 0.107 0.063 0.262 0.263h-0.001l0.005 0.006 0.011 0.014c0.185 0.236 0.249 0.323 0.223 0.382l-0.001 0.002-0.024 0.032-0.002 0.002 0.027 0.067 0.306-0.239-0.025-0.071-0.004 0.003c-0.059 0.038-0.097 0.059-0.133 0.059-0.067 0-0.131-0.076-0.266-0.249h0.001l-0.005-0.006-0.007-0.009-0.074-0.094-0.053-0.068-0.020-0.024 0.451 0.133 0.211 0.068 0.195 0.068 0.038-0.068 0.007-0.011-0.002-0.002-0.059-0.072zM11.989 10.596c-0.021 0.069-0.037 0.12-0.101 0.211-0.080 0.114-0.169 0.169-0.272 0.169-0.079 0-0.167-0.034-0.262-0.101-0.112-0.079-0.199-0.213-0.204-0.247l-0.002-0.043v-0.002c0.004-0.059 0.031-0.127 0.076-0.191 0.037-0.053 0.075-0.079 0.116-0.079 0.044 0 0.087 0.030 0.128 0.059l0.008 0.006 0.018-0.086 0.001-0.002-0.221-0.152-0.007 0.007c-0.043 0.050-0.078 0.089-0.125 0.157-0.063 0.089-0.095 0.183-0.096 0.277h-0.001v0.004c-0.001 0.159 0.093 0.319 0.251 0.43 0.102 0.072 0.211 0.109 0.315 0.109 0.144 0 0.274-0.072 0.367-0.204 0.062-0.088 0.075-0.134 0.091-0.193l0.012-0.041 0.001-0.002-0.091-0.094-0.002 0.007v-0.001zM12.546 8.591l-0.005-0.001 0.005 0.082 0.003 0.001c0.168 0.030 0.188 0.094 0.166 0.217l-0.024 0.104-0.007 0.024-0.489-0.081c-0.323-0.057-0.323-0.057-0.312-0.18l0.001-0.002-0.060-0.034-0.065 0.368-0.001 0.003 0.061 0.031 0.002-0.005c0.020-0.076 0.036-0.094 0.087-0.094l0.095 0.010c0.082 0.012 0.207 0.034 0.403 0.069l0.108 0.021 0.009 0.002c0.12 0.026 0.169 0.037 0.156 0.112l-0.001 0.003 0.065 0.034 0.111-0.63-0.307-0.054zM9.81 12.196l-0.008-0.023-0.115-0.309-0.022-0.075c-0.009-0.049 0.008-0.065 0.043-0.086l0.002-0.002-0.003-0.069-0.278 0.101 0.003 0.073 0.005-0.002 0.043-0.012h0.002l0.033-0.001c0.024 0.005 0.044 0.027 0.066 0.073 0.030 0.063 0.063 0.148 0.106 0.264l0.022 0.062 0.001 0.002c0.095 0.264 0.093 0.271 0.073 0.323l-0.001 0.003c-0.007 0.017-0.024 0.043-0.053 0.069l-0.002 0.001c-0.025 0.022-0.056 0.039-0.088 0.049-0.084 0.031-0.154 0.014-0.207-0.049-0.039-0.046-0.059-0.104-0.069-0.132l-0.095-0.269-0.001-0.002-0.041-0.128c-0.044-0.137-0.036-0.157 0.097-0.214l0.002-0.001-0.001-0.073-0.364 0.133-0.004 0.002 0.007 0.072 0.004-0.002 0.039-0.007c0.043 0 0.059 0.039 0.103 0.162l0.111 0.301c0.021 0.057 0.043 0.113 0.070 0.164l0.002 0.002c0.062 0.11 0.137 0.16 0.24 0.16 0.043 0 0.091-0.009 0.143-0.028 0.075-0.027 0.133-0.073 0.169-0.133 0.044-0.075 0.052-0.169 0.019-0.258l-0.052-0.142zM12.473 9.825c-0.039 0.063-0.056 0.086-0.121 0.066-0.052-0.017-0.138-0.053-0.264-0.108l-0.005-0.002-0.009-0.005c-0.117-0.052-0.236-0.106-0.313-0.146-0.105-0.053-0.117-0.069-0.091-0.127l0.002-0.002-0.054-0.049-0.127 0.286 0.049 0.046 0.001 0.001v0.001l0.005 0.005 0.002-0.004 0.002-0.002 0.005-0.007h-0.002c0.021-0.040 0.032-0.058 0.060-0.058 0.018 0 0.044 0.008 0.089 0.027l0.091 0.039 0.128 0.056c0.196 0.087 0.314 0.143 0.374 0.175 0.073 0.040 0.064 0.062 0.043 0.111l-0.001 0.002 0.054 0.048 0.136-0.306-0.053-0.049-0.002 0.005zM7.182 11.851c-0.042-0.008-0.082-0.013-0.121-0.013-0.206 0-0.374 0.13-0.45 0.35l-0.001 0.002-0.022 0.081c-0.024 0.117-0.019 0.226 0.017 0.319l0.002 0.005c0.055 0.137 0.174 0.232 0.334 0.265 0.050 0.011 0.090 0.015 0.127 0.015l0.086-0.007 0.045-0.005 0.051-0.12-0.006 0.001-0.096 0.007c-0.042 0-0.084-0.005-0.138-0.017-0.116-0.024-0.194-0.072-0.241-0.143-0.051-0.079-0.061-0.184-0.032-0.323l0.023-0.076 0.002-0.005c0.038-0.101 0.099-0.188 0.123-0.204 0.036-0.023 0.085-0.036 0.144-0.036 0.032 0 0.067 0.004 0.102 0.011 0.054 0.011 0.090 0.031 0.109 0.061 0.028 0.043 0.016 0.101 0.004 0.156l-0.002 0.010 0.089-0.017 0.053-0.259 0-0.004-0.003-0.001c-0.064-0.021-0.116-0.038-0.199-0.056v0zM7.604 3.552c0.12 0.050 0.232 0.097 0.24 0.207v0.002c0.003 0.072-0.025 0.112-0.037 0.127-0.032 0.037-0.088 0.039-0.125 0.042l-0.044 0.002c-0.118 0-0.169-0.024-0.181-0.172l-0.002-0.027-0.002-0.046-0.096 0.057 0.016 0.298 0 0.003 0.004-0 0.067-0h0.027l0.177-0.002c0.085-0.005 0.184-0.016 0.256-0.087 0.042-0.041 0.085-0.095 0.088-0.196l-0-0.035c-0.009-0.165-0.16-0.23-0.294-0.287-0.111-0.048-0.216-0.093-0.221-0.188-0.002-0.039 0.008-0.071 0.029-0.095 0.028-0.031 0.074-0.048 0.138-0.051l0.029-0.001c0.106 0 0.142 0.037 0.148 0.151l0.002 0.028 0 0.014 0.091-0.050-0.013-0.244h-0.082l-0.072 0.001-0.104 0.002c-0.309 0.017-0.322 0.223-0.319 0.286 0.008 0.151 0.146 0.208 0.279 0.264v0.001zM5.974 3.494l0.071-0.018c0.029 0 0.048 0.022 0.078 0.093l0.080 0.192 0.001 0.002 0.007 0.019 0.003 0.008c0.080 0.197 0.126 0.32 0.147 0.387 0.024 0.080-0.002 0.091-0.055 0.114l-0.003 0.001 0.003 0.073 0.345-0.139-0.002-0.073-0.005 0.002-0.077 0.014c-0.029 0-0.048-0.013-0.067-0.047-0.026-0.048-0.062-0.131-0.115-0.261l-0.041-0.102c-0.042-0.106-0.069-0.18-0.088-0.236-0.038-0.111-0.035-0.131 0.031-0.158l0.003-0.001-0.003-0.073-0.321 0.129 0.001 0.077 0.005-0.002zM5.625 11.281c-0.096 0.079-0.221 0.146-0.386 0.232l0.018-0.162c0.008-0.071 0.014-0.12 0.035-0.149l0.010-0.011 0.001-0.001c0.021-0.019 0.048-0.019 0.083 0.001h0l0.029 0.018 0.032 0.022 0.051-0.040h0l0.001-0.001 0.008-0.007h-0.006l-0.359-0.251-0.059 0.046 0.003 0.003c0.058 0.046 0.066 0.077 0.056 0.206l-0.004 0.051-0.023 0.306-0.147 0.21-0.024 0.034-0.005 0.007c-0.023 0.029-0.050 0.055-0.085 0.055-0.021 0-0.043-0.009-0.069-0.027l-0.003-0.002-0.054 0.046 0.316 0.221 0.062-0.046-0.005-0.003c-0.046-0.033-0.073-0.056-0.078-0.085-0.005-0.027 0.009-0.062 0.046-0.114l0.032-0.046 0.125-0.179 0.045-0.022 0.081-0.040c0.114-0.056 0.202-0.092 0.285-0.127l0.163-0.069-0.174-0.076-0.002 0.002h-0zM8.245 11.963c-0.144 0-0.254 0.049-0.346 0.152l-0.056 0.075-0.003 0.006c-0.047 0.079-0.072 0.171-0.072 0.258 0 0.048 0.003 0.094 0.010 0.136l0 0.004c0.056 0.376 0.341 0.405 0.428 0.405 0.22 0 0.409-0.165 0.46-0.402l0.001-0.003c0.009-0.043 0.014-0.087 0.014-0.132 0-0.107-0.017-0.198-0.050-0.273-0.066-0.149-0.199-0.228-0.383-0.228v0zM7.901 12.408c0-0.085 0.017-0.153 0.053-0.213l0.029-0.041c0.041-0.046 0.114-0.069 0.22-0.069 0.114 0 0.2 0.037 0.257 0.111l0.001 0.002c0.056 0.073 0.084 0.182 0.084 0.325l-0.002 0.074-0.001 0.004c-0.008 0.118-0.034 0.147-0.059 0.175-0.051 0.058-0.13 0.086-0.241 0.086-0.175 0-0.284-0.089-0.325-0.267l-0-0.003c-0.015-0.068-0.017-0.133-0.017-0.183l0-0.001z"></path>
</symbol>
<symbol id="icon-ents-24" viewBox="0 0 16 16">
<title>ents-24</title>
<path d="M7.763 6h0.542c-0.091 0.177-0.219 0.34-0.198 0.558 0.023 0.243 0.040 0.487 0.055 0.731 0.011 0.186 0.104 0.316 0.259 0.412 0.225 0.141 0.451 0.28 0.666 0.436 0.074 0.054 0.152 0.149 0.165 0.233 0.040 0.257 0.055 0.517 0.070 0.777 0.008 0.13-0.088 0.209-0.204 0.162-0.052-0.021-0.104-0.102-0.112-0.162-0.033-0.239-0.049-0.479-0.072-0.742-0.213 0.075-0.399 0.133-0.579 0.21-0.040 0.017-0.076 0.1-0.074 0.151 0.007 0.191 0.024 0.382 0.050 0.571 0.048 0.334 0.323 0.591 0.658 0.614 0.131 0.008 0.265-0.005 0.396-0.023 0.379-0.050 0.656-0.393 0.63-0.775-0.018-0.254-0.055-0.508-0.056-0.762-0.001-0.351-0.134-0.602-0.462-0.744-0.048-0.021-0.091-0.055-0.134-0.084-0.601-0.391-0.498-0.202-0.564-0.913-0.012-0.125 0.012-0.215 0.152-0.226 0.138-0.011 0.165 0.087 0.175 0.197l0.033 0.381c0.196-0.067 0.364-0.128 0.534-0.181 0.1-0.032 0.12-0.092 0.121-0.191 0.003-0.234-0.076-0.436-0.202-0.625h5.038c0.118 0.051 0.249 0.098 0.252 0.252 0.006 0.476 0.002 0.953 0.002 1.426-0.241 0.061-0.36 0.176-0.364 0.357-0.005 0.241 0.15 0.345 0.365 0.396v1.214c0 0.348-0.086 0.435-0.429 0.435h-7.246c0.040-0.023 0.080-0.027 0.122-0.029 0.207-0.012 0.209-0.012 0.194-0.211l-0.186-2.333-0.063-0.857c0.121-0.009 0.221-0.021 0.321-0.023 0.125-0.004 0.178-0.048 0.16-0.186-0.019-0.144-0.010-0.294-0.013-0.441l0 0zM12.821 6.737c-0.761-0-1.373 0.615-1.371 1.378 0.002 0.748 0.628 1.364 1.379 1.358s1.371-0.629 1.367-1.373c-0.004-0.751-0.62-1.362-1.374-1.363v-0zM6.488 6c-0.098 0.017-0.197 0.040-0.296 0.049-0.096 0.008-0.128 0.054-0.119 0.146 0.014 0.143 0.025 0.285 0.034 0.429 0.005 0.090 0.054 0.118 0.137 0.11l0.362-0.029 0.271 3.369h-0.9l-0.096-1.175c-0.071-0.879-0.144-1.757-0.209-2.636-0.011-0.148-0.072-0.179-0.202-0.159-0.11 0.017-0.222 0.024-0.333 0.027-0.123 0.003-0.164 0.054-0.154 0.178 0.043 0.476 0.078 0.953 0.115 1.429 0.006 0.078 0.011 0.155-0.010 0.241l-0.16-0.372c-0.173-0.417-0.348-0.832-0.516-1.25-0.046-0.115-0.109-0.162-0.24-0.148-0.395 0.042-0.389 0.037-0.355 0.436 0.094 1.117 0.182 2.234 0.272 3.351v0.073h-0.491l-0.014-0.201c-0.013-0.198-0.026-0.208-0.218-0.19-0.174 0.017-0.349 0.028-0.544 0.043l-0.098-1.182c0.181-0.017 0.349-0.037 0.518-0.045 0.106-0.005 0.14-0.050 0.129-0.149-0.015-0.137-0.028-0.275-0.033-0.413-0.004-0.101-0.052-0.127-0.143-0.119l-0.523 0.038-0.068-0.827c0.204-0.017 0.398-0.036 0.593-0.048 0.103-0.006 0.155-0.043 0.14-0.157-0.018-0.137-0.027-0.275-0.033-0.413-0.004-0.101-0.054-0.125-0.144-0.118-0.392 0.033-0.783 0.064-1.175 0.093-0.101 0.007-0.119 0.064-0.112 0.152 0.058 0.693 0.115 1.386 0.17 2.080 0.038 0.481 0.075 0.963 0.114 1.46-0.312 0-0.613 0.009-0.913-0.004-0.139-0.006-0.236-0.14-0.238-0.296-0.004-0.425-0.004-0.85 0.002-1.275 0-0.038 0.042-0.091 0.079-0.11 0.141-0.073 0.221-0.184 0.22-0.341-0.001-0.151-0.075-0.269-0.217-0.323-0.088-0.034-0.085-0.091-0.085-0.162 0.002-0.388 0.010-0.776-0.003-1.163-0.007-0.206 0.060-0.337 0.258-0.399 1.744-0 3.486-0 5.229-0l0 0zM4.67 8.339l0.715 1.734h-0.599l-0.138-1.726 0.023-0.008zM13.466 8.876h-0.242l-0.015-0.309h-0.402c0.033-0.137 0.053-0.248 0.086-0.354 0.094-0.296 0.193-0.591 0.296-0.907h0.294c0 0.223-0.009 0.444 0.004 0.663 0.008 0.134-0.075 0.294 0.095 0.397 0.024 0.014 0.024 0.136 0.002 0.148-0.156 0.082-0.072 0.236-0.118 0.361v0zM13.207 8.319v-0.454l-0.148 0.454h0.148zM12.319 8.635h0.378v0.247c-0.186 0-0.37 0.005-0.553-0.005-0.027-0.002-0.069-0.069-0.073-0.108-0.021-0.245 0.098-0.447 0.243-0.623 0.127-0.154 0.155-0.319 0.134-0.502-0.005-0.041-0.044-0.078-0.067-0.117-0.022 0.035-0.064 0.071-0.062 0.104 0.012 0.191-0.143 0.143-0.261 0.197 0-0.111-0.009-0.205 0.002-0.296 0.020-0.171 0.144-0.26 0.344-0.253 0.181 0.005 0.291 0.107 0.305 0.279 0.021 0.266-0.004 0.516-0.191 0.732-0.076 0.088-0.119 0.206-0.197 0.347h-0.001z"></path>
</symbol>
<symbol id="icon-see-tickets" viewBox="0 0 16 16">
<title>see-tickets</title>
<path d="M12.113 7.889c-0.117-0.177-0.323-0.266-0.587-0.266-0.352 0-0.837 0.281-0.837 0.886 0 0.059 0 0.133 0.015 0.207l1.409-0.827zM11.614 10.5c-0.939 0-1.819-0.723-1.819-1.829 0-1.032 0.704-1.873 1.79-1.873 0.895 0 1.569 0.752 1.569 1.327l-2.127 1.254c0.176 0.206 0.47 0.265 0.748 0.265 0.264 0 0.69-0.133 1.233-0.531l-0.191 1.033c-0.338 0.236-0.778 0.354-1.203 0.354v0zM8.532 7.889c-0.117-0.177-0.323-0.266-0.587-0.266-0.352 0-0.837 0.281-0.837 0.886 0 0.059 0 0.133 0.014 0.207l1.409-0.827zM8.034 10.5c-0.939 0-1.819-0.723-1.819-1.829 0-1.032 0.704-1.873 1.789-1.873 0.895 0 1.569 0.752 1.569 1.327l-2.127 1.254c0.176 0.206 0.47 0.265 0.748 0.265 0.264 0 0.69-0.133 1.232-0.531l-0.191 1.033c-0.338 0.236-0.777 0.354-1.203 0.354v0zM2.796 9.129c0.441 0.339 0.851 0.501 1.247 0.501 0.587 0 0.807-0.251 0.807-0.56 0-0.221-0.131-0.413-0.689-0.796-0.455-0.309-0.925-0.767-0.925-1.386 0-0.722 0.514-1.386 1.643-1.386 0.44 0 0.998 0.162 1.409 0.413l-0.205 0.855c-0.396-0.28-0.807-0.399-1.144-0.399-0.425 0-0.689 0.148-0.689 0.472 0 0.236 0.205 0.428 0.689 0.752 0.601 0.428 0.954 0.841 0.954 1.416 0 0.812-0.66 1.491-1.761 1.491-0.617 0-1.144-0.178-1.541-0.472l0.205-0.899z"></path>
</symbol>
<symbol id="icon-facebook" viewBox="0 0 16 16">
<title>facebook</title>
<path d="M9.5 3h2.5v-3h-2.5c-1.93 0-3.5 1.57-3.5 3.5v1.5h-2v3h2v8h3v-8h2.5l0.5-3h-3v-1.5c0-0.271 0.229-0.5 0.5-0.5z"></path>
</symbol>
<symbol id="icon-instagram" viewBox="0 0 16 16">
<title>instagram</title>
<path d="M8 1.441c2.137 0 2.391 0.009 3.231 0.047 0.781 0.034 1.203 0.166 1.484 0.275 0.372 0.144 0.641 0.319 0.919 0.597 0.281 0.281 0.453 0.547 0.6 0.919 0.109 0.281 0.241 0.706 0.275 1.484 0.037 0.844 0.047 1.097 0.047 3.231s-0.009 2.391-0.047 3.231c-0.034 0.781-0.166 1.203-0.275 1.484-0.144 0.372-0.319 0.641-0.597 0.919-0.281 0.281-0.547 0.453-0.919 0.6-0.281 0.109-0.706 0.241-1.484 0.275-0.844 0.037-1.097 0.047-3.231 0.047s-2.391-0.009-3.231-0.047c-0.781-0.034-1.203-0.166-1.484-0.275-0.372-0.144-0.641-0.319-0.919-0.597-0.281-0.281-0.453-0.547-0.6-0.919-0.109-0.281-0.241-0.706-0.275-1.484-0.038-0.844-0.047-1.097-0.047-3.231s0.009-2.391 0.047-3.231c0.034-0.781 0.166-1.203 0.275-1.484 0.144-0.372 0.319-0.641 0.597-0.919 0.281-0.281 0.547-0.453 0.919-0.6 0.281-0.109 0.706-0.241 1.484-0.275 0.841-0.038 1.094-0.047 3.231-0.047zM8 0c-2.172 0-2.444 0.009-3.297 0.047-0.85 0.038-1.434 0.175-1.941 0.372-0.528 0.206-0.975 0.478-1.419 0.925-0.447 0.444-0.719 0.891-0.925 1.416-0.197 0.509-0.334 1.091-0.372 1.941-0.037 0.856-0.047 1.128-0.047 3.3s0.009 2.444 0.047 3.297c0.038 0.85 0.175 1.434 0.372 1.941 0.206 0.528 0.478 0.975 0.925 1.419 0.444 0.444 0.891 0.719 1.416 0.922 0.509 0.197 1.091 0.334 1.941 0.372 0.853 0.037 1.125 0.047 3.297 0.047s2.444-0.009 3.297-0.047c0.85-0.037 1.434-0.175 1.941-0.372 0.525-0.203 0.972-0.478 1.416-0.922s0.719-0.891 0.922-1.416c0.197-0.509 0.334-1.091 0.372-1.941 0.037-0.853 0.047-1.125 0.047-3.297s-0.009-2.444-0.047-3.297c-0.037-0.85-0.175-1.434-0.372-1.941-0.197-0.531-0.469-0.978-0.916-1.422-0.444-0.444-0.891-0.719-1.416-0.922-0.509-0.197-1.091-0.334-1.941-0.372-0.856-0.041-1.128-0.050-3.3-0.050v0z"></path>
<path d="M8 3.891c-2.269 0-4.109 1.841-4.109 4.109s1.841 4.109 4.109 4.109 4.109-1.841 4.109-4.109c0-2.269-1.841-4.109-4.109-4.109zM8 10.666c-1.472 0-2.666-1.194-2.666-2.666s1.194-2.666 2.666-2.666c1.472 0 2.666 1.194 2.666 2.666s-1.194 2.666-2.666 2.666z"></path>
<path d="M13.231 3.728c0 0.53-0.43 0.959-0.959 0.959s-0.959-0.43-0.959-0.959c0-0.53 0.43-0.959 0.959-0.959s0.959 0.43 0.959 0.959z"></path>
</symbol>
<symbol id="icon-twitter" viewBox="0 0 16 16">
<title>twitter</title>
<path d="M16 3.538c-0.588 0.263-1.222 0.438-1.884 0.516 0.678-0.406 1.197-1.050 1.444-1.816-0.634 0.375-1.338 0.65-2.084 0.797-0.6-0.638-1.453-1.034-2.397-1.034-1.813 0-3.281 1.469-3.281 3.281 0 0.256 0.028 0.506 0.084 0.747-2.728-0.138-5.147-1.444-6.766-3.431-0.281 0.484-0.444 1.050-0.444 1.65 0 1.138 0.578 2.144 1.459 2.731-0.538-0.016-1.044-0.166-1.488-0.409 0 0.013 0 0.028 0 0.041 0 1.591 1.131 2.919 2.634 3.219-0.275 0.075-0.566 0.116-0.866 0.116-0.212 0-0.416-0.022-0.619-0.059 0.419 1.303 1.631 2.253 3.066 2.281-1.125 0.881-2.538 1.406-4.078 1.406-0.266 0-0.525-0.016-0.784-0.047 1.456 0.934 3.181 1.475 5.034 1.475 6.037 0 9.341-5.003 9.341-9.341 0-0.144-0.003-0.284-0.009-0.425 0.641-0.459 1.197-1.038 1.637-1.697z"></path>
</symbol>
</defs>
</svg>
