<svg aria-hidden="true" style="position: absolute; width: 0; height: 0; overflow: hidden;" version="1.1" xmlns="http://www.w3.org/2000/svg" xmlns:xlink="http://www.w3.org/1999/xlink">
<defs>
<symbol id="icon-arrow_back" viewBox="0 0 24 24">
<title>arrow_back</title>
<path d="M20.016 11.016v1.969h-12.188l5.578 5.625-1.406 1.406-8.016-8.016 8.016-8.016 1.406 1.406-5.578 5.625h12.188z"></path>
</symbol>
<symbol id="icon-arrow_forward" viewBox="0 0 24 24">
<title>arrow_forward</title>
<path d="M12 3.984l8.016 8.016-8.016 8.016-1.406-1.406 5.578-5.625h-12.188v-1.969h12.188l-5.578-5.625z"></path>
</symbol>
<symbol id="icon-info" viewBox="0 0 24 24">
<title>info</title>
<path d="M12.984 9v-2.016h-1.969v2.016h1.969zM12.984 17.016v-6h-1.969v6h1.969zM12 2.016c5.531 0 9.984 4.453 9.984 9.984s-4.453 9.984-9.984 9.984-9.984-4.453-9.984-9.984 4.453-9.984 9.984-9.984z"></path>
</symbol>
<symbol id="icon-website" viewBox="0 0 24 24">
<title>website</title>
<path d="M14.016 3h6.984v6.984h-2.016v-3.563l-9.797 9.797-1.406-1.406 9.797-9.797h-3.563v-2.016zM18.984 18.984v-6.984h2.016v6.984c0 1.078-0.938 2.016-2.016 2.016h-13.969c-1.125 0-2.016-0.938-2.016-2.016v-13.969c0-1.078 0.891-2.016 2.016-2.016h6.984v2.016h-6.984v13.969h13.969z"></path>
</symbol>
<symbol id="icon-sort" viewBox="0 0 24 24">
<title>sort</title>
<path d="M3 12.984v-1.969h12v1.969h-12zM3 6h18v2.016h-18v-2.016zM3 18v-2.016h6v2.016h-6z"></path>
</symbol>
<symbol id="icon-widgets" viewBox="0 0 24 24">
<title>widgets</title>
<path d="M16.641 1.688l5.672 5.672-5.672 5.625h4.359v8.016h-8.016v-8.016h3.656l-5.625-5.625v3.656h-8.016v-8.016h8.016v4.359zM3 21v-8.016h8.016v8.016h-8.016z"></path>
</symbol>
<symbol id="icon-align-right" viewBox="0 0 24 24">
<title>align-right</title>
<path d="M21 9h-14c-0.6 0-1 0.4-1 1s0.4 1 1 1h14c0.6 0 1-0.4 1-1s-0.4-1-1-1z"></path>
<path d="M3 7h18c0.6 0 1-0.4 1-1s-0.4-1-1-1h-18c-0.6 0-1 0.4-1 1s0.4 1 1 1z"></path>
<path d="M21 13h-18c-0.6 0-1 0.4-1 1s0.4 1 1 1h18c0.6 0 1-0.4 1-1s-0.4-1-1-1z"></path>
<path d="M21 17h-14c-0.6 0-1 0.4-1 1s0.4 1 1 1h14c0.6 0 1-0.4 1-1s-0.4-1-1-1z"></path>
</symbol>
<symbol id="icon-facebook" viewBox="0 0 24 24">
<title>facebook</title>
<path d="M18 7c0.6 0 1-0.4 1-1v-4c0-0.6-0.4-1-1-1h-3c-3.3 0-6 2.7-6 6v2h-2c-0.6 0-1 0.4-1 1v4c0 0.6 0.4 1 1 1h2v7c0 0.6 0.4 1 1 1h4c0.6 0 1-0.4 1-1v-7h2c0.5 0 0.9-0.3 1-0.8l1-4c0.1-0.3 0-0.6-0.2-0.9s-0.5-0.3-0.8-0.3h-3v-2h3zM14 11h2.7l-0.5 2h-2.2c-0.6 0-1 0.4-1 1v7h-2v-7c0-0.6-0.4-1-1-1h-2v-2h2c0.6 0 1-0.4 1-1v-3c0-2.2 1.8-4 4-4h2v2h-2c-1.1 0-2 0.9-2 2v3c0 0.6 0.4 1 1 1z"></path>
</symbol>
<symbol id="icon-instagram" viewBox="0 0 24 24">
<title>instagram</title>
<path d="M17 1h-10c-3.3 0-6 2.7-6 6v10c0 3.3 2.7 6 6 6h10c3.3 0 6-2.7 6-6v-10c0-3.3-2.7-6-6-6zM21 17c0 2.2-1.8 4-4 4h-10c-2.2 0-4-1.8-4-4v-10c0-2.2 1.8-4 4-4h10c2.2 0 4 1.8 4 4v10z"></path>
<path d="M12.8 7c-0.5-0.1-1-0.1-1.5 0-2.7 0.4-4.6 3-4.2 5.7 0.2 1.3 0.9 2.5 2 3.3 0.9 0.6 1.9 1 3 1 0.2 0 0.5 0 0.7-0.1 1.3-0.2 2.5-0.9 3.3-2s1.1-2.4 0.9-3.7c-0.3-2.2-2-3.9-4.2-4.2zM14.5 13.7c-0.5 0.6-1.2 1.1-2 1.2-1.6 0.2-3.2-0.9-3.4-2.5-0.3-1.6 0.9-3.2 2.5-3.4 0.1 0 0.3 0 0.4 0s0.3 0 0.4 0c1.3 0.2 2.3 1.2 2.5 2.5 0.2 0.8 0 1.6-0.4 2.2z"></path>
<path d="M16.8 5.8c-0.2 0.2-0.3 0.4-0.3 0.7s0.1 0.5 0.3 0.7c0.2 0.2 0.5 0.3 0.7 0.3 0.3 0 0.5-0.1 0.7-0.3s0.3-0.5 0.3-0.7c0-0.3-0.1-0.5-0.3-0.7-0.4-0.4-1-0.4-1.4 0z"></path>
</symbol>
<symbol id="icon-twitter" viewBox="0 0 24 24">
<title>twitter</title>
<path d="M23.6 2.2c-0.3-0.2-0.8-0.2-1.1 0-0.7 0.5-1.5 0.9-2.3 1.2-2-1.8-5.1-1.9-7.2-0.1-1.3 1.1-2 2.6-2 4.2-2.9-0.2-5.5-1.7-7.2-4.1-0.2-0.3-0.5-0.4-0.9-0.4s-0.7 0.3-0.8 0.6c-0.1 0.1-1.1 2.5-1 5.4 0.1 2.5 1.1 5.7 4.8 8-1.5 0.7-3.2 1-4.9 1-0.4 0-0.9 0.3-1 0.7s0.1 0.9 0.5 1.1c2.5 1.4 5.2 2.1 7.7 2.1s4.9-0.6 7.1-1.9c4.3-2.4 6.7-7 6.7-12.5 0-0.2 0-0.3 0-0.5 1-1.1 1.7-2.4 2-3.8 0.1-0.4-0.1-0.8-0.4-1zM20.2 6c-0.2 0.2-0.3 0.6-0.3 0.9 0.1 0.2 0.1 0.4 0.1 0.6 0 4.8-2.1 8.7-5.7 10.8-2.8 1.6-6.1 2-9.4 1.2 1.3-0.4 2.5-0.9 3.6-1.7 0.4-0.2 0.5-0.5 0.5-0.9s-0.3-0.7-0.6-0.8c-5.8-2.6-5.6-7.5-5-10 2.2 2.2 5.3 3.5 8.6 3.4 0.5 0 1-0.5 1-1v-1c0-1 0.4-2 1.2-2.7 1.4-1.3 3.7-1.1 4.9 0.3 0.3 0.3 0.7 0.4 1 0.3 0.2-0.1 0.5-0.1 0.7-0.2-0.2 0.3-0.4 0.5-0.6 0.8z"></path>
</symbol>
<symbol id="icon-national-maritime-museum-rev" viewBox="0 0 32 32">
<title>national-maritime-museum-rev</title>
<path d="M23.266 20.657v-2.268h-0.319v1.001h-0.555v-1.001h-0.319v2.268h0.319v-0.987h0.555v0.988h0.319zM21.703 19.902h-0.319v0.216c0 0.176-0.126 0.319-0.313 0.319s-0.313-0.143-0.313-0.319v-1.187c0-0.176 0.126-0.323 0.313-0.323s0.313 0.146 0.313 0.323v0.213h0.319v-0.206c0-0.339-0.249-0.608-0.632-0.608-0.382 0-0.632 0.269-0.632 0.608v1.174c0 0.339 0.249 0.605 0.632 0.605 0.382 0 0.632-0.266 0.632-0.605v-0.21zM19.721 20.657h0.319v-2.268h-0.319v2.268zM18.996 20.657l0.349-2.268h-0.323l-0.2 1.563h-0.012l-0.203-0.958h-0.299l-0.203 0.958h-0.013l-0.199-1.563h-0.323l0.349 2.268h0.323l0.21-1.054h0.013l0.209 1.054h0.322zM17.194 20.657v-2.268h-0.319l0.003 1.523h-0.013l-0.515-1.523h-0.356v2.268h0.319l-0.003-1.523h0.013l0.515 1.523h0.356zM14.84 20.378v-0.712h0.688v-0.279h-0.688v-0.718h0.811v-0.279h-1.131v2.268h1.131v-0.279h-0.811zM13.367 20.378v-0.712h0.688v-0.279h-0.688v-0.718h0.811v-0.279h-1.131v2.268h1.131v-0.279h-0.811zM11.751 19.573v-0.904h0.306c0.16 0 0.273 0.133 0.273 0.286v0.333c0 0.153-0.113 0.286-0.273 0.286h-0.306zM12.649 19.287v-0.333c0-0.313-0.263-0.565-0.592-0.565h-0.625v2.268h0.319v-0.805h0.216l0.306 0.805h0.346l-0.323-0.851c0.21-0.090 0.353-0.286 0.353-0.519zM10.714 19.071h0.319v-0.123c0-0.349-0.256-0.618-0.642-0.618s-0.642 0.269-0.642 0.618v1.151c0 0.349 0.256 0.618 0.642 0.618s0.642-0.269 0.642-0.618v-0.709h-0.642v0.279h0.323v0.436c0 0.18-0.133 0.333-0.323 0.333-0.189 0-0.323-0.153-0.323-0.333v-1.164c0-0.18 0.133-0.333 0.323-0.333s0.323 0.153 0.323 0.333v0.13z"></path>
<path d="M31.14 16.544h0.293l0.299-0.715h0.007v1.503h0.319v-2.268h-0.319l-0.452 1.014-0.452-1.014h-0.319v2.268h0.319v-1.503h0.007l0.298 0.715zM29.78 16.803c0 0.166-0.126 0.309-0.303 0.309-0.176 0-0.303-0.143-0.303-0.309v-1.739h-0.319v1.732c0 0.329 0.259 0.595 0.622 0.595 0.366 0 0.622-0.266 0.622-0.595v-1.732h-0.319v1.739zM27.718 17.053v-0.712h0.688v-0.279h-0.688v-0.718h0.811v-0.279h-1.131v2.268h1.131v-0.279h-0.811zM26.681 15.746h0.316v-0.16c0-0.329-0.246-0.582-0.608-0.582-0.366 0-0.612 0.249-0.612 0.579v0.083c0 0.788 0.934 0.456 0.934 1.031v0.090c0 0.183-0.13 0.326-0.323 0.326s-0.323-0.143-0.323-0.326v-0.199h-0.319v0.193c0 0.349 0.259 0.612 0.642 0.612s0.642-0.263 0.642-0.612v-0.083c0-0.825-0.934-0.519-0.934-1.031v-0.087c0-0.176 0.106-0.296 0.293-0.296s0.293 0.12 0.293 0.296v0.166zM25.075 16.803c0 0.166-0.126 0.309-0.303 0.309-0.176 0-0.303-0.143-0.303-0.309v-1.739h-0.319v1.732c0 0.329 0.259 0.595 0.622 0.595 0.366 0 0.622-0.266 0.622-0.595v-1.732h-0.319v1.739zM22.817 16.544h0.293l0.299-0.715h0.007v1.503h0.319v-2.268h-0.319l-0.452 1.014-0.452-1.014h-0.319v2.268h0.319v-1.503h0.007l0.298 0.715zM20.157 17.053v-0.712h0.688v-0.279h-0.688v-0.718h0.811v-0.279h-1.131v2.268h1.131v-0.279h-0.811zM18.488 16.544h0.293l0.299-0.715h0.007v1.503h0.319v-2.268h-0.319l-0.452 1.014-0.452-1.014h-0.319v2.268h0.319v-1.503h0.007l0.298 0.715zM17.111 17.332h0.319v-2.268h-0.319v2.268zM16.799 15.344v-0.279h-1.164v0.279h0.422v1.988h0.319v-1.988h0.423zM15.003 17.332h0.319v-2.268h-0.319v2.268zM13.723 16.248v-0.904h0.306c0.16 0 0.273 0.133 0.273 0.286v0.333c0 0.153-0.113 0.286-0.273 0.286h-0.306zM14.621 15.962v-0.333c0-0.313-0.263-0.565-0.592-0.565h-0.625v2.268h0.319v-0.805h0.216l0.306 0.805h0.346l-0.323-0.851c0.21-0.090 0.353-0.286 0.353-0.519zM12.127 16.697l0.233-1.077h0.013l0.229 1.077h-0.475zM12.193 15.064l-0.539 2.268h0.326l0.083-0.356h0.602l0.083 0.356h0.326l-0.532-2.268h-0.349zM10.408 16.544h0.292l0.3-0.715h0.007v1.503h0.319v-2.268h-0.319l-0.452 1.014-0.452-1.014h-0.321v2.268h0.319v-1.503h0.007l0.3 0.715z"></path>
<path d="M21.015 13.727h-0.751v-1.988h-0.319v2.268h1.071v-0.28zM18.667 13.372l0.233-1.077h0.013l0.229 1.077h-0.475zM18.734 11.739l-0.539 2.268h0.326l0.083-0.356h0.602l0.083 0.356h0.326l-0.532-2.268h-0.349zM17.866 14.007v-2.268h-0.319l0.003 1.523h-0.013l-0.515-1.523h-0.356v2.268h0.319l-0.003-1.523h0.013l0.515 1.523h0.356zM15.947 13.448c0 0.183-0.133 0.339-0.329 0.339s-0.329-0.156-0.329-0.339v-1.147c0-0.183 0.133-0.342 0.329-0.342s0.329 0.16 0.329 0.342v1.147zM16.267 12.308c0-0.359-0.269-0.628-0.648-0.628s-0.648 0.269-0.648 0.628v1.134c0 0.359 0.269 0.625 0.648 0.625s0.648-0.266 0.648-0.625v-1.134zM14.252 14.007h0.319v-2.268h-0.319v2.268zM13.939 12.018v-0.279h-1.164v0.279h0.422v1.988h0.319v-1.988h0.423zM11.784 13.372l0.233-1.077h0.013l0.229 1.077h-0.475zM11.851 11.739l-0.539 2.268h0.326l0.083-0.356h0.602l0.083 0.356h0.326l-0.532-2.268h-0.349zM10.983 14.007v-2.268h-0.319l0.003 1.523h-0.013l-0.515-1.523h-0.357v2.268h0.319l-0.003-1.523h0.013l0.515 1.523h0.357z"></path>
<path d="M4.435 15.558h3.328c-0.12 1.809-1.544 3.252-3.328 3.376v-3.376zM7.848 13.428c-0.683-1.332-2.060-2.247-3.661-2.247-2.281 0-4.13 1.849-4.13 4.13 0 2.197 1.717 3.989 3.883 4.117v1.764h0.495v-1.764c2.165-0.129 3.883-1.92 3.883-4.117 0-0.084-0.008-0.165-0.012-0.247h-4.366v3.87c-1.865-0.129-3.34-1.7-3.34-3.623 0-2.008 1.606-3.635 3.587-3.635 1.397 0 2.602 0.812 3.193 1.993l0.468-0.241z"></path>
</symbol>
<symbol id="icon-royal-greenwich-festivals" viewBox="0 0 32 32">
<title>royal-greenwich-festivals</title>
<path d="M13.869 11.417c0-0.013 0.002-0.023 0.004-0.026 0.004 0 0.009-0.002 0.019-0.002h0.688c0.251 0 0.367 0.113 0.367 0.354 0 0.225-0.144 0.36-0.386 0.36h-0.692v-0.686zM13.623 13.772c0.146 0 0.246-0.096 0.246-0.234v-0.973h0.534c0.257 0 0.338 0.148 0.594 0.844l0.084 0.217c0.036 0.092 0.118 0.146 0.217 0.146 0.032 0 0.068-0.006 0.096-0.013 0.111-0.028 0.182-0.114 0.182-0.221 0-0.028-0.006-0.056-0.019-0.092l-0.082-0.199c-0.199-0.499-0.304-0.733-0.435-0.864 0.272-0.122 0.414-0.36 0.414-0.686 0-0.482-0.321-0.771-0.855-0.771h-0.793c-0.291 0-0.437 0.154-0.437 0.457v2.152c0 0.141 0.101 0.236 0.253 0.236v0z"></path>
<path d="M17.365 11.348c0.457 0 0.754 0.383 0.754 0.971 0 0.632-0.281 1.009-0.754 1.009-0.469 0-0.759-0.379-0.759-0.988 0-0.611 0.291-0.992 0.759-0.992zM17.365 13.806c0.773 0 1.271-0.576 1.271-1.464 0-0.891-0.499-1.466-1.271-1.466-0.776 0-1.279 0.574-1.279 1.461 0 0.894 0.504 1.47 1.279 1.47z"></path>
<path d="M19.882 12.602v0.939c0 0.139 0.103 0.231 0.255 0.231 0.146 0 0.249-0.094 0.249-0.231v-0.939l0.878-1.318c0.028-0.036 0.043-0.082 0.043-0.127 0-0.088-0.054-0.171-0.139-0.216-0.047-0.026-0.092-0.039-0.139-0.039-0.081 0-0.152 0.041-0.195 0.113l-0.698 1.089-0.699-1.089c-0.047-0.071-0.118-0.113-0.199-0.113-0.051 0-0.094 0.019-0.133 0.036l-0.004 0.002c-0.090 0.051-0.142 0.131-0.142 0.217 0 0.039 0.011 0.075 0.038 0.12l0.885 1.326z"></path>
<path d="M22.529 11.651c0.008-0.019 0.015-0.037 0.021-0.056 0.008 0.017 0.013 0.034 0.021 0.053l0.33 0.863h-0.707l0.336-0.859zM21.287 13.532c0 0.103 0.077 0.201 0.184 0.227 0.032 0.008 0.060 0.013 0.092 0.013 0.103 0 0.186-0.058 0.219-0.154l0.24-0.641h1.046l0.246 0.643c0.036 0.096 0.12 0.156 0.227 0.156 0.026 0 0.056-0.006 0.081-0.013 0.114-0.030 0.193-0.12 0.193-0.225 0-0.034-0.008-0.064-0.021-0.090l-0.922-2.325c-0.054-0.141-0.169-0.217-0.326-0.217-0.154 0-0.264 0.073-0.317 0.216l-0.926 2.325c-0.009 0.032-0.015 0.058-0.015 0.086v0z"></path>
<path d="M24.832 13.751h1.303c0.131 0 0.229-0.105 0.229-0.246s-0.096-0.24-0.229-0.24h-1.202c-0.032 0-0.032-0.004-0.032-0.028v-2.098c0-0.139-0.099-0.232-0.253-0.232-0.152 0-0.253 0.094-0.253 0.236v2.156c-0.002 0.3 0.146 0.452 0.437 0.452z"></path>
<path d="M4.001 16.111h-0.546c-0.133 0-0.227 0.098-0.227 0.238s0.092 0.234 0.227 0.234l0.441-0.009c0 0.002 0.002 0.008 0.002 0.015v0.073c0 0.366-0.306 0.559-0.609 0.559-0.473 0-0.767-0.379-0.767-0.986 0-0.609 0.289-0.988 0.754-0.988 0.27 0 0.446 0.111 0.555 0.349 0.041 0.094 0.12 0.146 0.221 0.146 0.047 0 0.090-0.013 0.116-0.023 0.101-0.037 0.165-0.124 0.165-0.221 0-0.041-0.008-0.075-0.026-0.109-0.109-0.232-0.386-0.619-1.037-0.619-0.759 0-1.269 0.587-1.269 1.462 0 0.891 0.502 1.464 1.281 1.464 0.227 0 0.452-0.073 0.621-0.203 0.009 0.12 0.103 0.197 0.236 0.197 0.141 0 0.232-0.092 0.232-0.238v-0.956c0-0.257-0.124-0.386-0.369-0.386z"></path>
<path d="M6.233 15.999h-0.688v-0.686c0-0.015 0-0.023 0.002-0.024s0.009-0.004 0.019-0.004h0.688c0.253 0 0.367 0.109 0.367 0.354 0 0.225-0.144 0.36-0.388 0.36v0zM7.148 17.143c-0.197-0.501-0.302-0.735-0.433-0.864 0.27-0.124 0.412-0.36 0.412-0.686 0-0.484-0.319-0.771-0.853-0.771h-0.795c-0.289 0-0.437 0.154-0.437 0.457v2.152c0 0.142 0.103 0.236 0.255 0.236 0.146 0 0.247-0.096 0.247-0.234v-0.973h0.532c0.257 0 0.338 0.148 0.594 0.844l0.084 0.218c0.036 0.092 0.116 0.146 0.218 0.146 0.034 0 0.069-0.006 0.096-0.013 0.109-0.026 0.182-0.114 0.182-0.221 0-0.028-0.006-0.056-0.019-0.092l-0.084-0.199z"></path>
<path d="M9.591 17.169h-1.215c-0.026 0-0.032-0.004-0.036-0.015v-0.746h1.067c0.127 0 0.223-0.099 0.223-0.234 0-0.139-0.092-0.236-0.223-0.236h-1.067v-0.611c0-0.008 0-0.015 0.002-0.021v-0.006c0.004 0 0.011-0.002 0.024-0.002h1.192c0.133 0 0.227-0.098 0.227-0.24 0-0.139-0.092-0.238-0.227-0.238h-1.281c-0.291 0-0.439 0.156-0.439 0.459v1.914c0 0.3 0.148 0.454 0.439 0.454h1.313c0.131 0 0.227-0.101 0.227-0.24 0-0.141-0.094-0.238-0.227-0.238z"></path>
<path d="M12.2 17.169h-1.215c-0.023 0-0.030-0.004-0.036-0.017v-0.744h1.067c0.127 0 0.223-0.099 0.223-0.234 0-0.139-0.092-0.236-0.223-0.236h-1.067v-0.611c0-0.011 0.002-0.019 0.002-0.021l0.002-0.006c0.004 0 0.009-0.002 0.023-0.002h1.193c0.133 0 0.227-0.098 0.227-0.24 0-0.139-0.092-0.238-0.227-0.238h-1.283c-0.289 0-0.437 0.156-0.437 0.459v1.914c0 0.3 0.148 0.454 0.437 0.454h1.314c0.129 0 0.225-0.101 0.225-0.24 0-0.141-0.092-0.238-0.225-0.238z"></path>
<path d="M15.059 14.801c-0.152 0-0.253 0.092-0.253 0.231v1.028c0 0.285 0.013 0.559 0.023 0.746-0.082-0.15-0.165-0.296-0.234-0.411l-0.857-1.387c-0.066-0.105-0.146-0.206-0.351-0.206-0.182 0-0.306 0.12-0.306 0.296v2.342c0 0.135 0.105 0.231 0.253 0.231s0.251-0.096 0.251-0.231v-1.043c0-0.298-0.011-0.566-0.019-0.746 0.068 0.127 0.131 0.24 0.186 0.326l0.9 1.455c0.084 0.133 0.163 0.238 0.362 0.238 0.178 0 0.294-0.122 0.294-0.306v-2.332c0.004-0.139-0.099-0.231-0.249-0.231z"></path>
<path d="M16.85 17.667c0.161 0 0.272-0.082 0.311-0.231l0.405-1.536c0.013-0.049 0.024-0.103 0.038-0.163 0.013 0.064 0.024 0.12 0.038 0.171l0.386 1.522c0.038 0.15 0.15 0.236 0.311 0.236 0.159 0 0.274-0.084 0.315-0.229l0.668-2.353c0.004-0.017 0.008-0.037 0.008-0.062 0-0.111-0.081-0.195-0.21-0.216-0.026-0.008-0.051-0.008-0.066-0.008-0.122 0-0.206 0.062-0.24 0.176l-0.429 1.612c-0.009 0.041-0.023 0.096-0.036 0.159-0.011-0.066-0.024-0.12-0.036-0.163l-0.403-1.564c-0.036-0.139-0.146-0.221-0.302-0.221-0.075 0-0.257 0.023-0.309 0.217l-0.403 1.564c-0.013 0.045-0.023 0.098-0.036 0.157-0.015-0.066-0.024-0.118-0.038-0.161l-0.422-1.599c-0.028-0.111-0.116-0.178-0.236-0.178-0.021 0-0.041 0-0.060 0.006-0.139 0.023-0.219 0.105-0.219 0.221 0 0.021 0.006 0.047 0.009 0.073l0.641 2.333c0.041 0.15 0.157 0.234 0.315 0.234z"></path>
<path d="M20.167 14.801c-0.148 0-0.251 0.096-0.251 0.231v2.406c0 0.135 0.103 0.231 0.251 0.231 0.152 0 0.257-0.094 0.257-0.231v-2.406c0-0.139-0.103-0.231-0.257-0.231z"></path>
<path d="M22.371 15.248c0.364 0 0.495 0.199 0.576 0.394 0.043 0.088 0.126 0.139 0.227 0.139 0.039 0 0.077-0.008 0.109-0.019 0.082-0.028 0.167-0.107 0.167-0.221 0-0.037-0.008-0.073-0.019-0.103-0.126-0.304-0.413-0.668-1.073-0.668-0.756 0-1.262 0.589-1.262 1.463 0 0.891 0.503 1.468 1.284 1.468 0.712 0.002 0.99-0.486 1.095-0.778 0.009-0.028 0.015-0.056 0.015-0.086 0-0.116-0.096-0.201-0.184-0.221-0.032-0.009-0.062-0.015-0.092-0.015-0.113 0-0.203 0.064-0.24 0.169-0.098 0.3-0.302 0.452-0.604 0.452-0.457 0-0.754-0.384-0.754-0.984 0-0.609 0.289-0.988 0.754-0.988z"></path>
<path d="M24.571 17.437v-1.033h1.264v1.033c0 0.135 0.107 0.231 0.261 0.231 0.146 0 0.247-0.094 0.247-0.231v-2.406c0-0.135-0.101-0.231-0.247-0.231-0.156 0-0.261 0.092-0.261 0.231v0.896h-1.264v-0.896c0-0.135-0.105-0.231-0.255-0.231-0.152 0-0.251 0.092-0.251 0.231v2.406c0 0.135 0.103 0.231 0.251 0.231 0.15 0 0.255-0.096 0.255-0.231z"></path>
<path d="M6.753 18.718h-1.348c-0.293 0-0.437 0.148-0.437 0.454v2.154c0 0.139 0.103 0.236 0.251 0.236s0.253-0.096 0.253-0.233v-1.005h1.089c0.129 0 0.223-0.099 0.223-0.234 0-0.141-0.090-0.236-0.223-0.236h-1.089v-0.643c0-0.011 0.002-0.015 0.002-0.017 0 0 0.004-0.002 0.013-0.002h1.266c0.135 0 0.229-0.098 0.229-0.238s-0.094-0.236-0.229-0.236z"></path>
<path d="M9.307 21.064h-1.215c-0.026 0-0.032-0.004-0.036-0.015v-0.746h1.067c0.127 0 0.225-0.101 0.225-0.234 0-0.139-0.092-0.236-0.225-0.236h-1.065v-0.611c0-0.009 0-0.017 0.002-0.024v-0.002c0.006-0.002 0.013-0.002 0.023-0.002h1.194c0.133 0 0.227-0.098 0.227-0.238s-0.094-0.238-0.227-0.238h-1.282c-0.291 0-0.437 0.154-0.437 0.457v1.914c0 0.3 0.146 0.454 0.437 0.454h1.313c0.131 0 0.227-0.101 0.227-0.24s-0.092-0.238-0.227-0.238z"></path>
<path d="M11.357 19.866l-0.251-0.052c-0.362-0.071-0.424-0.171-0.424-0.354 0-0.204 0.184-0.33 0.482-0.33 0.27 0 0.424 0.103 0.489 0.324v0.002c0.037 0.096 0.126 0.156 0.234 0.156 0.026 0 0.053-0.004 0.075-0.009 0.116-0.023 0.199-0.114 0.199-0.225 0-0.028-0.006-0.054-0.015-0.075-0.073-0.238-0.298-0.636-0.982-0.636-0.733 0-0.994 0.427-0.994 0.793 0 0.471 0.236 0.712 0.812 0.831l0.274 0.056c0.409 0.084 0.48 0.195 0.48 0.394 0 0.24-0.206 0.388-0.536 0.388-0.433 0-0.523-0.199-0.581-0.418-0.030-0.101-0.124-0.167-0.236-0.167-0.024 0-0.043 0.004-0.081 0.009-0.122 0.030-0.199 0.12-0.199 0.233 0 0.021 0.004 0.039 0.011 0.067v0.002c0.064 0.223 0.217 0.742 1.101 0.742 0.628 0 1.033-0.337 1.033-0.859 0-0.568-0.354-0.759-0.891-0.872z"></path>
<path d="M14.619 18.718h-1.869c-0.126 0-0.221 0.103-0.221 0.242 0 0.137 0.094 0.236 0.223 0.236h0.681v2.137c0 0.135 0.105 0.229 0.253 0.229 0.15 0 0.253-0.094 0.253-0.229v-2.137h0.681c0.124 0 0.219-0.101 0.219-0.236 0-0.139-0.094-0.242-0.219-0.242z"></path>
<path d="M15.629 18.697c-0.148 0-0.251 0.094-0.251 0.231v2.404c0 0.135 0.103 0.231 0.251 0.231 0.152 0 0.257-0.094 0.257-0.231v-2.404c0-0.139-0.103-0.231-0.257-0.231z"></path>
<path d="M18.706 18.704h-0.004c-0.023-0.004-0.049-0.008-0.071-0.008-0.113 0-0.199 0.058-0.234 0.159l-0.658 1.856c-0.011 0.034-0.023 0.071-0.034 0.111-0.013-0.041-0.024-0.079-0.036-0.109l-0.662-1.862c-0.034-0.099-0.122-0.159-0.231-0.159-0.028 0-0.058 0.004-0.082 0.013-0.114 0.026-0.197 0.122-0.197 0.233 0 0.026 0.008 0.060 0.017 0.084l0.872 2.325c0.052 0.141 0.163 0.214 0.317 0.214 0.15 0 0.259-0.073 0.311-0.21l0.876-2.332c0.011-0.028 0.015-0.056 0.015-0.084 0.002-0.107-0.075-0.195-0.199-0.231z"></path>
<path d="M19.825 20.3l0.337-0.859c0.006-0.019 0.013-0.038 0.021-0.056 0.006 0.017 0.011 0.034 0.019 0.052l0.33 0.863h-0.707zM20.504 18.913c-0.054-0.139-0.169-0.216-0.324-0.216s-0.266 0.073-0.319 0.214l-0.924 2.325c-0.011 0.030-0.015 0.056-0.015 0.086 0 0.105 0.077 0.201 0.184 0.227 0.028 0.009 0.058 0.015 0.090 0.015 0.105 0 0.188-0.058 0.221-0.156l0.238-0.641h1.048l0.246 0.643c0.036 0.096 0.122 0.156 0.225 0.156 0.028 0 0.056-0.006 0.082-0.013 0.114-0.028 0.191-0.12 0.191-0.225 0-0.034-0.006-0.064-0.019-0.090l-0.924-2.325z"></path>
<path d="M23.687 21.055h-1.202c-0.032 0-0.032-0.006-0.032-0.028v-2.096c0-0.141-0.101-0.234-0.253-0.234-0.15 0-0.253 0.094-0.253 0.236v2.154c0 0.304 0.146 0.454 0.437 0.454h1.303c0.131 0 0.229-0.105 0.229-0.246s-0.096-0.24-0.229-0.24z"></path>
<path d="M25.54 19.866l-0.251-0.052c-0.362-0.071-0.426-0.171-0.426-0.354 0-0.204 0.186-0.33 0.484-0.33 0.27 0 0.426 0.103 0.488 0.324l0.002 0.002c0.036 0.096 0.124 0.156 0.234 0.156 0.026 0 0.052-0.004 0.075-0.009 0.116-0.023 0.199-0.114 0.199-0.225 0-0.028-0.006-0.054-0.015-0.075-0.073-0.238-0.296-0.636-0.983-0.636-0.733 0-0.994 0.427-0.994 0.793 0 0.471 0.236 0.712 0.812 0.831l0.274 0.056c0.409 0.084 0.48 0.195 0.48 0.394 0 0.24-0.206 0.388-0.536 0.388-0.433 0-0.523-0.199-0.581-0.418-0.030-0.101-0.122-0.167-0.236-0.167-0.023 0-0.043 0.004-0.082 0.009-0.12 0.030-0.197 0.12-0.197 0.233 0 0.021 0.004 0.039 0.011 0.067v0.002c0.066 0.221 0.219 0.741 1.102 0.741 0.628 0 1.033-0.336 1.033-0.859-0.002-0.566-0.358-0.758-0.892-0.87z"></path>
<path d="M29.826 19.89h-0.849c-0.165 0-0.298 0.131-0.298 0.296v1.012c0 0.159 0.133 0.293 0.298 0.293h0.849c0.163 0 0.298-0.133 0.298-0.293v-1.012c0-0.167-0.135-0.296-0.298-0.296z"></path>
<path d="M29.826 16.484h-0.849c-0.165 0-0.298 0.129-0.298 0.289v1.117c0 0.004 0.004 0.006 0.004 0.009 0 0.008-0.004 0.013-0.004 0.019v1.112c0 0.165 0.133 0.296 0.298 0.296h0.849c0.163 0 0.298-0.131 0.298-0.296v-1.112c0-0.004-0.002-0.009-0.002-0.013 0-0.006 0.002-0.009 0.002-0.015v-1.117c0-0.159-0.135-0.289-0.298-0.289z"></path>
<path d="M30.117 11.664v-0.412c0-0.167-0.135-0.296-0.296-0.296h-0.846c-0.165 0-0.296 0.129-0.296 0.296v4.316c0 0.159 0.133 0.293 0.298 0.293h0.849c0.163 0 0.298-0.133 0.298-0.293v-3.864c0-0.015-0.006-0.026-0.008-0.039z"></path>
</symbol>
<symbol id="icon-royal-greenwich" viewBox="0 0 32 32">
<title>royal-greenwich</title>
<path d="M26.797 12.287c-0.259-0.747-0.693-0.835-0.917-0.828 0.033-0.046 0.067-0.103 0.079-0.163 0.026-0.128-0.023-0.273-0.024-0.278-0.005-0.019-0.021-0.033-0.042-0.033 0 0-0.011-0.002-0.024-0.002-0.058 0-0.168 0.007-0.245 0.053-0.049 0.028-0.105 0.091-0.149 0.149-0.016-0.095-0.058-0.22-0.161-0.336-0.177-0.198-0.473-0.297-0.886-0.297-0.39 0.002-0.683 0.098-0.872 0.29-0.114 0.119-0.165 0.245-0.187 0.339-0.033-0.046-0.077-0.091-0.13-0.117-0.107-0.058-0.245-0.061-0.275-0.061-0.019 0-0.037 0.012-0.044 0.030-0.003 0.009-0.063 0.159-0.030 0.275 0.012 0.051 0.049 0.11 0.081 0.161-0.2-0.016-0.634 0.039-0.88 0.749-0.14 0.402-0.143 0.732-0.014 0.976 0.068 0.13 0.166 0.212 0.247 0.261-0.054 0.016-0.108 0.042-0.152 0.079-0.102 0.088-0.152 0.231-0.156 0.236-0.007 0.018 0 0.040 0.014 0.054 0.007 0.004 0.137 0.11 0.257 0.121 0.054 0.004 0.131-0.011 0.191-0.023-0.072 0.201-0.152 0.675 0.448 1.071 0.31 0.205 0.59 0.31 0.826 0.31 0.217 0 0.357-0.088 0.438-0.165 0.003 0.053 0.012 0.108 0.035 0.156 0.058 0.119 0.182 0.207 0.187 0.212 0.009 0.005 0.017 0.009 0.028 0.009 0.009 0 0.019-0.004 0.026-0.009 0.007-0.004 0.138-0.093 0.187-0.2 0.019-0.047 0.026-0.108 0.030-0.166 0.086 0.082 0.235 0.178 0.457 0.178 0.219 0 0.46-0.095 0.724-0.278 0.336-0.235 0.529-0.488 0.574-0.756 0.024-0.147-0.002-0.271-0.033-0.352 0.046 0.014 0.098 0.024 0.149 0.024 0.012 0 0.026 0 0.038-0.004 0.131-0.016 0.256-0.107 0.261-0.11 0.017-0.012 0.023-0.031 0.019-0.051-0.002-0.007-0.046-0.161-0.135-0.24-0.047-0.040-0.126-0.072-0.189-0.091 0.159-0.142 0.48-0.513 0.248-1.174v0zM26.417 13.435c-0.017 0.009-0.026 0.030-0.023 0.049 0.002 0.019 0.017 0.035 0.035 0.039 0.051 0.012 0.189 0.053 0.243 0.1 0.046 0.039 0.077 0.112 0.095 0.161-0.038 0.023-0.114 0.063-0.187 0.073-0.107 0.012-0.25-0.059-0.252-0.059-0.019-0.011-0.044-0.005-0.058 0.012-0.016 0.018-0.017 0.040-0.003 0.058 0.002 0.002 0.116 0.165 0.075 0.402-0.042 0.24-0.222 0.471-0.534 0.69-0.245 0.173-0.471 0.261-0.669 0.261-0.322 0-0.462-0.235-0.467-0.242-0.011-0.019-0.033-0.030-0.054-0.023-0.023 0.007-0.037 0.028-0.035 0.051 0.005 0.051 0.011 0.193-0.019 0.261-0.023 0.054-0.084 0.107-0.122 0.138-0.037-0.030-0.098-0.088-0.13-0.152-0.037-0.079-0.026-0.212-0.019-0.257 0.005-0.021-0.009-0.042-0.026-0.051-0.005-0.005-0.012-0.005-0.019-0.005-0.016 0-0.028 0.007-0.038 0.018-0.002 0.002-0.005 0.007-0.007 0.011-0.003 0.011-0.119 0.236-0.448 0.236-0.217 0-0.478-0.098-0.773-0.292-0.703-0.462-0.389-1.017-0.375-1.040 0.011-0.018 0.009-0.039-0.005-0.054-0.012-0.016-0.033-0.021-0.052-0.016-0.002 0.002-0.161 0.056-0.256 0.047-0.056-0.004-0.128-0.047-0.17-0.077 0.017-0.042 0.058-0.116 0.114-0.165 0.065-0.056 0.198-0.082 0.241-0.088 0.024-0.002 0.042-0.021 0.044-0.044s-0.014-0.044-0.035-0.051c-0.002-0.002-0.208-0.058-0.326-0.278-0.116-0.22-0.11-0.521 0.021-0.896 0.208-0.6 0.551-0.686 0.738-0.686 0.089 0 0.149 0.018 0.149 0.018 0.023 0.009 0.046 0 0.058-0.018s0.011-0.042-0.005-0.058c-0.032-0.037-0.121-0.15-0.138-0.224-0.016-0.054 0.002-0.135 0.014-0.184 0.049 0.004 0.131 0.014 0.198 0.049 0.077 0.040 0.142 0.156 0.161 0.196 0.011 0.019 0.033 0.031 0.056 0.026 0.021-0.005 0.037-0.024 0.037-0.047 0-0.004-0.005-0.226 0.178-0.413 0.168-0.173 0.438-0.262 0.808-0.262 0.376 0 0.646 0.089 0.803 0.264 0.168 0.185 0.147 0.409 0.147 0.411-0.003 0.021 0.011 0.044 0.032 0.051 0.021 0.009 0.044 0 0.056-0.019 0.046-0.073 0.14-0.201 0.198-0.236 0.054-0.030 0.14-0.037 0.182-0.037 0.011 0.044 0.024 0.128 0.011 0.2-0.016 0.084-0.107 0.18-0.14 0.21-0.017 0.014-0.021 0.039-0.011 0.058 0.012 0.019 0.035 0.030 0.056 0.023 0.003 0 0.614-0.185 0.936 0.747 0.271 0.779-0.266 1.101-0.289 1.115v0z"></path>
<path d="M4.114 16.549c0-0.515-0.376-0.831-0.982-0.831h-0.752v2.97h0.429v-1.288h0.18c0.219 0 0.397 0.068 0.793 0.679l0.394 0.607h0.513c-0.205-0.282-0.278-0.381-0.406-0.586-0.229-0.371-0.396-0.644-0.667-0.824 0.32-0.124 0.499-0.381 0.499-0.726zM3.085 17.016h-0.276v-0.931h0.276c0.417 0 0.583 0.168 0.586 0.448 0.005 0.247-0.126 0.483-0.586 0.483z"></path>
<path d="M8.165 17.203c0-0.828-0.621-1.524-1.608-1.524-0.97 0-1.603 0.7-1.603 1.524 0 0.805 0.618 1.524 1.594 1.524 1.013 0 1.617-0.723 1.617-1.524zM5.395 17.203c0-0.653 0.495-1.132 1.162-1.132 0.672 0 1.167 0.48 1.167 1.132 0 0.648-0.495 1.132-1.167 1.132-0.665 0-1.162-0.483-1.162-1.132z"></path>
<path d="M9.451 18.689h0.429v-1.568l1.11-1.403h-0.516l-0.812 1.025-0.803-1.026h-0.516l1.11 1.4z"></path>
<path d="M12.121 15.702l-1.283 2.986h0.438l0.378-0.875h1.271l0.397 0.875h0.439l-1.337-2.986h-0.303zM11.82 17.429l0.446-1.076 0.483 1.076h-0.929z"></path>
<path d="M14.415 15.718v2.972h1.78v-0.385h-1.351v-2.587z"></path>
<path d="M3.987 21.479h0.574v0.609c-0.207 0.065-0.417 0.117-0.647 0.117-0.712 0-1.211-0.464-1.211-1.127 0-0.644 0.506-1.136 1.153-1.136 0.361 0 0.724 0.098 1.075 0.291v-0.43c-0.469-0.196-0.714-0.252-1.066-0.252-0.91 0-1.603 0.667-1.603 1.542 0 0.872 0.675 1.507 1.591 1.507 0.417 0 0.74-0.070 1.139-0.243v-1.26h-1.005v0.383z"></path>
<path d="M7.187 21.148c0.32-0.126 0.499-0.383 0.499-0.728 0-0.514-0.376-0.831-0.98-0.831h-0.754v2.97h0.429v-1.288h0.18c0.221 0 0.399 0.068 0.793 0.679l0.396 0.609h0.513c-0.207-0.282-0.28-0.383-0.408-0.588-0.229-0.369-0.396-0.644-0.667-0.823zM6.657 20.886h-0.277v-0.931h0.277c0.417 0 0.583 0.17 0.588 0.45 0.003 0.247-0.128 0.481-0.588 0.481z"></path>
<path d="M8.919 19.59v2.97h1.736v-0.385h-1.307v-0.922h1.223v-0.383h-1.223v-0.896h1.267v-0.383z"></path>
<path d="M11.44 19.59v2.97h1.736v-0.385h-1.307v-0.922h1.225v-0.383h-1.225v-0.896h1.267v-0.383z"></path>
<path d="M16.323 19.59v2.298l-2.025-2.298h-0.341v2.97h0.402v-2.287l1.999 2.287h0.367v-2.97z"></path>
<path d="M21.522 19.59l-0.816 2.046-0.833-2.046h-0.408l-0.828 2.046-0.826-2.046h-0.429l1.209 2.996h0.084l0.992-2.429 0.98 2.429h0.082l1.216-2.996z"></path>
<path d="M22.613 22.56h0.43v-2.97h-0.43z"></path>
<path d="M24.359 21.078c0-0.653 0.508-1.136 1.194-1.136 0.346 0 0.66 0.095 1.029 0.308v-0.455c-0.408-0.17-0.719-0.245-1.026-0.245-0.952 0-1.642 0.663-1.642 1.568 0 0.623 0.492 1.48 1.615 1.48 0.467 0 0.788-0.108 1.081-0.262v-0.464c-0.338 0.217-0.705 0.336-1.043 0.336-0.719-0.002-1.209-0.464-1.209-1.131z"></path>
<path d="M29.57 19.59v1.293h-1.673v-1.293h-0.43v2.97h0.43v-1.293h1.673v1.293h0.429v-2.97z"></path>
<path d="M17.802 16.864l-0.308 1.34c0.019 0.032 0.042 0.059 0.067 0.087 0.024 0.024 0.056 0.047 0.091 0.068 0.038 0.019 0.082 0.037 0.135 0.047 0.051 0.012 0.112 0.017 0.18 0.017 0.091 0 0.175-0.019 0.257-0.061 0.082-0.040 0.154-0.096 0.219-0.166 0.059-0.070 0.112-0.152 0.151-0.248 0.037-0.095 0.056-0.198 0.056-0.301 0-0.138-0.033-0.248-0.105-0.331-0.068-0.081-0.163-0.122-0.284-0.122-0.051 0-0.105 0.012-0.159 0.037-0.056 0.024-0.116 0.067-0.189 0.13h-0.005l0.18-0.786-0.011-0.017-0.441 0.024-0.017 0.072c0.026 0.003 0.052 0.005 0.077 0.009 0.026 0.002 0.047 0.007 0.063 0.014 0.019 0.009 0.032 0.019 0.042 0.035 0.009 0.016 0.014 0.038 0.014 0.067 0 0.012-0.002 0.026-0.003 0.040-0.002 0.012-0.005 0.026-0.009 0.046zM17.881 17.48c0.017-0.016 0.037-0.033 0.059-0.054 0.023-0.019 0.046-0.037 0.068-0.051 0.026-0.016 0.052-0.028 0.075-0.038 0.024-0.011 0.052-0.014 0.079-0.014 0.049 0 0.087 0.009 0.119 0.024 0.032 0.017 0.054 0.042 0.073 0.070 0.019 0.030 0.030 0.065 0.040 0.108 0.005 0.042 0.009 0.082 0.009 0.126 0 0.087-0.009 0.172-0.030 0.257-0.021 0.084-0.054 0.159-0.098 0.227-0.038 0.061-0.087 0.11-0.143 0.149-0.054 0.037-0.114 0.052-0.175 0.052-0.035 0-0.065-0.003-0.093-0.012-0.026-0.011-0.052-0.023-0.075-0.042-0.019-0.016-0.033-0.032-0.046-0.051s-0.019-0.035-0.023-0.052l0.159-0.7z"></path>
<path d="M19.228 17.257c-0.087 0.042-0.161 0.098-0.221 0.165-0.059 0.070-0.105 0.151-0.14 0.241-0.037 0.089-0.052 0.187-0.052 0.292 0 0.142 0.040 0.257 0.122 0.341 0.082 0.086 0.189 0.128 0.32 0.128 0.114 0 0.213-0.021 0.299-0.067 0.087-0.044 0.161-0.1 0.221-0.173 0.061-0.070 0.105-0.152 0.138-0.245 0.032-0.093 0.049-0.187 0.049-0.28 0-0.138-0.040-0.25-0.121-0.336s-0.191-0.128-0.331-0.128c-0.103-0.002-0.196 0.019-0.285 0.061zM19.66 17.362c0.040 0.056 0.061 0.14 0.061 0.252 0 0.091-0.009 0.177-0.028 0.264-0.017 0.086-0.044 0.161-0.079 0.227-0.033 0.068-0.079 0.126-0.133 0.168-0.054 0.044-0.117 0.065-0.187 0.065-0.079 0-0.138-0.028-0.177-0.086s-0.059-0.143-0.059-0.257c0-0.070 0.009-0.149 0.021-0.233 0.017-0.084 0.040-0.161 0.072-0.229 0.042-0.091 0.093-0.156 0.151-0.196s0.121-0.061 0.186-0.061c0.075 0.002 0.133 0.030 0.173 0.086z"></path>
<path d="M20.896 17.489c0 0.026 0.012 0.051 0.032 0.070 0.021 0.021 0.054 0.033 0.096 0.033 0.032 0 0.054-0.007 0.073-0.017 0.017-0.012 0.032-0.028 0.046-0.051 0.012-0.017 0.023-0.038 0.026-0.065 0.007-0.026 0.012-0.051 0.012-0.073 0-0.040-0.003-0.072-0.012-0.093-0.011-0.021-0.023-0.040-0.040-0.058-0.016-0.016-0.035-0.024-0.059-0.032-0.024-0.005-0.047-0.011-0.073-0.011-0.054 0-0.105 0.017-0.154 0.051-0.049 0.032-0.121 0.089-0.213 0.17h-0.007c0-0.068-0.014-0.119-0.040-0.156-0.026-0.033-0.072-0.051-0.137-0.051-0.035 0-0.075 0.007-0.124 0.019-0.047 0.016-0.102 0.035-0.165 0.061l-0.019 0.077c0.017-0.005 0.037-0.011 0.063-0.016 0.028-0.005 0.051-0.009 0.068-0.009 0.046 0 0.073 0.007 0.091 0.021 0.014 0.016 0.023 0.046 0.023 0.091 0 0.017-0.005 0.046-0.014 0.084-0.007 0.037-0.012 0.065-0.016 0.086l-0.175 0.767h0.224l0.191-0.849c0.046-0.049 0.087-0.089 0.126-0.119 0.040-0.032 0.073-0.054 0.105-0.068 0.030-0.016 0.056-0.024 0.079-0.030s0.037-0.009 0.049-0.009c-0.016 0.030-0.026 0.059-0.040 0.091-0.009 0.032-0.014 0.059-0.014 0.084z"></path>
<path d="M21.948 17.194c-0.102 0-0.198 0.021-0.284 0.063-0.089 0.044-0.163 0.098-0.221 0.166-0.059 0.070-0.107 0.149-0.142 0.24s-0.052 0.189-0.052 0.294c0 0.143 0.042 0.256 0.124 0.341 0.082 0.084 0.187 0.126 0.32 0.126 0.114 0 0.213-0.021 0.299-0.067 0.087-0.042 0.159-0.102 0.221-0.173 0.059-0.072 0.107-0.152 0.138-0.245 0.032-0.095 0.047-0.187 0.047-0.28 0-0.138-0.038-0.25-0.121-0.336-0.079-0.086-0.189-0.13-0.331-0.13zM22.13 17.878c-0.019 0.084-0.046 0.161-0.079 0.227-0.035 0.068-0.079 0.124-0.135 0.168-0.054 0.046-0.117 0.065-0.186 0.065-0.082 0-0.14-0.026-0.178-0.086-0.040-0.058-0.059-0.143-0.059-0.257 0-0.070 0.009-0.149 0.023-0.233 0.016-0.084 0.038-0.161 0.072-0.229 0.042-0.091 0.091-0.156 0.151-0.198 0.056-0.038 0.121-0.059 0.186-0.059 0.075 0 0.131 0.028 0.173 0.086 0.040 0.056 0.059 0.14 0.059 0.252 0 0.091-0.009 0.178-0.026 0.264z"></path>
<path d="M23.69 18.274c-0.046 0-0.079-0.009-0.096-0.024-0.019-0.016-0.030-0.047-0.030-0.091 0-0.014 0.003-0.035 0.011-0.068s0.012-0.067 0.021-0.098l0.177-0.761-0.016-0.019-0.208 0.016-0.206 0.891c-0.054 0.054-0.108 0.093-0.159 0.121-0.056 0.026-0.107 0.040-0.159 0.040-0.051 0-0.086-0.016-0.108-0.046-0.023-0.032-0.035-0.073-0.035-0.128 0-0.014 0.003-0.037 0.009-0.065 0.005-0.030 0.011-0.059 0.019-0.093l0.105-0.438c0.007-0.024 0.011-0.049 0.014-0.073 0.005-0.024 0.005-0.044 0.005-0.056 0-0.056-0.016-0.098-0.044-0.128-0.032-0.030-0.077-0.046-0.14-0.046-0.028 0-0.068 0.009-0.116 0.023s-0.102 0.033-0.165 0.061l-0.016 0.077c0.014-0.005 0.035-0.011 0.061-0.017s0.049-0.009 0.067-0.009c0.046 0 0.073 0.009 0.091 0.021 0.014 0.016 0.021 0.046 0.021 0.089 0 0.024-0.002 0.051-0.009 0.077-0.005 0.026-0.012 0.056-0.019 0.093l-0.091 0.375c-0.014 0.051-0.019 0.089-0.023 0.116s-0.003 0.049-0.003 0.068c0 0.070 0.019 0.128 0.061 0.172s0.102 0.065 0.178 0.065c0.049 0 0.089-0.005 0.121-0.011 0.032-0.011 0.065-0.023 0.103-0.044 0.033-0.017 0.067-0.035 0.098-0.061 0.033-0.023 0.068-0.052 0.105-0.081h0.007c0 0.051 0.016 0.093 0.047 0.13s0.079 0.056 0.143 0.056c0.038 0 0.079-0.007 0.122-0.021 0.044-0.012 0.1-0.032 0.165-0.058l0.019-0.079c-0.017 0.007-0.037 0.012-0.067 0.017-0.026 0.005-0.047 0.007-0.061 0.007z"></path>
<path d="M23.956 18.858c0.024 0.016 0.058 0.028 0.098 0.038 0.042 0.012 0.096 0.016 0.163 0.016 0.096 0 0.184-0.012 0.261-0.037s0.147-0.065 0.21-0.124c0.059-0.058 0.117-0.133 0.165-0.231 0.046-0.098 0.086-0.217 0.116-0.359l0.201-0.933-0.016-0.017-0.217 0.056c-0.032-0.021-0.073-0.038-0.124-0.052-0.051-0.016-0.103-0.023-0.163-0.023-0.091 0-0.178 0.023-0.262 0.065-0.086 0.042-0.157 0.098-0.217 0.166-0.063 0.072-0.114 0.154-0.149 0.247-0.037 0.091-0.054 0.187-0.054 0.285 0 0.142 0.032 0.254 0.093 0.334 0.063 0.081 0.152 0.121 0.268 0.121 0.044 0 0.086-0.007 0.124-0.019 0.037-0.014 0.073-0.032 0.11-0.052 0.032-0.017 0.061-0.037 0.091-0.059 0.028-0.023 0.051-0.042 0.067-0.054l0.007 0.002c-0.019 0.121-0.049 0.221-0.086 0.297-0.037 0.075-0.075 0.137-0.119 0.184-0.040 0.044-0.086 0.075-0.137 0.095s-0.096 0.030-0.14 0.030h-0.037c-0.005-0.014-0.014-0.035-0.026-0.063-0.014-0.030-0.026-0.054-0.040-0.073s-0.030-0.038-0.051-0.054c-0.019-0.016-0.047-0.026-0.075-0.026-0.037 0-0.067 0.012-0.087 0.037-0.021 0.023-0.033 0.054-0.033 0.089 0 0.019 0.003 0.038 0.014 0.059 0.009 0.023 0.023 0.040 0.047 0.058zM24.595 18.234c-0.054 0.032-0.108 0.049-0.165 0.049-0.044 0-0.081-0.009-0.107-0.024-0.028-0.017-0.051-0.038-0.067-0.068s-0.028-0.063-0.035-0.103c-0.007-0.038-0.011-0.082-0.011-0.128 0-0.086 0.012-0.17 0.038-0.256 0.024-0.086 0.058-0.159 0.096-0.219 0.046-0.063 0.093-0.114 0.149-0.151 0.054-0.037 0.112-0.054 0.173-0.054 0.042 0 0.075 0.007 0.103 0.016 0.026 0.012 0.049 0.026 0.067 0.046 0.017 0.021 0.030 0.044 0.037 0.065 0.007 0.024 0.011 0.047 0.011 0.067l-0.135 0.64c-0.051 0.049-0.1 0.087-0.156 0.121z"></path>
<path d="M25.701 16.864l-0.355 1.524h0.222l0.203-0.868c0.052-0.058 0.108-0.105 0.166-0.137 0.059-0.032 0.112-0.049 0.165-0.049 0.049 0 0.084 0.016 0.11 0.047 0.026 0.030 0.038 0.072 0.038 0.126 0 0.016-0.003 0.038-0.007 0.067-0.005 0.026-0.012 0.058-0.021 0.091l-0.117 0.441c-0.007 0.028-0.014 0.052-0.016 0.073-0.003 0.019-0.005 0.040-0.005 0.058 0 0.047 0.017 0.089 0.049 0.121 0.030 0.033 0.079 0.051 0.143 0.051 0.040 0 0.079-0.007 0.121-0.021 0.038-0.012 0.093-0.032 0.165-0.061l0.019-0.075c-0.016 0.005-0.037 0.011-0.065 0.016-0.026 0.005-0.051 0.009-0.067 0.009-0.044 0-0.075-0.009-0.096-0.024-0.019-0.016-0.028-0.047-0.028-0.091 0-0.019 0.003-0.044 0.011-0.077 0.007-0.032 0.016-0.061 0.019-0.087l0.102-0.38c0.009-0.035 0.016-0.070 0.019-0.108 0.003-0.035 0.007-0.061 0.007-0.075 0-0.070-0.021-0.128-0.063-0.172-0.046-0.044-0.103-0.067-0.178-0.067-0.082 0-0.154 0.017-0.219 0.052-0.063 0.032-0.137 0.082-0.217 0.147h-0.005l0.192-0.819-0.016-0.017-0.443 0.026-0.017 0.072c0.026 0.002 0.054 0.003 0.081 0.007s0.047 0.009 0.063 0.016c0.017 0.007 0.030 0.019 0.040 0.035s0.014 0.037 0.014 0.065c0 0.016-0.002 0.028-0.003 0.040-0.002 0.011-0.007 0.026-0.011 0.046z"></path>
<path d="M28.064 18.359c0.086-0.044 0.161-0.102 0.222-0.175 0.058-0.068 0.105-0.151 0.137-0.245 0.032-0.091 0.047-0.186 0.047-0.278 0-0.138-0.038-0.25-0.121-0.336-0.079-0.087-0.189-0.13-0.329-0.13-0.105 0-0.2 0.021-0.285 0.063-0.089 0.044-0.163 0.098-0.221 0.166-0.059 0.068-0.107 0.149-0.142 0.24-0.033 0.091-0.052 0.189-0.052 0.294 0 0.142 0.042 0.256 0.124 0.34 0.082 0.086 0.189 0.128 0.32 0.128 0.114 0 0.213-0.023 0.299-0.067zM27.623 18.254c-0.040-0.058-0.058-0.143-0.058-0.256 0-0.072 0.007-0.149 0.021-0.233 0.016-0.086 0.038-0.163 0.072-0.229 0.042-0.091 0.091-0.157 0.151-0.198 0.058-0.040 0.121-0.061 0.186-0.061 0.077 0 0.133 0.028 0.173 0.086 0.038 0.056 0.058 0.138 0.058 0.252 0 0.091-0.007 0.177-0.026 0.264-0.017 0.084-0.046 0.163-0.077 0.226-0.035 0.070-0.079 0.126-0.135 0.17-0.054 0.044-0.117 0.067-0.187 0.067-0.079 0-0.137-0.030-0.177-0.087z"></path>
<path d="M29.363 16.6c-0.065 0.028-0.124 0.067-0.175 0.119-0.052 0.051-0.098 0.112-0.14 0.186s-0.072 0.157-0.091 0.248l-0.017 0.079h-0.231l-0.023 0.108h0.233l-0.221 1.022c-0.032 0.143-0.068 0.254-0.114 0.331-0.042 0.077-0.095 0.117-0.156 0.122-0.011-0.016-0.023-0.035-0.037-0.058-0.012-0.023-0.026-0.040-0.037-0.054-0.016-0.017-0.032-0.030-0.051-0.042-0.019-0.011-0.040-0.016-0.063-0.016-0.040 0-0.070 0.012-0.091 0.038-0.019 0.026-0.032 0.054-0.032 0.089 0 0.042 0.017 0.075 0.051 0.102s0.084 0.038 0.154 0.038c0.128 0 0.248-0.054 0.371-0.166 0.119-0.11 0.2-0.254 0.236-0.429l0.208-0.977h0.297l0.026-0.108h-0.301l0.024-0.124c0.035-0.163 0.072-0.276 0.116-0.346 0.044-0.068 0.091-0.105 0.145-0.107 0.016 0.021 0.026 0.040 0.037 0.056 0.009 0.017 0.021 0.037 0.037 0.056 0.017 0.017 0.032 0.032 0.049 0.042 0.019 0.012 0.040 0.016 0.067 0.016 0.040 0 0.072-0.012 0.091-0.038 0.017-0.026 0.028-0.056 0.028-0.091 0-0.040-0.017-0.072-0.051-0.1-0.033-0.026-0.084-0.038-0.154-0.038-0.058-0.002-0.121 0.012-0.187 0.042z"></path>
<path d="M9.508 14.23c4.529-0.534 9.907-4.608 14.756-4.793 5.159-0.194 5.428 4.583 5.428 4.583s0.332-5.119-5.672-5.019c-5.374 0.089-11.267 5.068-16.399 4.933-4.501-0.117-5.439-1.809-5.621-2.338 0.22 0.684 1.472 3.344 7.508 2.634z"></path>
<path d="M26.116 13.4c0.121-0.096 0.401-0.394 0.21-0.938-0.203-0.59-0.555-0.677-0.747-0.677h-0.037c0.033-0.039 0.073-0.095 0.086-0.152 0.017-0.101-0.019-0.215-0.019-0.219l-0.007-0.018h-0.016c0 0-0.007-0.002-0.019-0.002-0.046 0-0.131 0.005-0.192 0.040-0.044 0.024-0.086 0.093-0.116 0.149-0.009-0.075-0.042-0.182-0.13-0.278-0.138-0.156-0.376-0.235-0.702-0.235-0.313 0-0.546 0.077-0.693 0.229-0.105 0.107-0.142 0.224-0.156 0.299-0.028-0.042-0.068-0.091-0.119-0.119-0.084-0.044-0.192-0.047-0.217-0.047h-0.017l-0.003 0.016c-0.003 0.005-0.046 0.124-0.024 0.212 0.012 0.051 0.051 0.108 0.084 0.152-0.021-0.004-0.046-0.005-0.073-0.005-0.168 0-0.476 0.079-0.654 0.598-0.112 0.32-0.116 0.581-0.014 0.777 0.067 0.131 0.166 0.201 0.233 0.236-0.049 0.014-0.11 0.039-0.154 0.075-0.079 0.065-0.128 0.152-0.13 0.156l-0.011 0.019 0.016 0.012c0.005 0.004 0.121 0.091 0.208 0.105 0.054 0.007 0.124-0.009 0.173-0.019-0.058 0.136-0.159 0.528 0.345 0.861 0.25 0.165 0.473 0.247 0.66 0.247 0.194 0 0.308-0.086 0.367-0.154 0 0.049 0.005 0.11 0.028 0.156 0.044 0.095 0.142 0.163 0.147 0.166l0.014 0.009 0.014-0.009c0.003-0.004 0.107-0.072 0.143-0.156 0.019-0.046 0.023-0.112 0.023-0.165 0.063 0.066 0.186 0.165 0.385 0.165 0.173 0 0.367-0.075 0.576-0.222 0.57-0.397 0.499-0.793 0.443-0.94 0.049 0.019 0.122 0.039 0.182 0.030 0.102-0.012 0.196-0.056 0.2-0.058l0.017-0.009-0.003-0.019c-0.003-0.005-0.040-0.136-0.108-0.198-0.042-0.040-0.131-0.059-0.191-0.072zM23.895 11.475c0.028-0.012 0.072-0.016 0.135-0.016 0.077 0 0.168 0.007 0.25 0.016 0.061 0.004 0.114 0.007 0.147 0.007h0.009c0.021 0 0.056-0.004 0.098-0.007 0.073-0.007 0.175-0.019 0.264-0.019 0.105 0 0.17 0.016 0.2 0.042 0.056 0.049 0.172 0.184 0.093 0.425-0.067 0.2-0.213 0.382-0.215 0.385-0.003 0.004-0.011 0.004-0.014 0.004-0.002-0.002-0.238-0.105-0.425-0.105-0.189 0-0.438 0.124-0.441 0.126s-0.005 0.002-0.005 0.002c-0.005 0-0.009-0.004-0.011-0.005-0.011-0.011-0.222-0.282-0.241-0.481-0.021-0.196 0.038-0.332 0.157-0.373zM22.738 13.061c0.002-0.079 0.073-0.236 0.131-0.359 0.026-0.061 0.052-0.114 0.061-0.143 0.007-0.019 0.016-0.054 0.026-0.096 0.038-0.15 0.098-0.378 0.18-0.422 0.037-0.019 0.095-0.042 0.166-0.042 0.091 0 0.18 0.033 0.268 0.1 0.168 0.131 0.289 0.331 0.291 0.334 0.003 0.004 0.003 0.011-0.002 0.014-0.002 0.002-0.18 0.185-0.243 0.361-0.065 0.178-0.033 0.453-0.033 0.457s-0.002 0.011-0.009 0.012c-0.002 0-0.229 0.073-0.418 0.073-0.046 0-0.086-0.004-0.121-0.012-0.192-0.049-0.301-0.15-0.297-0.277zM24.259 14.427c-0.084 0.136-0.186 0.212-0.287 0.212-0.021 0-0.044-0.004-0.063-0.011-0.077-0.023-0.205-0.138-0.308-0.229-0.051-0.044-0.095-0.082-0.121-0.1-0.017-0.012-0.047-0.030-0.082-0.053-0.135-0.082-0.338-0.205-0.357-0.297-0.014-0.070-0.024-0.25 0.184-0.394 0.175-0.121 0.404-0.178 0.406-0.18 0.005 0 0.012 0.002 0.014 0.007s0.126 0.226 0.275 0.339c0.154 0.114 0.425 0.163 0.429 0.163 0.007 0 0.012 0.007 0.012 0.012 0 0.014 0.007 0.357-0.102 0.53zM24.476 13.544c0 0 0.005 0.047-0.003 0.070-0.011 0.023-0.042 0.046-0.042 0.046s-0.030-0.021-0.042-0.049c-0.014-0.026-0.007-0.068-0.007-0.068s-0.072 0.15-0.313-0.009c-0.184-0.123-0.096-0.271-0.096-0.271s-0.044 0.016-0.068 0.012c-0.023-0.004-0.052-0.026-0.052-0.026s0.011-0.035 0.033-0.054c0.023-0.018 0.065-0.023 0.065-0.023s-0.17-0.046-0.082-0.301c0.079-0.226 0.233-0.17 0.233-0.17s-0.030-0.037-0.037-0.059c-0.005-0.026 0.009-0.059 0.009-0.059s0.035-0.002 0.061 0.014c0.024 0.014 0.044 0.053 0.044 0.053s-0.005-0.177 0.25-0.177c0.268 0 0.245 0.178 0.245 0.178s0.032-0.049 0.054-0.061c0.019-0.012 0.058-0.012 0.058-0.012s0.011 0.035 0.005 0.063c-0.005 0.030-0.037 0.058-0.037 0.058s0.159-0.053 0.241 0.191c0.070 0.201-0.075 0.285-0.075 0.285s0.047 0.011 0.063 0.028c0.019 0.016 0.032 0.053 0.032 0.053s-0.030 0.021-0.058 0.024c-0.030 0.004-0.070-0.016-0.070-0.016s0.098 0.133-0.114 0.282c-0.208 0.149-0.296 0-0.296 0zM25.829 14.002c-0.047 0.065-0.194 0.154-0.313 0.226-0.058 0.033-0.107 0.061-0.131 0.082-0.016 0.012-0.044 0.035-0.073 0.063-0.116 0.1-0.287 0.25-0.381 0.25h-0.011c-0.072-0.007-0.247-0.051-0.326-0.29-0.063-0.203-0.052-0.436-0.051-0.438 0-0.007 0.003-0.011 0.009-0.012 0.003 0 0.254-0.053 0.408-0.163 0.152-0.11 0.284-0.355 0.284-0.357 0.003-0.007 0.009-0.009 0.014-0.007 0.016 0.004 0.348 0.101 0.48 0.25 0.133 0.15 0.166 0.292 0.093 0.396zM26.102 13.138c-0.030 0.061-0.126 0.201-0.359 0.201h-0.028c-0.213-0.011-0.43-0.103-0.43-0.103-0.007-0.004-0.009-0.007-0.009-0.014 0-0.002 0.038-0.254-0.011-0.436-0.051-0.182-0.238-0.387-0.238-0.39-0.003-0.004-0.003-0.011 0-0.016 0.007-0.011 0.215-0.287 0.404-0.359 0.182-0.068 0.332-0.049 0.402 0.053 0.046 0.066 0.075 0.235 0.102 0.371 0.012 0.063 0.023 0.121 0.033 0.15 0.007 0.021 0.019 0.056 0.033 0.093 0.056 0.145 0.142 0.367 0.1 0.45z"></path>
</symbol>
<symbol id="icon-stacked-logo" viewBox="0 0 32 32">
<title>stacked-logo</title>
<path d="M4.437 12.044c0.291-0.238 0.443-0.582 0.443-0.965v-1.303h-0.727v0.152c-0.178-0.132-0.416-0.192-0.674-0.192-0.78 0-1.329 0.595-1.329 1.342 0 0.383 0.159 0.721 0.443 0.965-0.145 0.079-0.245 0.179-0.324 0.284l0.529 0.522c0.126-0.251 0.403-0.436 0.721-0.436 0.489 0 0.807 0.337 0.807 0.833s-0.317 0.84-0.807 0.84c-0.443 0-0.681-0.251-0.78-0.575h-0.754c0.132 0.747 0.721 1.263 1.534 1.263 0.866 0 1.547-0.602 1.547-1.527 0-0.489-0.231-0.926-0.628-1.203zM3.518 11.727c-0.37 0-0.641-0.258-0.641-0.648 0-0.397 0.271-0.655 0.641-0.655 0.364 0 0.635 0.258 0.635 0.655 0 0.39-0.271 0.648-0.635 0.648z"></path>
<path d="M6.129 11.258c0-0.489 0.324-0.82 0.787-0.82h0.066v-0.701c-0.463 0-0.694 0.172-0.853 0.383v-0.344h-0.727v3.306h0.727v-1.825z"></path>
<path d="M8.741 13.122c0.747 0 1.388-0.403 1.613-1.005h-0.866c-0.139 0.212-0.41 0.317-0.747 0.317-0.476 0-0.853-0.337-0.932-0.754h2.572c0.013-0.079 0.020-0.165 0.020-0.251 0-0.939-0.74-1.693-1.679-1.693s-1.679 0.754-1.679 1.693c0 0.939 0.74 1.693 1.699 1.693zM8.721 10.411c0.417 0 0.774 0.278 0.879 0.621h-1.759c0.106-0.344 0.463-0.621 0.879-0.621z"></path>
<path d="M12.331 13.122c0.747 0 1.388-0.403 1.613-1.005h-0.866c-0.139 0.212-0.41 0.317-0.747 0.317-0.476 0-0.853-0.337-0.932-0.754h2.572c0.013-0.079 0.020-0.165 0.020-0.251 0-0.939-0.74-1.693-1.679-1.693s-1.679 0.754-1.679 1.693c-0 0.939 0.74 1.693 1.699 1.693zM12.311 10.411c0.417 0 0.774 0.278 0.879 0.621h-1.759c0.106-0.344 0.463-0.621 0.879-0.621z"></path>
<path d="M15.055 11.258c0-0.489 0.251-0.833 0.727-0.833s0.721 0.251 0.721 0.833v1.825h0.727v-1.984c0-0.879-0.45-1.362-1.27-1.362-0.456 0-0.754 0.218-0.906 0.416v-0.377h-0.727v3.306h0.727v-1.825z"></path>
<path d="M19.53 13.083l0.291-0.866 0.291 0.866h0.661l1.303-3.306h-0.741l-0.873 2.374-0.284-0.846 0.575-1.527h-0.714l-0.218 0.688-0.218-0.688h-0.714l0.575 1.527-0.284 0.846-0.873-2.374h-0.741l1.303 3.306z"></path>
<path d="M23.213 8.91c0 0.274-0.219 0.496-0.489 0.496s-0.489-0.222-0.489-0.496c0-0.274 0.219-0.496 0.489-0.496s0.489 0.222 0.489 0.496z"></path>
<path d="M22.36 9.777h0.727v3.306h-0.727v-3.306z"></path>
<path d="M25.104 13.122c0.959 0 1.686-0.727 1.686-1.693h-0.727c0 0.595-0.397 1.005-0.959 1.005-0.569 0-0.952-0.41-0.952-1.005s0.383-1.005 0.952-1.005c0.291 0 0.509 0.119 0.674 0.298l0.535-0.483c-0.304-0.311-0.694-0.502-1.21-0.502-0.972 0-1.693 0.721-1.693 1.693s0.721 1.693 1.693 1.693z"></path>
<path d="M28.747 9.737c-0.43 0-0.747 0.178-0.945 0.416v-1.779l-0.727 0.079v4.628h0.727v-1.825c0-0.483 0.298-0.833 0.767-0.833 0.502 0 0.721 0.317 0.721 0.833v1.825h0.727v-1.984c0-0.879-0.483-1.362-1.27-1.362z"></path>
<path d="M8.357 16.475h-0.727c0 0.595-0.397 1.005-0.959 1.005-0.569 0-0.952-0.41-0.952-1.005s0.384-1.005 0.952-1.005c0.291 0 0.509 0.119 0.674 0.298l0.536-0.483c-0.304-0.311-0.694-0.502-1.21-0.502-0.972 0-1.693 0.721-1.693 1.693s0.721 1.693 1.693 1.693c0.959-0 1.686-0.727 1.686-1.693z"></path>
<path d="M8.549 16.475c0 0.965 0.714 1.693 1.693 1.693s1.693-0.727 1.693-1.693-0.714-1.693-1.693-1.693c-0.979 0-1.693 0.727-1.693 1.693zM11.194 16.475c0 0.575-0.383 0.992-0.952 0.992s-0.952-0.416-0.952-0.992 0.384-0.992 0.952-0.992c0.569 0 0.952 0.416 0.952 0.992z"></path>
<path d="M15.835 14.782c-0.476 0-0.747 0.192-0.998 0.456-0.179-0.291-0.463-0.456-0.866-0.456-0.364 0-0.681 0.172-0.86 0.416v-0.377h-0.727v3.306h0.727v-1.984c0-0.43 0.251-0.674 0.588-0.674 0.384 0 0.589 0.245 0.589 0.674v1.984h0.727v-1.984c0-0.43 0.251-0.674 0.588-0.674 0.39 0 0.588 0.245 0.588 0.674v1.984h0.727v-2.169c0-0.813-0.41-1.177-1.084-1.177z"></path>
<path d="M18.949 18.168c0.747 0 1.388-0.403 1.613-1.005h-0.866c-0.139 0.212-0.41 0.317-0.747 0.317-0.476 0-0.853-0.337-0.932-0.754h2.572c0.013-0.079 0.020-0.165 0.020-0.251 0-0.939-0.74-1.693-1.679-1.693s-1.68 0.754-1.68 1.693c-0 0.939 0.74 1.693 1.699 1.693zM18.929 15.457c0.416 0 0.773 0.278 0.879 0.622h-1.759c0.106-0.344 0.463-0.621 0.879-0.621z"></path>
<path d="M20.839 16.475c0 1.031 0.655 1.693 1.64 1.693 0.436 0 0.76-0.179 0.972-0.384v0.344h0.727v-4.708l-0.727 0.079v1.666c-0.205-0.225-0.562-0.383-0.972-0.383-0.985-0-1.64 0.661-1.64 1.693zM23.464 16.475c0 0.569-0.377 0.992-0.952 0.992s-0.959-0.423-0.959-0.992 0.384-0.992 0.959-0.992c0.575 0 0.952 0.423 0.952 0.992z"></path>
<path d="M25.917 16.746l-0.82-1.924h-0.754l1.21 2.724v1.417l-0.635 0.583v4.040h0.727v-3.81l0.635-0.583v-1.646l1.21-2.724h-0.754z"></path>
<path d="M8.774 20.28h-1.058v-0.456c0-0.132 0.079-0.218 0.198-0.218 0.099 0 0.159 0.046 0.192 0.099l0.489-0.483c-0.172-0.212-0.417-0.304-0.714-0.304-0.463 0-0.893 0.251-0.893 0.86v0.503h-0.668v0.688h0.668v2.618h0.727v-2.618h1.058v-0.688z"></path>
<path d="M10.407 20.24c-0.939 0-1.679 0.754-1.679 1.693s0.74 1.693 1.699 1.693c0.747 0 1.388-0.403 1.613-1.005h-0.866c-0.139 0.212-0.41 0.317-0.747 0.317-0.476 0-0.853-0.337-0.932-0.754h2.572c0.013-0.079 0.020-0.165 0.020-0.251 0-0.939-0.74-1.693-1.679-1.693zM9.528 21.536c0.106-0.344 0.463-0.621 0.879-0.621s0.774 0.278 0.879 0.621h-1.759z"></path>
<path d="M13.884 21.569c-0.357-0.132-0.727-0.126-0.727-0.416 0-0.132 0.093-0.265 0.264-0.265 0.132 0 0.238 0.086 0.291 0.218l0.45-0.443c-0.185-0.271-0.443-0.423-0.787-0.423-0.503 0-0.912 0.384-0.912 0.912 0 0.536 0.357 0.793 0.688 0.886 0.324 0.093 0.648 0.119 0.648 0.489 0 0.265-0.172 0.41-0.423 0.41-0.218 0-0.436-0.165-0.436-0.443h-0.694c0 0.628 0.45 1.131 1.131 1.131 0.668 0 1.15-0.45 1.15-1.111 0-0.562-0.304-0.82-0.641-0.945z"></path>
<path d="M15.788 18.878l-0.727 0.079v1.322h-0.668v0.688h0.668v2.618h0.727v-2.618h0.992v-0.688h-0.992z"></path>
<path d="M17.944 19.413c0 0.274-0.219 0.496-0.489 0.496s-0.489-0.222-0.489-0.496c0-0.274 0.219-0.496 0.489-0.496s0.489 0.222 0.489 0.496z"></path>
<path d="M17.091 20.28h0.727v3.306h-0.727v-3.306z"></path>
<path d="M20.43 20.28l-0.793 2.274-0.793-2.274h-0.78l1.217 3.306h0.714l1.216-3.306z"></path>
<path d="M23.603 20.623c-0.139-0.179-0.509-0.384-0.945-0.384-0.945 0-1.66 0.701-1.66 1.693s0.714 1.693 1.66 1.693c0.443 0 0.807-0.205 0.945-0.383v0.344h0.74v-3.306h-0.74v0.344zM22.684 22.924c-0.549 0-0.972-0.45-0.972-0.992s0.423-0.992 0.972-0.992c0.536 0 0.945 0.45 0.945 0.992s-0.41 0.992-0.945 0.992z"></path>
</symbol>
<symbol id="icon-inline-logo" viewBox="0 0 364 32">
<title>inline-logo</title>
<path d="M7.418 6.761c0.064-0.003 0.14-0.004 0.215-0.004 1.171 0 2.258 0.36 3.157 0.975l-0.019-0.012v-0.753h3.613v6.474c0.001 0.039 0.001 0.086 0.001 0.132 0 1.872-0.854 3.545-2.195 4.65l-0.010 0.008c1.896 1.319 3.121 3.486 3.121 5.94 0 0.015-0 0.029-0 0.044v-0.002c0.002 0.072 0.004 0.156 0.004 0.24 0 4.059-3.291 7.35-7.35 7.35-0.117 0-0.233-0.003-0.349-0.008l0.016 0.001c-0.088 0.004-0.191 0.006-0.294 0.006-3.693 0-6.756-2.699-7.324-6.232l-0.006-0.042h3.75c0.417 1.659 1.895 2.867 3.655 2.867 0.077 0 0.153-0.002 0.228-0.007l-0.010 0c0.039 0.001 0.084 0.002 0.129 0.002 2.147 0 3.887-1.74 3.887-3.887 0-0.078-0.002-0.155-0.007-0.232l0.001 0.011c0.006-0.079 0.009-0.171 0.009-0.264 0-2.124-1.722-3.846-3.846-3.846-0.061 0-0.122 0.001-0.182 0.004l0.009-0c-1.499 0.017-2.804 0.836-3.507 2.047l-0.011 0.020-2.737-2.601c0.434-0.562 0.972-1.022 1.589-1.356l0.026-0.013c-1.328-1.146-2.164-2.832-2.164-4.713 0-0.042 0-0.084 0.001-0.125l-0 0.006c-0.002-0.062-0.003-0.134-0.003-0.207 0-3.575 2.898-6.474 6.474-6.474 0.044 0 0.089 0 0.133 0.001l-0.007-0zM7.624 16.657c0.030 0.001 0.065 0.002 0.1 0.002 1.686 0 3.052-1.367 3.052-3.052 0-0.058-0.002-0.116-0.005-0.174l0 0.008c0.004-0.058 0.006-0.125 0.006-0.193 0-1.693-1.373-3.066-3.066-3.066-0.031 0-0.062 0-0.093 0.001l0.005-0c-0.039-0.002-0.084-0.003-0.129-0.003-1.693 0-3.066 1.373-3.066 3.066 0 0.068 0.002 0.136 0.007 0.204l-0-0.009c-0.002 0.046-0.004 0.099-0.004 0.153 0 1.693 1.373 3.066 3.066 3.066 0.045 0 0.089-0.001 0.133-0.003l-0.006 0z"></path>
<path d="M17.259 6.967h3.613v1.711c0.88-1.178 2.271-1.933 3.838-1.933 0.142 0 0.283 0.006 0.423 0.018l-0.018-0.001v3.49h-0.329c-0.036-0.001-0.079-0.002-0.122-0.002-2.101 0-3.805 1.704-3.805 3.805 0 0.107 0.004 0.212 0.013 0.317l-0.001-0.014v9.074h-3.613z"></path>
<path d="M28.975 16.424c0.454 2.156 2.34 3.75 4.599 3.75 0.014 0 0.029-0 0.043-0l-0.002 0c0.117 0.012 0.254 0.018 0.392 0.018 1.341 0 2.536-0.624 3.311-1.597l0.007-0.009h4.311c-1.314 2.97-4.236 5.005-7.632 5.005-0.137 0-0.273-0.003-0.408-0.010l0.019 0.001c-4.523-0.16-8.129-3.865-8.129-8.413 0-4.514 3.553-8.198 8.015-8.408l0.019-0.001c0.004 0 0.009 0 0.014 0 4.596 0 8.322 3.726 8.322 8.322 0 0.034-0 0.067-0.001 0.101l0-0.005c0 0.017 0 0.037 0 0.057 0 0.42-0.035 0.831-0.102 1.232l0.006-0.043zM29.139 13.208h8.746c-0.657-1.815-2.366-3.089-4.373-3.089s-3.716 1.274-4.363 3.057l-0.010 0.032z"></path>
<path d="M46.618 16.424c0.443 2.154 2.323 3.75 4.576 3.75 0.018 0 0.035-0 0.053-0l-0.003 0c0.117 0.012 0.254 0.018 0.392 0.018 1.341 0 2.536-0.624 3.311-1.597l0.007-0.009h4.311c-1.423 2.931-4.377 4.915-7.794 4.915-4.66 0-8.457-3.69-8.63-8.307l-0-0.016c-0.004-0.101-0.007-0.219-0.007-0.338 0-4.611 3.738-8.349 8.349-8.349s8.349 3.738 8.349 8.349c0 0.119-0.002 0.237-0.007 0.355l0.001-0.017c0 0.017 0 0.037 0 0.057 0 0.42-0.035 0.831-0.102 1.232l0.006-0.043zM46.782 13.208h8.732c-0.651-1.819-2.359-3.097-4.366-3.097s-3.715 1.278-4.356 3.065l-0.010 0.032z"></path>
<path d="M61.482 6.967h3.613v1.875c1.032-1.274 2.597-2.082 4.35-2.082 0.054 0 0.108 0.001 0.161 0.002l-0.008-0c4.106 0 6.31 2.409 6.31 6.843v9.855h-3.613v-9.143c0-2.888-1.218-4.106-3.572-4.106s-3.627 1.711-3.627 4.106v9.074h-3.613z"></path>
<path d="M86.419 6.967l1.081 3.408 1.095-3.408h3.545l-2.861 7.583 1.369 4.216 4.339-11.798h3.682l-6.474 16.424h-3.23l-1.465-4.229-1.369 4.298h-3.285l-6.474-16.424h3.682l4.339 11.798 1.369-4.216-2.888-7.651z"></path>
<path d="M101.844 0.192c1.347 0.008 2.436 1.102 2.436 2.45 0 0.005 0 0.010-0 0.014v-0.001c0 1.345-1.091 2.436-2.436 2.436s-2.436-1.091-2.436-2.436v0c-0-0.004-0-0.009-0-0.014 0-1.348 1.089-2.442 2.436-2.45h0.001zM100.038 7.035h3.613v16.424h-3.613z"></path>
<path d="M113.93 20.174c0.032 0.001 0.070 0.001 0.107 0.001 2.578 0 4.667-2.090 4.667-4.667 0-0.116-0.004-0.231-0.013-0.345l0.001 0.015h3.613c0 4.634-3.756 8.39-8.39 8.39s-8.39-3.756-8.39-8.39v0c-0.002-0.062-0.003-0.135-0.003-0.208 0-4.535 3.677-8.212 8.212-8.212 0.068 0 0.136 0.001 0.204 0.003l-0.010-0c0.053-0.001 0.115-0.002 0.178-0.002 2.294 0 4.363 0.961 5.827 2.503l0.003 0.004-2.655 2.395c-0.806-0.909-1.977-1.479-3.281-1.479-0.025 0-0.051 0-0.076 0.001l0.004-0c-0.033-0.001-0.071-0.001-0.11-0.001-2.563 0-4.64 2.077-4.64 4.64 0 0.126 0.005 0.25 0.015 0.373l-0.001-0.016c-0.009 0.107-0.014 0.231-0.014 0.357 0 2.563 2.077 4.64 4.64 4.64 0.039 0 0.077-0 0.115-0.001l-0.006 0z"></path>
<path d="M124.003 0.397l3.613-0.397v8.842c1.091-1.278 2.704-2.083 4.505-2.083 0.067 0 0.133 0.001 0.199 0.003l-0.010-0c3.914 0 6.31 2.409 6.31 6.843v9.855h-3.613v-9.143c0-2.559-1.081-4.106-3.586-4.106-0.012-0-0.027-0-0.042-0-2.086 0-3.778 1.691-3.778 3.778 0 0.116 0.005 0.23 0.015 0.343l-0.001-0.015v9.074h-3.613z"></path>
<path d="M156.592 20.174c0.032 0.001 0.070 0.001 0.107 0.001 2.578 0 4.667-2.090 4.667-4.667 0-0.116-0.004-0.231-0.013-0.345l0.001 0.015h3.613c0.004 0.101 0.007 0.22 0.007 0.339 0 4.641-3.762 8.404-8.404 8.404s-8.404-3.762-8.404-8.404c0-0.119 0.002-0.238 0.007-0.356l-0.001 0.017c-0.002-0.062-0.003-0.135-0.003-0.208 0-4.535 3.677-8.212 8.212-8.212 0.073 0 0.146 0.001 0.219 0.003l-0.011-0c0.053-0.001 0.115-0.002 0.178-0.002 2.294 0 4.363 0.961 5.827 2.503l0.003 0.004-2.655 2.395c-0.811-0.909-1.986-1.479-3.293-1.479-0.021 0-0.042 0-0.063 0l0.003-0c-0.017-0-0.036-0-0.056-0-2.555 0-4.626 2.071-4.626 4.626 0 0.13 0.005 0.259 0.016 0.387l-0.001-0.017c-0.009 0.111-0.015 0.24-0.015 0.37 0 2.555 2.071 4.626 4.626 4.626 0.020 0 0.039-0 0.059-0l-0.003 0z"></path>
<path d="M174.275 6.761c0.058-0.001 0.126-0.002 0.194-0.002 4.535 0 8.212 3.677 8.212 8.212 0 0.073-0.001 0.146-0.003 0.218l0-0.011c-0.187 4.501-3.881 8.078-8.411 8.078s-8.223-3.578-8.41-8.061l-0.001-0.017c-0.002-0.062-0.003-0.135-0.003-0.208 0-4.535 3.677-8.212 8.212-8.212 0.073 0 0.146 0.001 0.219 0.003l-0.011-0zM174.275 20.106c0.036 0.001 0.078 0.002 0.12 0.002 2.547 0 4.613-2.065 4.613-4.613 0-0.111-0.004-0.222-0.012-0.331l0.001 0.015c0.004-0.076 0.007-0.165 0.007-0.255 0-2.615-2.12-4.736-4.736-4.736s-4.736 2.12-4.736 4.736c0 0.090 0.002 0.178 0.007 0.267l-0.001-0.012c-0.006 0.091-0.010 0.196-0.010 0.303 0 2.555 2.071 4.626 4.626 4.626 0.042 0 0.084-0.001 0.126-0.002l-0.006 0z"></path>
<path d="M184.664 6.967h3.613v1.875c0.978-1.27 2.499-2.081 4.209-2.081 0.022 0 0.043 0 0.065 0l-0.003-0c0.079-0.005 0.171-0.007 0.264-0.007 1.703 0 3.195 0.904 4.022 2.259l0.012 0.021c1.161-1.393 2.896-2.273 4.837-2.273 0.046 0 0.092 0 0.138 0.002l-0.007-0c3.34 0 5.379 1.807 5.379 5.858v10.772h-3.613v-9.855c0-2.135-0.985-3.353-2.915-3.353-1.632 0-2.956 1.324-2.956 2.956 0 0.14 0.010 0.278 0.029 0.412l-0.002-0.016v9.855h-3.613v-9.855c0-2.135-1.013-3.353-2.929-3.353-1.627 0.008-2.942 1.329-2.942 2.956 0 0.14 0.010 0.278 0.029 0.412l-0.002-0.016v9.855h-3.613z"></path>
<path d="M212.818 16.424c0.454 2.156 2.34 3.75 4.599 3.75 0.014 0 0.029-0 0.043-0l-0.002 0c0.117 0.012 0.254 0.018 0.392 0.018 1.341 0 2.536-0.624 3.311-1.597l0.007-0.009h4.298c-1.411 2.954-4.374 4.958-7.805 4.958-4.672 0-8.476-3.716-8.619-8.353l-0-0.013c-0.004-0.101-0.007-0.219-0.007-0.338 0-4.611 3.738-8.349 8.349-8.349s8.349 3.738 8.349 8.349c0 0.119-0.002 0.237-0.007 0.355l0.001-0.017c0 0.017 0 0.037 0 0.057 0 0.42-0.035 0.831-0.102 1.232l0.006-0.043zM212.982 13.208h8.746c-0.657-1.815-2.366-3.089-4.373-3.089s-3.716 1.274-4.363 3.057l-0.010 0.032z"></path>
<path d="M239.699 23.391v-1.711c-1.227 1.178-2.897 1.903-4.736 1.903-0.034 0-0.067-0-0.101-0.001l0.005 0c-4.9 0-8.144-3.285-8.144-8.404s3.216-8.417 8.144-8.417c0.055-0.002 0.12-0.003 0.186-0.003 1.813 0 3.455 0.733 4.646 1.919l-0-0v-8.212l3.613-0.465v23.391zM235.032 10.252c-0.039-0.001-0.086-0.002-0.132-0.002-2.563 0-4.64 2.077-4.64 4.64 0 0.102 0.003 0.203 0.010 0.303l-0.001-0.014c0 2.623 2.126 4.749 4.749 4.749s4.749-2.126 4.749-4.749v0c0.006-0.091 0.010-0.196 0.010-0.303 0-2.555-2.071-4.626-4.626-4.626-0.042 0-0.084 0.001-0.126 0.002l0.006-0z"></path>
<path d="M247.993 6.967l4.106 9.581 4.106-9.581h3.75l-6.077 13.564v11.1l-3.613 0.397v-11.497l-6.009-13.536z"></path>
<path d="M270.563 4.462c-0.002-0.053-0.004-0.115-0.004-0.178 0-2.268 1.838-4.106 4.106-4.106 0.117 0 0.233 0.005 0.347 0.014l-0.015-0.001c0.078-0.005 0.168-0.008 0.26-0.008 1.315 0 2.492 0.591 3.28 1.521l0.005 0.006-2.423 2.395c-0.193-0.299-0.524-0.494-0.901-0.494-0.020 0-0.040 0.001-0.060 0.002l0.003-0c-0.006-0-0.013-0-0.020-0-0.537 0-0.972 0.435-0.972 0.972 0 0.039 0.002 0.077 0.007 0.114l-0-0.005v2.272h5.256v3.408h-5.256v13.016h-3.613v-13.016h-3.326v-3.408h3.326z"></path>
<path d="M283.073 16.424c0.443 2.154 2.323 3.75 4.576 3.75 0.018 0 0.035-0 0.053-0l-0.003 0c0.117 0.012 0.254 0.018 0.392 0.018 1.341 0 2.536-0.624 3.311-1.597l0.007-0.009h4.311c-1.423 2.931-4.377 4.915-7.794 4.915-4.66 0-8.457-3.69-8.63-8.307l-0-0.016c-0.004-0.101-0.007-0.219-0.007-0.338 0-4.611 3.738-8.349 8.349-8.349s8.349 3.738 8.349 8.349c0 0.119-0.002 0.237-0.007 0.355l0.001-0.017c0 0.017 0 0.037 0 0.057 0 0.42-0.035 0.831-0.102 1.232l0.006-0.043zM283.237 13.208h8.732c-0.651-1.819-2.359-3.097-4.366-3.097s-3.716 1.278-4.356 3.065l-0.010 0.032z"></path>
<path d="M300.168 17.971c-0 0.016-0.001 0.036-0.001 0.055 0 1.187 0.962 2.149 2.149 2.149 0.005 0 0.010-0 0.015-0h-0.001c0.059 0.006 0.127 0.010 0.196 0.010 1.058 0 1.916-0.858 1.916-1.916 0-0.047-0.002-0.093-0.005-0.139l0 0.006c0-1.848-1.615-1.971-3.216-2.436-1.973-0.447-3.424-2.186-3.424-4.263 0-0.046 0.001-0.091 0.002-0.137l-0 0.007c-0-0.020-0.001-0.045-0.001-0.069 0-2.472 2.004-4.476 4.476-4.476 0.019 0 0.039 0 0.058 0l-0.003-0c0.028-0.001 0.060-0.001 0.093-0.001 1.602 0 3.008 0.834 3.81 2.091l0.011 0.018-2.231 2.204c-0.208-0.62-0.776-1.062-1.449-1.081l-0.002-0c-0.030-0.002-0.065-0.004-0.1-0.004-0.703 0-1.273 0.57-1.273 1.273 0 0.035 0.001 0.070 0.004 0.104l-0-0.005c0 1.437 1.848 1.369 3.613 2.067 1.871 0.596 3.202 2.318 3.202 4.351 0 0.121-0.005 0.24-0.014 0.359l0.001-0.016c-0.027 3.109-2.554 5.619-5.666 5.619-3.13 0-5.667-2.537-5.667-5.667 0-0.017 0-0.034 0-0.050l-0 0.003z"></path>
<path d="M310.953 0.397l3.613-0.397v6.967h4.927v3.408h-4.927v13.016h-3.613v-13.016h-3.312v-3.408h3.312z"></path>
<path d="M322.628 0.192c0 0 0 0 0 0 1.346 0 2.436 1.091 2.436 2.436 0 0.010-0 0.019-0 0.029v-0.001c0.004 0.055 0.007 0.118 0.007 0.182 0 1.345-1.091 2.436-2.436 2.436s-2.436-1.091-2.436-2.436c0-0.064 0.002-0.128 0.007-0.191l-0.001 0.008c-0-0.008-0-0.018-0-0.027 0-1.341 1.083-2.429 2.422-2.436h0.001zM320.821 7.035h3.559v16.424h-3.559z"></path>
<path d="M329.211 6.967l3.942 11.305 3.942-11.305h3.873l-6.050 16.424h-3.545l-6.050-16.424z"></path>
<path d="M356.845 6.967v16.424h-3.723v-1.711c-1.139 1.176-2.732 1.906-4.495 1.906-0.070 0-0.14-0.001-0.209-0.003l0.010 0c-0.047 0.001-0.102 0.002-0.158 0.002-4.452 0-8.062-3.609-8.062-8.062 0-0.121 0.003-0.241 0.008-0.361l-0.001 0.017c-0.005-0.102-0.007-0.223-0.007-0.343 0-4.46 3.615-8.075 8.075-8.075 0.051 0 0.101 0 0.152 0.001l-0.008-0c0.047-0.001 0.103-0.002 0.158-0.002 1.779 0 3.386 0.734 4.535 1.917l0.001 0.002v-1.711zM348.633 10.252c-2.721 0-4.927 2.206-4.927 4.927s2.206 4.927 4.927 4.927v0c2.605-0.053 4.697-2.177 4.697-4.79 0-0.048-0.001-0.097-0.002-0.145l0 0.007c0.001-0.041 0.002-0.089 0.002-0.137 0-2.622-2.107-4.753-4.72-4.79l-0.004-0z"></path>
<path d="M359.966 0.397l3.545-0.397v23.391h-3.545z"></path>
</symbol>
<symbol id="icon-ents-24" viewBox="0 0 32 32">
<title>ents-24</title>
<path d="M15.527 12.001h1.084c-0.183 0.353-0.437 0.679-0.396 1.116 0.045 0.485 0.080 0.973 0.109 1.461 0.021 0.373 0.209 0.631 0.519 0.824 0.449 0.283 0.903 0.561 1.332 0.872 0.148 0.108 0.303 0.297 0.329 0.467 0.081 0.513 0.109 1.033 0.14 1.553 0.016 0.261-0.176 0.419-0.408 0.323-0.104-0.043-0.208-0.204-0.224-0.324-0.065-0.477-0.097-0.957-0.144-1.485-0.425 0.149-0.799 0.265-1.157 0.419-0.081 0.033-0.153 0.2-0.148 0.301 0.015 0.383 0.047 0.764 0.101 1.143 0.096 0.667 0.647 1.183 1.315 1.227 0.263 0.017 0.531-0.011 0.793-0.045 0.757-0.101 1.312-0.787 1.259-1.551-0.036-0.508-0.109-1.017-0.111-1.525-0.001-0.701-0.268-1.204-0.924-1.487-0.096-0.041-0.181-0.109-0.269-0.168-1.203-0.783-0.996-0.404-1.128-1.827-0.024-0.251 0.024-0.431 0.303-0.453 0.276-0.021 0.331 0.175 0.349 0.393l0.065 0.763c0.392-0.135 0.728-0.257 1.069-0.363 0.2-0.063 0.24-0.184 0.243-0.383 0.007-0.468-0.152-0.872-0.404-1.251h10.076c0.236 0.101 0.499 0.196 0.504 0.503 0.012 0.953 0.004 1.905 0.004 2.852-0.481 0.121-0.719 0.353-0.727 0.715-0.009 0.481 0.3 0.691 0.729 0.792v2.429c0 0.696-0.173 0.871-0.857 0.871h-14.492c0.080-0.045 0.161-0.053 0.243-0.057 0.413-0.024 0.417-0.024 0.387-0.423l-0.371-4.667-0.127-1.713c0.241-0.019 0.441-0.041 0.641-0.045 0.249-0.008 0.356-0.097 0.319-0.372-0.039-0.289-0.019-0.588-0.025-0.883l0.001 0.001zM25.643 13.473c-1.523-0.001-2.747 1.229-2.743 2.757 0.004 1.495 1.256 2.727 2.757 2.716s2.741-1.257 2.733-2.747c-0.008-1.503-1.241-2.725-2.748-2.725v-0.001zM12.976 12.001c-0.197 0.035-0.395 0.080-0.593 0.097-0.193 0.017-0.257 0.108-0.237 0.292 0.028 0.285 0.051 0.571 0.068 0.857 0.011 0.181 0.108 0.236 0.275 0.22l0.725-0.057 0.541 6.737h-1.8l-0.191-2.351c-0.143-1.757-0.289-3.513-0.417-5.273-0.023-0.296-0.143-0.359-0.403-0.319-0.22 0.033-0.444 0.048-0.667 0.053-0.247 0.007-0.328 0.109-0.307 0.357 0.085 0.952 0.156 1.907 0.231 2.859 0.012 0.156 0.023 0.311-0.020 0.481l-0.319-0.744c-0.347-0.833-0.696-1.663-1.033-2.501-0.093-0.231-0.219-0.324-0.481-0.296-0.791 0.084-0.777 0.073-0.711 0.873 0.187 2.233 0.364 4.467 0.544 6.701v0.147h-0.983l-0.029-0.403c-0.025-0.397-0.051-0.416-0.436-0.38-0.348 0.033-0.697 0.056-1.088 0.085l-0.196-2.364c0.363-0.033 0.699-0.075 1.036-0.091 0.211-0.009 0.28-0.099 0.259-0.299-0.031-0.275-0.056-0.551-0.067-0.827-0.008-0.201-0.104-0.253-0.287-0.237l-1.045 0.077-0.136-1.655c0.408-0.035 0.796-0.072 1.185-0.096 0.207-0.013 0.311-0.087 0.281-0.315-0.035-0.273-0.055-0.551-0.067-0.827-0.008-0.201-0.109-0.251-0.289-0.236-0.783 0.067-1.565 0.128-2.349 0.187-0.201 0.015-0.239 0.128-0.224 0.303 0.116 1.385 0.229 2.773 0.34 4.16 0.077 0.963 0.149 1.925 0.227 2.921-0.624 0-1.227 0.019-1.825-0.008-0.277-0.012-0.472-0.281-0.475-0.593-0.008-0.851-0.007-1.7 0.004-2.551 0.001-0.076 0.084-0.181 0.157-0.22 0.283-0.147 0.443-0.368 0.439-0.683-0.003-0.303-0.151-0.539-0.435-0.647-0.176-0.067-0.171-0.183-0.171-0.323 0.003-0.776 0.021-1.552-0.007-2.327-0.015-0.412 0.121-0.673 0.516-0.797 3.487-0.001 6.973-0.001 10.459-0.001l0.001 0.001zM9.34 16.679l1.429 3.468h-1.199l-0.276-3.451 0.045-0.017zM26.932 17.751h-0.484l-0.031-0.619h-0.803c0.065-0.275 0.107-0.496 0.173-0.708 0.188-0.593 0.387-1.183 0.592-1.813h0.588c0 0.445-0.019 0.887 0.007 1.327 0.016 0.268-0.151 0.588 0.191 0.795 0.048 0.029 0.047 0.273 0.004 0.296-0.313 0.163-0.144 0.472-0.236 0.723v0zM26.413 16.639v-0.907l-0.296 0.907h0.296zM24.639 17.271h0.756v0.493c-0.372 0-0.74 0.009-1.107-0.011-0.053-0.003-0.139-0.139-0.147-0.217-0.041-0.489 0.196-0.893 0.487-1.245 0.255-0.309 0.309-0.637 0.268-1.003-0.009-0.081-0.088-0.156-0.135-0.233-0.044 0.071-0.128 0.141-0.123 0.207 0.025 0.383-0.285 0.285-0.521 0.393 0-0.221-0.019-0.409 0.003-0.593 0.039-0.343 0.288-0.519 0.687-0.507 0.361 0.011 0.583 0.215 0.609 0.559 0.041 0.532-0.007 1.032-0.383 1.463-0.153 0.176-0.237 0.412-0.395 0.693h-0.001z"></path>
</symbol>
<symbol id="icon-heineken" viewBox="0 0 32 32">
<title>heineken</title>
<path d="M13.218 15.417v3.896h0.835v-2.157c0.173 0.127 1.26 2.082 1.461 2.157h0.661c0.143-0.026 0.211-0.144 0.209-0.348v-3.664h-0.87c0 0.46-0.042 1.716 0.035 2.099-0.095-0.034-0.062 0.001-0.207-0.245l-0.573-0.888c-0.542-0.857-0.471-0.954-1.446-0.954-0.080 0-0.104 0.024-0.104 0.104z"></path>
<path d="M28.681 19.301h0.828l-0.028-2.157c0.199 0.134 0.921 1.527 1.496 2.157h0.617c0.159-0.021 0.217-0.093 0.22-0.311 0.007-0.468-0.074-3.195-0.007-3.354 0.039-0.129 0.118-0.143 0.158-0.155l0.009-0.181h-0.997v2.087c-0.096-0.070-1.108-1.696-1.133-1.72-0.14-0.216-0.334-0.351-0.607-0.368h-0.557v4.001z"></path>
<path d="M20.976 15.417v3.687c0 0.128 0.131 0.185 0.311 0.209h0.803v-1.67c0.145 0.039 0.059 0.018 0.222 0.265l0.612 0.953c0.231 0.329 0.369 0.427 0.645 0.452h0.76c0.062 0 0.127 0 0.196 0-0.029-0.124-1.422-2.248-1.496-2.366 0.053-0.035 0.299-0.319 0.348-0.383 0.116-0.153 0.248-0.242 0.368-0.397 0.077-0.1 0.104-0.116 0.178-0.204l0.497-0.651c-1.176 0-0.95-0.153-1.854 0.929-0.117 0.14-0.33 0.356-0.477 0.463v-1.392h-1.009c-0.080 0-0.104 0.024-0.104 0.104z"></path>
<path d="M7.443 18.965c-0.013 0.256 0.113 0.34 0.383 0.348h2.018c0.135-0.002 0.215-0.086 0.244-0.244v-0.487h-1.322c-0.12 0.007-0.194-0.034-0.209-0.139v-0.835h1.218v-0.765h-1.218v-0.765h1.531c0-0.409 0.088-0.689-0.209-0.765h-2.435v3.653z"></path>
<path d="M11.061 19.139c0 0.112 0.126 0.174 0.244 0.174h0.835v-4.001h-1.078v3.827z"></path>
<path d="M17.461 18.965c-0.013 0.256 0.113 0.34 0.383 0.348h2.018c0.135-0.002 0.215-0.086 0.244-0.244v-0.487h-1.322c-0.119 0.007-0.194-0.034-0.209-0.139v-0.835h1.218v-0.765h-1.218v-0.765h1.531c0-0.409 0.088-0.689-0.209-0.765h-2.435v3.653z"></path>
<path d="M25.067 18.965c-0.013 0.256 0.113 0.34 0.383 0.348h2.018c0.135-0.002 0.215-0.086 0.243-0.244v-0.487h-1.322c-0.119 0.007-0.194-0.034-0.209-0.139v-0.835h1.218v-0.765h-1.218v-0.765h1.531c0-0.409 0.088-0.689-0.209-0.765h-2.435v3.653z"></path>
<path d="M3.247 15.684l-0.015 3.57h1.088v-1.728l0.943-0.002-0.004 1.73h1.078v-3.953h-1.078v1.426c0.006 0.067-0.029 0.109-0.104 0.104h-0.731c-0.070 0.002-0.104-0.034-0.104-0.104v-1.426h-1.252c-0.017 0.266 0.188 0.149 0.18 0.383z"></path>
<path d="M1.561 14.571l0.764 0.569-0.3 1.040c-0.297 0.211-0.6 0.422-0.89 0.632-0.111 0.035-0.11-0.057-0.054-0.214l0.504-1.597c-0.504-0.375-1.007-0.75-1.511-1.125-0.051-0.042-0.044-0.106 0.096-0.107l1.833 0.021c0.186-0.568 0.372-1.136 0.557-1.704 0.038-0.107 0.108-0.091 0.139-0.011l0.557 1.736h1.882c0.053-0.001 0.064 0.040 0.024 0.071l-0.92 0.658h-1.040l-0.286-0.882c-0.019-0.051-0.052-0.050-0.069 0.001l-0.299 0.87-0.98 0.005c-0.045-0.001-0.044 0.016-0.009 0.037z"></path>
</symbol>
<symbol id="icon-see-tickets" viewBox="0 0 32 32">
<title>see-tickets</title>
<path d="M24.225 15.779c-0.235-0.353-0.647-0.531-1.175-0.531-0.704 0-1.673 0.561-1.673 1.771 0 0.117 0 0.265 0.031 0.413l2.817-1.653zM23.227 21c-1.879 0-3.639-1.447-3.639-3.659 0-2.065 1.409-3.745 3.581-3.745 1.789 0 3.139 1.504 3.139 2.655l-4.255 2.508c0.352 0.412 0.939 0.531 1.497 0.531 0.527 0 1.379-0.267 2.467-1.061l-0.383 2.067c-0.675 0.471-1.556 0.708-2.405 0.708v0zM17.064 15.779c-0.235-0.353-0.647-0.531-1.173-0.531-0.704 0-1.673 0.561-1.673 1.771 0 0.117 0 0.265 0.029 0.413l2.819-1.653zM16.067 21c-1.879 0-3.639-1.447-3.639-3.659 0-2.065 1.408-3.745 3.579-3.745 1.789 0 3.139 1.504 3.139 2.655l-4.255 2.508c0.353 0.412 0.939 0.531 1.497 0.531 0.528 0 1.38-0.267 2.465-1.061l-0.383 2.067c-0.675 0.471-1.555 0.708-2.407 0.708v0zM5.591 18.257c0.881 0.679 1.703 1.003 2.495 1.003 1.173 0 1.615-0.501 1.615-1.121 0-0.441-0.263-0.825-1.379-1.593-0.911-0.619-1.849-1.535-1.849-2.773 0-1.444 1.027-2.772 3.287-2.772 0.88 0 1.996 0.324 2.817 0.827l-0.411 1.709c-0.793-0.561-1.615-0.797-2.289-0.797-0.851 0-1.379 0.296-1.379 0.944 0 0.472 0.411 0.855 1.379 1.504 1.201 0.856 1.907 1.681 1.907 2.832 0 1.623-1.32 2.981-3.521 2.981-1.233 0-2.289-0.355-3.081-0.944l0.411-1.799z"></path>
</symbol>
<symbol id="icon-57-festivals" viewBox="0 0 32 32">
<title>57-festivals</title>
<path d="M11.743 14.239c0-1.047-0.371-1.94-1.111-2.68s-1.635-1.111-2.681-1.111c0-0.493 0-0.928 0-1.305 0-0.388 0-0.717 0-0.987 0-0.224 0-0.416 0-0.583 0-0.164 0-0.305 0-0.423 0-0.481 0-0.757 0-0.829s0-0.376 0-0.917c0.999 0 2.491 0 4.479 0 0 0.152 0 0.388 0 0.705-0.835 0-2.092 0-3.772 0 0 0.823 0 2.057 0 3.703 1.069 0.165 1.963 0.665 2.68 1.497 0.729 0.835 1.093 1.811 1.093 2.927 0 0.436-0.060 0.852-0.176 1.251-0.117 0.399-0.281 0.769-0.493 1.111-0.4 0.636-0.935 1.147-1.604 1.535-0.671 0.388-1.405 0.583-2.205 0.583v-0.705c1.047 0 1.94-0.364 2.68-1.093 0.741-0.74 1.112-1.633 1.112-2.68z"></path>
<path d="M23.325 11.137c-1.293 2.645-3.227 6.617-5.8 11.917-0.176 0-0.436 0-0.775 0 1.352-2.809 3.391-7.017 6.117-12.623-1.528 0-3.832 0-6.911 0 0-0.152 0-0.381 0-0.688 1.445 0 3.608 0 6.487 0 0.353 0 0.869 0 1.552 0-0.152 0.307-0.376 0.771-0.669 1.393z"></path>
<path d="M8.004 24.419h1.163v0.227h-0.909v0.731h0.849v0.227h-0.849v0.955h-0.253v-2.139z"></path>
<path d="M9.889 24.419h1.163v0.227h-0.909v0.7h0.833v0.227h-0.833v0.76h0.924v0.227h-1.179v-2.14z"></path>
<path d="M12.796 26.013c0-0.085-0.027-0.156-0.077-0.209s-0.115-0.101-0.191-0.144c-0.077-0.043-0.16-0.081-0.248-0.117-0.091-0.036-0.173-0.081-0.248-0.133-0.077-0.052-0.14-0.116-0.191-0.193s-0.077-0.175-0.077-0.292c0-0.167 0.059-0.299 0.175-0.396s0.281-0.147 0.495-0.147c0.125 0 0.236 0.009 0.339 0.028s0.181 0.043 0.239 0.069l-0.077 0.227c-0.047-0.023-0.116-0.045-0.207-0.067-0.091-0.020-0.193-0.032-0.307-0.032-0.135 0-0.235 0.031-0.301 0.091s-0.1 0.131-0.1 0.212c0 0.080 0.027 0.145 0.077 0.199 0.051 0.052 0.115 0.1 0.191 0.143s0.16 0.083 0.248 0.124c0.089 0.040 0.173 0.088 0.248 0.143 0.077 0.053 0.14 0.119 0.191 0.195s0.077 0.168 0.077 0.281c0 0.092-0.016 0.175-0.049 0.247s-0.080 0.136-0.144 0.189c-0.063 0.052-0.14 0.095-0.229 0.121-0.091 0.029-0.192 0.043-0.305 0.043-0.152 0-0.279-0.012-0.379-0.035s-0.177-0.049-0.232-0.079l0.085-0.227c0.047 0.027 0.116 0.051 0.208 0.076s0.195 0.037 0.308 0.037c0.067 0 0.131-0.007 0.189-0.020 0.060-0.013 0.111-0.035 0.152-0.064s0.077-0.067 0.101-0.112c0.028-0.040 0.040-0.095 0.040-0.156z"></path>
<path d="M15.137 24.645h-0.665v1.912h-0.253v-1.912h-0.665v-0.227h1.585v0.227z"></path>
<path d="M15.816 24.419h0.255v2.139h-0.255v-2.139z"></path>
<path d="M17.508 25.888l0.075 0.324h0.003l0.080-0.329 0.513-1.463h0.255l-0.808 2.172h-0.113l-0.824-2.172h0.277l0.544 1.469z"></path>
<path d="M19.869 25.964h-0.784l-0.213 0.592h-0.255l0.808-2.172h0.116l0.813 2.172h-0.268l-0.217-0.592zM19.168 25.744h0.625l-0.236-0.651-0.076-0.324h-0.003l-0.076 0.329-0.235 0.644z"></path>
<path d="M22.209 26.556h-1.264v-2.137h0.255v1.912h1.011v0.225z"></path>
<path d="M23.795 26.013c0-0.085-0.027-0.156-0.077-0.209s-0.115-0.101-0.191-0.144c-0.077-0.043-0.16-0.081-0.248-0.117s-0.173-0.081-0.248-0.133c-0.077-0.052-0.14-0.116-0.191-0.193s-0.077-0.175-0.077-0.292c0-0.167 0.059-0.299 0.175-0.396s0.281-0.147 0.495-0.147c0.125 0 0.236 0.009 0.34 0.028 0.101 0.019 0.181 0.043 0.239 0.069l-0.077 0.227c-0.047-0.023-0.116-0.045-0.207-0.067-0.089-0.020-0.193-0.032-0.307-0.032-0.135 0-0.235 0.031-0.301 0.091s-0.1 0.131-0.1 0.212c0 0.080 0.027 0.145 0.077 0.199 0.051 0.052 0.115 0.1 0.191 0.143 0.077 0.043 0.16 0.083 0.248 0.124 0.089 0.040 0.173 0.088 0.248 0.143 0.077 0.053 0.14 0.119 0.191 0.195s0.077 0.168 0.077 0.281c0 0.092-0.016 0.175-0.049 0.247-0.032 0.072-0.080 0.136-0.144 0.189-0.063 0.052-0.14 0.095-0.229 0.121-0.089 0.029-0.192 0.043-0.305 0.043-0.152 0-0.279-0.012-0.379-0.035s-0.177-0.049-0.232-0.079l0.085-0.227c0.047 0.027 0.116 0.051 0.208 0.076s0.195 0.037 0.308 0.037c0.067 0 0.131-0.007 0.189-0.020 0.060-0.013 0.111-0.035 0.152-0.064s0.077-0.067 0.101-0.112c0.027-0.040 0.039-0.095 0.039-0.156z"></path>
</symbol>
</defs>
</svg>
