<svg style="position: absolute; width: 0; height: 0; overflow: hidden;" version="1.1" xmlns="http://www.w3.org/2000/svg" xmlns:xlink="http://www.w3.org/1999/xlink">
<defs>
<symbol id="icon-arrow-left" viewBox="0 0 32 32">
<title>arrow-left</title>
<path d="M29.334 15.166h-23.474l4.658-4.658-1.184-1.174-6.666 6.666 6.666 6.666 1.174-1.174-4.65-4.658h23.474v-1.666z"></path>
</symbol>
<symbol id="icon-arrow-right" viewBox="0 0 32 32">
<title>arrow-right</title>
<path d="M2.666 16.834h23.474l-4.658 4.658 1.184 1.174 6.666-6.666-6.666-6.666-1.174 1.174 4.65 4.658h-23.476v1.666z"></path>
</symbol>
<symbol id="icon-facebook" viewBox="0 0 32 32">
<title>facebook</title>
<path d="M19 6h5v-6h-5c-3.86 0-7 3.14-7 7v3h-4v6h4v16h6v-16h5l1-6h-6v-3c0-0.542 0.458-1 1-1z"></path>
</symbol>
<symbol id="icon-festivals" viewBox="0 0 32 32">
<title>festivals</title>
<path d="M11.742 14.24c0-1.046-0.37-1.94-1.11-2.68s-1.634-1.11-2.682-1.11c0-0.494 0-0.928 0-1.304 0-0.388 0-0.718 0-0.988 0-0.224 0-0.416 0-0.582s0-0.304 0-0.422c0-0.482 0-0.758 0-0.828s0-0.376 0-0.918c0.998 0 2.49 0 4.478 0 0 0.152 0 0.388 0 0.706-0.834 0-2.092 0-3.772 0 0 0.824 0 2.056 0 3.702 1.070 0.166 1.962 0.664 2.68 1.498 0.728 0.834 1.092 1.81 1.092 2.926 0 0.436-0.060 0.852-0.176 1.252s-0.282 0.77-0.494 1.11c-0.4 0.636-0.934 1.146-1.604 1.534s-1.406 0.582-2.206 0.582v-0.706c1.046 0 1.94-0.364 2.68-1.092 0.742-0.74 1.112-1.632 1.112-2.68z"></path>
<path d="M23.324 11.138c-1.294 2.644-3.226 6.618-5.8 11.918-0.176 0-0.436 0-0.776 0 1.352-2.808 3.39-7.016 6.118-12.622-1.528 0-3.832 0-6.91 0 0-0.152 0-0.382 0-0.688 1.446 0 3.608 0 6.488 0 0.352 0 0.87 0 1.552 0-0.152 0.306-0.376 0.77-0.67 1.394z"></path>
<path d="M8.004 24.42h1.162v0.226h-0.908v0.73h0.85v0.226h-0.85v0.956h-0.254v-2.138z"></path>
<path d="M9.888 24.42h1.162v0.226h-0.908v0.7h0.834v0.226h-0.834v0.76h0.924v0.226h-1.178v-2.14z"></path>
<path d="M12.796 26.014c0-0.086-0.026-0.156-0.076-0.208s-0.114-0.102-0.19-0.144c-0.076-0.042-0.16-0.082-0.248-0.118s-0.172-0.082-0.248-0.134c-0.076-0.052-0.14-0.116-0.19-0.194s-0.076-0.174-0.076-0.292c0-0.166 0.058-0.298 0.174-0.396s0.282-0.146 0.494-0.146c0.124 0 0.236 0.008 0.338 0.028s0.182 0.042 0.238 0.070l-0.076 0.226c-0.046-0.024-0.116-0.046-0.206-0.066s-0.194-0.032-0.306-0.032c-0.134 0-0.236 0.030-0.302 0.090s-0.1 0.13-0.1 0.212c0 0.080 0.026 0.146 0.076 0.198s0.114 0.1 0.19 0.142c0.076 0.042 0.16 0.082 0.248 0.124s0.172 0.088 0.248 0.142c0.076 0.054 0.14 0.118 0.19 0.194s0.076 0.168 0.076 0.282c0 0.092-0.016 0.174-0.050 0.246s-0.080 0.136-0.144 0.188c-0.062 0.052-0.14 0.094-0.23 0.122s-0.192 0.042-0.304 0.042c-0.152 0-0.278-0.012-0.378-0.034s-0.178-0.050-0.232-0.078l0.086-0.226c0.046 0.026 0.116 0.050 0.208 0.076s0.194 0.038 0.308 0.038c0.066 0 0.13-0.008 0.188-0.020s0.11-0.034 0.152-0.064 0.076-0.066 0.102-0.112c0.028-0.040 0.040-0.094 0.040-0.156z"></path>
<path d="M15.138 24.646h-0.664v1.912h-0.254v-1.912h-0.664v-0.226h1.586v0.226z"></path>
<path d="M15.816 24.42h0.254v2.138h-0.254v-2.138z"></path>
<path d="M17.508 25.888l0.074 0.324h0.002l0.080-0.33 0.514-1.464h0.254l-0.808 2.172h-0.114l-0.824-2.172h0.278l0.544 1.47z"></path>
<path d="M19.87 25.964h-0.784l-0.214 0.592h-0.254l0.808-2.172h0.116l0.812 2.172h-0.268l-0.218-0.592zM19.168 25.744h0.626l-0.236-0.65-0.076-0.324h-0.002l-0.076 0.33-0.236 0.644z"></path>
<path d="M22.21 26.556h-1.264v-2.136h0.254v1.912h1.010v0.226z"></path>
<path d="M23.796 26.014c0-0.086-0.026-0.156-0.076-0.208s-0.114-0.102-0.19-0.144c-0.076-0.042-0.16-0.082-0.248-0.118s-0.172-0.082-0.248-0.134c-0.076-0.052-0.14-0.116-0.19-0.194s-0.076-0.174-0.076-0.292c0-0.166 0.058-0.298 0.174-0.396s0.282-0.146 0.496-0.146c0.124 0 0.236 0.008 0.34 0.028s0.182 0.042 0.238 0.070l-0.076 0.226c-0.046-0.024-0.116-0.046-0.206-0.066s-0.194-0.032-0.306-0.032c-0.136 0-0.236 0.030-0.302 0.090s-0.1 0.13-0.1 0.212c0 0.080 0.026 0.146 0.076 0.198s0.114 0.1 0.19 0.142c0.076 0.042 0.16 0.082 0.248 0.124s0.172 0.088 0.248 0.142c0.076 0.054 0.14 0.118 0.19 0.194s0.076 0.168 0.076 0.282c0 0.092-0.016 0.174-0.050 0.246s-0.080 0.136-0.144 0.188c-0.062 0.052-0.14 0.094-0.23 0.122s-0.192 0.042-0.304 0.042c-0.152 0-0.278-0.012-0.378-0.034s-0.178-0.050-0.232-0.078l0.086-0.226c0.046 0.026 0.116 0.050 0.208 0.076s0.194 0.038 0.308 0.038c0.066 0 0.13-0.008 0.188-0.020s0.11-0.034 0.152-0.064 0.076-0.066 0.102-0.112c0.026-0.040 0.040-0.094 0.040-0.156z"></path>
</symbol>
<symbol id="icon-flag" viewBox="0 0 32 32">
<title>flag</title>
<path d="M21.64 9.812c-0.016-0.568-0.612-0.866-1.172-0.76-0.34 0.064-0.774 0.112-1.046-0.042-0.598-0.34-1.214-0.734-1.656-1.25-1.676-1.956-2.792-1.754-5.032-1.1-0.2 0.060-0.446 0.438-0.436 0.658 0.054 1.214 0.182 2.424 0.286 3.636 0.020 0.368 0.056 0.74 0.056 1.108 0 1.426-0.008 2.85-0.022 4.274-0.018 1.958-0.044 8.964-0.068 10.926 0.050 0.078 0.088 0.168 0.154 0.226 0.158 0.138 0.326 0.26 0.492 0.388 0.132-0.188 0.298-0.36 0.382-0.566 0.082-0.202 0.076-0.44 0.11-0.664-0.004-2.67-0.006-10.386-0.010-13.054 0.66-0.4 1.358-0.776 2.112-0.352 0.88 0.492 1.726 1.052 2.542 1.644 0.726 0.524 2.334 0.586 3.010 0.008 0.156-0.134 0.3-0.382 0.304-0.578 0.024-1.5 0.036-3-0.004-4.5z"></path>
<path d="M12.85 5.924c0.532-0.070 0.82-0.398 0.824-0.802-0.010-0.658-0.38-1.004-0.902-0.996-0.478 0.008-0.902 0.432-0.888 0.89 0.014 0.482 0.504 0.97 0.968 0.908z"></path>
</symbol>
<symbol id="icon-footer" viewBox="0 0 32 32">
<title>footer</title>
<path fill="#9b9b9b" style="fill: var(--color1, #9b9b9b)" d="M21.47 9.745c-0.017-0.572-0.695-0.875-1.331-0.768-0.386 0.066-0.881 0.115-1.188-0.041-0.68-0.344-1.378-0.742-1.88-1.263-1.903-1.975-3.168-1.773-5.713-1.111-0.228 0.058-0.508 0.442-0.497 0.664 0.062 1.227 0.207 2.449 0.324 3.674 0.023 0.375 0.064 0.747 0.064 1.12 0 1.44-0.009 2.88-0.024 4.32-0.021 1.98-0.049 9.060-0.075 11.040 0.056 0.077 0.1 0.169 0.175 0.228 0.179 0.137 0.373 0.264 0.559 0.392 0.147-0.188 0.339-0.363 0.433-0.57s0.087-0.446 0.126-0.67c-0.006-2.697-0.008-10.498-0.011-13.193 0.749-0.405 1.542-0.783 2.398-0.358 0.998 0.499 1.96 1.064 2.888 1.66 0.824 0.529 2.647 0.595 3.416 0.009 0.177-0.136 0.343-0.386 0.346-0.585 0.026-1.517 0.038-3.032-0.006-4.55-0.004 0-0.004 0.002-0.004 0.002z"></path>
<path fill="#9b9b9b" style="fill: var(--color1, #9b9b9b)" d="M11.49 5.815c0.604-0.070 0.932-0.401 0.936-0.811-0.011-0.663-0.431-1.015-1.024-1.007-0.544 0.009-1.026 0.437-1.009 0.902 0.017 0.489 0.57 0.983 1.097 0.917v0 0z"></path>
<path fill="#fff" style="fill: var(--color2, #fff)" d="M3.923 11.96c-0.297 0.367-0.745 0.546-1.227 0.546-1.071 0-1.871-0.86-1.871-1.926s0.8-1.926 1.871-1.926c0.612 0 1.097 0.277 1.438 0.693l-0.422 0.422c-0.228-0.329-0.557-0.54-1.016-0.54-0.736 0-1.254 0.595-1.254 1.352s0.52 1.352 1.254 1.352c0.661 0 1.114-0.427 1.227-1.082h-1.25v-0.572h1.811v2.195h-0.561v-0.512z"></path>
<path fill="#fff" style="fill: var(--color2, #fff)" d="M6.244 8.687c0.6 0 1.086 0.39 1.086 1.082 0 0.606-0.395 0.968-0.86 1.060l0.86 1.643h-0.691l-0.811-1.621h-0.087v1.623h-0.606v-3.787h1.109zM5.741 10.278h0.508c0.324 0 0.488-0.216 0.488-0.508s-0.162-0.508-0.488-0.508h-0.508v1.016z"></path>
<path fill="#fff" style="fill: var(--color2, #fff)" d="M7.889 8.687h2.374v0.574h-1.768v1.016h0.86v0.572h-0.86v1.048h1.801v0.574h-2.408v-3.785z"></path>
<path fill="#fff" style="fill: var(--color2, #fff)" d="M10.822 8.687h2.374v0.574h-1.768v1.016h0.86v0.572h-0.86v1.048h1.801v0.574h-2.408v-3.785z"></path>
<path fill="#fff" style="fill: var(--color2, #fff)" d="M13.754 8.687h0.67l1.218 2.607v-2.607h0.606v3.785h-0.67l-1.218-2.605v2.607h-0.606v-3.787z"></path>
<path fill="#fff" style="fill: var(--color2, #fff)" d="M18.754 8.687l0.384 1.152 0.384-1.152h0.606l-0.693 2.012 0.329 0.964 1.071-2.974h0.638l-1.406 3.785h-0.606l-0.324-0.936-0.326 0.934h-0.604l-1.406-3.785h0.638l1.071 2.974 0.329-0.962-0.693-2.012h0.606z"></path>
<path fill="#fff" style="fill: var(--color2, #fff)" d="M23.456 9.261h-0.574v2.639h0.574v0.574h-1.752v-0.574h0.574v-2.639h-0.574v-0.574h1.752v0.574z"></path>
<path fill="#fff" style="fill: var(--color2, #fff)" d="M25.619 11.932c0.736 0 1.256-0.574 1.256-1.352h0.616c0 1.065-0.8 1.926-1.871 1.926s-1.871-0.86-1.871-1.926 0.8-1.926 1.871-1.926c0.612 0 1.097 0.277 1.438 0.693l-0.422 0.422c-0.228-0.329-0.557-0.54-1.016-0.54-0.736 0-1.254 0.595-1.254 1.352s0.518 1.352 1.254 1.352z"></path>
<path fill="#fff" style="fill: var(--color2, #fff)" d="M28.595 8.687v1.591h1.282v-1.591h0.606v3.785h-0.606v-1.621h-1.282v1.623h-0.604v-3.787h0.604z"></path>
<path fill="#fff" style="fill: var(--color2, #fff)" d="M6.948 17.344c0.736 0 1.256-0.574 1.256-1.352h0.616c0 1.065-0.8 1.926-1.871 1.926s-1.871-0.86-1.871-1.926 0.8-1.926 1.871-1.926c0.612 0 1.097 0.277 1.438 0.693l-0.422 0.42c-0.228-0.329-0.557-0.54-1.016-0.54-0.736 0-1.254 0.595-1.254 1.352s0.518 1.353 1.254 1.353z"></path>
<path fill="#fff" style="fill: var(--color2, #fff)" d="M11.096 17.916c-1.071 0-1.871-0.86-1.871-1.926s0.8-1.926 1.871-1.926c1.071 0 1.871 0.86 1.871 1.926s-0.8 1.926-1.871 1.926zM11.096 14.639c-0.736 0-1.254 0.595-1.254 1.352s0.52 1.352 1.254 1.352c0.736 0 1.256-0.595 1.256-1.352s-0.52-1.352-1.256-1.352z"></path>
<path fill="#fff" style="fill: var(--color2, #fff)" d="M13.538 14.099h0.67l1.201 2.92 1.201-2.92h0.67v3.785h-0.606v-2.402l-0.994 2.402h-0.54l-0.996-2.402v2.402h-0.606v-3.785z"></path>
<path fill="#fff" style="fill: var(--color2, #fff)" d="M18.008 14.099h2.374v0.574h-1.769v1.016h0.86v0.572h-0.86v1.048h1.801v0.574h-2.406v-3.785z"></path>
<path fill="#fff" style="fill: var(--color2, #fff)" d="M22.048 14.099c1.082 0 1.865 0.725 1.865 1.892 0 1.169-0.783 1.892-1.865 1.892h-1.109v-3.784h1.109zM21.545 14.671v2.639h0.52c0.687 0 1.233-0.471 1.233-1.32s-0.546-1.32-1.233-1.32h-0.52z"></path>
<path fill="#fff" style="fill: var(--color2, #fff)" d="M24.625 14.099l0.698 1.547 0.698-1.547h0.638l-1.033 2.163v1.623h-0.606v-1.623l-1.033-2.163h0.638z"></path>
<path fill="#fff" style="fill: var(--color2, #fff)" d="M4.885 19.509h2.406v0.574h-1.801v1.016h0.924v0.574h-0.924v1.623h-0.604v-3.787z"></path>
<path fill="#fff" style="fill: var(--color2, #fff)" d="M7.827 19.509h2.374v0.574h-1.768v1.016h0.86v0.574h-0.86v1.048h1.801v0.574h-2.408v-3.787z"></path>
<path fill="#fff" style="fill: var(--color2, #fff)" d="M12.235 21.024c0.471 0.179 0.774 0.491 0.774 1.071 0 0.702-0.535 1.233-1.216 1.233-0.693 0-1.216-0.546-1.216-1.218h0.604c0 0.352 0.228 0.644 0.612 0.644s0.612-0.265 0.612-0.644c0-0.568-0.497-0.568-1.028-0.774-0.346-0.136-0.595-0.439-0.595-0.855 0-0.589 0.433-1.005 0.996-1.005 0.41 0 0.713 0.173 0.898 0.488l-0.405 0.405c-0.092-0.205-0.28-0.32-0.476-0.32-0.248 0-0.416 0.168-0.416 0.401-0.002 0.352 0.36 0.384 0.856 0.574z"></path>
<path fill="#fff" style="fill: var(--color2, #fff)" d="M13.097 19.509h2.325v0.574h-0.858v3.211h-0.606v-3.211h-0.86v-0.574z"></path>
<path fill="#fff" style="fill: var(--color2, #fff)" d="M17.566 20.083h-0.574v2.639h0.572v0.574h-1.751v-0.574h0.572v-2.639h-0.572v-0.574h1.752v0.574z"></path>
<path fill="#fff" style="fill: var(--color2, #fff)" d="M17.875 19.509h0.638l1.071 2.957 1.071-2.957h0.638l-1.406 3.785h-0.606l-1.406-3.785z"></path>
<path fill="#fff" style="fill: var(--color2, #fff)" d="M23.548 23.294l-0.228-0.621h-1.687l-0.228 0.621h-0.632l1.4-3.785h0.606l1.4 3.785h-0.632zM21.835 22.099h1.288l-0.644-1.779-0.644 1.779z"></path>
<path fill="#fff" style="fill: var(--color2, #fff)" d="M24.595 19.509h0.606v3.211h1.801v0.574h-2.406v-3.785z"></path>
</symbol>
<symbol id="icon-grid" viewBox="0 0 32 32">
<title>grid</title>
<path d="M0 0v32h32v-32h-32zM30 10h-8v-8h8v8zM12 20v-8h8v8h-8zM20 22v8h-8v-8h8zM10 20h-8v-8h8v8zM12 10v-8h8v8h-8zM22 12h8v8h-8v-8zM10 2v8h-8v-8h8zM2 22h8v8h-8v-8zM22 30v-8h8v8h-8z"></path>
</symbol>
<symbol id="icon-icon" viewBox="0 0 32 32">
<title>icon</title>
<path d="M19.128 23.172c-0.146-0.154-0.316-0.292-0.436-0.466-0.268-0.386-0.514-0.79-0.768-1.184-0.63-1.132-1.17-2.304-1.516-3.558-0.056-0.208-0.152-0.402-0.228-0.604-0.062-0.246-0.118-0.49-0.19-0.732-0.018-0.062-0.086-0.11-0.132-0.164-0.046 0.048-0.11 0.092-0.136 0.15-0.18 0.402-0.35 0.806-0.528 1.21-0.040 0.092-0.096 0.174-0.144 0.26-0.164 0.38-0.326 0.76-0.496 1.138-0.238 0.524-0.462 1.058-0.73 1.566-0.246 0.466-0.546 0.906-0.824 1.356-0.148 0.468-0.434 0.836-0.81 1.14-0.050 0.062-0.1 0.126-0.15 0.188-0.016 0.014-0.032 0.028-0.048 0.042-0.014 0.002-0.026 0.006-0.038 0.014v-0.004c-0.21 0.268-0.42 0.536-0.63 0.804-0.090 0.11-0.18 0.22-0.262 0.324 3.238 0 6.484 0 9.814 0-0.21-0.148-0.36-0.254-0.508-0.356-0.518-0.26-0.836-0.736-1.24-1.124z"></path>
<path d="M24.528 24.296c-0.458-0.518-0.86-1.074-1.080-1.74l0.006 0.004c-0.014-0.016-0.024-0.034-0.038-0.050-0.31-0.664-0.626-1.324-0.926-1.992-0.184-0.408-0.358-0.822-0.516-1.24-0.222-0.596-0.426-1.2-0.638-1.8-0.016-0.060-0.034-0.12-0.050-0.182l0.004 0.006c-0.050-0.074-0.124-0.144-0.144-0.226-0.054-0.222-0.11-0.396-0.35-0.53s-0.43-0.074-0.646-0.026c-0.082 0.018-0.164 0.074-0.244 0.068-0.106-0.008-0.234-0.030-0.306-0.098-0.2-0.184-0.474-0.222-0.66-0.056-0.292 0.26-0.306 0.26-0.578-0.042-0.094-0.016-0.188-0.030-0.282-0.048-0.056 0.028-0.124 0.042-0.17 0.082-0.324 0.288-0.324 0.29-0.598-0.078-0.104 0.002-0.206 0.002-0.31 0.002-0.3 0.302-0.3 0.302-0.058 0.65 0.068 0.1 0.138 0.196 0.208 0.296 0.014 0.004 0.026 0.010 0.040 0.018l0.016 0.016c0.264 0.2 0.508 0.428 0.792 0.588 0.484 0.272 1.008 0.482 1.488 0.76 0.206 0.12 0.524 0.164 0.55 0.498-0.002 0.112 0 0.226-0.006 0.338-0.018 0.4-0.042 0.8-0.062 1.202 0.058 0.352 0.116 0.704 0.176 1.056 0.162 0.298 0.324 0.594 0.284 0.952 0.11 0.27 0.22 0.542 0.33 0.81 0.042 0.104 0.084 0.206 0.126 0.31 0.096 0.118 0.196 0.232 0.288 0.35 0.254 0.326 0.556 0.496 0.996 0.472 0.672-0.036 1.348-0.010 2.022-0.010 0.094 0 0.188 0.016 0.284 0.018 0.086 0.002 0.172-0.004 0.258-0.008-0.028-0.084-0.048-0.172-0.086-0.252-0.024-0.048-0.078-0.080-0.114-0.124z"></path>
<path d="M10.93 19.466c0.462-0.208 0.926-0.414 1.39-0.62 0.138-0.062 0.276-0.126 0.412-0.19 0.25-0.182 0.502-0.364 0.754-0.546 0.458-0.37 0.93-0.728 1.366-1.124 0.126-0.114 0.156-0.344 0.202-0.528 0.006-0.020-0.176-0.086-0.27-0.132-0.27 0.126-0.522 0.382-0.848 0.128-0.156 0.012-0.318 0.004-0.468 0.040-0.266 0.060-0.522 0.108-0.766-0.062-0.136 0.070-0.272 0.14-0.478 0.246-0.166-0.074-0.408-0.182-0.648-0.288-0.076 0.002-0.152 0.002-0.228 0.002-0.092 0.168-0.168 0.344-0.41 0.344-0.054 0-0.112 0.074-0.166 0.114-0.032 0.128-0.048 0.264-0.096 0.386-0.17 0.434-0.348 0.862-0.524 1.294-0.026 0.202-0.028 0.412-0.084 0.606-0.092 0.328-0.148 0.702-0.35 0.95-0.192 0.24-0.32 0.492-0.438 0.758-0.47 1.062-0.888 2.152-1.638 3.068-0.166 0.202-0.264 0.462-0.426 0.752 0.994 0 1.894 0 2.796 0 0.456 0 0.478-0.028 0.586-0.47 0.080-0.324 0.192-0.644 0.288-0.964 0.010-0.33 0.022-0.658 0.034-0.99-0.134-0.778-0.272-1.554-0.388-2.334-0.016-0.1 0.084-0.216 0.128-0.326 0.090-0.038 0.178-0.076 0.266-0.114z"></path>
<path d="M24.152 12.154c0.512 0.128 1.016 0.288 1.528 0.404 0.356 0.080 0.722 0.122 1.086 0.154 0.178 0.016 0.292-0.078 0.296-0.294 0.004-0.426 0.034-0.85 0.052-1.274 0.010-0.254 0.044-0.51 0.024-0.762-0.016-0.226-0.074-0.464-0.406-0.282-0.042 0.022-0.114 0.006-0.168-0.010-0.396-0.144-0.804-0.268-1.184-0.448-0.442-0.208-0.866-0.386-1.38-0.298-0.488 0.082-0.614 0.214-0.568 0.692 0.044 0.462 0.048 0.926 0.072 1.392 0.022 0.16 0.048 0.32 0.062 0.48 0.010 0.092 0.030 0.168 0.076 0.22s0.114 0.080 0.22 0.074c0.098-0.016 0.202-0.064 0.292-0.042z"></path>
<path d="M6.664 16.486c-0.28 0.268-0.504 0.126-0.754-0.006-0.158-0.004-0.294-0.004-0.452-0.008-0.158 0.076-0.314 0.152-0.448 0.214-0.122-0.036-0.238-0.070-0.358-0.104-0.028 0.122-0.16 0.132-0.168 0.254-0.012 0.228-0.174 0.582-0.178 0.81 0 0.018-0.002 0.038-0.002 0.056-0.016-0.002-0.032-0.002-0.048-0.004-0.026 0.126-0.064 0.252-0.076 0.378-0.036 0.358-0.016 0.728-0.1 1.074-0.29 1.184-0.536 2.376-0.666 3.59-0.060 0.542-0.184 1.076-0.266 1.618-0.016 0.098 0.040 0.204 0.060 0.298 0.338 0 0.634 0.008 0.928-0.004 0.078-0.004 0.152-0.066 0.23-0.1 0-0.528 0-1.058 0-1.586 0-0.278 0-0.556 0-0.836 0.256-0.464 0.616-1.142 0.652-1.172 0.406-0.706 0.802-1.418 1.218-2.118 0.392-0.658 0.818-1.298 1.020-2.048-0.068-0.254-0.424-0.464-0.59-0.306z"></path>
<path d="M28.796 24.438c-0.364-0.568-0.432-1.232-0.592-1.862-0.17-0.666-0.31-1.342-0.438-2.016-0.088-0.464-0.136-0.934-0.202-1.402-0.132-0.372-0.102-0.792-0.322-1.14-0.010 0.034-0.010 0.066-0.016 0.098-0.062-0.322-0.142-0.632-0.248-0.978-0.004-0.296-0.568-0.702-0.854-0.634-0.036 0.010-0.080 0.022-0.1 0.048-0.244 0.336-0.444 0.134-0.646-0.048-0.034-0.012-0.066-0.022-0.1-0.036-0.118-0.014-0.298-0.080-0.342-0.028-0.16 0.182-0.31 0.118-0.484 0.060-0.086-0.028-0.19-0.010-0.286-0.010 0.010 0.1-0.010 0.21 0.030 0.296 0.318 0.674 0.676 1.33 0.966 2.016 0.298 0.708 0.58 1.414 1.104 1.996 0.034 0.036 0.034 0.1 0.050 0.152l-0.004-0.004c0.022 0.032 0.042 0.064 0.062 0.096 0.684 0.684 0.772 2.116 0.856 2.802-0.028 0.082-0.068 0.164-0.092 0.244-0.008 0.104-0.016 0.208-0.024 0.312 0.030 0.034 0.088 0.066 0.088 0.1 0.006 0.25 0.15 0.298 0.368 0.304 0.43 0.010 0.862 0.072 1.284-0.064-0.016-0.1-0.008-0.22-0.060-0.298z"></path>
<path d="M15.632 11.498v0.004z"></path>
<path d="M15.632 11.5c-0.226-0.086-0.248 0.090-0.288 0.234-0.21 0.732-0.6 1.378-1.084 1.944-0.412 0.484-0.926 0.878-1.396 1.314-0.006 0.15 0.022 0.254 0.218 0.244 0.756-0.032 1.51-0.054 2.266-0.076 0.244-0.006 0.34-0.128 0.294-0.366 0.006-1.004 0.016-2.008 0.022-3.012 0-0.094-0.020-0.186-0.028-0.282z"></path>
<path d="M4.592 11.516c0 0.58-0.004 1.164-0.010 1.744-0.006 0.798-0.018 1.598-0.028 2.398 0.020 0.032 0.036 0.070 0.062 0.092 0.064 0.056 0.134 0.106 0.2 0.158 0.052-0.076 0.122-0.148 0.156-0.23s0.030-0.18 0.044-0.272c-0.002-1.090-0.004-2.178-0.004-3.266 0.27-0.164 0.554-0.316 0.862-0.144 0.358 0.202 0.704 0.43 1.036 0.67 0.296 0.214 0.952 0.24 1.226 0.004 0.064-0.054 0.122-0.154 0.124-0.236 0.010-0.612 0.014-1.224-0.002-1.836-0.006-0.23-0.25-0.354-0.478-0.31-0.14 0.026-0.316 0.046-0.426-0.016-0.244-0.138-0.496-0.3-0.674-0.51-0.684-0.798-1.138-0.716-2.052-0.448-0.084 0.026-0.182 0.18-0.18 0.27 0.022 0.494 0.074 0.99 0.116 1.484 0.008 0.15 0.022 0.302 0.022 0.452z"></path>
<path d="M3.94 18.198l-0.012 0.004 0.004 0.004z"></path>
<path d="M14.718 3.052c0.030 0.428 0.35 0.656 0.68 0.844 0.208 0.12 0.266 0.244 0.258 0.458-0.010 0.316-0.004 0.634-0.004 0.962 0.004 0 0.006 0 0.010 0-0.006 0.512 0.052 2.622 0.058 2.89 0.002 0.1 0.010 0.164 0.028 0.208-0.010 0.022-0.016 0.048-0.014 0.086 0.012 0.218-0.044 2.336-0.048 2.746 0.074 0.078 0.308 0.222 0.452-0.054 0.008-0.012 0.014-0.026 0.018-0.040 0.054 0.134 0.106 0.27 0.16 0.404 0.348 0.514 0.724 1.010 1.036 1.546 0.33 0.564 0.83 0.938 1.31 1.34 0.060 0.052 0.112 0.116 0.168 0.174 0.022 0.016 0.042 0.032 0.062 0.046 0.068 0.044 0.138 0.088 0.208 0.132 0.196 0.090 0.394 0.176 0.588 0.266 0.084 0.026 0.166 0.070 0.252 0.074 0.44 0.022 0.878 0.042 1.318 0.048 0.586 0.010 1.176 0.006 1.762 0.008 0.182 0.038 0.446-0.118 0.498 0.216 0.1-0.004 0.202-0.006 0.304-0.010 0.018-0.030 0.034-0.084 0.058-0.088 0.294-0.060 0.268-0.156 0.048-0.298-0.042-0.026-0.074-0.108-0.074-0.164-0.002-0.882 0.004-1.762 0.006-2.644-0.104 0.006-0.172-0.022-0.22-0.074s-0.068-0.128-0.076-0.22c-0.016-0.16-0.042-0.32-0.062-0.48 0 1.154 0 2.308 0 3.512-0.336-0.106-0.59-0.176-0.838-0.264-0.782-0.282-1.612-0.484-2.33-0.884-0.892-0.5-1.696-1.158-2.528-1.764-0.404-0.294-0.774-0.634-1.172-0.936-0.164-0.124-0.3-0.206-0.396-0.312-0.092-0.102-0.146-0.228-0.15-0.436-0.004-0.366 0.112-0.376 0.454-0.5 0.336-0.122 2.006-0.618 2.164-0.67 0.272-0.054 0.212-0.144 0.1-0.206-0.018-0.010-1.986-0.554-2.59-0.606 0.934-0.324 4.822-1.376 5.264-1.626 0.138-0.078 0.184-0.286-0.104-0.328-0.514-0.078-4.15-1.166-5.366-1.23 0-0.364 0-0.726 0-1.080 0.152-0.060 0.278-0.102 0.394-0.158 0.276-0.134 0.45-0.416 0.512-0.722 0.218-0.264 0.34-0.608 0.384-0.962 0.028-0.23-0.052-0.622-0.176-0.714-0.15-0.112-0.358-0.066-0.432 0.022-0.14 0.172-0.216 0.364-0.38 0.356-0.138-0.006-0.132-0.232-0.14-0.312-0.026-0.212-0.224-0.454-0.446-0.424-0.194 0.026-0.346 0.248-0.388 0.44-0.022 0.096-0.036 0.226-0.132 0.248-0.026 0.006-0.054 0-0.080-0.006-0.122-0.036-0.134-0.126-0.234-0.202s-0.23-0.142-0.352-0.104c-0.116 0.034-0.19 0.154-0.204 0.272s-0.034 0.282 0.010 0.468c0.074 0.302 0.19 0.536 0.368 0.758z"></path>
<path d="M15.164 11.086c-0.344 0.18-1.628 2.624-8.434 3.964-0.144 0.254 1.286 0.472 2.642 0.254 0.432-0.070 2.136-0.018 2.66-0.526s3.384-2.872 3.13-3.692z"></path>
<path d="M18.832 14.616h-0.002l-0.004-0.002z"></path>
</symbol>
<symbol id="icon-instagram" viewBox="0 0 32 32">
<title>instagram</title>
<path d="M16 2.882c4.274 0 4.782 0.018 6.462 0.094 1.562 0.068 2.406 0.332 2.968 0.55 0.744 0.288 1.282 0.638 1.838 1.194 0.562 0.562 0.906 1.094 1.2 1.838 0.218 0.562 0.482 1.412 0.55 2.968 0.074 1.688 0.094 2.194 0.094 6.462s-0.018 4.782-0.094 6.462c-0.068 1.562-0.332 2.406-0.55 2.968-0.288 0.744-0.638 1.282-1.194 1.838-0.562 0.562-1.094 0.906-1.838 1.2-0.562 0.218-1.412 0.482-2.968 0.55-1.688 0.074-2.194 0.094-6.462 0.094s-4.782-0.018-6.462-0.094c-1.562-0.068-2.406-0.332-2.968-0.55-0.744-0.288-1.282-0.638-1.838-1.194-0.562-0.562-0.906-1.094-1.2-1.838-0.218-0.562-0.482-1.412-0.55-2.968-0.076-1.688-0.094-2.194-0.094-6.462s0.018-4.782 0.094-6.462c0.068-1.562 0.332-2.406 0.55-2.968 0.288-0.744 0.638-1.282 1.194-1.838 0.562-0.562 1.094-0.906 1.838-1.2 0.562-0.218 1.412-0.482 2.968-0.55 1.682-0.076 2.188-0.094 6.462-0.094zM16 0c-4.344 0-4.888 0.018-6.594 0.094-1.7 0.076-2.868 0.35-3.882 0.744-1.056 0.412-1.95 0.956-2.838 1.85-0.894 0.888-1.438 1.782-1.85 2.832-0.394 1.018-0.668 2.182-0.744 3.882-0.074 1.712-0.094 2.256-0.094 6.6s0.018 4.888 0.094 6.594c0.076 1.7 0.35 2.868 0.744 3.882 0.412 1.056 0.956 1.95 1.85 2.838 0.888 0.888 1.782 1.438 2.832 1.844 1.018 0.394 2.182 0.668 3.882 0.744 1.706 0.074 2.25 0.094 6.594 0.094s4.888-0.018 6.594-0.094c1.7-0.074 2.868-0.35 3.882-0.744 1.050-0.406 1.944-0.956 2.832-1.844s1.438-1.782 1.844-2.832c0.394-1.018 0.668-2.182 0.744-3.882 0.074-1.706 0.094-2.25 0.094-6.594s-0.018-4.888-0.094-6.594c-0.074-1.7-0.35-2.868-0.744-3.882-0.394-1.062-0.938-1.956-1.832-2.844-0.888-0.888-1.782-1.438-2.832-1.844-1.018-0.394-2.182-0.668-3.882-0.744-1.712-0.082-2.256-0.1-6.6-0.1v0z"></path>
<path d="M16 7.782c-4.538 0-8.218 3.682-8.218 8.218s3.682 8.218 8.218 8.218 8.218-3.682 8.218-8.218c0-4.538-3.682-8.218-8.218-8.218zM16 21.332c-2.944 0-5.332-2.388-5.332-5.332s2.388-5.332 5.332-5.332c2.944 0 5.332 2.388 5.332 5.332s-2.388 5.332-5.332 5.332z"></path>
<path d="M26.462 7.456c0 1.060-0.86 1.918-1.918 1.918s-1.918-0.86-1.918-1.918c0-1.060 0.86-1.918 1.918-1.918s1.918 0.86 1.918 1.918z"></path>
</symbol>
<symbol id="icon-national-maritime-museum" viewBox="0 0 32 32">
<title>national-maritime-museum</title>
<path d="M15.172 11.295v0.114l0.316 0.055 0.069 1.385-1.125-1.554h-0.673v0.114l0.304 0.055v1.734l-0.304 0.055v0.114h0.82v-0.114l-0.323-0.055-0.073-1.734 1.402 1.926h0.092v-1.926l0.281-0.055v-0.114h-0.786z"></path>
<path d="M17.322 11.267l-0.848 1.932-0.281 0.054v0.114h0.755v-0.114l-0.281-0.054 0.236-0.604h0.754l0.246 0.604-0.296 0.054v0.114h0.874v-0.114l-0.254-0.054-0.825-1.932h-0.080zM17.272 11.663l0.327 0.8h-0.645l0.318-0.8z"></path>
<path d="M18.713 11.295l-0.047 0.712 0.084 0.021 0.257-0.576 0.423-0.046v1.793l-0.341 0.055v0.114h0.987v-0.114l-0.338-0.055v-1.793l0.423 0.046 0.259 0.576 0.084-0.021-0.050-0.712z"></path>
<path d="M20.992 11.295v0.114l0.313 0.055v1.734l-0.313 0.055v0.114h0.938v-0.114l-0.312-0.055v-1.734l0.312-0.055v-0.114z"></path>
<path d="M22.419 12.337c0-0.537 0.417-1.074 1.001-1.074 0.583 0 1.002 0.538 1.002 1.074 0 0.54-0.407 1.058-1.002 1.058-0.593 0-1.001-0.517-1.001-1.058zM24.084 12.337c0-0.682-0.271-0.933-0.664-0.933-0.392 0-0.662 0.25-0.662 0.933 0 0.661 0.284 0.92 0.662 0.92 0.366 0 0.664-0.259 0.664-0.92z"></path>
<path d="M26.321 11.295v0.114l0.315 0.055 0.069 1.385-1.125-1.554h-0.675v0.114l0.307 0.055v1.734l-0.307 0.055v0.114h0.82v-0.114l-0.323-0.055-0.071-1.734 1.4 1.926h0.093v-1.926l0.282-0.055v-0.114h-0.785z"></path>
<path d="M28.471 11.267l-0.849 1.932-0.28 0.054v0.114h0.756v-0.114l-0.282-0.054 0.236-0.604h0.753l0.248 0.604-0.298 0.054v0.114h0.875v-0.114l-0.254-0.054-0.825-1.932h-0.080zM28.421 11.663l0.327 0.8h-0.645l0.318-0.8z"></path>
<path d="M30.049 11.295v0.114l0.304 0.055v1.734l-0.304 0.055v0.114h1.604l0.114-0.741-0.082-0.023-0.319 0.595-0.705 0.055v-1.79l0.312-0.055v-0.114h-0.924z"></path>
<path d="M15.661 14.885l-0.589 1.554-0.624-1.554h-0.689v0.114l0.304 0.055v1.734l-0.304 0.055v0.113h0.762v-0.113l-0.262-0.055-0.077-1.739 0.77 1.837h0.082l0.727-1.837v1.739l-0.258 0.055v0.113h0.859v-0.113l-0.289-0.055v-1.734l0.289-0.055v-0.114h-0.701z"></path>
<path d="M17.253 16.788l0.28 0.054v0.114h-0.754v-0.114l0.28-0.054 0.849-1.932h0.080l0.825 1.932 0.254 0.054v0.114h-0.875v-0.114l0.298-0.054-0.248-0.603h-0.755l-0.234 0.603zM17.858 15.253l-0.317 0.798h0.643l-0.326-0.798z"></path>
<path d="M20.923 16.866c-0.297-0.799-0.323-0.838-0.577-0.838h-0.247v0.76l0.306 0.054v0.114h-0.916v-0.114l0.304-0.054v-1.735l-0.304-0.054v-0.115h0.994c0.378 0 0.712 0.192 0.712 0.562 0 0.344-0.254 0.484-0.604 0.524v0.008c0.195 0.023 0.307 0.090 0.435 0.344l0.236 0.466 0.23 0.055v0.114h-0.404c-0.098-0.001-0.141-0.032-0.165-0.091v0zM20.099 15.888h0.29c0.389 0 0.484-0.106 0.484-0.439s-0.106-0.422-0.419-0.422h-0.355v0.861z"></path>
<path d="M21.892 16.843l0.311-0.055v-1.735l-0.311-0.054v-0.115h0.936v0.115l-0.312 0.054v1.735l0.312 0.055v0.113h-0.936z"></path>
<path d="M23.738 16.843l0.341-0.055v-1.794l-0.425 0.047-0.252 0.575-0.087-0.020 0.045-0.713h1.743l0.051 0.713-0.085 0.020-0.259-0.575-0.423-0.047v1.794l0.339 0.055v0.113h-0.988z"></path>
<path d="M25.643 16.843l0.312-0.055v-1.735l-0.312-0.054v-0.115h0.936v0.115l-0.311 0.054v1.735l0.311 0.055v0.113h-0.936z"></path>
<path d="M27.072 16.843l0.302-0.055v-1.735l-0.302-0.054v-0.115h0.688l0.625 1.555 0.589-1.555h0.701v0.115l-0.289 0.054v1.735l0.289 0.055v0.113h-0.86v-0.113l0.259-0.055v-1.739l-0.728 1.837h-0.080l-0.771-1.837 0.076 1.739 0.263 0.055v0.113h-0.763v-0.113z"></path>
<path d="M30.166 14.885v0.114l0.3 0.059v1.73l-0.3 0.055v0.113h1.732l0.102-0.682-0.078-0.020-0.304 0.544-0.848 0.049v-0.897l0.406 0.027 0.126 0.282h0.080v-0.744h-0.080l-0.126 0.306-0.406 0.024v-0.858l0.74 0.054 0.282 0.45 0.065-0.024-0.078-0.583h-1.613z"></path>
<path d="M15.661 18.474l-0.589 1.554-0.624-1.554h-0.689v0.113l0.304 0.055v1.735l-0.304 0.055v0.113h0.762v-0.113l-0.262-0.055-0.077-1.737 0.77 1.835h0.082l0.727-1.835v1.737l-0.258 0.055v0.113h0.859v-0.113l-0.289-0.055v-1.735l0.289-0.055v-0.113h-0.701z"></path>
<path d="M17.109 19.868v-1.227l-0.284-0.054v-0.113h0.87v0.113l-0.275 0.055v1.183c0 0.424 0.168 0.58 0.573 0.58 0.354 0 0.536-0.177 0.536-0.541v-1.222l-0.262-0.055v-0.113h0.716v0.113l-0.254 0.055-0.050 1.266c-0.016 0.446-0.302 0.662-0.76 0.662-0.478-0.001-0.81-0.236-0.81-0.702z"></path>
<path d="M19.675 20.354l-0.069 0.19h-0.091l-0.074-0.743 0.085-0.020c0.224 0.479 0.412 0.659 0.716 0.659 0.25 0 0.422-0.131 0.422-0.363 0-0.234-0.113-0.324-0.552-0.48-0.387-0.14-0.627-0.299-0.627-0.626 0-0.293 0.245-0.53 0.607-0.53 0.193 0 0.378 0.083 0.469 0.17l0.063-0.137h0.084l0.065 0.623-0.076 0.015c-0.193-0.38-0.362-0.531-0.607-0.531-0.218 0-0.371 0.128-0.371 0.304 0 0.208 0.102 0.271 0.51 0.42 0.389 0.142 0.697 0.306 0.697 0.689 0 0.341-0.274 0.579-0.678 0.579-0.275-0.001-0.476-0.121-0.573-0.219z"></path>
<path d="M21.411 18.474v0.113l0.302 0.059v1.731l-0.302 0.055v0.113h1.734l0.101-0.682-0.076-0.020-0.304 0.545-0.849 0.047v-0.896l0.405 0.027 0.126 0.282h0.083v-0.745h-0.083l-0.126 0.307-0.405 0.023v-0.857l0.74 0.055 0.282 0.45 0.064-0.022-0.078-0.585h-1.614z"></path>
<path d="M23.947 19.868v-1.227l-0.285-0.054v-0.113h0.871v0.113l-0.275 0.055v1.183c0 0.424 0.167 0.58 0.572 0.58 0.354 0 0.536-0.177 0.536-0.541v-1.222l-0.262-0.055v-0.113h0.717v0.113l-0.254 0.055-0.050 1.266c-0.016 0.446-0.302 0.662-0.76 0.662-0.478-0.001-0.81-0.236-0.81-0.702z"></path>
<path d="M28.187 18.474l-0.591 1.554-0.625-1.554h-0.688v0.113l0.305 0.055v1.735l-0.305 0.055v0.113h0.763v-0.113l-0.263-0.055-0.076-1.737 0.771 1.835h0.080l0.729-1.835v1.737l-0.258 0.055v0.113h0.857v-0.113l-0.289-0.055v-1.735l0.289-0.055v-0.113h-0.699z"></path>
<path d="M4.723 12.683c0.128 0 0.234-0.104 0.234-0.233s-0.106-0.233-0.234-0.233c-0.129 0-0.234 0.104-0.234 0.233s0.104 0.233 0.234 0.233zM2.569 12.349c0.108 0 0.197-0.088 0.197-0.197s-0.088-0.196-0.197-0.196c-0.109 0-0.197 0.088-0.197 0.196s0.087 0.197 0.197 0.197zM2.714 11.396c0.089 0 0.161-0.073 0.161-0.162s-0.072-0.162-0.161-0.162c-0.090 0-0.162 0.072-0.162 0.162s0.072 0.162 0.162 0.162zM8.784 16.225c0-0.092 0.059-0.274 0.103-0.408 0.039-0.118 0.057-0.175 0.057-0.209 0-0.050-0.040-0.092-0.090-0.092-0.076 0-0.138 0.090-0.23 0.236-0.023 0.037-0.046 0.075-0.070 0.107-0.034 0.048-0.049 0.062-0.066 0.062 0 0-0.018 0-0.018-0.020 0-0.031 0.059-0.126 0.071-0.172 0.017-0.060 0.002-0.12-0.119-0.12-0.147 0-0.269 0.067-0.419 0.2-0.066 0.057-0.174 0.178-0.366 0.178s-0.373 0.081-0.571 0.254c-0.614 0.535-1.195 0.955-1.68 1.214-0.474 0.252-0.529 0.389-0.529 0.471 0 0.113 0.065 0.182 0.175 0.182 0.161 0 0.41-0.092 0.651-0.184 0.196-0.073 0.399-0.149 0.498-0.149 0.022 0 0.024 0.018 0.024 0.021 0 0.030-0.050 0.086-0.090 0.131-0.066 0.075-0.134 0.152-0.134 0.243 0 0.078 0.057 0.156 0.185 0.156 0.098 0 0.188-0.050 0.26-0.092 0.037-0.020 0.084-0.047 0.134-0.076l0.071-0.040c0.090-0.052 0.19-0.098 0.4-0.098 0.703 0 1.024-0.323 1.024-0.623 0-0.282-0.294-0.376-0.555-0.46-0.187-0.060-0.364-0.117-0.364-0.224 0-0.072 0.128-0.146 0.372-0.146 0.292 0 0.489 0.066 0.678 0.129 0.162 0.055 0.313 0.104 0.502 0.104 0.121 0 0.203-0.068 0.203-0.169 0-0.074-0.027-0.14-0.054-0.201-0.026-0.062-0.053-0.128-0.053-0.205zM8.726 19.040c0-0.058-0.048-0.107-0.106-0.107-0.053 0-0.076 0.040-0.089 0.062-0.019 0.033-0.043 0.074-0.188 0.074-0.132 0-0.229-0.032-0.323-0.062-0.083-0.027-0.16-0.053-0.255-0.053-0.166 0-0.273 0.049-0.337 0.086 0.018-0.042 0.025-0.087 0.003-0.124-0.013-0.021-0.039-0.045-0.091-0.045-0.028 0-0.061 0.007-0.102 0.021-0.069 0.021-0.137 0.047-0.196 0.070-0.097 0.036-0.186 0.069-0.234 0.069-0.009 0-0.020-0.002-0.028-0.005 0.020-0.023 0.062-0.061 0.086-0.077 0.054-0.044 0.083-0.067 0.083-0.106 0-0.042-0.033-0.073-0.076-0.073-0.033 0-0.070 0.019-0.124 0.045-0.116 0.058-0.311 0.154-0.626 0.154-0.501 0-0.84 0.098-1.139 0.185-0.254 0.072-0.495 0.141-0.8 0.141-0.333 0-0.58-0.074-0.743-0.121-0.020-0.007-0.039-0.014-0.057-0.020-0.042-0.015-0.075-0.026-0.104-0.026-0.061 0-0.088 0.039-0.088 0.073 0 0.056 0.054 0.091 0.117 0.131l0.009 0.007c0.208 0.135 0.647 0.245 0.978 0.245 0.425 0 0.699-0.053 0.963-0.103 0.261-0.049 0.506-0.097 0.886-0.097 0.36 0 0.568-0.058 0.766-0.152 0.014 0.080 0.13 0.080 0.243 0.080 0.156 0 0.24-0.030 0.308-0.054l0.024-0.010c0.019-0.004 0.039-0.013 0.061-0.021 0.061-0.026 0.13-0.054 0.223-0.054 0.046 0 0.093 0.011 0.152 0.024 0.094 0.021 0.224 0.051 0.43 0.051 0.347 0.001 0.374-0.159 0.374-0.208zM3.567 18.725c0 0.174 0.342 0.272 0.557 0.272 0.357 0 0.769-0.101 0.769-0.248 0-0.062-0.062-0.076-0.17-0.093-0.024-0.005-0.075-0.018-0.104-0.035-0.077-0.052-0.208-0.079-0.428-0.079-0.274 0.001-0.624 0.009-0.624 0.183zM12.42 19.625c0 0.147-0.425 0.245-0.676 0.254-0.127 0.006-0.113 0 0.017-0.043 0.119-0.039 0.26-0.098 0.26-0.222 0-0.185-0.837-0.376-2.083-0.435 0.002 0.007 0.005 0.012 0.007 0.017 0.041 0.088 0.063 0.176 0.063 0.247 0 0.025-0.010 0.048-0.028 0.063v0.016c0.111 0.027 0.199 0.064 0.199 0.107 0 0.054-0.092 0.11-0.314 0.161-0.171 0.040-0.442 0.082-0.762 0.125 0.269-0.006 0.658-0.039 0.812-0.062 0.396-0.060 0.523-0.134 0.523-0.212 0-0.065-0.078-0.125-0.22-0.164-0.122-0.033-0.122-0.040-0.016-0.037 0.212 0.008 0.537 0.104 0.537 0.226 0 0.262-1.028 0.385-4.525 0.385s-4.524-0.123-4.524-0.385c0-0.122 0.325-0.218 0.536-0.226 0.105-0.003 0.105 0.004-0.015 0.037-0.142 0.039-0.22 0.099-0.22 0.164 0 0.078 0.127 0.152 0.523 0.212 0.154 0.023 0.543 0.057 0.812 0.062-0.32-0.043-0.591-0.085-0.762-0.125-0.223-0.051-0.314-0.107-0.314-0.161 0-0.032 0.052-0.062 0.125-0.085-0.010-0.016-0.016-0.033-0.016-0.052 0-0.119 0.041-0.215 0.090-0.312-1.229 0.062-2.052 0.25-2.052 0.433 0 0.124 0.143 0.183 0.262 0.222 0.129 0.043 0.145 0.049 0.017 0.043-0.25-0.008-0.676-0.106-0.676-0.253 0-0.225 0.928-0.505 2.505-0.552 0.092-0.186 0.216-0.436 0.216-0.749 0-0.356-0.038-0.473-0.080-0.608-0.022-0.070-0.046-0.144-0.065-0.252-0.016-0.091-0.027-0.186-0.039-0.277-0.022-0.182-0.043-0.354-0.098-0.487-0.013-0.031-0.024-0.061-0.035-0.088-0.043-0.107-0.083-0.211-0.131-0.243-0.005-0.005-0.010-0.008-0.014-0.014-0.060-0.044-0.095-0.111-0.095-0.184 0-0.13 0.105-0.235 0.235-0.235 0.085 0 0.164 0.048 0.206 0.124 0.002 0.005 0.005 0.010 0.008 0.015 0.022 0.051 0.127 0.182 0.246 0.182 0.025-0.001 0.079-0.039 0.137-0.103 0.001-0.005 0.004-0.008 0.007-0.012 0.095-0.11 0.199-0.292 0.199-0.516 0-0.132-0.001-0.19-0.035-0.293-0.021-0.063-0.018-0.117-0.014-0.169 0.003-0.050 0.007-0.104-0.009-0.183-0.052-0.26-0.146-0.437-0.255-0.486-0.016-0.007-0.028-0.018-0.037-0.031-0.041-0.039-0.062-0.090-0.062-0.145 0-0.106 0.080-0.193 0.182-0.205-0.001-0.003-0.002-0.005-0.004-0.009-0.013-0.026-0.028-0.058-0.041-0.112-0.017-0.074-0.017-0.116-0.018-0.146 0-0.018 0-0.026-0.003-0.038-0.003-0.014-0.008-0.025-0.014-0.042-0.010-0.025-0.022-0.055-0.033-0.105-0.013-0.057-0.013-0.099-0.013-0.131 0-0.024 0-0.040-0.004-0.057-0.011-0.036-0.014-0.042-0.051-0.055-0.089-0.036-0.146-0.119-0.146-0.213 0-0.126 0.103-0.229 0.229-0.229s0.229 0.103 0.229 0.229c0 0.059 0.009 0.122 0.026 0.186 0.005 0.016 0.012 0.029 0.025 0.050 0.019 0.029 0.040 0.065 0.058 0.123 0.016 0.050 0.019 0.083 0.021 0.11 0.001 0.016 0.003 0.027 0.006 0.039 0.003 0.010 0.007 0.018 0.017 0.033 0.016 0.027 0.039 0.063 0.062 0.138 0.015 0.049 0.021 0.082 0.026 0.111 0.004 0.021 0.007 0.039 0.014 0.063 0.006 0.021 0.012 0.042 0.018 0.063 0.009 0.031 0.019 0.063 0.027 0.095 0.001 0.004 0.021 0.082 0.021 0.161 0 0.176 0.32 0.651 0.553 0.998 0.144 0.213 0.274 0.377 0.398 0.499 0.134 0.13 0.218 0.182 0.368 0.256 0.167 0.083 0.248 0.133 0.304 0.23 0.015 0.027 0.047 0.054 0.087 0.087 0.018 0.016 0.037 0.030 0.057 0.050 0.144 0.128 0.196 0.235 0.217 0.335 0.024-0.014 0.051-0.020 0.078-0.020s0.056 0.007 0.080 0.020c-0.107 0.074-0.211 0.141-0.311 0.201-0.003-0.023-0.005-0.052-0.007-0.084-0.007-0.102-0.025-0.189-0.173-0.322-0.019-0.017-0.037-0.032-0.053-0.045-0.049-0.041-0.095-0.080-0.126-0.134-0.029-0.050-0.068-0.081-0.229-0.161s-0.264-0.143-0.413-0.288c-0.135-0.132-0.269-0.299-0.421-0.525-0.117-0.173-0.222-0.332-0.31-0.473-0.049-0.083-0.102-0.135-0.143-0.12s-0.048 0.075-0.048 0.195c0.001 0.037-0.001 0.068-0.003 0.096-0.003 0.047-0.003 0.073 0.006 0.103 0.042 0.127 0.044 0.207 0.044 0.348 0 0.263-0.122 0.505-0.262 0.654-0.093 0.109-0.143 0.282-0.143 0.5 0 0.505 0.374 0.748 0.801 0.823-0.377 0.064-0.699 0.055-0.913-0.015 0.156 0.128 0.455 0.193 0.72 0.193l0.008 0.001c0.66-0.001 1.624-0.182 3.24-1.568 0.444-0.381 0.769-0.696 0.983-0.905 0.049-0.046 0.091-0.087 0.127-0.122 0.297-0.284 0.447-0.494 0.545-0.983 0.032-0.154 0.159-0.261 0.31-0.261 0.104 0 0.19 0.092 0.19 0.204 0 0.115-0.067 0.188-0.149 0.266-0.080 0.077-0.127 0.208-0.127 0.349 0 0.327 0.176 0.553 0.459 0.606 0.042 0.007 0.087 0.011 0.134 0.011 0.306 0 0.467-0.205 0.576-0.444-0.1 0.145-0.266 0.258-0.537 0.258-0.091 0-0.16-0.021-0.212-0.049 0.306-0.167 0.564-0.424 0.663-0.668 0.097-0.234 0.238-0.453 0.388-0.601 0.068-0.066 0.089-0.119 0.113-0.17s0.045-0.103 0.102-0.153c0.045-0.041 0.124-0.128 0.188-0.224 0.032-0.047 0.055-0.095 0.076-0.137 0.023-0.046 0.043-0.086 0.069-0.118 0.001-0.001 0.002-0.003 0.003-0.004 0.004-0.003 0.007-0.006 0.011-0.009 0.002-0.002 0.005-0.003 0.005-0.004 0.016-0.012 0.031-0.020 0.044-0.022 0.015-0.009 0.036-0.018 0.063-0.018 0.090 0 0.165 0.074 0.165 0.165 0 0.040-0.015 0.139-0.154 0.196-0.059 0.024-0.089 0.063-0.155 0.175-0.016 0.026-0.032 0.053-0.051 0.081-0.023 0.035-0.048 0.071-0.070 0.113-0.009 0.016-0.016 0.037-0.023 0.061-0.009 0.027-0.018 0.055-0.031 0.081-0.030 0.059-0.063 0.096-0.090 0.126-0.014 0.016-0.025 0.029-0.033 0.042-0.016 0.025-0.020 0.077-0.021 0.11-0.008 0.105-0.053 0.208-0.133 0.381-0.498 1.079-0.74 2.019-0.74 2.875 0 0.688 0.243 1.344 0.376 1.652 1.588 0.045 2.526 0.328 2.526 0.553zM9.202 20.253c-0.351 0.008-1.333 0.056-3.005 0.056s-2.657-0.048-3.007-0.056c-0.113-0.003-0.123 0.020-0.009 0.043 0.402 0.077 1.695 0.143 3.016 0.143s2.613-0.065 3.015-0.143c0.113-0.024 0.103-0.046-0.010-0.043zM8.495 12.478c0.12 0 0.217-0.098 0.217-0.217s-0.098-0.217-0.217-0.217c-0.119 0-0.216 0.097-0.216 0.217 0 0.119 0.096 0.217 0.216 0.217zM7.824 13.255c0.099 0 0.178-0.079 0.178-0.177s-0.079-0.178-0.178-0.178c-0.097 0-0.176 0.080-0.176 0.178s0.079 0.177 0.176 0.177zM8.020 11.526c0.147 0 0.263-0.118 0.263-0.263s-0.116-0.263-0.263-0.263c-0.145 0-0.261 0.118-0.261 0.263-0.001 0.145 0.116 0.263 0.261 0.263zM6.37 15.938c0.118-0.105 0.177-0.219 0.196-0.379 0.012-0.101 0.042-0.186 0.095-0.269 0.093-0.145 0.113-0.3 0.123-0.666l0.001-0.059c0.010-0.387 0.014-0.44 0.091-0.551 0.074-0.105 0.089-0.181 0.062-0.336-0.007-0.048-0.013-0.103 0.005-0.152 0.034-0.097 0.057-0.136 0.093-0.121 0.044 0.019 0.081 0.056 0.054 0.163-0.045 0.17-0.065 0.524 0.014 0.748 0.021 0.056 0.038 0.105 0.038 0.16 0 0.046-0.026 0.092-0.048 0.122-0.084 0.114-0.163 0.393-0.163 0.572 0 0.048 0.011 0.086 0.022 0.124s0.021 0.076 0.021 0.133c0 0.124-0.025 0.223-0.058 0.312 0.087-0.090 0.197-0.215 0.231-0.259 0.001-0.018 0.002-0.035 0.002-0.054 0-0.082-0.016-0.137-0.029-0.182-0.008-0.031-0.015-0.052-0.015-0.075 0-0.151 0.074-0.392 0.13-0.469 0.055-0.075 0.083-0.151 0.083-0.226 0-0.085-0.026-0.157-0.050-0.222-0.063-0.178-0.049-0.494-0.009-0.643 0.042-0.165-0.010-0.297-0.146-0.363-0.032-0.015-0.032-0.016-0.040-0.041-0.008-0.029-0.004-0.045 0.001-0.076 0.005-0.028 0.012-0.062 0.008-0.108-0.005-0.066-0.036-0.106-0.055-0.131 0-0.002-0.002-0.004-0.003-0.005 0.005-0.015 0.014-0.037 0.014-0.067 0-0.024-0.005-0.043-0.009-0.058-0.003-0.015-0.003-0.015-0.002-0.019 0.001-0.006 0.012-0.023 0.020-0.035 0.028-0.046 0.067-0.109 0.067-0.188 0-0.094-0.077-0.172-0.172-0.172s-0.17 0.078-0.17 0.172c0 0.155-0.019 0.21-0.030 0.243-0.007 0.021-0.013 0.041-0.013 0.067 0 0.037 0.013 0.063 0.021 0.079-0.010 0.024-0.027 0.063-0.027 0.131 0 0.063 0.021 0.115 0.041 0.161s0.037 0.085 0.037 0.137c0 0.051-0.010 0.086-0.024 0.13-0.032 0.087-0.022 0.174-0.012 0.239 0.021 0.123 0.008 0.15-0.033 0.208-0.111 0.158-0.113 0.262-0.124 0.646l-0.001 0.059c-0.009 0.355-0.028 0.474-0.094 0.576-0.067 0.105-0.106 0.214-0.122 0.342-0.014 0.118-0.053 0.193-0.139 0.269-0.19 0.168-0.239 0.303-0.409 0.83 0.080-0.060 0.162-0.122 0.246-0.188 0.107-0.313 0.156-0.399 0.281-0.509zM5.496 14.329c0.11 0 0.2-0.090 0.2-0.201s-0.090-0.2-0.2-0.2c-0.11 0-0.2 0.090-0.2 0.2s0.090 0.201 0.2 0.201zM6.734 11.891c0-0.12 0.098-0.218 0.219-0.218 0.12 0 0.219 0.098 0.219 0.218 0 0.121-0.099 0.218-0.219 0.218s-0.219-0.096-0.219-0.218z"></path>
</symbol>
<symbol id="icon-royal-greenwich-festivals" viewBox="0 0 32 32">
<title>royal-greenwich-festivals</title>
<path d="M13.869 11.417c0-0.013 0.002-0.023 0.004-0.026 0.004 0 0.009-0.002 0.019-0.002h0.688c0.251 0 0.367 0.113 0.367 0.354 0 0.225-0.144 0.36-0.386 0.36h-0.692v-0.686zM13.623 13.772c0.146 0 0.246-0.096 0.246-0.234v-0.973h0.534c0.257 0 0.338 0.148 0.594 0.844l0.084 0.217c0.036 0.092 0.118 0.146 0.217 0.146 0.032 0 0.068-0.006 0.096-0.013 0.111-0.028 0.182-0.114 0.182-0.221 0-0.028-0.006-0.056-0.019-0.092l-0.082-0.199c-0.199-0.499-0.304-0.733-0.435-0.864 0.272-0.122 0.414-0.36 0.414-0.686 0-0.482-0.321-0.771-0.855-0.771h-0.793c-0.291 0-0.437 0.154-0.437 0.457v2.152c0 0.141 0.101 0.236 0.253 0.236v0z"></path>
<path d="M17.365 11.348c0.457 0 0.754 0.383 0.754 0.971 0 0.632-0.281 1.009-0.754 1.009-0.469 0-0.759-0.379-0.759-0.988 0-0.611 0.291-0.992 0.759-0.992zM17.365 13.806c0.773 0 1.271-0.576 1.271-1.464 0-0.891-0.499-1.466-1.271-1.466-0.776 0-1.279 0.574-1.279 1.461 0 0.894 0.504 1.47 1.279 1.47z"></path>
<path d="M19.882 12.602v0.939c0 0.139 0.103 0.231 0.255 0.231 0.146 0 0.249-0.094 0.249-0.231v-0.939l0.878-1.318c0.028-0.036 0.043-0.082 0.043-0.127 0-0.088-0.054-0.171-0.139-0.216-0.047-0.026-0.092-0.039-0.139-0.039-0.081 0-0.152 0.041-0.195 0.113l-0.698 1.089-0.699-1.089c-0.047-0.071-0.118-0.113-0.199-0.113-0.051 0-0.094 0.019-0.133 0.036l-0.004 0.002c-0.090 0.051-0.142 0.131-0.142 0.217 0 0.039 0.011 0.075 0.038 0.12l0.885 1.326z"></path>
<path d="M22.529 11.651c0.008-0.019 0.015-0.037 0.021-0.056 0.008 0.017 0.013 0.034 0.021 0.053l0.33 0.863h-0.707l0.336-0.859zM21.287 13.532c0 0.103 0.077 0.201 0.184 0.227 0.032 0.008 0.060 0.013 0.092 0.013 0.103 0 0.186-0.058 0.219-0.154l0.24-0.641h1.046l0.246 0.643c0.036 0.096 0.12 0.156 0.227 0.156 0.026 0 0.056-0.006 0.081-0.013 0.114-0.030 0.193-0.12 0.193-0.225 0-0.034-0.008-0.064-0.021-0.090l-0.922-2.325c-0.054-0.141-0.169-0.217-0.326-0.217-0.154 0-0.264 0.073-0.317 0.216l-0.926 2.325c-0.009 0.032-0.015 0.058-0.015 0.086v0z"></path>
<path d="M24.832 13.751h1.303c0.131 0 0.229-0.105 0.229-0.246s-0.096-0.24-0.229-0.24h-1.202c-0.032 0-0.032-0.004-0.032-0.028v-2.098c0-0.139-0.099-0.232-0.253-0.232-0.152 0-0.253 0.094-0.253 0.236v2.156c-0.002 0.3 0.146 0.452 0.437 0.452z"></path>
<path d="M4.001 16.111h-0.546c-0.133 0-0.227 0.098-0.227 0.238s0.092 0.234 0.227 0.234l0.441-0.009c0 0.002 0.002 0.008 0.002 0.015v0.073c0 0.366-0.306 0.559-0.609 0.559-0.473 0-0.767-0.379-0.767-0.986 0-0.609 0.289-0.988 0.754-0.988 0.27 0 0.446 0.111 0.555 0.349 0.041 0.094 0.12 0.146 0.221 0.146 0.047 0 0.090-0.013 0.116-0.023 0.101-0.037 0.165-0.124 0.165-0.221 0-0.041-0.008-0.075-0.026-0.109-0.109-0.232-0.386-0.619-1.037-0.619-0.759 0-1.269 0.587-1.269 1.462 0 0.891 0.502 1.464 1.281 1.464 0.227 0 0.452-0.073 0.621-0.203 0.009 0.12 0.103 0.197 0.236 0.197 0.141 0 0.232-0.092 0.232-0.238v-0.956c0-0.257-0.124-0.386-0.369-0.386z"></path>
<path d="M6.233 15.999h-0.688v-0.686c0-0.015 0-0.023 0.002-0.024s0.009-0.004 0.019-0.004h0.688c0.253 0 0.367 0.109 0.367 0.354 0 0.225-0.144 0.36-0.388 0.36v0zM7.148 17.143c-0.197-0.501-0.302-0.735-0.433-0.864 0.27-0.124 0.412-0.36 0.412-0.686 0-0.484-0.319-0.771-0.853-0.771h-0.795c-0.289 0-0.437 0.154-0.437 0.457v2.152c0 0.142 0.103 0.236 0.255 0.236 0.146 0 0.247-0.096 0.247-0.234v-0.973h0.532c0.257 0 0.338 0.148 0.594 0.844l0.084 0.218c0.036 0.092 0.116 0.146 0.218 0.146 0.034 0 0.069-0.006 0.096-0.013 0.109-0.026 0.182-0.114 0.182-0.221 0-0.028-0.006-0.056-0.019-0.092l-0.084-0.199z"></path>
<path d="M9.591 17.169h-1.215c-0.026 0-0.032-0.004-0.036-0.015v-0.746h1.067c0.127 0 0.223-0.099 0.223-0.234 0-0.139-0.092-0.236-0.223-0.236h-1.067v-0.611c0-0.008 0-0.015 0.002-0.021v-0.006c0.004 0 0.011-0.002 0.024-0.002h1.192c0.133 0 0.227-0.098 0.227-0.24 0-0.139-0.092-0.238-0.227-0.238h-1.281c-0.291 0-0.439 0.156-0.439 0.459v1.914c0 0.3 0.148 0.454 0.439 0.454h1.313c0.131 0 0.227-0.101 0.227-0.24 0-0.141-0.094-0.238-0.227-0.238z"></path>
<path d="M12.2 17.169h-1.215c-0.023 0-0.030-0.004-0.036-0.017v-0.744h1.067c0.127 0 0.223-0.099 0.223-0.234 0-0.139-0.092-0.236-0.223-0.236h-1.067v-0.611c0-0.011 0.002-0.019 0.002-0.021l0.002-0.006c0.004 0 0.009-0.002 0.023-0.002h1.193c0.133 0 0.227-0.098 0.227-0.24 0-0.139-0.092-0.238-0.227-0.238h-1.283c-0.289 0-0.437 0.156-0.437 0.459v1.914c0 0.3 0.148 0.454 0.437 0.454h1.314c0.129 0 0.225-0.101 0.225-0.24 0-0.141-0.092-0.238-0.225-0.238z"></path>
<path d="M15.059 14.801c-0.152 0-0.253 0.092-0.253 0.231v1.028c0 0.285 0.013 0.559 0.023 0.746-0.082-0.15-0.165-0.296-0.234-0.411l-0.857-1.387c-0.066-0.105-0.146-0.206-0.351-0.206-0.182 0-0.306 0.12-0.306 0.296v2.342c0 0.135 0.105 0.231 0.253 0.231s0.251-0.096 0.251-0.231v-1.043c0-0.298-0.011-0.566-0.019-0.746 0.068 0.127 0.131 0.24 0.186 0.326l0.9 1.455c0.084 0.133 0.163 0.238 0.362 0.238 0.178 0 0.294-0.122 0.294-0.306v-2.332c0.004-0.139-0.099-0.231-0.249-0.231z"></path>
<path d="M16.85 17.667c0.161 0 0.272-0.082 0.311-0.231l0.405-1.536c0.013-0.049 0.024-0.103 0.038-0.163 0.013 0.064 0.024 0.12 0.038 0.171l0.386 1.522c0.038 0.15 0.15 0.236 0.311 0.236 0.159 0 0.274-0.084 0.315-0.229l0.668-2.353c0.004-0.017 0.008-0.037 0.008-0.062 0-0.111-0.081-0.195-0.21-0.216-0.026-0.008-0.051-0.008-0.066-0.008-0.122 0-0.206 0.062-0.24 0.176l-0.429 1.612c-0.009 0.041-0.023 0.096-0.036 0.159-0.011-0.066-0.024-0.12-0.036-0.163l-0.403-1.564c-0.036-0.139-0.146-0.221-0.302-0.221-0.075 0-0.257 0.023-0.309 0.217l-0.403 1.564c-0.013 0.045-0.023 0.098-0.036 0.157-0.015-0.066-0.024-0.118-0.038-0.161l-0.422-1.599c-0.028-0.111-0.116-0.178-0.236-0.178-0.021 0-0.041 0-0.060 0.006-0.139 0.023-0.219 0.105-0.219 0.221 0 0.021 0.006 0.047 0.009 0.073l0.641 2.333c0.041 0.15 0.157 0.234 0.315 0.234z"></path>
<path d="M20.167 14.801c-0.148 0-0.251 0.096-0.251 0.231v2.406c0 0.135 0.103 0.231 0.251 0.231 0.152 0 0.257-0.094 0.257-0.231v-2.406c0-0.139-0.103-0.231-0.257-0.231z"></path>
<path d="M22.371 15.248c0.364 0 0.495 0.199 0.576 0.394 0.043 0.088 0.126 0.139 0.227 0.139 0.039 0 0.077-0.008 0.109-0.019 0.082-0.028 0.167-0.107 0.167-0.221 0-0.037-0.008-0.073-0.019-0.103-0.126-0.304-0.413-0.668-1.073-0.668-0.756 0-1.262 0.589-1.262 1.463 0 0.891 0.503 1.468 1.284 1.468 0.712 0.002 0.99-0.486 1.095-0.778 0.009-0.028 0.015-0.056 0.015-0.086 0-0.116-0.096-0.201-0.184-0.221-0.032-0.009-0.062-0.015-0.092-0.015-0.113 0-0.203 0.064-0.24 0.169-0.098 0.3-0.302 0.452-0.604 0.452-0.457 0-0.754-0.384-0.754-0.984 0-0.609 0.289-0.988 0.754-0.988z"></path>
<path d="M24.571 17.437v-1.033h1.264v1.033c0 0.135 0.107 0.231 0.261 0.231 0.146 0 0.247-0.094 0.247-0.231v-2.406c0-0.135-0.101-0.231-0.247-0.231-0.156 0-0.261 0.092-0.261 0.231v0.896h-1.264v-0.896c0-0.135-0.105-0.231-0.255-0.231-0.152 0-0.251 0.092-0.251 0.231v2.406c0 0.135 0.103 0.231 0.251 0.231 0.15 0 0.255-0.096 0.255-0.231z"></path>
<path d="M6.753 18.718h-1.348c-0.293 0-0.437 0.148-0.437 0.454v2.154c0 0.139 0.103 0.236 0.251 0.236s0.253-0.096 0.253-0.233v-1.005h1.089c0.129 0 0.223-0.099 0.223-0.234 0-0.141-0.090-0.236-0.223-0.236h-1.089v-0.643c0-0.011 0.002-0.015 0.002-0.017 0 0 0.004-0.002 0.013-0.002h1.266c0.135 0 0.229-0.098 0.229-0.238s-0.094-0.236-0.229-0.236z"></path>
<path d="M9.307 21.064h-1.215c-0.026 0-0.032-0.004-0.036-0.015v-0.746h1.067c0.127 0 0.225-0.101 0.225-0.234 0-0.139-0.092-0.236-0.225-0.236h-1.065v-0.611c0-0.009 0-0.017 0.002-0.024v-0.002c0.006-0.002 0.013-0.002 0.023-0.002h1.194c0.133 0 0.227-0.098 0.227-0.238s-0.094-0.238-0.227-0.238h-1.282c-0.291 0-0.437 0.154-0.437 0.457v1.914c0 0.3 0.146 0.454 0.437 0.454h1.313c0.131 0 0.227-0.101 0.227-0.24s-0.092-0.238-0.227-0.238z"></path>
<path d="M11.357 19.866l-0.251-0.052c-0.362-0.071-0.424-0.171-0.424-0.354 0-0.204 0.184-0.33 0.482-0.33 0.27 0 0.424 0.103 0.489 0.324v0.002c0.037 0.096 0.126 0.156 0.234 0.156 0.026 0 0.053-0.004 0.075-0.009 0.116-0.023 0.199-0.114 0.199-0.225 0-0.028-0.006-0.054-0.015-0.075-0.073-0.238-0.298-0.636-0.982-0.636-0.733 0-0.994 0.427-0.994 0.793 0 0.471 0.236 0.712 0.812 0.831l0.274 0.056c0.409 0.084 0.48 0.195 0.48 0.394 0 0.24-0.206 0.388-0.536 0.388-0.433 0-0.523-0.199-0.581-0.418-0.030-0.101-0.124-0.167-0.236-0.167-0.024 0-0.043 0.004-0.081 0.009-0.122 0.030-0.199 0.12-0.199 0.233 0 0.021 0.004 0.039 0.011 0.067v0.002c0.064 0.223 0.217 0.742 1.101 0.742 0.628 0 1.033-0.337 1.033-0.859 0-0.568-0.354-0.759-0.891-0.872z"></path>
<path d="M14.619 18.718h-1.869c-0.126 0-0.221 0.103-0.221 0.242 0 0.137 0.094 0.236 0.223 0.236h0.681v2.137c0 0.135 0.105 0.229 0.253 0.229 0.15 0 0.253-0.094 0.253-0.229v-2.137h0.681c0.124 0 0.219-0.101 0.219-0.236 0-0.139-0.094-0.242-0.219-0.242z"></path>
<path d="M15.629 18.697c-0.148 0-0.251 0.094-0.251 0.231v2.404c0 0.135 0.103 0.231 0.251 0.231 0.152 0 0.257-0.094 0.257-0.231v-2.404c0-0.139-0.103-0.231-0.257-0.231z"></path>
<path d="M18.706 18.704h-0.004c-0.023-0.004-0.049-0.008-0.071-0.008-0.113 0-0.199 0.058-0.234 0.159l-0.658 1.856c-0.011 0.034-0.023 0.071-0.034 0.111-0.013-0.041-0.024-0.079-0.036-0.109l-0.662-1.862c-0.034-0.099-0.122-0.159-0.231-0.159-0.028 0-0.058 0.004-0.082 0.013-0.114 0.026-0.197 0.122-0.197 0.233 0 0.026 0.008 0.060 0.017 0.084l0.872 2.325c0.052 0.141 0.163 0.214 0.317 0.214 0.15 0 0.259-0.073 0.311-0.21l0.876-2.332c0.011-0.028 0.015-0.056 0.015-0.084 0.002-0.107-0.075-0.195-0.199-0.231z"></path>
<path d="M19.825 20.3l0.337-0.859c0.006-0.019 0.013-0.038 0.021-0.056 0.006 0.017 0.011 0.034 0.019 0.052l0.33 0.863h-0.707zM20.504 18.913c-0.054-0.139-0.169-0.216-0.324-0.216s-0.266 0.073-0.319 0.214l-0.924 2.325c-0.011 0.030-0.015 0.056-0.015 0.086 0 0.105 0.077 0.201 0.184 0.227 0.028 0.009 0.058 0.015 0.090 0.015 0.105 0 0.188-0.058 0.221-0.156l0.238-0.641h1.048l0.246 0.643c0.036 0.096 0.122 0.156 0.225 0.156 0.028 0 0.056-0.006 0.082-0.013 0.114-0.028 0.191-0.12 0.191-0.225 0-0.034-0.006-0.064-0.019-0.090l-0.924-2.325z"></path>
<path d="M23.687 21.055h-1.202c-0.032 0-0.032-0.006-0.032-0.028v-2.096c0-0.141-0.101-0.234-0.253-0.234-0.15 0-0.253 0.094-0.253 0.236v2.154c0 0.304 0.146 0.454 0.437 0.454h1.303c0.131 0 0.229-0.105 0.229-0.246s-0.096-0.24-0.229-0.24z"></path>
<path d="M25.54 19.866l-0.251-0.052c-0.362-0.071-0.426-0.171-0.426-0.354 0-0.204 0.186-0.33 0.484-0.33 0.27 0 0.426 0.103 0.488 0.324l0.002 0.002c0.036 0.096 0.124 0.156 0.234 0.156 0.026 0 0.052-0.004 0.075-0.009 0.116-0.023 0.199-0.114 0.199-0.225 0-0.028-0.006-0.054-0.015-0.075-0.073-0.238-0.296-0.636-0.983-0.636-0.733 0-0.994 0.427-0.994 0.793 0 0.471 0.236 0.712 0.812 0.831l0.274 0.056c0.409 0.084 0.48 0.195 0.48 0.394 0 0.24-0.206 0.388-0.536 0.388-0.433 0-0.523-0.199-0.581-0.418-0.030-0.101-0.122-0.167-0.236-0.167-0.023 0-0.043 0.004-0.082 0.009-0.12 0.030-0.197 0.12-0.197 0.233 0 0.021 0.004 0.039 0.011 0.067v0.002c0.066 0.221 0.219 0.741 1.102 0.741 0.628 0 1.033-0.336 1.033-0.859-0.002-0.566-0.358-0.758-0.892-0.87z"></path>
<path d="M29.826 19.89h-0.849c-0.165 0-0.298 0.131-0.298 0.296v1.012c0 0.159 0.133 0.293 0.298 0.293h0.849c0.163 0 0.298-0.133 0.298-0.293v-1.012c0-0.167-0.135-0.296-0.298-0.296z"></path>
<path d="M29.826 16.484h-0.849c-0.165 0-0.298 0.129-0.298 0.289v1.117c0 0.004 0.004 0.006 0.004 0.009 0 0.008-0.004 0.013-0.004 0.019v1.112c0 0.165 0.133 0.296 0.298 0.296h0.849c0.163 0 0.298-0.131 0.298-0.296v-1.112c0-0.004-0.002-0.009-0.002-0.013 0-0.006 0.002-0.009 0.002-0.015v-1.117c0-0.159-0.135-0.289-0.298-0.289z"></path>
<path d="M30.117 11.664v-0.412c0-0.167-0.135-0.296-0.296-0.296h-0.846c-0.165 0-0.296 0.129-0.296 0.296v4.316c0 0.159 0.133 0.293 0.298 0.293h0.849c0.163 0 0.298-0.133 0.298-0.293v-3.864c0-0.015-0.006-0.026-0.008-0.039z"></path>
</symbol>
<symbol id="icon-royal-greenwich" viewBox="0 0 32 32">
<title>royal-greenwich</title>
<path d="M26.797 12.287c-0.259-0.747-0.693-0.835-0.917-0.828 0.033-0.046 0.067-0.103 0.079-0.163 0.026-0.128-0.023-0.273-0.024-0.278-0.005-0.019-0.021-0.033-0.042-0.033 0 0-0.011-0.002-0.024-0.002-0.058 0-0.168 0.007-0.245 0.053-0.049 0.028-0.105 0.091-0.149 0.149-0.016-0.095-0.058-0.22-0.161-0.336-0.177-0.198-0.473-0.297-0.886-0.297-0.39 0.002-0.683 0.098-0.872 0.29-0.114 0.119-0.165 0.245-0.187 0.339-0.033-0.046-0.077-0.091-0.13-0.117-0.107-0.058-0.245-0.061-0.275-0.061-0.019 0-0.037 0.012-0.044 0.030-0.003 0.009-0.063 0.159-0.030 0.275 0.012 0.051 0.049 0.11 0.081 0.161-0.2-0.016-0.634 0.039-0.88 0.749-0.14 0.402-0.143 0.732-0.014 0.976 0.068 0.13 0.166 0.212 0.247 0.261-0.054 0.016-0.108 0.042-0.152 0.079-0.102 0.088-0.152 0.231-0.156 0.236-0.007 0.018 0 0.040 0.014 0.054 0.007 0.004 0.137 0.11 0.257 0.121 0.054 0.004 0.131-0.011 0.191-0.023-0.072 0.201-0.152 0.675 0.448 1.071 0.31 0.205 0.59 0.31 0.826 0.31 0.217 0 0.357-0.088 0.438-0.165 0.003 0.053 0.012 0.108 0.035 0.156 0.058 0.119 0.182 0.207 0.187 0.212 0.009 0.005 0.017 0.009 0.028 0.009 0.009 0 0.019-0.004 0.026-0.009 0.007-0.004 0.138-0.093 0.187-0.2 0.019-0.047 0.026-0.108 0.030-0.166 0.086 0.082 0.235 0.178 0.457 0.178 0.219 0 0.46-0.095 0.724-0.278 0.336-0.235 0.529-0.488 0.574-0.756 0.024-0.147-0.002-0.271-0.033-0.352 0.046 0.014 0.098 0.024 0.149 0.024 0.012 0 0.026 0 0.038-0.004 0.131-0.016 0.256-0.107 0.261-0.11 0.017-0.012 0.023-0.031 0.019-0.051-0.002-0.007-0.046-0.161-0.135-0.24-0.047-0.040-0.126-0.072-0.189-0.091 0.159-0.142 0.48-0.513 0.248-1.174v0zM26.417 13.435c-0.017 0.009-0.026 0.030-0.023 0.049 0.002 0.019 0.017 0.035 0.035 0.039 0.051 0.012 0.189 0.053 0.243 0.1 0.046 0.039 0.077 0.112 0.095 0.161-0.038 0.023-0.114 0.063-0.187 0.073-0.107 0.012-0.25-0.059-0.252-0.059-0.019-0.011-0.044-0.005-0.058 0.012-0.016 0.018-0.017 0.040-0.003 0.058 0.002 0.002 0.116 0.165 0.075 0.402-0.042 0.24-0.222 0.471-0.534 0.69-0.245 0.173-0.471 0.261-0.669 0.261-0.322 0-0.462-0.235-0.467-0.242-0.011-0.019-0.033-0.030-0.054-0.023-0.023 0.007-0.037 0.028-0.035 0.051 0.005 0.051 0.011 0.193-0.019 0.261-0.023 0.054-0.084 0.107-0.122 0.138-0.037-0.030-0.098-0.088-0.13-0.152-0.037-0.079-0.026-0.212-0.019-0.257 0.005-0.021-0.009-0.042-0.026-0.051-0.005-0.005-0.012-0.005-0.019-0.005-0.016 0-0.028 0.007-0.038 0.018-0.002 0.002-0.005 0.007-0.007 0.011-0.003 0.011-0.119 0.236-0.448 0.236-0.217 0-0.478-0.098-0.773-0.292-0.703-0.462-0.389-1.017-0.375-1.040 0.011-0.018 0.009-0.039-0.005-0.054-0.012-0.016-0.033-0.021-0.052-0.016-0.002 0.002-0.161 0.056-0.256 0.047-0.056-0.004-0.128-0.047-0.17-0.077 0.017-0.042 0.058-0.116 0.114-0.165 0.065-0.056 0.198-0.082 0.241-0.088 0.024-0.002 0.042-0.021 0.044-0.044s-0.014-0.044-0.035-0.051c-0.002-0.002-0.208-0.058-0.326-0.278-0.116-0.22-0.11-0.521 0.021-0.896 0.208-0.6 0.551-0.686 0.738-0.686 0.089 0 0.149 0.018 0.149 0.018 0.023 0.009 0.046 0 0.058-0.018s0.011-0.042-0.005-0.058c-0.032-0.037-0.121-0.15-0.138-0.224-0.016-0.054 0.002-0.135 0.014-0.184 0.049 0.004 0.131 0.014 0.198 0.049 0.077 0.040 0.142 0.156 0.161 0.196 0.011 0.019 0.033 0.031 0.056 0.026 0.021-0.005 0.037-0.024 0.037-0.047 0-0.004-0.005-0.226 0.178-0.413 0.168-0.173 0.438-0.262 0.808-0.262 0.376 0 0.646 0.089 0.803 0.264 0.168 0.185 0.147 0.409 0.147 0.411-0.003 0.021 0.011 0.044 0.032 0.051 0.021 0.009 0.044 0 0.056-0.019 0.046-0.073 0.14-0.201 0.198-0.236 0.054-0.030 0.14-0.037 0.182-0.037 0.011 0.044 0.024 0.128 0.011 0.2-0.016 0.084-0.107 0.18-0.14 0.21-0.017 0.014-0.021 0.039-0.011 0.058 0.012 0.019 0.035 0.030 0.056 0.023 0.003 0 0.614-0.185 0.936 0.747 0.271 0.779-0.266 1.101-0.289 1.115v0z"></path>
<path d="M4.114 16.549c0-0.515-0.376-0.831-0.982-0.831h-0.752v2.97h0.429v-1.288h0.18c0.219 0 0.397 0.068 0.793 0.679l0.394 0.607h0.513c-0.205-0.282-0.278-0.381-0.406-0.586-0.229-0.371-0.396-0.644-0.667-0.824 0.32-0.124 0.499-0.381 0.499-0.726zM3.085 17.016h-0.276v-0.931h0.276c0.417 0 0.583 0.168 0.586 0.448 0.005 0.247-0.126 0.483-0.586 0.483z"></path>
<path d="M8.165 17.203c0-0.828-0.621-1.524-1.608-1.524-0.97 0-1.603 0.7-1.603 1.524 0 0.805 0.618 1.524 1.594 1.524 1.013 0 1.617-0.723 1.617-1.524zM5.395 17.203c0-0.653 0.495-1.132 1.162-1.132 0.672 0 1.167 0.48 1.167 1.132 0 0.648-0.495 1.132-1.167 1.132-0.665 0-1.162-0.483-1.162-1.132z"></path>
<path d="M9.451 18.689h0.429v-1.568l1.11-1.403h-0.516l-0.812 1.025-0.803-1.026h-0.516l1.11 1.4z"></path>
<path d="M12.121 15.702l-1.283 2.986h0.438l0.378-0.875h1.271l0.397 0.875h0.439l-1.337-2.986h-0.303zM11.82 17.429l0.446-1.076 0.483 1.076h-0.929z"></path>
<path d="M14.415 15.718v2.972h1.78v-0.385h-1.351v-2.587z"></path>
<path d="M3.987 21.479h0.574v0.609c-0.207 0.065-0.417 0.117-0.647 0.117-0.712 0-1.211-0.464-1.211-1.127 0-0.644 0.506-1.136 1.153-1.136 0.361 0 0.724 0.098 1.075 0.291v-0.43c-0.469-0.196-0.714-0.252-1.066-0.252-0.91 0-1.603 0.667-1.603 1.542 0 0.872 0.675 1.507 1.591 1.507 0.417 0 0.74-0.070 1.139-0.243v-1.26h-1.005v0.383z"></path>
<path d="M7.187 21.148c0.32-0.126 0.499-0.383 0.499-0.728 0-0.514-0.376-0.831-0.98-0.831h-0.754v2.97h0.429v-1.288h0.18c0.221 0 0.399 0.068 0.793 0.679l0.396 0.609h0.513c-0.207-0.282-0.28-0.383-0.408-0.588-0.229-0.369-0.396-0.644-0.667-0.823zM6.657 20.886h-0.277v-0.931h0.277c0.417 0 0.583 0.17 0.588 0.45 0.003 0.247-0.128 0.481-0.588 0.481z"></path>
<path d="M8.919 19.59v2.97h1.736v-0.385h-1.307v-0.922h1.223v-0.383h-1.223v-0.896h1.267v-0.383z"></path>
<path d="M11.44 19.59v2.97h1.736v-0.385h-1.307v-0.922h1.225v-0.383h-1.225v-0.896h1.267v-0.383z"></path>
<path d="M16.323 19.59v2.298l-2.025-2.298h-0.341v2.97h0.402v-2.287l1.999 2.287h0.367v-2.97z"></path>
<path d="M21.522 19.59l-0.816 2.046-0.833-2.046h-0.408l-0.828 2.046-0.826-2.046h-0.429l1.209 2.996h0.084l0.992-2.429 0.98 2.429h0.082l1.216-2.996z"></path>
<path d="M22.613 22.56h0.43v-2.97h-0.43z"></path>
<path d="M24.359 21.078c0-0.653 0.508-1.136 1.194-1.136 0.346 0 0.66 0.095 1.029 0.308v-0.455c-0.408-0.17-0.719-0.245-1.026-0.245-0.952 0-1.642 0.663-1.642 1.568 0 0.623 0.492 1.48 1.615 1.48 0.467 0 0.788-0.108 1.081-0.262v-0.464c-0.338 0.217-0.705 0.336-1.043 0.336-0.719-0.002-1.209-0.464-1.209-1.131z"></path>
<path d="M29.57 19.59v1.293h-1.673v-1.293h-0.43v2.97h0.43v-1.293h1.673v1.293h0.429v-2.97z"></path>
<path d="M17.802 16.864l-0.308 1.34c0.019 0.032 0.042 0.059 0.067 0.087 0.024 0.024 0.056 0.047 0.091 0.068 0.038 0.019 0.082 0.037 0.135 0.047 0.051 0.012 0.112 0.017 0.18 0.017 0.091 0 0.175-0.019 0.257-0.061 0.082-0.040 0.154-0.096 0.219-0.166 0.059-0.070 0.112-0.152 0.151-0.248 0.037-0.095 0.056-0.198 0.056-0.301 0-0.138-0.033-0.248-0.105-0.331-0.068-0.081-0.163-0.122-0.284-0.122-0.051 0-0.105 0.012-0.159 0.037-0.056 0.024-0.116 0.067-0.189 0.13h-0.005l0.18-0.786-0.011-0.017-0.441 0.024-0.017 0.072c0.026 0.003 0.052 0.005 0.077 0.009 0.026 0.002 0.047 0.007 0.063 0.014 0.019 0.009 0.032 0.019 0.042 0.035 0.009 0.016 0.014 0.038 0.014 0.067 0 0.012-0.002 0.026-0.003 0.040-0.002 0.012-0.005 0.026-0.009 0.046zM17.881 17.48c0.017-0.016 0.037-0.033 0.059-0.054 0.023-0.019 0.046-0.037 0.068-0.051 0.026-0.016 0.052-0.028 0.075-0.038 0.024-0.011 0.052-0.014 0.079-0.014 0.049 0 0.087 0.009 0.119 0.024 0.032 0.017 0.054 0.042 0.073 0.070 0.019 0.030 0.030 0.065 0.040 0.108 0.005 0.042 0.009 0.082 0.009 0.126 0 0.087-0.009 0.172-0.030 0.257-0.021 0.084-0.054 0.159-0.098 0.227-0.038 0.061-0.087 0.11-0.143 0.149-0.054 0.037-0.114 0.052-0.175 0.052-0.035 0-0.065-0.003-0.093-0.012-0.026-0.011-0.052-0.023-0.075-0.042-0.019-0.016-0.033-0.032-0.046-0.051s-0.019-0.035-0.023-0.052l0.159-0.7z"></path>
<path d="M19.228 17.257c-0.087 0.042-0.161 0.098-0.221 0.165-0.059 0.070-0.105 0.151-0.14 0.241-0.037 0.089-0.052 0.187-0.052 0.292 0 0.142 0.040 0.257 0.122 0.341 0.082 0.086 0.189 0.128 0.32 0.128 0.114 0 0.213-0.021 0.299-0.067 0.087-0.044 0.161-0.1 0.221-0.173 0.061-0.070 0.105-0.152 0.138-0.245 0.032-0.093 0.049-0.187 0.049-0.28 0-0.138-0.040-0.25-0.121-0.336s-0.191-0.128-0.331-0.128c-0.103-0.002-0.196 0.019-0.285 0.061zM19.66 17.362c0.040 0.056 0.061 0.14 0.061 0.252 0 0.091-0.009 0.177-0.028 0.264-0.017 0.086-0.044 0.161-0.079 0.227-0.033 0.068-0.079 0.126-0.133 0.168-0.054 0.044-0.117 0.065-0.187 0.065-0.079 0-0.138-0.028-0.177-0.086s-0.059-0.143-0.059-0.257c0-0.070 0.009-0.149 0.021-0.233 0.017-0.084 0.040-0.161 0.072-0.229 0.042-0.091 0.093-0.156 0.151-0.196s0.121-0.061 0.186-0.061c0.075 0.002 0.133 0.030 0.173 0.086z"></path>
<path d="M20.896 17.489c0 0.026 0.012 0.051 0.032 0.070 0.021 0.021 0.054 0.033 0.096 0.033 0.032 0 0.054-0.007 0.073-0.017 0.017-0.012 0.032-0.028 0.046-0.051 0.012-0.017 0.023-0.038 0.026-0.065 0.007-0.026 0.012-0.051 0.012-0.073 0-0.040-0.003-0.072-0.012-0.093-0.011-0.021-0.023-0.040-0.040-0.058-0.016-0.016-0.035-0.024-0.059-0.032-0.024-0.005-0.047-0.011-0.073-0.011-0.054 0-0.105 0.017-0.154 0.051-0.049 0.032-0.121 0.089-0.213 0.17h-0.007c0-0.068-0.014-0.119-0.040-0.156-0.026-0.033-0.072-0.051-0.137-0.051-0.035 0-0.075 0.007-0.124 0.019-0.047 0.016-0.102 0.035-0.165 0.061l-0.019 0.077c0.017-0.005 0.037-0.011 0.063-0.016 0.028-0.005 0.051-0.009 0.068-0.009 0.046 0 0.073 0.007 0.091 0.021 0.014 0.016 0.023 0.046 0.023 0.091 0 0.017-0.005 0.046-0.014 0.084-0.007 0.037-0.012 0.065-0.016 0.086l-0.175 0.767h0.224l0.191-0.849c0.046-0.049 0.087-0.089 0.126-0.119 0.040-0.032 0.073-0.054 0.105-0.068 0.030-0.016 0.056-0.024 0.079-0.030s0.037-0.009 0.049-0.009c-0.016 0.030-0.026 0.059-0.040 0.091-0.009 0.032-0.014 0.059-0.014 0.084z"></path>
<path d="M21.948 17.194c-0.102 0-0.198 0.021-0.284 0.063-0.089 0.044-0.163 0.098-0.221 0.166-0.059 0.070-0.107 0.149-0.142 0.24s-0.052 0.189-0.052 0.294c0 0.143 0.042 0.256 0.124 0.341 0.082 0.084 0.187 0.126 0.32 0.126 0.114 0 0.213-0.021 0.299-0.067 0.087-0.042 0.159-0.102 0.221-0.173 0.059-0.072 0.107-0.152 0.138-0.245 0.032-0.095 0.047-0.187 0.047-0.28 0-0.138-0.038-0.25-0.121-0.336-0.079-0.086-0.189-0.13-0.331-0.13zM22.13 17.878c-0.019 0.084-0.046 0.161-0.079 0.227-0.035 0.068-0.079 0.124-0.135 0.168-0.054 0.046-0.117 0.065-0.186 0.065-0.082 0-0.14-0.026-0.178-0.086-0.040-0.058-0.059-0.143-0.059-0.257 0-0.070 0.009-0.149 0.023-0.233 0.016-0.084 0.038-0.161 0.072-0.229 0.042-0.091 0.091-0.156 0.151-0.198 0.056-0.038 0.121-0.059 0.186-0.059 0.075 0 0.131 0.028 0.173 0.086 0.040 0.056 0.059 0.14 0.059 0.252 0 0.091-0.009 0.178-0.026 0.264z"></path>
<path d="M23.69 18.274c-0.046 0-0.079-0.009-0.096-0.024-0.019-0.016-0.030-0.047-0.030-0.091 0-0.014 0.003-0.035 0.011-0.068s0.012-0.067 0.021-0.098l0.177-0.761-0.016-0.019-0.208 0.016-0.206 0.891c-0.054 0.054-0.108 0.093-0.159 0.121-0.056 0.026-0.107 0.040-0.159 0.040-0.051 0-0.086-0.016-0.108-0.046-0.023-0.032-0.035-0.073-0.035-0.128 0-0.014 0.003-0.037 0.009-0.065 0.005-0.030 0.011-0.059 0.019-0.093l0.105-0.438c0.007-0.024 0.011-0.049 0.014-0.073 0.005-0.024 0.005-0.044 0.005-0.056 0-0.056-0.016-0.098-0.044-0.128-0.032-0.030-0.077-0.046-0.14-0.046-0.028 0-0.068 0.009-0.116 0.023s-0.102 0.033-0.165 0.061l-0.016 0.077c0.014-0.005 0.035-0.011 0.061-0.017s0.049-0.009 0.067-0.009c0.046 0 0.073 0.009 0.091 0.021 0.014 0.016 0.021 0.046 0.021 0.089 0 0.024-0.002 0.051-0.009 0.077-0.005 0.026-0.012 0.056-0.019 0.093l-0.091 0.375c-0.014 0.051-0.019 0.089-0.023 0.116s-0.003 0.049-0.003 0.068c0 0.070 0.019 0.128 0.061 0.172s0.102 0.065 0.178 0.065c0.049 0 0.089-0.005 0.121-0.011 0.032-0.011 0.065-0.023 0.103-0.044 0.033-0.017 0.067-0.035 0.098-0.061 0.033-0.023 0.068-0.052 0.105-0.081h0.007c0 0.051 0.016 0.093 0.047 0.13s0.079 0.056 0.143 0.056c0.038 0 0.079-0.007 0.122-0.021 0.044-0.012 0.1-0.032 0.165-0.058l0.019-0.079c-0.017 0.007-0.037 0.012-0.067 0.017-0.026 0.005-0.047 0.007-0.061 0.007z"></path>
<path d="M23.956 18.858c0.024 0.016 0.058 0.028 0.098 0.038 0.042 0.012 0.096 0.016 0.163 0.016 0.096 0 0.184-0.012 0.261-0.037s0.147-0.065 0.21-0.124c0.059-0.058 0.117-0.133 0.165-0.231 0.046-0.098 0.086-0.217 0.116-0.359l0.201-0.933-0.016-0.017-0.217 0.056c-0.032-0.021-0.073-0.038-0.124-0.052-0.051-0.016-0.103-0.023-0.163-0.023-0.091 0-0.178 0.023-0.262 0.065-0.086 0.042-0.157 0.098-0.217 0.166-0.063 0.072-0.114 0.154-0.149 0.247-0.037 0.091-0.054 0.187-0.054 0.285 0 0.142 0.032 0.254 0.093 0.334 0.063 0.081 0.152 0.121 0.268 0.121 0.044 0 0.086-0.007 0.124-0.019 0.037-0.014 0.073-0.032 0.11-0.052 0.032-0.017 0.061-0.037 0.091-0.059 0.028-0.023 0.051-0.042 0.067-0.054l0.007 0.002c-0.019 0.121-0.049 0.221-0.086 0.297-0.037 0.075-0.075 0.137-0.119 0.184-0.040 0.044-0.086 0.075-0.137 0.095s-0.096 0.030-0.14 0.030h-0.037c-0.005-0.014-0.014-0.035-0.026-0.063-0.014-0.030-0.026-0.054-0.040-0.073s-0.030-0.038-0.051-0.054c-0.019-0.016-0.047-0.026-0.075-0.026-0.037 0-0.067 0.012-0.087 0.037-0.021 0.023-0.033 0.054-0.033 0.089 0 0.019 0.003 0.038 0.014 0.059 0.009 0.023 0.023 0.040 0.047 0.058zM24.595 18.234c-0.054 0.032-0.108 0.049-0.165 0.049-0.044 0-0.081-0.009-0.107-0.024-0.028-0.017-0.051-0.038-0.067-0.068s-0.028-0.063-0.035-0.103c-0.007-0.038-0.011-0.082-0.011-0.128 0-0.086 0.012-0.17 0.038-0.256 0.024-0.086 0.058-0.159 0.096-0.219 0.046-0.063 0.093-0.114 0.149-0.151 0.054-0.037 0.112-0.054 0.173-0.054 0.042 0 0.075 0.007 0.103 0.016 0.026 0.012 0.049 0.026 0.067 0.046 0.017 0.021 0.030 0.044 0.037 0.065 0.007 0.024 0.011 0.047 0.011 0.067l-0.135 0.64c-0.051 0.049-0.1 0.087-0.156 0.121z"></path>
<path d="M25.701 16.864l-0.355 1.524h0.222l0.203-0.868c0.052-0.058 0.108-0.105 0.166-0.137 0.059-0.032 0.112-0.049 0.165-0.049 0.049 0 0.084 0.016 0.11 0.047 0.026 0.030 0.038 0.072 0.038 0.126 0 0.016-0.003 0.038-0.007 0.067-0.005 0.026-0.012 0.058-0.021 0.091l-0.117 0.441c-0.007 0.028-0.014 0.052-0.016 0.073-0.003 0.019-0.005 0.040-0.005 0.058 0 0.047 0.017 0.089 0.049 0.121 0.030 0.033 0.079 0.051 0.143 0.051 0.040 0 0.079-0.007 0.121-0.021 0.038-0.012 0.093-0.032 0.165-0.061l0.019-0.075c-0.016 0.005-0.037 0.011-0.065 0.016-0.026 0.005-0.051 0.009-0.067 0.009-0.044 0-0.075-0.009-0.096-0.024-0.019-0.016-0.028-0.047-0.028-0.091 0-0.019 0.003-0.044 0.011-0.077 0.007-0.032 0.016-0.061 0.019-0.087l0.102-0.38c0.009-0.035 0.016-0.070 0.019-0.108 0.003-0.035 0.007-0.061 0.007-0.075 0-0.070-0.021-0.128-0.063-0.172-0.046-0.044-0.103-0.067-0.178-0.067-0.082 0-0.154 0.017-0.219 0.052-0.063 0.032-0.137 0.082-0.217 0.147h-0.005l0.192-0.819-0.016-0.017-0.443 0.026-0.017 0.072c0.026 0.002 0.054 0.003 0.081 0.007s0.047 0.009 0.063 0.016c0.017 0.007 0.030 0.019 0.040 0.035s0.014 0.037 0.014 0.065c0 0.016-0.002 0.028-0.003 0.040-0.002 0.011-0.007 0.026-0.011 0.046z"></path>
<path d="M28.064 18.359c0.086-0.044 0.161-0.102 0.222-0.175 0.058-0.068 0.105-0.151 0.137-0.245 0.032-0.091 0.047-0.186 0.047-0.278 0-0.138-0.038-0.25-0.121-0.336-0.079-0.087-0.189-0.13-0.329-0.13-0.105 0-0.2 0.021-0.285 0.063-0.089 0.044-0.163 0.098-0.221 0.166-0.059 0.068-0.107 0.149-0.142 0.24-0.033 0.091-0.052 0.189-0.052 0.294 0 0.142 0.042 0.256 0.124 0.34 0.082 0.086 0.189 0.128 0.32 0.128 0.114 0 0.213-0.023 0.299-0.067zM27.623 18.254c-0.040-0.058-0.058-0.143-0.058-0.256 0-0.072 0.007-0.149 0.021-0.233 0.016-0.086 0.038-0.163 0.072-0.229 0.042-0.091 0.091-0.157 0.151-0.198 0.058-0.040 0.121-0.061 0.186-0.061 0.077 0 0.133 0.028 0.173 0.086 0.038 0.056 0.058 0.138 0.058 0.252 0 0.091-0.007 0.177-0.026 0.264-0.017 0.084-0.046 0.163-0.077 0.226-0.035 0.070-0.079 0.126-0.135 0.17-0.054 0.044-0.117 0.067-0.187 0.067-0.079 0-0.137-0.030-0.177-0.087z"></path>
<path d="M29.363 16.6c-0.065 0.028-0.124 0.067-0.175 0.119-0.052 0.051-0.098 0.112-0.14 0.186s-0.072 0.157-0.091 0.248l-0.017 0.079h-0.231l-0.023 0.108h0.233l-0.221 1.022c-0.032 0.143-0.068 0.254-0.114 0.331-0.042 0.077-0.095 0.117-0.156 0.122-0.011-0.016-0.023-0.035-0.037-0.058-0.012-0.023-0.026-0.040-0.037-0.054-0.016-0.017-0.032-0.030-0.051-0.042-0.019-0.011-0.040-0.016-0.063-0.016-0.040 0-0.070 0.012-0.091 0.038-0.019 0.026-0.032 0.054-0.032 0.089 0 0.042 0.017 0.075 0.051 0.102s0.084 0.038 0.154 0.038c0.128 0 0.248-0.054 0.371-0.166 0.119-0.11 0.2-0.254 0.236-0.429l0.208-0.977h0.297l0.026-0.108h-0.301l0.024-0.124c0.035-0.163 0.072-0.276 0.116-0.346 0.044-0.068 0.091-0.105 0.145-0.107 0.016 0.021 0.026 0.040 0.037 0.056 0.009 0.017 0.021 0.037 0.037 0.056 0.017 0.017 0.032 0.032 0.049 0.042 0.019 0.012 0.040 0.016 0.067 0.016 0.040 0 0.072-0.012 0.091-0.038 0.017-0.026 0.028-0.056 0.028-0.091 0-0.040-0.017-0.072-0.051-0.1-0.033-0.026-0.084-0.038-0.154-0.038-0.058-0.002-0.121 0.012-0.187 0.042z"></path>
<path d="M9.508 14.23c4.529-0.534 9.907-4.608 14.756-4.793 5.159-0.194 5.428 4.583 5.428 4.583s0.332-5.119-5.672-5.019c-5.374 0.089-11.267 5.068-16.399 4.933-4.501-0.117-5.439-1.809-5.621-2.338 0.22 0.684 1.472 3.344 7.508 2.634z"></path>
<path d="M26.116 13.4c0.121-0.096 0.401-0.394 0.21-0.938-0.203-0.59-0.555-0.677-0.747-0.677h-0.037c0.033-0.039 0.073-0.095 0.086-0.152 0.017-0.101-0.019-0.215-0.019-0.219l-0.007-0.018h-0.016c0 0-0.007-0.002-0.019-0.002-0.046 0-0.131 0.005-0.192 0.040-0.044 0.024-0.086 0.093-0.116 0.149-0.009-0.075-0.042-0.182-0.13-0.278-0.138-0.156-0.376-0.235-0.702-0.235-0.313 0-0.546 0.077-0.693 0.229-0.105 0.107-0.142 0.224-0.156 0.299-0.028-0.042-0.068-0.091-0.119-0.119-0.084-0.044-0.192-0.047-0.217-0.047h-0.017l-0.003 0.016c-0.003 0.005-0.046 0.124-0.024 0.212 0.012 0.051 0.051 0.108 0.084 0.152-0.021-0.004-0.046-0.005-0.073-0.005-0.168 0-0.476 0.079-0.654 0.598-0.112 0.32-0.116 0.581-0.014 0.777 0.067 0.131 0.166 0.201 0.233 0.236-0.049 0.014-0.11 0.039-0.154 0.075-0.079 0.065-0.128 0.152-0.13 0.156l-0.011 0.019 0.016 0.012c0.005 0.004 0.121 0.091 0.208 0.105 0.054 0.007 0.124-0.009 0.173-0.019-0.058 0.136-0.159 0.528 0.345 0.861 0.25 0.165 0.473 0.247 0.66 0.247 0.194 0 0.308-0.086 0.367-0.154 0 0.049 0.005 0.11 0.028 0.156 0.044 0.095 0.142 0.163 0.147 0.166l0.014 0.009 0.014-0.009c0.003-0.004 0.107-0.072 0.143-0.156 0.019-0.046 0.023-0.112 0.023-0.165 0.063 0.066 0.186 0.165 0.385 0.165 0.173 0 0.367-0.075 0.576-0.222 0.57-0.397 0.499-0.793 0.443-0.94 0.049 0.019 0.122 0.039 0.182 0.030 0.102-0.012 0.196-0.056 0.2-0.058l0.017-0.009-0.003-0.019c-0.003-0.005-0.040-0.136-0.108-0.198-0.042-0.040-0.131-0.059-0.191-0.072zM23.895 11.475c0.028-0.012 0.072-0.016 0.135-0.016 0.077 0 0.168 0.007 0.25 0.016 0.061 0.004 0.114 0.007 0.147 0.007h0.009c0.021 0 0.056-0.004 0.098-0.007 0.073-0.007 0.175-0.019 0.264-0.019 0.105 0 0.17 0.016 0.2 0.042 0.056 0.049 0.172 0.184 0.093 0.425-0.067 0.2-0.213 0.382-0.215 0.385-0.003 0.004-0.011 0.004-0.014 0.004-0.002-0.002-0.238-0.105-0.425-0.105-0.189 0-0.438 0.124-0.441 0.126s-0.005 0.002-0.005 0.002c-0.005 0-0.009-0.004-0.011-0.005-0.011-0.011-0.222-0.282-0.241-0.481-0.021-0.196 0.038-0.332 0.157-0.373zM22.738 13.061c0.002-0.079 0.073-0.236 0.131-0.359 0.026-0.061 0.052-0.114 0.061-0.143 0.007-0.019 0.016-0.054 0.026-0.096 0.038-0.15 0.098-0.378 0.18-0.422 0.037-0.019 0.095-0.042 0.166-0.042 0.091 0 0.18 0.033 0.268 0.1 0.168 0.131 0.289 0.331 0.291 0.334 0.003 0.004 0.003 0.011-0.002 0.014-0.002 0.002-0.18 0.185-0.243 0.361-0.065 0.178-0.033 0.453-0.033 0.457s-0.002 0.011-0.009 0.012c-0.002 0-0.229 0.073-0.418 0.073-0.046 0-0.086-0.004-0.121-0.012-0.192-0.049-0.301-0.15-0.297-0.277zM24.259 14.427c-0.084 0.136-0.186 0.212-0.287 0.212-0.021 0-0.044-0.004-0.063-0.011-0.077-0.023-0.205-0.138-0.308-0.229-0.051-0.044-0.095-0.082-0.121-0.1-0.017-0.012-0.047-0.030-0.082-0.053-0.135-0.082-0.338-0.205-0.357-0.297-0.014-0.070-0.024-0.25 0.184-0.394 0.175-0.121 0.404-0.178 0.406-0.18 0.005 0 0.012 0.002 0.014 0.007s0.126 0.226 0.275 0.339c0.154 0.114 0.425 0.163 0.429 0.163 0.007 0 0.012 0.007 0.012 0.012 0 0.014 0.007 0.357-0.102 0.53zM24.476 13.544c0 0 0.005 0.047-0.003 0.070-0.011 0.023-0.042 0.046-0.042 0.046s-0.030-0.021-0.042-0.049c-0.014-0.026-0.007-0.068-0.007-0.068s-0.072 0.15-0.313-0.009c-0.184-0.123-0.096-0.271-0.096-0.271s-0.044 0.016-0.068 0.012c-0.023-0.004-0.052-0.026-0.052-0.026s0.011-0.035 0.033-0.054c0.023-0.018 0.065-0.023 0.065-0.023s-0.17-0.046-0.082-0.301c0.079-0.226 0.233-0.17 0.233-0.17s-0.030-0.037-0.037-0.059c-0.005-0.026 0.009-0.059 0.009-0.059s0.035-0.002 0.061 0.014c0.024 0.014 0.044 0.053 0.044 0.053s-0.005-0.177 0.25-0.177c0.268 0 0.245 0.178 0.245 0.178s0.032-0.049 0.054-0.061c0.019-0.012 0.058-0.012 0.058-0.012s0.011 0.035 0.005 0.063c-0.005 0.030-0.037 0.058-0.037 0.058s0.159-0.053 0.241 0.191c0.070 0.201-0.075 0.285-0.075 0.285s0.047 0.011 0.063 0.028c0.019 0.016 0.032 0.053 0.032 0.053s-0.030 0.021-0.058 0.024c-0.030 0.004-0.070-0.016-0.070-0.016s0.098 0.133-0.114 0.282c-0.208 0.149-0.296 0-0.296 0zM25.829 14.002c-0.047 0.065-0.194 0.154-0.313 0.226-0.058 0.033-0.107 0.061-0.131 0.082-0.016 0.012-0.044 0.035-0.073 0.063-0.116 0.1-0.287 0.25-0.381 0.25h-0.011c-0.072-0.007-0.247-0.051-0.326-0.29-0.063-0.203-0.052-0.436-0.051-0.438 0-0.007 0.003-0.011 0.009-0.012 0.003 0 0.254-0.053 0.408-0.163 0.152-0.11 0.284-0.355 0.284-0.357 0.003-0.007 0.009-0.009 0.014-0.007 0.016 0.004 0.348 0.101 0.48 0.25 0.133 0.15 0.166 0.292 0.093 0.396zM26.102 13.138c-0.030 0.061-0.126 0.201-0.359 0.201h-0.028c-0.213-0.011-0.43-0.103-0.43-0.103-0.007-0.004-0.009-0.007-0.009-0.014 0-0.002 0.038-0.254-0.011-0.436-0.051-0.182-0.238-0.387-0.238-0.39-0.003-0.004-0.003-0.011 0-0.016 0.007-0.011 0.215-0.287 0.404-0.359 0.182-0.068 0.332-0.049 0.402 0.053 0.046 0.066 0.075 0.235 0.102 0.371 0.012 0.063 0.023 0.121 0.033 0.15 0.007 0.021 0.019 0.056 0.033 0.093 0.056 0.145 0.142 0.367 0.1 0.45z"></path>
</symbol>
<symbol id="icon-see-tickets" viewBox="0 0 32 32">
<title>see-tickets</title>
<path d="M24.226 15.778c-0.234-0.354-0.646-0.532-1.174-0.532-0.704 0-1.674 0.562-1.674 1.772 0 0.118 0 0.266 0.030 0.414l2.818-1.654zM23.228 21c-1.878 0-3.638-1.446-3.638-3.658 0-2.064 1.408-3.746 3.58-3.746 1.79 0 3.138 1.504 3.138 2.654l-4.254 2.508c0.352 0.412 0.94 0.53 1.496 0.53 0.528 0 1.38-0.266 2.466-1.062l-0.382 2.066c-0.676 0.472-1.556 0.708-2.406 0.708v0zM17.064 15.778c-0.234-0.354-0.646-0.532-1.174-0.532-0.704 0-1.674 0.562-1.674 1.772 0 0.118 0 0.266 0.028 0.414l2.818-1.654zM16.068 21c-1.878 0-3.638-1.446-3.638-3.658 0-2.064 1.408-3.746 3.578-3.746 1.79 0 3.138 1.504 3.138 2.654l-4.254 2.508c0.352 0.412 0.94 0.53 1.496 0.53 0.528 0 1.38-0.266 2.464-1.062l-0.382 2.066c-0.676 0.472-1.554 0.708-2.406 0.708v0zM5.592 18.258c0.882 0.678 1.702 1.002 2.494 1.002 1.174 0 1.614-0.502 1.614-1.12 0-0.442-0.262-0.826-1.378-1.592-0.91-0.618-1.85-1.534-1.85-2.772 0-1.444 1.028-2.772 3.286-2.772 0.88 0 1.996 0.324 2.818 0.826l-0.41 1.71c-0.792-0.56-1.614-0.798-2.288-0.798-0.85 0-1.378 0.296-1.378 0.944 0 0.472 0.41 0.856 1.378 1.504 1.202 0.856 1.908 1.682 1.908 2.832 0 1.624-1.32 2.982-3.522 2.982-1.234 0-2.288-0.356-3.082-0.944l0.41-1.798z"></path>
</symbol>
<symbol id="icon-twitter" viewBox="0 0 32 32">
<title>twitter</title>
<path d="M32 7.076c-1.176 0.526-2.444 0.876-3.768 1.032 1.356-0.812 2.394-2.1 2.888-3.632-1.268 0.75-2.676 1.3-4.168 1.594-1.2-1.276-2.906-2.068-4.794-2.068-3.626 0-6.562 2.938-6.562 6.562 0 0.512 0.056 1.012 0.168 1.494-5.456-0.276-10.294-2.888-13.532-6.862-0.562 0.968-0.888 2.1-0.888 3.3 0 2.276 1.156 4.288 2.918 5.462-1.076-0.032-2.088-0.332-2.976-0.818 0 0.026 0 0.056 0 0.082 0 3.182 2.262 5.838 5.268 6.438-0.55 0.15-1.132 0.232-1.732 0.232-0.424 0-0.832-0.044-1.238-0.118 0.838 2.606 3.262 4.506 6.132 4.562-2.25 1.762-5.076 2.812-8.156 2.812-0.532 0-1.050-0.032-1.568-0.094 2.912 1.868 6.362 2.95 10.068 2.95 12.074 0 18.682-10.006 18.682-18.682 0-0.288-0.006-0.568-0.018-0.85 1.282-0.918 2.394-2.076 3.274-3.394z"></path>
</symbol>
</defs>
</svg>
