<svg aria-hidden="true" style="position: absolute; width: 0; height: 0; overflow: hidden;" version="1.1" xmlns="http://www.w3.org/2000/svg" xmlns:xlink="http://www.w3.org/1999/xlink">
<defs>
<symbol id="icon-national-maritime-museum" viewBox="0 0 32 32">
<title>national-maritime-museum</title>
<path d="M15.172 11.295v0.114l0.316 0.055 0.069 1.385-1.125-1.554h-0.673v0.114l0.304 0.055v1.734l-0.304 0.055v0.114h0.82v-0.114l-0.323-0.055-0.073-1.734 1.402 1.926h0.092v-1.926l0.281-0.055v-0.114h-0.786z"></path>
<path d="M17.322 11.267l-0.848 1.932-0.281 0.054v0.114h0.755v-0.114l-0.281-0.054 0.236-0.604h0.754l0.246 0.604-0.296 0.054v0.114h0.874v-0.114l-0.254-0.054-0.825-1.932h-0.080zM17.272 11.663l0.327 0.8h-0.645l0.318-0.8z"></path>
<path d="M18.713 11.295l-0.047 0.712 0.084 0.021 0.257-0.576 0.423-0.046v1.793l-0.341 0.055v0.114h0.987v-0.114l-0.338-0.055v-1.793l0.423 0.046 0.259 0.576 0.084-0.021-0.050-0.712z"></path>
<path d="M20.992 11.295v0.114l0.313 0.055v1.734l-0.313 0.055v0.114h0.938v-0.114l-0.312-0.055v-1.734l0.312-0.055v-0.114z"></path>
<path d="M22.419 12.337c0-0.537 0.417-1.074 1.001-1.074 0.583 0 1.002 0.538 1.002 1.074 0 0.54-0.407 1.058-1.002 1.058-0.593 0-1.001-0.517-1.001-1.058zM24.084 12.337c0-0.682-0.271-0.933-0.664-0.933-0.392 0-0.662 0.25-0.662 0.933 0 0.661 0.284 0.92 0.662 0.92 0.366 0 0.664-0.259 0.664-0.92z"></path>
<path d="M26.321 11.295v0.114l0.315 0.055 0.069 1.385-1.125-1.554h-0.675v0.114l0.307 0.055v1.734l-0.307 0.055v0.114h0.82v-0.114l-0.323-0.055-0.071-1.734 1.4 1.926h0.093v-1.926l0.282-0.055v-0.114h-0.785z"></path>
<path d="M28.471 11.267l-0.849 1.932-0.28 0.054v0.114h0.756v-0.114l-0.282-0.054 0.236-0.604h0.753l0.248 0.604-0.298 0.054v0.114h0.875v-0.114l-0.254-0.054-0.825-1.932h-0.080zM28.421 11.663l0.327 0.8h-0.645l0.318-0.8z"></path>
<path d="M30.049 11.295v0.114l0.304 0.055v1.734l-0.304 0.055v0.114h1.604l0.114-0.741-0.082-0.023-0.319 0.595-0.705 0.055v-1.79l0.312-0.055v-0.114h-0.924z"></path>
<path d="M15.661 14.885l-0.589 1.554-0.624-1.554h-0.689v0.114l0.304 0.055v1.734l-0.304 0.055v0.113h0.762v-0.113l-0.262-0.055-0.077-1.739 0.77 1.837h0.082l0.727-1.837v1.739l-0.258 0.055v0.113h0.859v-0.113l-0.289-0.055v-1.734l0.289-0.055v-0.114h-0.701z"></path>
<path d="M17.253 16.788l0.28 0.054v0.114h-0.754v-0.114l0.28-0.054 0.849-1.932h0.080l0.825 1.932 0.254 0.054v0.114h-0.875v-0.114l0.298-0.054-0.248-0.603h-0.755l-0.234 0.603zM17.858 15.253l-0.317 0.798h0.643l-0.326-0.798z"></path>
<path d="M20.923 16.866c-0.297-0.799-0.323-0.838-0.577-0.838h-0.247v0.76l0.306 0.054v0.114h-0.916v-0.114l0.304-0.054v-1.735l-0.304-0.054v-0.115h0.994c0.378 0 0.712 0.192 0.712 0.562 0 0.344-0.254 0.484-0.604 0.524v0.008c0.195 0.023 0.307 0.090 0.435 0.344l0.236 0.466 0.23 0.055v0.114h-0.404c-0.098-0.001-0.141-0.032-0.165-0.091v0zM20.099 15.888h0.29c0.389 0 0.484-0.106 0.484-0.439s-0.106-0.422-0.419-0.422h-0.355v0.861z"></path>
<path d="M21.892 16.843l0.311-0.055v-1.735l-0.311-0.054v-0.115h0.936v0.115l-0.312 0.054v1.735l0.312 0.055v0.113h-0.936z"></path>
<path d="M23.738 16.843l0.341-0.055v-1.794l-0.425 0.047-0.252 0.575-0.087-0.020 0.045-0.713h1.743l0.051 0.713-0.085 0.020-0.259-0.575-0.423-0.047v1.794l0.339 0.055v0.113h-0.988z"></path>
<path d="M25.643 16.843l0.312-0.055v-1.735l-0.312-0.054v-0.115h0.936v0.115l-0.311 0.054v1.735l0.311 0.055v0.113h-0.936z"></path>
<path d="M27.072 16.843l0.302-0.055v-1.735l-0.302-0.054v-0.115h0.688l0.625 1.555 0.589-1.555h0.701v0.115l-0.289 0.054v1.735l0.289 0.055v0.113h-0.86v-0.113l0.259-0.055v-1.739l-0.728 1.837h-0.080l-0.771-1.837 0.076 1.739 0.263 0.055v0.113h-0.763v-0.113z"></path>
<path d="M30.166 14.885v0.114l0.3 0.059v1.73l-0.3 0.055v0.113h1.732l0.102-0.682-0.078-0.020-0.304 0.544-0.848 0.049v-0.897l0.406 0.027 0.126 0.282h0.080v-0.744h-0.080l-0.126 0.306-0.406 0.024v-0.858l0.74 0.054 0.282 0.45 0.065-0.024-0.078-0.583h-1.613z"></path>
<path d="M15.661 18.474l-0.589 1.554-0.624-1.554h-0.689v0.113l0.304 0.055v1.735l-0.304 0.055v0.113h0.762v-0.113l-0.262-0.055-0.077-1.737 0.77 1.835h0.082l0.727-1.835v1.737l-0.258 0.055v0.113h0.859v-0.113l-0.289-0.055v-1.735l0.289-0.055v-0.113h-0.701z"></path>
<path d="M17.109 19.868v-1.227l-0.284-0.054v-0.113h0.87v0.113l-0.275 0.055v1.183c0 0.424 0.168 0.58 0.573 0.58 0.354 0 0.536-0.177 0.536-0.541v-1.222l-0.262-0.055v-0.113h0.716v0.113l-0.254 0.055-0.050 1.266c-0.016 0.446-0.302 0.662-0.76 0.662-0.478-0.001-0.81-0.236-0.81-0.702z"></path>
<path d="M19.675 20.354l-0.069 0.19h-0.091l-0.074-0.743 0.085-0.020c0.224 0.479 0.412 0.659 0.716 0.659 0.25 0 0.422-0.131 0.422-0.363 0-0.234-0.113-0.324-0.552-0.48-0.387-0.14-0.627-0.299-0.627-0.626 0-0.293 0.245-0.53 0.607-0.53 0.193 0 0.378 0.083 0.469 0.17l0.063-0.137h0.084l0.065 0.623-0.076 0.015c-0.193-0.38-0.362-0.531-0.607-0.531-0.218 0-0.371 0.128-0.371 0.304 0 0.208 0.102 0.271 0.51 0.42 0.389 0.142 0.697 0.306 0.697 0.689 0 0.341-0.274 0.579-0.678 0.579-0.275-0.001-0.476-0.121-0.573-0.219z"></path>
<path d="M21.411 18.474v0.113l0.302 0.059v1.731l-0.302 0.055v0.113h1.734l0.101-0.682-0.076-0.020-0.304 0.545-0.849 0.047v-0.896l0.405 0.027 0.126 0.282h0.083v-0.745h-0.083l-0.126 0.307-0.405 0.023v-0.857l0.74 0.055 0.282 0.45 0.064-0.022-0.078-0.585h-1.614z"></path>
<path d="M23.947 19.868v-1.227l-0.285-0.054v-0.113h0.871v0.113l-0.275 0.055v1.183c0 0.424 0.167 0.58 0.572 0.58 0.354 0 0.536-0.177 0.536-0.541v-1.222l-0.262-0.055v-0.113h0.717v0.113l-0.254 0.055-0.050 1.266c-0.016 0.446-0.302 0.662-0.76 0.662-0.478-0.001-0.81-0.236-0.81-0.702z"></path>
<path d="M28.187 18.474l-0.591 1.554-0.625-1.554h-0.688v0.113l0.305 0.055v1.735l-0.305 0.055v0.113h0.763v-0.113l-0.263-0.055-0.076-1.737 0.771 1.835h0.080l0.729-1.835v1.737l-0.258 0.055v0.113h0.857v-0.113l-0.289-0.055v-1.735l0.289-0.055v-0.113h-0.699z"></path>
<path d="M4.723 12.683c0.128 0 0.234-0.104 0.234-0.233s-0.106-0.233-0.234-0.233c-0.129 0-0.234 0.104-0.234 0.233s0.104 0.233 0.234 0.233zM2.569 12.349c0.108 0 0.197-0.088 0.197-0.197s-0.088-0.196-0.197-0.196c-0.109 0-0.197 0.088-0.197 0.196s0.087 0.197 0.197 0.197zM2.714 11.396c0.089 0 0.161-0.073 0.161-0.162s-0.072-0.162-0.161-0.162c-0.090 0-0.162 0.072-0.162 0.162s0.072 0.162 0.162 0.162zM8.784 16.225c0-0.092 0.059-0.274 0.103-0.408 0.039-0.118 0.057-0.175 0.057-0.209 0-0.050-0.040-0.092-0.090-0.092-0.076 0-0.138 0.090-0.23 0.236-0.023 0.037-0.046 0.075-0.070 0.107-0.034 0.048-0.049 0.062-0.066 0.062 0 0-0.018 0-0.018-0.020 0-0.031 0.059-0.126 0.071-0.172 0.017-0.060 0.002-0.12-0.119-0.12-0.147 0-0.269 0.067-0.419 0.2-0.066 0.057-0.174 0.178-0.366 0.178s-0.373 0.081-0.571 0.254c-0.614 0.535-1.195 0.955-1.68 1.214-0.474 0.252-0.529 0.389-0.529 0.471 0 0.113 0.065 0.182 0.175 0.182 0.161 0 0.41-0.092 0.651-0.184 0.196-0.073 0.399-0.149 0.498-0.149 0.022 0 0.024 0.018 0.024 0.021 0 0.030-0.050 0.086-0.090 0.131-0.066 0.075-0.134 0.152-0.134 0.243 0 0.078 0.057 0.156 0.185 0.156 0.098 0 0.188-0.050 0.26-0.092 0.037-0.020 0.084-0.047 0.134-0.076l0.071-0.040c0.090-0.052 0.19-0.098 0.4-0.098 0.703 0 1.024-0.323 1.024-0.623 0-0.282-0.294-0.376-0.555-0.46-0.187-0.060-0.364-0.117-0.364-0.224 0-0.072 0.128-0.146 0.372-0.146 0.292 0 0.489 0.066 0.678 0.129 0.162 0.055 0.313 0.104 0.502 0.104 0.121 0 0.203-0.068 0.203-0.169 0-0.074-0.027-0.14-0.054-0.201-0.026-0.062-0.053-0.128-0.053-0.205zM8.726 19.040c0-0.058-0.048-0.107-0.106-0.107-0.053 0-0.076 0.040-0.089 0.062-0.019 0.033-0.043 0.074-0.188 0.074-0.132 0-0.229-0.032-0.323-0.062-0.083-0.027-0.16-0.053-0.255-0.053-0.166 0-0.273 0.049-0.337 0.086 0.018-0.042 0.025-0.087 0.003-0.124-0.013-0.021-0.039-0.045-0.091-0.045-0.028 0-0.061 0.007-0.102 0.021-0.069 0.021-0.137 0.047-0.196 0.070-0.097 0.036-0.186 0.069-0.234 0.069-0.009 0-0.020-0.002-0.028-0.005 0.020-0.023 0.062-0.061 0.086-0.077 0.054-0.044 0.083-0.067 0.083-0.106 0-0.042-0.033-0.073-0.076-0.073-0.033 0-0.070 0.019-0.124 0.045-0.116 0.058-0.311 0.154-0.626 0.154-0.501 0-0.84 0.098-1.139 0.185-0.254 0.072-0.495 0.141-0.8 0.141-0.333 0-0.58-0.074-0.743-0.121-0.020-0.007-0.039-0.014-0.057-0.020-0.042-0.015-0.075-0.026-0.104-0.026-0.061 0-0.088 0.039-0.088 0.073 0 0.056 0.054 0.091 0.117 0.131l0.009 0.007c0.208 0.135 0.647 0.245 0.978 0.245 0.425 0 0.699-0.053 0.963-0.103 0.261-0.049 0.506-0.097 0.886-0.097 0.36 0 0.568-0.058 0.766-0.152 0.014 0.080 0.13 0.080 0.243 0.080 0.156 0 0.24-0.030 0.308-0.054l0.024-0.010c0.019-0.004 0.039-0.013 0.061-0.021 0.061-0.026 0.13-0.054 0.223-0.054 0.046 0 0.093 0.011 0.152 0.024 0.094 0.021 0.224 0.051 0.43 0.051 0.347 0.001 0.374-0.159 0.374-0.208zM3.567 18.725c0 0.174 0.342 0.272 0.557 0.272 0.357 0 0.769-0.101 0.769-0.248 0-0.062-0.062-0.076-0.17-0.093-0.024-0.005-0.075-0.018-0.104-0.035-0.077-0.052-0.208-0.079-0.428-0.079-0.274 0.001-0.624 0.009-0.624 0.183zM12.42 19.625c0 0.147-0.425 0.245-0.676 0.254-0.127 0.006-0.113 0 0.017-0.043 0.119-0.039 0.26-0.098 0.26-0.222 0-0.185-0.837-0.376-2.083-0.435 0.002 0.007 0.005 0.012 0.007 0.017 0.041 0.088 0.063 0.176 0.063 0.247 0 0.025-0.010 0.048-0.028 0.063v0.016c0.111 0.027 0.199 0.064 0.199 0.107 0 0.054-0.092 0.11-0.314 0.161-0.171 0.040-0.442 0.082-0.762 0.125 0.269-0.006 0.658-0.039 0.812-0.062 0.396-0.060 0.523-0.134 0.523-0.212 0-0.065-0.078-0.125-0.22-0.164-0.122-0.033-0.122-0.040-0.016-0.037 0.212 0.008 0.537 0.104 0.537 0.226 0 0.262-1.028 0.385-4.525 0.385s-4.524-0.123-4.524-0.385c0-0.122 0.325-0.218 0.536-0.226 0.105-0.003 0.105 0.004-0.015 0.037-0.142 0.039-0.22 0.099-0.22 0.164 0 0.078 0.127 0.152 0.523 0.212 0.154 0.023 0.543 0.057 0.812 0.062-0.32-0.043-0.591-0.085-0.762-0.125-0.223-0.051-0.314-0.107-0.314-0.161 0-0.032 0.052-0.062 0.125-0.085-0.010-0.016-0.016-0.033-0.016-0.052 0-0.119 0.041-0.215 0.090-0.312-1.229 0.062-2.052 0.25-2.052 0.433 0 0.124 0.143 0.183 0.262 0.222 0.129 0.043 0.145 0.049 0.017 0.043-0.25-0.008-0.676-0.106-0.676-0.253 0-0.225 0.928-0.505 2.505-0.552 0.092-0.186 0.216-0.436 0.216-0.749 0-0.356-0.038-0.473-0.080-0.608-0.022-0.070-0.046-0.144-0.065-0.252-0.016-0.091-0.027-0.186-0.039-0.277-0.022-0.182-0.043-0.354-0.098-0.487-0.013-0.031-0.024-0.061-0.035-0.088-0.043-0.107-0.083-0.211-0.131-0.243-0.005-0.005-0.010-0.008-0.014-0.014-0.060-0.044-0.095-0.111-0.095-0.184 0-0.13 0.105-0.235 0.235-0.235 0.085 0 0.164 0.048 0.206 0.124 0.002 0.005 0.005 0.010 0.008 0.015 0.022 0.051 0.127 0.182 0.246 0.182 0.025-0.001 0.079-0.039 0.137-0.103 0.001-0.005 0.004-0.008 0.007-0.012 0.095-0.11 0.199-0.292 0.199-0.516 0-0.132-0.001-0.19-0.035-0.293-0.021-0.063-0.018-0.117-0.014-0.169 0.003-0.050 0.007-0.104-0.009-0.183-0.052-0.26-0.146-0.437-0.255-0.486-0.016-0.007-0.028-0.018-0.037-0.031-0.041-0.039-0.062-0.090-0.062-0.145 0-0.106 0.080-0.193 0.182-0.205-0.001-0.003-0.002-0.005-0.004-0.009-0.013-0.026-0.028-0.058-0.041-0.112-0.017-0.074-0.017-0.116-0.018-0.146 0-0.018 0-0.026-0.003-0.038-0.003-0.014-0.008-0.025-0.014-0.042-0.010-0.025-0.022-0.055-0.033-0.105-0.013-0.057-0.013-0.099-0.013-0.131 0-0.024 0-0.040-0.004-0.057-0.011-0.036-0.014-0.042-0.051-0.055-0.089-0.036-0.146-0.119-0.146-0.213 0-0.126 0.103-0.229 0.229-0.229s0.229 0.103 0.229 0.229c0 0.059 0.009 0.122 0.026 0.186 0.005 0.016 0.012 0.029 0.025 0.050 0.019 0.029 0.040 0.065 0.058 0.123 0.016 0.050 0.019 0.083 0.021 0.11 0.001 0.016 0.003 0.027 0.006 0.039 0.003 0.010 0.007 0.018 0.017 0.033 0.016 0.027 0.039 0.063 0.062 0.138 0.015 0.049 0.021 0.082 0.026 0.111 0.004 0.021 0.007 0.039 0.014 0.063 0.006 0.021 0.012 0.042 0.018 0.063 0.009 0.031 0.019 0.063 0.027 0.095 0.001 0.004 0.021 0.082 0.021 0.161 0 0.176 0.32 0.651 0.553 0.998 0.144 0.213 0.274 0.377 0.398 0.499 0.134 0.13 0.218 0.182 0.368 0.256 0.167 0.083 0.248 0.133 0.304 0.23 0.015 0.027 0.047 0.054 0.087 0.087 0.018 0.016 0.037 0.030 0.057 0.050 0.144 0.128 0.196 0.235 0.217 0.335 0.024-0.014 0.051-0.020 0.078-0.020s0.056 0.007 0.080 0.020c-0.107 0.074-0.211 0.141-0.311 0.201-0.003-0.023-0.005-0.052-0.007-0.084-0.007-0.102-0.025-0.189-0.173-0.322-0.019-0.017-0.037-0.032-0.053-0.045-0.049-0.041-0.095-0.080-0.126-0.134-0.029-0.050-0.068-0.081-0.229-0.161s-0.264-0.143-0.413-0.288c-0.135-0.132-0.269-0.299-0.421-0.525-0.117-0.173-0.222-0.332-0.31-0.473-0.049-0.083-0.102-0.135-0.143-0.12s-0.048 0.075-0.048 0.195c0.001 0.037-0.001 0.068-0.003 0.096-0.003 0.047-0.003 0.073 0.006 0.103 0.042 0.127 0.044 0.207 0.044 0.348 0 0.263-0.122 0.505-0.262 0.654-0.093 0.109-0.143 0.282-0.143 0.5 0 0.505 0.374 0.748 0.801 0.823-0.377 0.064-0.699 0.055-0.913-0.015 0.156 0.128 0.455 0.193 0.72 0.193l0.008 0.001c0.66-0.001 1.624-0.182 3.24-1.568 0.444-0.381 0.769-0.696 0.983-0.905 0.049-0.046 0.091-0.087 0.127-0.122 0.297-0.284 0.447-0.494 0.545-0.983 0.032-0.154 0.159-0.261 0.31-0.261 0.104 0 0.19 0.092 0.19 0.204 0 0.115-0.067 0.188-0.149 0.266-0.080 0.077-0.127 0.208-0.127 0.349 0 0.327 0.176 0.553 0.459 0.606 0.042 0.007 0.087 0.011 0.134 0.011 0.306 0 0.467-0.205 0.576-0.444-0.1 0.145-0.266 0.258-0.537 0.258-0.091 0-0.16-0.021-0.212-0.049 0.306-0.167 0.564-0.424 0.663-0.668 0.097-0.234 0.238-0.453 0.388-0.601 0.068-0.066 0.089-0.119 0.113-0.17s0.045-0.103 0.102-0.153c0.045-0.041 0.124-0.128 0.188-0.224 0.032-0.047 0.055-0.095 0.076-0.137 0.023-0.046 0.043-0.086 0.069-0.118 0.001-0.001 0.002-0.003 0.003-0.004 0.004-0.003 0.007-0.006 0.011-0.009 0.002-0.002 0.005-0.003 0.005-0.004 0.016-0.012 0.031-0.020 0.044-0.022 0.015-0.009 0.036-0.018 0.063-0.018 0.090 0 0.165 0.074 0.165 0.165 0 0.040-0.015 0.139-0.154 0.196-0.059 0.024-0.089 0.063-0.155 0.175-0.016 0.026-0.032 0.053-0.051 0.081-0.023 0.035-0.048 0.071-0.070 0.113-0.009 0.016-0.016 0.037-0.023 0.061-0.009 0.027-0.018 0.055-0.031 0.081-0.030 0.059-0.063 0.096-0.090 0.126-0.014 0.016-0.025 0.029-0.033 0.042-0.016 0.025-0.020 0.077-0.021 0.11-0.008 0.105-0.053 0.208-0.133 0.381-0.498 1.079-0.74 2.019-0.74 2.875 0 0.688 0.243 1.344 0.376 1.652 1.588 0.045 2.526 0.328 2.526 0.553zM9.202 20.253c-0.351 0.008-1.333 0.056-3.005 0.056s-2.657-0.048-3.007-0.056c-0.113-0.003-0.123 0.020-0.009 0.043 0.402 0.077 1.695 0.143 3.016 0.143s2.613-0.065 3.015-0.143c0.113-0.024 0.103-0.046-0.010-0.043zM8.495 12.478c0.12 0 0.217-0.098 0.217-0.217s-0.098-0.217-0.217-0.217c-0.119 0-0.216 0.097-0.216 0.217 0 0.119 0.096 0.217 0.216 0.217zM7.824 13.255c0.099 0 0.178-0.079 0.178-0.177s-0.079-0.178-0.178-0.178c-0.097 0-0.176 0.080-0.176 0.178s0.079 0.177 0.176 0.177zM8.020 11.526c0.147 0 0.263-0.118 0.263-0.263s-0.116-0.263-0.263-0.263c-0.145 0-0.261 0.118-0.261 0.263-0.001 0.145 0.116 0.263 0.261 0.263zM6.37 15.938c0.118-0.105 0.177-0.219 0.196-0.379 0.012-0.101 0.042-0.186 0.095-0.269 0.093-0.145 0.113-0.3 0.123-0.666l0.001-0.059c0.010-0.387 0.014-0.44 0.091-0.551 0.074-0.105 0.089-0.181 0.062-0.336-0.007-0.048-0.013-0.103 0.005-0.152 0.034-0.097 0.057-0.136 0.093-0.121 0.044 0.019 0.081 0.056 0.054 0.163-0.045 0.17-0.065 0.524 0.014 0.748 0.021 0.056 0.038 0.105 0.038 0.16 0 0.046-0.026 0.092-0.048 0.122-0.084 0.114-0.163 0.393-0.163 0.572 0 0.048 0.011 0.086 0.022 0.124s0.021 0.076 0.021 0.133c0 0.124-0.025 0.223-0.058 0.312 0.087-0.090 0.197-0.215 0.231-0.259 0.001-0.018 0.002-0.035 0.002-0.054 0-0.082-0.016-0.137-0.029-0.182-0.008-0.031-0.015-0.052-0.015-0.075 0-0.151 0.074-0.392 0.13-0.469 0.055-0.075 0.083-0.151 0.083-0.226 0-0.085-0.026-0.157-0.050-0.222-0.063-0.178-0.049-0.494-0.009-0.643 0.042-0.165-0.010-0.297-0.146-0.363-0.032-0.015-0.032-0.016-0.040-0.041-0.008-0.029-0.004-0.045 0.001-0.076 0.005-0.028 0.012-0.062 0.008-0.108-0.005-0.066-0.036-0.106-0.055-0.131 0-0.002-0.002-0.004-0.003-0.005 0.005-0.015 0.014-0.037 0.014-0.067 0-0.024-0.005-0.043-0.009-0.058-0.003-0.015-0.003-0.015-0.002-0.019 0.001-0.006 0.012-0.023 0.020-0.035 0.028-0.046 0.067-0.109 0.067-0.188 0-0.094-0.077-0.172-0.172-0.172s-0.17 0.078-0.17 0.172c0 0.155-0.019 0.21-0.030 0.243-0.007 0.021-0.013 0.041-0.013 0.067 0 0.037 0.013 0.063 0.021 0.079-0.010 0.024-0.027 0.063-0.027 0.131 0 0.063 0.021 0.115 0.041 0.161s0.037 0.085 0.037 0.137c0 0.051-0.010 0.086-0.024 0.13-0.032 0.087-0.022 0.174-0.012 0.239 0.021 0.123 0.008 0.15-0.033 0.208-0.111 0.158-0.113 0.262-0.124 0.646l-0.001 0.059c-0.009 0.355-0.028 0.474-0.094 0.576-0.067 0.105-0.106 0.214-0.122 0.342-0.014 0.118-0.053 0.193-0.139 0.269-0.19 0.168-0.239 0.303-0.409 0.83 0.080-0.060 0.162-0.122 0.246-0.188 0.107-0.313 0.156-0.399 0.281-0.509zM5.496 14.329c0.11 0 0.2-0.090 0.2-0.201s-0.090-0.2-0.2-0.2c-0.11 0-0.2 0.090-0.2 0.2s0.090 0.201 0.2 0.201zM6.734 11.891c0-0.12 0.098-0.218 0.219-0.218 0.12 0 0.219 0.098 0.219 0.218 0 0.121-0.099 0.218-0.219 0.218s-0.219-0.096-0.219-0.218z"></path>
</symbol>
<symbol id="icon-heineken" viewBox="0 0 32 32">
<title>heineken</title>
<path d="M13.218 15.417v3.896h0.835v-2.157c0.173 0.127 1.26 2.082 1.461 2.157h0.661c0.143-0.026 0.211-0.144 0.209-0.348v-3.664h-0.87c0 0.46-0.042 1.716 0.035 2.099-0.095-0.034-0.062 0.001-0.207-0.245l-0.573-0.888c-0.542-0.857-0.471-0.954-1.446-0.954-0.080 0-0.104 0.024-0.104 0.104z"></path>
<path d="M28.681 19.301h0.828l-0.028-2.157c0.199 0.134 0.921 1.527 1.496 2.157h0.617c0.159-0.021 0.217-0.093 0.22-0.311 0.007-0.468-0.074-3.195-0.007-3.354 0.039-0.129 0.118-0.143 0.158-0.155l0.009-0.181h-0.997v2.087c-0.096-0.070-1.108-1.696-1.133-1.72-0.14-0.216-0.334-0.351-0.607-0.368h-0.557v4.001z"></path>
<path d="M20.976 15.417v3.687c0 0.128 0.131 0.185 0.311 0.209h0.803v-1.67c0.145 0.039 0.059 0.018 0.222 0.265l0.612 0.953c0.231 0.329 0.369 0.427 0.645 0.452h0.76c0.062 0 0.127 0 0.196 0-0.029-0.124-1.422-2.248-1.496-2.366 0.053-0.035 0.299-0.319 0.348-0.383 0.116-0.153 0.248-0.242 0.368-0.397 0.077-0.1 0.104-0.116 0.178-0.204l0.497-0.651c-1.176 0-0.95-0.153-1.854 0.929-0.117 0.14-0.33 0.356-0.477 0.463v-1.392h-1.009c-0.080 0-0.104 0.024-0.104 0.104z"></path>
<path d="M7.443 18.965c-0.013 0.256 0.113 0.34 0.383 0.348h2.018c0.135-0.002 0.215-0.086 0.244-0.244v-0.487h-1.322c-0.12 0.007-0.194-0.034-0.209-0.139v-0.835h1.218v-0.765h-1.218v-0.765h1.531c0-0.409 0.088-0.689-0.209-0.765h-2.435v3.653z"></path>
<path d="M11.061 19.139c0 0.112 0.126 0.174 0.244 0.174h0.835v-4.001h-1.078v3.827z"></path>
<path d="M17.461 18.965c-0.013 0.256 0.113 0.34 0.383 0.348h2.018c0.135-0.002 0.215-0.086 0.244-0.244v-0.487h-1.322c-0.119 0.007-0.194-0.034-0.209-0.139v-0.835h1.218v-0.765h-1.218v-0.765h1.531c0-0.409 0.088-0.689-0.209-0.765h-2.435v3.653z"></path>
<path d="M25.067 18.965c-0.013 0.256 0.113 0.34 0.383 0.348h2.018c0.135-0.002 0.215-0.086 0.243-0.244v-0.487h-1.322c-0.119 0.007-0.194-0.034-0.209-0.139v-0.835h1.218v-0.765h-1.218v-0.765h1.531c0-0.409 0.088-0.689-0.209-0.765h-2.435v3.653z"></path>
<path d="M3.247 15.684l-0.015 3.57h1.088v-1.728l0.943-0.002-0.004 1.73h1.078v-3.953h-1.078v1.426c0.006 0.067-0.029 0.109-0.104 0.104h-0.731c-0.070 0.002-0.104-0.034-0.104-0.104v-1.426h-1.252c-0.017 0.266 0.188 0.149 0.18 0.383z"></path>
<path d="M1.561 14.571l0.764 0.569-0.3 1.040c-0.297 0.211-0.6 0.422-0.89 0.632-0.111 0.035-0.11-0.057-0.054-0.214l0.504-1.597c-0.504-0.375-1.007-0.75-1.511-1.125-0.051-0.042-0.044-0.106 0.096-0.107l1.833 0.021c0.186-0.568 0.372-1.136 0.557-1.704 0.038-0.107 0.108-0.091 0.139-0.011l0.557 1.736h1.882c0.053-0.001 0.064 0.040 0.024 0.071l-0.92 0.658h-1.040l-0.286-0.882c-0.019-0.051-0.052-0.050-0.069 0.001l-0.299 0.87-0.98 0.005c-0.045-0.001-0.044 0.016-0.009 0.037z"></path>
</symbol>
<symbol id="icon-royal-greenwich-festivals" viewBox="0 0 32 32">
<title>royal-greenwich-festivals</title>
<path d="M13.869 11.417c0-0.013 0.002-0.023 0.004-0.026 0.004 0 0.009-0.002 0.019-0.002h0.688c0.251 0 0.367 0.113 0.367 0.354 0 0.225-0.144 0.36-0.386 0.36h-0.692v-0.686zM13.623 13.772c0.146 0 0.246-0.096 0.246-0.234v-0.973h0.534c0.257 0 0.338 0.148 0.594 0.844l0.084 0.217c0.036 0.092 0.118 0.146 0.217 0.146 0.032 0 0.068-0.006 0.096-0.013 0.111-0.028 0.182-0.114 0.182-0.221 0-0.028-0.006-0.056-0.019-0.092l-0.082-0.199c-0.199-0.499-0.304-0.733-0.435-0.864 0.272-0.122 0.414-0.36 0.414-0.686 0-0.482-0.321-0.771-0.855-0.771h-0.793c-0.291 0-0.437 0.154-0.437 0.457v2.152c0 0.141 0.101 0.236 0.253 0.236v0z"></path>
<path d="M17.365 11.348c0.457 0 0.754 0.383 0.754 0.971 0 0.632-0.281 1.009-0.754 1.009-0.469 0-0.759-0.379-0.759-0.988 0-0.611 0.291-0.992 0.759-0.992zM17.365 13.806c0.773 0 1.271-0.576 1.271-1.464 0-0.891-0.499-1.466-1.271-1.466-0.776 0-1.279 0.574-1.279 1.461 0 0.894 0.504 1.47 1.279 1.47z"></path>
<path d="M19.882 12.602v0.939c0 0.139 0.103 0.231 0.255 0.231 0.146 0 0.249-0.094 0.249-0.231v-0.939l0.878-1.318c0.028-0.036 0.043-0.082 0.043-0.127 0-0.088-0.054-0.171-0.139-0.216-0.047-0.026-0.092-0.039-0.139-0.039-0.081 0-0.152 0.041-0.195 0.113l-0.698 1.089-0.699-1.089c-0.047-0.071-0.118-0.113-0.199-0.113-0.051 0-0.094 0.019-0.133 0.036l-0.004 0.002c-0.090 0.051-0.142 0.131-0.142 0.217 0 0.039 0.011 0.075 0.038 0.12l0.885 1.326z"></path>
<path d="M22.529 11.651c0.008-0.019 0.015-0.037 0.021-0.056 0.008 0.017 0.013 0.034 0.021 0.053l0.33 0.863h-0.707l0.336-0.859zM21.287 13.532c0 0.103 0.077 0.201 0.184 0.227 0.032 0.008 0.060 0.013 0.092 0.013 0.103 0 0.186-0.058 0.219-0.154l0.24-0.641h1.046l0.246 0.643c0.036 0.096 0.12 0.156 0.227 0.156 0.026 0 0.056-0.006 0.081-0.013 0.114-0.030 0.193-0.12 0.193-0.225 0-0.034-0.008-0.064-0.021-0.090l-0.922-2.325c-0.054-0.141-0.169-0.217-0.326-0.217-0.154 0-0.264 0.073-0.317 0.216l-0.926 2.325c-0.009 0.032-0.015 0.058-0.015 0.086v0z"></path>
<path d="M24.832 13.751h1.303c0.131 0 0.229-0.105 0.229-0.246s-0.096-0.24-0.229-0.24h-1.202c-0.032 0-0.032-0.004-0.032-0.028v-2.098c0-0.139-0.099-0.232-0.253-0.232-0.152 0-0.253 0.094-0.253 0.236v2.156c-0.002 0.3 0.146 0.452 0.437 0.452z"></path>
<path d="M4.001 16.111h-0.546c-0.133 0-0.227 0.098-0.227 0.238s0.092 0.234 0.227 0.234l0.441-0.009c0 0.002 0.002 0.008 0.002 0.015v0.073c0 0.366-0.306 0.559-0.609 0.559-0.473 0-0.767-0.379-0.767-0.986 0-0.609 0.289-0.988 0.754-0.988 0.27 0 0.446 0.111 0.555 0.349 0.041 0.094 0.12 0.146 0.221 0.146 0.047 0 0.090-0.013 0.116-0.023 0.101-0.037 0.165-0.124 0.165-0.221 0-0.041-0.008-0.075-0.026-0.109-0.109-0.232-0.386-0.619-1.037-0.619-0.759 0-1.269 0.587-1.269 1.462 0 0.891 0.502 1.464 1.281 1.464 0.227 0 0.452-0.073 0.621-0.203 0.009 0.12 0.103 0.197 0.236 0.197 0.141 0 0.232-0.092 0.232-0.238v-0.956c0-0.257-0.124-0.386-0.369-0.386z"></path>
<path d="M6.233 15.999h-0.688v-0.686c0-0.015 0-0.023 0.002-0.024s0.009-0.004 0.019-0.004h0.688c0.253 0 0.367 0.109 0.367 0.354 0 0.225-0.144 0.36-0.388 0.36v0zM7.148 17.143c-0.197-0.501-0.302-0.735-0.433-0.864 0.27-0.124 0.412-0.36 0.412-0.686 0-0.484-0.319-0.771-0.853-0.771h-0.795c-0.289 0-0.437 0.154-0.437 0.457v2.152c0 0.142 0.103 0.236 0.255 0.236 0.146 0 0.247-0.096 0.247-0.234v-0.973h0.532c0.257 0 0.338 0.148 0.594 0.844l0.084 0.218c0.036 0.092 0.116 0.146 0.218 0.146 0.034 0 0.069-0.006 0.096-0.013 0.109-0.026 0.182-0.114 0.182-0.221 0-0.028-0.006-0.056-0.019-0.092l-0.084-0.199z"></path>
<path d="M9.591 17.169h-1.215c-0.026 0-0.032-0.004-0.036-0.015v-0.746h1.067c0.127 0 0.223-0.099 0.223-0.234 0-0.139-0.092-0.236-0.223-0.236h-1.067v-0.611c0-0.008 0-0.015 0.002-0.021v-0.006c0.004 0 0.011-0.002 0.024-0.002h1.192c0.133 0 0.227-0.098 0.227-0.24 0-0.139-0.092-0.238-0.227-0.238h-1.281c-0.291 0-0.439 0.156-0.439 0.459v1.914c0 0.3 0.148 0.454 0.439 0.454h1.313c0.131 0 0.227-0.101 0.227-0.24 0-0.141-0.094-0.238-0.227-0.238z"></path>
<path d="M12.2 17.169h-1.215c-0.023 0-0.030-0.004-0.036-0.017v-0.744h1.067c0.127 0 0.223-0.099 0.223-0.234 0-0.139-0.092-0.236-0.223-0.236h-1.067v-0.611c0-0.011 0.002-0.019 0.002-0.021l0.002-0.006c0.004 0 0.009-0.002 0.023-0.002h1.193c0.133 0 0.227-0.098 0.227-0.24 0-0.139-0.092-0.238-0.227-0.238h-1.283c-0.289 0-0.437 0.156-0.437 0.459v1.914c0 0.3 0.148 0.454 0.437 0.454h1.314c0.129 0 0.225-0.101 0.225-0.24 0-0.141-0.092-0.238-0.225-0.238z"></path>
<path d="M15.059 14.801c-0.152 0-0.253 0.092-0.253 0.231v1.028c0 0.285 0.013 0.559 0.023 0.746-0.082-0.15-0.165-0.296-0.234-0.411l-0.857-1.387c-0.066-0.105-0.146-0.206-0.351-0.206-0.182 0-0.306 0.12-0.306 0.296v2.342c0 0.135 0.105 0.231 0.253 0.231s0.251-0.096 0.251-0.231v-1.043c0-0.298-0.011-0.566-0.019-0.746 0.068 0.127 0.131 0.24 0.186 0.326l0.9 1.455c0.084 0.133 0.163 0.238 0.362 0.238 0.178 0 0.294-0.122 0.294-0.306v-2.332c0.004-0.139-0.099-0.231-0.249-0.231z"></path>
<path d="M16.85 17.667c0.161 0 0.272-0.082 0.311-0.231l0.405-1.536c0.013-0.049 0.024-0.103 0.038-0.163 0.013 0.064 0.024 0.12 0.038 0.171l0.386 1.522c0.038 0.15 0.15 0.236 0.311 0.236 0.159 0 0.274-0.084 0.315-0.229l0.668-2.353c0.004-0.017 0.008-0.037 0.008-0.062 0-0.111-0.081-0.195-0.21-0.216-0.026-0.008-0.051-0.008-0.066-0.008-0.122 0-0.206 0.062-0.24 0.176l-0.429 1.612c-0.009 0.041-0.023 0.096-0.036 0.159-0.011-0.066-0.024-0.12-0.036-0.163l-0.403-1.564c-0.036-0.139-0.146-0.221-0.302-0.221-0.075 0-0.257 0.023-0.309 0.217l-0.403 1.564c-0.013 0.045-0.023 0.098-0.036 0.157-0.015-0.066-0.024-0.118-0.038-0.161l-0.422-1.599c-0.028-0.111-0.116-0.178-0.236-0.178-0.021 0-0.041 0-0.060 0.006-0.139 0.023-0.219 0.105-0.219 0.221 0 0.021 0.006 0.047 0.009 0.073l0.641 2.333c0.041 0.15 0.157 0.234 0.315 0.234z"></path>
<path d="M20.167 14.801c-0.148 0-0.251 0.096-0.251 0.231v2.406c0 0.135 0.103 0.231 0.251 0.231 0.152 0 0.257-0.094 0.257-0.231v-2.406c0-0.139-0.103-0.231-0.257-0.231z"></path>
<path d="M22.371 15.248c0.364 0 0.495 0.199 0.576 0.394 0.043 0.088 0.126 0.139 0.227 0.139 0.039 0 0.077-0.008 0.109-0.019 0.082-0.028 0.167-0.107 0.167-0.221 0-0.037-0.008-0.073-0.019-0.103-0.126-0.304-0.413-0.668-1.073-0.668-0.756 0-1.262 0.589-1.262 1.463 0 0.891 0.503 1.468 1.284 1.468 0.712 0.002 0.99-0.486 1.095-0.778 0.009-0.028 0.015-0.056 0.015-0.086 0-0.116-0.096-0.201-0.184-0.221-0.032-0.009-0.062-0.015-0.092-0.015-0.113 0-0.203 0.064-0.24 0.169-0.098 0.3-0.302 0.452-0.604 0.452-0.457 0-0.754-0.384-0.754-0.984 0-0.609 0.289-0.988 0.754-0.988z"></path>
<path d="M24.571 17.437v-1.033h1.264v1.033c0 0.135 0.107 0.231 0.261 0.231 0.146 0 0.247-0.094 0.247-0.231v-2.406c0-0.135-0.101-0.231-0.247-0.231-0.156 0-0.261 0.092-0.261 0.231v0.896h-1.264v-0.896c0-0.135-0.105-0.231-0.255-0.231-0.152 0-0.251 0.092-0.251 0.231v2.406c0 0.135 0.103 0.231 0.251 0.231 0.15 0 0.255-0.096 0.255-0.231z"></path>
<path d="M6.753 18.718h-1.348c-0.293 0-0.437 0.148-0.437 0.454v2.154c0 0.139 0.103 0.236 0.251 0.236s0.253-0.096 0.253-0.233v-1.005h1.089c0.129 0 0.223-0.099 0.223-0.234 0-0.141-0.090-0.236-0.223-0.236h-1.089v-0.643c0-0.011 0.002-0.015 0.002-0.017 0 0 0.004-0.002 0.013-0.002h1.266c0.135 0 0.229-0.098 0.229-0.238s-0.094-0.236-0.229-0.236z"></path>
<path d="M9.307 21.064h-1.215c-0.026 0-0.032-0.004-0.036-0.015v-0.746h1.067c0.127 0 0.225-0.101 0.225-0.234 0-0.139-0.092-0.236-0.225-0.236h-1.065v-0.611c0-0.009 0-0.017 0.002-0.024v-0.002c0.006-0.002 0.013-0.002 0.023-0.002h1.194c0.133 0 0.227-0.098 0.227-0.238s-0.094-0.238-0.227-0.238h-1.282c-0.291 0-0.437 0.154-0.437 0.457v1.914c0 0.3 0.146 0.454 0.437 0.454h1.313c0.131 0 0.227-0.101 0.227-0.24s-0.092-0.238-0.227-0.238z"></path>
<path d="M11.357 19.866l-0.251-0.052c-0.362-0.071-0.424-0.171-0.424-0.354 0-0.204 0.184-0.33 0.482-0.33 0.27 0 0.424 0.103 0.489 0.324v0.002c0.037 0.096 0.126 0.156 0.234 0.156 0.026 0 0.053-0.004 0.075-0.009 0.116-0.023 0.199-0.114 0.199-0.225 0-0.028-0.006-0.054-0.015-0.075-0.073-0.238-0.298-0.636-0.982-0.636-0.733 0-0.994 0.427-0.994 0.793 0 0.471 0.236 0.712 0.812 0.831l0.274 0.056c0.409 0.084 0.48 0.195 0.48 0.394 0 0.24-0.206 0.388-0.536 0.388-0.433 0-0.523-0.199-0.581-0.418-0.030-0.101-0.124-0.167-0.236-0.167-0.024 0-0.043 0.004-0.081 0.009-0.122 0.030-0.199 0.12-0.199 0.233 0 0.021 0.004 0.039 0.011 0.067v0.002c0.064 0.223 0.217 0.742 1.101 0.742 0.628 0 1.033-0.337 1.033-0.859 0-0.568-0.354-0.759-0.891-0.872z"></path>
<path d="M14.619 18.718h-1.869c-0.126 0-0.221 0.103-0.221 0.242 0 0.137 0.094 0.236 0.223 0.236h0.681v2.137c0 0.135 0.105 0.229 0.253 0.229 0.15 0 0.253-0.094 0.253-0.229v-2.137h0.681c0.124 0 0.219-0.101 0.219-0.236 0-0.139-0.094-0.242-0.219-0.242z"></path>
<path d="M15.629 18.697c-0.148 0-0.251 0.094-0.251 0.231v2.404c0 0.135 0.103 0.231 0.251 0.231 0.152 0 0.257-0.094 0.257-0.231v-2.404c0-0.139-0.103-0.231-0.257-0.231z"></path>
<path d="M18.706 18.704h-0.004c-0.023-0.004-0.049-0.008-0.071-0.008-0.113 0-0.199 0.058-0.234 0.159l-0.658 1.856c-0.011 0.034-0.023 0.071-0.034 0.111-0.013-0.041-0.024-0.079-0.036-0.109l-0.662-1.862c-0.034-0.099-0.122-0.159-0.231-0.159-0.028 0-0.058 0.004-0.082 0.013-0.114 0.026-0.197 0.122-0.197 0.233 0 0.026 0.008 0.060 0.017 0.084l0.872 2.325c0.052 0.141 0.163 0.214 0.317 0.214 0.15 0 0.259-0.073 0.311-0.21l0.876-2.332c0.011-0.028 0.015-0.056 0.015-0.084 0.002-0.107-0.075-0.195-0.199-0.231z"></path>
<path d="M19.825 20.3l0.337-0.859c0.006-0.019 0.013-0.038 0.021-0.056 0.006 0.017 0.011 0.034 0.019 0.052l0.33 0.863h-0.707zM20.504 18.913c-0.054-0.139-0.169-0.216-0.324-0.216s-0.266 0.073-0.319 0.214l-0.924 2.325c-0.011 0.030-0.015 0.056-0.015 0.086 0 0.105 0.077 0.201 0.184 0.227 0.028 0.009 0.058 0.015 0.090 0.015 0.105 0 0.188-0.058 0.221-0.156l0.238-0.641h1.048l0.246 0.643c0.036 0.096 0.122 0.156 0.225 0.156 0.028 0 0.056-0.006 0.082-0.013 0.114-0.028 0.191-0.12 0.191-0.225 0-0.034-0.006-0.064-0.019-0.090l-0.924-2.325z"></path>
<path d="M23.687 21.055h-1.202c-0.032 0-0.032-0.006-0.032-0.028v-2.096c0-0.141-0.101-0.234-0.253-0.234-0.15 0-0.253 0.094-0.253 0.236v2.154c0 0.304 0.146 0.454 0.437 0.454h1.303c0.131 0 0.229-0.105 0.229-0.246s-0.096-0.24-0.229-0.24z"></path>
<path d="M25.54 19.866l-0.251-0.052c-0.362-0.071-0.426-0.171-0.426-0.354 0-0.204 0.186-0.33 0.484-0.33 0.27 0 0.426 0.103 0.488 0.324l0.002 0.002c0.036 0.096 0.124 0.156 0.234 0.156 0.026 0 0.052-0.004 0.075-0.009 0.116-0.023 0.199-0.114 0.199-0.225 0-0.028-0.006-0.054-0.015-0.075-0.073-0.238-0.296-0.636-0.983-0.636-0.733 0-0.994 0.427-0.994 0.793 0 0.471 0.236 0.712 0.812 0.831l0.274 0.056c0.409 0.084 0.48 0.195 0.48 0.394 0 0.24-0.206 0.388-0.536 0.388-0.433 0-0.523-0.199-0.581-0.418-0.030-0.101-0.122-0.167-0.236-0.167-0.023 0-0.043 0.004-0.082 0.009-0.12 0.030-0.197 0.12-0.197 0.233 0 0.021 0.004 0.039 0.011 0.067v0.002c0.066 0.221 0.219 0.741 1.102 0.741 0.628 0 1.033-0.336 1.033-0.859-0.002-0.566-0.358-0.758-0.892-0.87z"></path>
<path d="M29.826 19.89h-0.849c-0.165 0-0.298 0.131-0.298 0.296v1.012c0 0.159 0.133 0.293 0.298 0.293h0.849c0.163 0 0.298-0.133 0.298-0.293v-1.012c0-0.167-0.135-0.296-0.298-0.296z"></path>
<path d="M29.826 16.484h-0.849c-0.165 0-0.298 0.129-0.298 0.289v1.117c0 0.004 0.004 0.006 0.004 0.009 0 0.008-0.004 0.013-0.004 0.019v1.112c0 0.165 0.133 0.296 0.298 0.296h0.849c0.163 0 0.298-0.131 0.298-0.296v-1.112c0-0.004-0.002-0.009-0.002-0.013 0-0.006 0.002-0.009 0.002-0.015v-1.117c0-0.159-0.135-0.289-0.298-0.289z"></path>
<path d="M30.117 11.664v-0.412c0-0.167-0.135-0.296-0.296-0.296h-0.846c-0.165 0-0.296 0.129-0.296 0.296v4.316c0 0.159 0.133 0.293 0.298 0.293h0.849c0.163 0 0.298-0.133 0.298-0.293v-3.864c0-0.015-0.006-0.026-0.008-0.039z"></path>
</symbol>
<symbol id="icon-royal-greenwich" viewBox="0 0 32 32">
<title>royal-greenwich</title>
<path d="M26.797 12.287c-0.259-0.747-0.693-0.835-0.917-0.828 0.033-0.046 0.067-0.103 0.079-0.163 0.026-0.128-0.023-0.273-0.024-0.278-0.005-0.019-0.021-0.033-0.042-0.033 0 0-0.011-0.002-0.024-0.002-0.058 0-0.168 0.007-0.245 0.053-0.049 0.028-0.105 0.091-0.149 0.149-0.016-0.095-0.058-0.22-0.161-0.336-0.177-0.198-0.473-0.297-0.886-0.297-0.39 0.002-0.683 0.098-0.872 0.29-0.114 0.119-0.165 0.245-0.187 0.339-0.033-0.046-0.077-0.091-0.13-0.117-0.107-0.058-0.245-0.061-0.275-0.061-0.019 0-0.037 0.012-0.044 0.030-0.003 0.009-0.063 0.159-0.030 0.275 0.012 0.051 0.049 0.11 0.081 0.161-0.2-0.016-0.634 0.039-0.88 0.749-0.14 0.402-0.143 0.732-0.014 0.976 0.068 0.13 0.166 0.212 0.247 0.261-0.054 0.016-0.108 0.042-0.152 0.079-0.102 0.088-0.152 0.231-0.156 0.236-0.007 0.018 0 0.040 0.014 0.054 0.007 0.004 0.137 0.11 0.257 0.121 0.054 0.004 0.131-0.011 0.191-0.023-0.072 0.201-0.152 0.675 0.448 1.071 0.31 0.205 0.59 0.31 0.826 0.31 0.217 0 0.357-0.088 0.438-0.165 0.003 0.053 0.012 0.108 0.035 0.156 0.058 0.119 0.182 0.207 0.187 0.212 0.009 0.005 0.017 0.009 0.028 0.009 0.009 0 0.019-0.004 0.026-0.009 0.007-0.004 0.138-0.093 0.187-0.2 0.019-0.047 0.026-0.108 0.030-0.166 0.086 0.082 0.235 0.178 0.457 0.178 0.219 0 0.46-0.095 0.724-0.278 0.336-0.235 0.529-0.488 0.574-0.756 0.024-0.147-0.002-0.271-0.033-0.352 0.046 0.014 0.098 0.024 0.149 0.024 0.012 0 0.026 0 0.038-0.004 0.131-0.016 0.256-0.107 0.261-0.11 0.017-0.012 0.023-0.031 0.019-0.051-0.002-0.007-0.046-0.161-0.135-0.24-0.047-0.040-0.126-0.072-0.189-0.091 0.159-0.142 0.48-0.513 0.248-1.174v0zM26.417 13.435c-0.017 0.009-0.026 0.030-0.023 0.049 0.002 0.019 0.017 0.035 0.035 0.039 0.051 0.012 0.189 0.053 0.243 0.1 0.046 0.039 0.077 0.112 0.095 0.161-0.038 0.023-0.114 0.063-0.187 0.073-0.107 0.012-0.25-0.059-0.252-0.059-0.019-0.011-0.044-0.005-0.058 0.012-0.016 0.018-0.017 0.040-0.003 0.058 0.002 0.002 0.116 0.165 0.075 0.402-0.042 0.24-0.222 0.471-0.534 0.69-0.245 0.173-0.471 0.261-0.669 0.261-0.322 0-0.462-0.235-0.467-0.242-0.011-0.019-0.033-0.030-0.054-0.023-0.023 0.007-0.037 0.028-0.035 0.051 0.005 0.051 0.011 0.193-0.019 0.261-0.023 0.054-0.084 0.107-0.122 0.138-0.037-0.030-0.098-0.088-0.13-0.152-0.037-0.079-0.026-0.212-0.019-0.257 0.005-0.021-0.009-0.042-0.026-0.051-0.005-0.005-0.012-0.005-0.019-0.005-0.016 0-0.028 0.007-0.038 0.018-0.002 0.002-0.005 0.007-0.007 0.011-0.003 0.011-0.119 0.236-0.448 0.236-0.217 0-0.478-0.098-0.773-0.292-0.703-0.462-0.389-1.017-0.375-1.040 0.011-0.018 0.009-0.039-0.005-0.054-0.012-0.016-0.033-0.021-0.052-0.016-0.002 0.002-0.161 0.056-0.256 0.047-0.056-0.004-0.128-0.047-0.17-0.077 0.017-0.042 0.058-0.116 0.114-0.165 0.065-0.056 0.198-0.082 0.241-0.088 0.024-0.002 0.042-0.021 0.044-0.044s-0.014-0.044-0.035-0.051c-0.002-0.002-0.208-0.058-0.326-0.278-0.116-0.22-0.11-0.521 0.021-0.896 0.208-0.6 0.551-0.686 0.738-0.686 0.089 0 0.149 0.018 0.149 0.018 0.023 0.009 0.046 0 0.058-0.018s0.011-0.042-0.005-0.058c-0.032-0.037-0.121-0.15-0.138-0.224-0.016-0.054 0.002-0.135 0.014-0.184 0.049 0.004 0.131 0.014 0.198 0.049 0.077 0.040 0.142 0.156 0.161 0.196 0.011 0.019 0.033 0.031 0.056 0.026 0.021-0.005 0.037-0.024 0.037-0.047 0-0.004-0.005-0.226 0.178-0.413 0.168-0.173 0.438-0.262 0.808-0.262 0.376 0 0.646 0.089 0.803 0.264 0.168 0.185 0.147 0.409 0.147 0.411-0.003 0.021 0.011 0.044 0.032 0.051 0.021 0.009 0.044 0 0.056-0.019 0.046-0.073 0.14-0.201 0.198-0.236 0.054-0.030 0.14-0.037 0.182-0.037 0.011 0.044 0.024 0.128 0.011 0.2-0.016 0.084-0.107 0.18-0.14 0.21-0.017 0.014-0.021 0.039-0.011 0.058 0.012 0.019 0.035 0.030 0.056 0.023 0.003 0 0.614-0.185 0.936 0.747 0.271 0.779-0.266 1.101-0.289 1.115v0z"></path>
<path d="M4.114 16.549c0-0.515-0.376-0.831-0.982-0.831h-0.752v2.97h0.429v-1.288h0.18c0.219 0 0.397 0.068 0.793 0.679l0.394 0.607h0.513c-0.205-0.282-0.278-0.381-0.406-0.586-0.229-0.371-0.396-0.644-0.667-0.824 0.32-0.124 0.499-0.381 0.499-0.726zM3.085 17.016h-0.276v-0.931h0.276c0.417 0 0.583 0.168 0.586 0.448 0.005 0.247-0.126 0.483-0.586 0.483z"></path>
<path d="M8.165 17.203c0-0.828-0.621-1.524-1.608-1.524-0.97 0-1.603 0.7-1.603 1.524 0 0.805 0.618 1.524 1.594 1.524 1.013 0 1.617-0.723 1.617-1.524zM5.395 17.203c0-0.653 0.495-1.132 1.162-1.132 0.672 0 1.167 0.48 1.167 1.132 0 0.648-0.495 1.132-1.167 1.132-0.665 0-1.162-0.483-1.162-1.132z"></path>
<path d="M9.451 18.689h0.429v-1.568l1.11-1.403h-0.516l-0.812 1.025-0.803-1.026h-0.516l1.11 1.4z"></path>
<path d="M12.121 15.702l-1.283 2.986h0.438l0.378-0.875h1.271l0.397 0.875h0.439l-1.337-2.986h-0.303zM11.82 17.429l0.446-1.076 0.483 1.076h-0.929z"></path>
<path d="M14.415 15.718v2.972h1.78v-0.385h-1.351v-2.587z"></path>
<path d="M3.987 21.479h0.574v0.609c-0.207 0.065-0.417 0.117-0.647 0.117-0.712 0-1.211-0.464-1.211-1.127 0-0.644 0.506-1.136 1.153-1.136 0.361 0 0.724 0.098 1.075 0.291v-0.43c-0.469-0.196-0.714-0.252-1.066-0.252-0.91 0-1.603 0.667-1.603 1.542 0 0.872 0.675 1.507 1.591 1.507 0.417 0 0.74-0.070 1.139-0.243v-1.26h-1.005v0.383z"></path>
<path d="M7.187 21.148c0.32-0.126 0.499-0.383 0.499-0.728 0-0.514-0.376-0.831-0.98-0.831h-0.754v2.97h0.429v-1.288h0.18c0.221 0 0.399 0.068 0.793 0.679l0.396 0.609h0.513c-0.207-0.282-0.28-0.383-0.408-0.588-0.229-0.369-0.396-0.644-0.667-0.823zM6.657 20.886h-0.277v-0.931h0.277c0.417 0 0.583 0.17 0.588 0.45 0.003 0.247-0.128 0.481-0.588 0.481z"></path>
<path d="M8.919 19.59v2.97h1.736v-0.385h-1.307v-0.922h1.223v-0.383h-1.223v-0.896h1.267v-0.383z"></path>
<path d="M11.44 19.59v2.97h1.736v-0.385h-1.307v-0.922h1.225v-0.383h-1.225v-0.896h1.267v-0.383z"></path>
<path d="M16.323 19.59v2.298l-2.025-2.298h-0.341v2.97h0.402v-2.287l1.999 2.287h0.367v-2.97z"></path>
<path d="M21.522 19.59l-0.816 2.046-0.833-2.046h-0.408l-0.828 2.046-0.826-2.046h-0.429l1.209 2.996h0.084l0.992-2.429 0.98 2.429h0.082l1.216-2.996z"></path>
<path d="M22.613 22.56h0.43v-2.97h-0.43z"></path>
<path d="M24.359 21.078c0-0.653 0.508-1.136 1.194-1.136 0.346 0 0.66 0.095 1.029 0.308v-0.455c-0.408-0.17-0.719-0.245-1.026-0.245-0.952 0-1.642 0.663-1.642 1.568 0 0.623 0.492 1.48 1.615 1.48 0.467 0 0.788-0.108 1.081-0.262v-0.464c-0.338 0.217-0.705 0.336-1.043 0.336-0.719-0.002-1.209-0.464-1.209-1.131z"></path>
<path d="M29.57 19.59v1.293h-1.673v-1.293h-0.43v2.97h0.43v-1.293h1.673v1.293h0.429v-2.97z"></path>
<path d="M17.802 16.864l-0.308 1.34c0.019 0.032 0.042 0.059 0.067 0.087 0.024 0.024 0.056 0.047 0.091 0.068 0.038 0.019 0.082 0.037 0.135 0.047 0.051 0.012 0.112 0.017 0.18 0.017 0.091 0 0.175-0.019 0.257-0.061 0.082-0.040 0.154-0.096 0.219-0.166 0.059-0.070 0.112-0.152 0.151-0.248 0.037-0.095 0.056-0.198 0.056-0.301 0-0.138-0.033-0.248-0.105-0.331-0.068-0.081-0.163-0.122-0.284-0.122-0.051 0-0.105 0.012-0.159 0.037-0.056 0.024-0.116 0.067-0.189 0.13h-0.005l0.18-0.786-0.011-0.017-0.441 0.024-0.017 0.072c0.026 0.003 0.052 0.005 0.077 0.009 0.026 0.002 0.047 0.007 0.063 0.014 0.019 0.009 0.032 0.019 0.042 0.035 0.009 0.016 0.014 0.038 0.014 0.067 0 0.012-0.002 0.026-0.003 0.040-0.002 0.012-0.005 0.026-0.009 0.046zM17.881 17.48c0.017-0.016 0.037-0.033 0.059-0.054 0.023-0.019 0.046-0.037 0.068-0.051 0.026-0.016 0.052-0.028 0.075-0.038 0.024-0.011 0.052-0.014 0.079-0.014 0.049 0 0.087 0.009 0.119 0.024 0.032 0.017 0.054 0.042 0.073 0.070 0.019 0.030 0.030 0.065 0.040 0.108 0.005 0.042 0.009 0.082 0.009 0.126 0 0.087-0.009 0.172-0.030 0.257-0.021 0.084-0.054 0.159-0.098 0.227-0.038 0.061-0.087 0.11-0.143 0.149-0.054 0.037-0.114 0.052-0.175 0.052-0.035 0-0.065-0.003-0.093-0.012-0.026-0.011-0.052-0.023-0.075-0.042-0.019-0.016-0.033-0.032-0.046-0.051s-0.019-0.035-0.023-0.052l0.159-0.7z"></path>
<path d="M19.228 17.257c-0.087 0.042-0.161 0.098-0.221 0.165-0.059 0.070-0.105 0.151-0.14 0.241-0.037 0.089-0.052 0.187-0.052 0.292 0 0.142 0.040 0.257 0.122 0.341 0.082 0.086 0.189 0.128 0.32 0.128 0.114 0 0.213-0.021 0.299-0.067 0.087-0.044 0.161-0.1 0.221-0.173 0.061-0.070 0.105-0.152 0.138-0.245 0.032-0.093 0.049-0.187 0.049-0.28 0-0.138-0.040-0.25-0.121-0.336s-0.191-0.128-0.331-0.128c-0.103-0.002-0.196 0.019-0.285 0.061zM19.66 17.362c0.040 0.056 0.061 0.14 0.061 0.252 0 0.091-0.009 0.177-0.028 0.264-0.017 0.086-0.044 0.161-0.079 0.227-0.033 0.068-0.079 0.126-0.133 0.168-0.054 0.044-0.117 0.065-0.187 0.065-0.079 0-0.138-0.028-0.177-0.086s-0.059-0.143-0.059-0.257c0-0.070 0.009-0.149 0.021-0.233 0.017-0.084 0.040-0.161 0.072-0.229 0.042-0.091 0.093-0.156 0.151-0.196s0.121-0.061 0.186-0.061c0.075 0.002 0.133 0.030 0.173 0.086z"></path>
<path d="M20.896 17.489c0 0.026 0.012 0.051 0.032 0.070 0.021 0.021 0.054 0.033 0.096 0.033 0.032 0 0.054-0.007 0.073-0.017 0.017-0.012 0.032-0.028 0.046-0.051 0.012-0.017 0.023-0.038 0.026-0.065 0.007-0.026 0.012-0.051 0.012-0.073 0-0.040-0.003-0.072-0.012-0.093-0.011-0.021-0.023-0.040-0.040-0.058-0.016-0.016-0.035-0.024-0.059-0.032-0.024-0.005-0.047-0.011-0.073-0.011-0.054 0-0.105 0.017-0.154 0.051-0.049 0.032-0.121 0.089-0.213 0.17h-0.007c0-0.068-0.014-0.119-0.040-0.156-0.026-0.033-0.072-0.051-0.137-0.051-0.035 0-0.075 0.007-0.124 0.019-0.047 0.016-0.102 0.035-0.165 0.061l-0.019 0.077c0.017-0.005 0.037-0.011 0.063-0.016 0.028-0.005 0.051-0.009 0.068-0.009 0.046 0 0.073 0.007 0.091 0.021 0.014 0.016 0.023 0.046 0.023 0.091 0 0.017-0.005 0.046-0.014 0.084-0.007 0.037-0.012 0.065-0.016 0.086l-0.175 0.767h0.224l0.191-0.849c0.046-0.049 0.087-0.089 0.126-0.119 0.040-0.032 0.073-0.054 0.105-0.068 0.030-0.016 0.056-0.024 0.079-0.030s0.037-0.009 0.049-0.009c-0.016 0.030-0.026 0.059-0.040 0.091-0.009 0.032-0.014 0.059-0.014 0.084z"></path>
<path d="M21.948 17.194c-0.102 0-0.198 0.021-0.284 0.063-0.089 0.044-0.163 0.098-0.221 0.166-0.059 0.070-0.107 0.149-0.142 0.24s-0.052 0.189-0.052 0.294c0 0.143 0.042 0.256 0.124 0.341 0.082 0.084 0.187 0.126 0.32 0.126 0.114 0 0.213-0.021 0.299-0.067 0.087-0.042 0.159-0.102 0.221-0.173 0.059-0.072 0.107-0.152 0.138-0.245 0.032-0.095 0.047-0.187 0.047-0.28 0-0.138-0.038-0.25-0.121-0.336-0.079-0.086-0.189-0.13-0.331-0.13zM22.13 17.878c-0.019 0.084-0.046 0.161-0.079 0.227-0.035 0.068-0.079 0.124-0.135 0.168-0.054 0.046-0.117 0.065-0.186 0.065-0.082 0-0.14-0.026-0.178-0.086-0.040-0.058-0.059-0.143-0.059-0.257 0-0.070 0.009-0.149 0.023-0.233 0.016-0.084 0.038-0.161 0.072-0.229 0.042-0.091 0.091-0.156 0.151-0.198 0.056-0.038 0.121-0.059 0.186-0.059 0.075 0 0.131 0.028 0.173 0.086 0.040 0.056 0.059 0.14 0.059 0.252 0 0.091-0.009 0.178-0.026 0.264z"></path>
<path d="M23.69 18.274c-0.046 0-0.079-0.009-0.096-0.024-0.019-0.016-0.030-0.047-0.030-0.091 0-0.014 0.003-0.035 0.011-0.068s0.012-0.067 0.021-0.098l0.177-0.761-0.016-0.019-0.208 0.016-0.206 0.891c-0.054 0.054-0.108 0.093-0.159 0.121-0.056 0.026-0.107 0.040-0.159 0.040-0.051 0-0.086-0.016-0.108-0.046-0.023-0.032-0.035-0.073-0.035-0.128 0-0.014 0.003-0.037 0.009-0.065 0.005-0.030 0.011-0.059 0.019-0.093l0.105-0.438c0.007-0.024 0.011-0.049 0.014-0.073 0.005-0.024 0.005-0.044 0.005-0.056 0-0.056-0.016-0.098-0.044-0.128-0.032-0.030-0.077-0.046-0.14-0.046-0.028 0-0.068 0.009-0.116 0.023s-0.102 0.033-0.165 0.061l-0.016 0.077c0.014-0.005 0.035-0.011 0.061-0.017s0.049-0.009 0.067-0.009c0.046 0 0.073 0.009 0.091 0.021 0.014 0.016 0.021 0.046 0.021 0.089 0 0.024-0.002 0.051-0.009 0.077-0.005 0.026-0.012 0.056-0.019 0.093l-0.091 0.375c-0.014 0.051-0.019 0.089-0.023 0.116s-0.003 0.049-0.003 0.068c0 0.070 0.019 0.128 0.061 0.172s0.102 0.065 0.178 0.065c0.049 0 0.089-0.005 0.121-0.011 0.032-0.011 0.065-0.023 0.103-0.044 0.033-0.017 0.067-0.035 0.098-0.061 0.033-0.023 0.068-0.052 0.105-0.081h0.007c0 0.051 0.016 0.093 0.047 0.13s0.079 0.056 0.143 0.056c0.038 0 0.079-0.007 0.122-0.021 0.044-0.012 0.1-0.032 0.165-0.058l0.019-0.079c-0.017 0.007-0.037 0.012-0.067 0.017-0.026 0.005-0.047 0.007-0.061 0.007z"></path>
<path d="M23.956 18.858c0.024 0.016 0.058 0.028 0.098 0.038 0.042 0.012 0.096 0.016 0.163 0.016 0.096 0 0.184-0.012 0.261-0.037s0.147-0.065 0.21-0.124c0.059-0.058 0.117-0.133 0.165-0.231 0.046-0.098 0.086-0.217 0.116-0.359l0.201-0.933-0.016-0.017-0.217 0.056c-0.032-0.021-0.073-0.038-0.124-0.052-0.051-0.016-0.103-0.023-0.163-0.023-0.091 0-0.178 0.023-0.262 0.065-0.086 0.042-0.157 0.098-0.217 0.166-0.063 0.072-0.114 0.154-0.149 0.247-0.037 0.091-0.054 0.187-0.054 0.285 0 0.142 0.032 0.254 0.093 0.334 0.063 0.081 0.152 0.121 0.268 0.121 0.044 0 0.086-0.007 0.124-0.019 0.037-0.014 0.073-0.032 0.11-0.052 0.032-0.017 0.061-0.037 0.091-0.059 0.028-0.023 0.051-0.042 0.067-0.054l0.007 0.002c-0.019 0.121-0.049 0.221-0.086 0.297-0.037 0.075-0.075 0.137-0.119 0.184-0.040 0.044-0.086 0.075-0.137 0.095s-0.096 0.030-0.14 0.030h-0.037c-0.005-0.014-0.014-0.035-0.026-0.063-0.014-0.030-0.026-0.054-0.040-0.073s-0.030-0.038-0.051-0.054c-0.019-0.016-0.047-0.026-0.075-0.026-0.037 0-0.067 0.012-0.087 0.037-0.021 0.023-0.033 0.054-0.033 0.089 0 0.019 0.003 0.038 0.014 0.059 0.009 0.023 0.023 0.040 0.047 0.058zM24.595 18.234c-0.054 0.032-0.108 0.049-0.165 0.049-0.044 0-0.081-0.009-0.107-0.024-0.028-0.017-0.051-0.038-0.067-0.068s-0.028-0.063-0.035-0.103c-0.007-0.038-0.011-0.082-0.011-0.128 0-0.086 0.012-0.17 0.038-0.256 0.024-0.086 0.058-0.159 0.096-0.219 0.046-0.063 0.093-0.114 0.149-0.151 0.054-0.037 0.112-0.054 0.173-0.054 0.042 0 0.075 0.007 0.103 0.016 0.026 0.012 0.049 0.026 0.067 0.046 0.017 0.021 0.030 0.044 0.037 0.065 0.007 0.024 0.011 0.047 0.011 0.067l-0.135 0.64c-0.051 0.049-0.1 0.087-0.156 0.121z"></path>
<path d="M25.701 16.864l-0.355 1.524h0.222l0.203-0.868c0.052-0.058 0.108-0.105 0.166-0.137 0.059-0.032 0.112-0.049 0.165-0.049 0.049 0 0.084 0.016 0.11 0.047 0.026 0.030 0.038 0.072 0.038 0.126 0 0.016-0.003 0.038-0.007 0.067-0.005 0.026-0.012 0.058-0.021 0.091l-0.117 0.441c-0.007 0.028-0.014 0.052-0.016 0.073-0.003 0.019-0.005 0.040-0.005 0.058 0 0.047 0.017 0.089 0.049 0.121 0.030 0.033 0.079 0.051 0.143 0.051 0.040 0 0.079-0.007 0.121-0.021 0.038-0.012 0.093-0.032 0.165-0.061l0.019-0.075c-0.016 0.005-0.037 0.011-0.065 0.016-0.026 0.005-0.051 0.009-0.067 0.009-0.044 0-0.075-0.009-0.096-0.024-0.019-0.016-0.028-0.047-0.028-0.091 0-0.019 0.003-0.044 0.011-0.077 0.007-0.032 0.016-0.061 0.019-0.087l0.102-0.38c0.009-0.035 0.016-0.070 0.019-0.108 0.003-0.035 0.007-0.061 0.007-0.075 0-0.070-0.021-0.128-0.063-0.172-0.046-0.044-0.103-0.067-0.178-0.067-0.082 0-0.154 0.017-0.219 0.052-0.063 0.032-0.137 0.082-0.217 0.147h-0.005l0.192-0.819-0.016-0.017-0.443 0.026-0.017 0.072c0.026 0.002 0.054 0.003 0.081 0.007s0.047 0.009 0.063 0.016c0.017 0.007 0.030 0.019 0.040 0.035s0.014 0.037 0.014 0.065c0 0.016-0.002 0.028-0.003 0.040-0.002 0.011-0.007 0.026-0.011 0.046z"></path>
<path d="M28.064 18.359c0.086-0.044 0.161-0.102 0.222-0.175 0.058-0.068 0.105-0.151 0.137-0.245 0.032-0.091 0.047-0.186 0.047-0.278 0-0.138-0.038-0.25-0.121-0.336-0.079-0.087-0.189-0.13-0.329-0.13-0.105 0-0.2 0.021-0.285 0.063-0.089 0.044-0.163 0.098-0.221 0.166-0.059 0.068-0.107 0.149-0.142 0.24-0.033 0.091-0.052 0.189-0.052 0.294 0 0.142 0.042 0.256 0.124 0.34 0.082 0.086 0.189 0.128 0.32 0.128 0.114 0 0.213-0.023 0.299-0.067zM27.623 18.254c-0.040-0.058-0.058-0.143-0.058-0.256 0-0.072 0.007-0.149 0.021-0.233 0.016-0.086 0.038-0.163 0.072-0.229 0.042-0.091 0.091-0.157 0.151-0.198 0.058-0.040 0.121-0.061 0.186-0.061 0.077 0 0.133 0.028 0.173 0.086 0.038 0.056 0.058 0.138 0.058 0.252 0 0.091-0.007 0.177-0.026 0.264-0.017 0.084-0.046 0.163-0.077 0.226-0.035 0.070-0.079 0.126-0.135 0.17-0.054 0.044-0.117 0.067-0.187 0.067-0.079 0-0.137-0.030-0.177-0.087z"></path>
<path d="M29.363 16.6c-0.065 0.028-0.124 0.067-0.175 0.119-0.052 0.051-0.098 0.112-0.14 0.186s-0.072 0.157-0.091 0.248l-0.017 0.079h-0.231l-0.023 0.108h0.233l-0.221 1.022c-0.032 0.143-0.068 0.254-0.114 0.331-0.042 0.077-0.095 0.117-0.156 0.122-0.011-0.016-0.023-0.035-0.037-0.058-0.012-0.023-0.026-0.040-0.037-0.054-0.016-0.017-0.032-0.030-0.051-0.042-0.019-0.011-0.040-0.016-0.063-0.016-0.040 0-0.070 0.012-0.091 0.038-0.019 0.026-0.032 0.054-0.032 0.089 0 0.042 0.017 0.075 0.051 0.102s0.084 0.038 0.154 0.038c0.128 0 0.248-0.054 0.371-0.166 0.119-0.11 0.2-0.254 0.236-0.429l0.208-0.977h0.297l0.026-0.108h-0.301l0.024-0.124c0.035-0.163 0.072-0.276 0.116-0.346 0.044-0.068 0.091-0.105 0.145-0.107 0.016 0.021 0.026 0.040 0.037 0.056 0.009 0.017 0.021 0.037 0.037 0.056 0.017 0.017 0.032 0.032 0.049 0.042 0.019 0.012 0.040 0.016 0.067 0.016 0.040 0 0.072-0.012 0.091-0.038 0.017-0.026 0.028-0.056 0.028-0.091 0-0.040-0.017-0.072-0.051-0.1-0.033-0.026-0.084-0.038-0.154-0.038-0.058-0.002-0.121 0.012-0.187 0.042z"></path>
<path d="M9.508 14.23c4.529-0.534 9.907-4.608 14.756-4.793 5.159-0.194 5.428 4.583 5.428 4.583s0.332-5.119-5.672-5.019c-5.374 0.089-11.267 5.068-16.399 4.933-4.501-0.117-5.439-1.809-5.621-2.338 0.22 0.684 1.472 3.344 7.508 2.634z"></path>
<path d="M26.116 13.4c0.121-0.096 0.401-0.394 0.21-0.938-0.203-0.59-0.555-0.677-0.747-0.677h-0.037c0.033-0.039 0.073-0.095 0.086-0.152 0.017-0.101-0.019-0.215-0.019-0.219l-0.007-0.018h-0.016c0 0-0.007-0.002-0.019-0.002-0.046 0-0.131 0.005-0.192 0.040-0.044 0.024-0.086 0.093-0.116 0.149-0.009-0.075-0.042-0.182-0.13-0.278-0.138-0.156-0.376-0.235-0.702-0.235-0.313 0-0.546 0.077-0.693 0.229-0.105 0.107-0.142 0.224-0.156 0.299-0.028-0.042-0.068-0.091-0.119-0.119-0.084-0.044-0.192-0.047-0.217-0.047h-0.017l-0.003 0.016c-0.003 0.005-0.046 0.124-0.024 0.212 0.012 0.051 0.051 0.108 0.084 0.152-0.021-0.004-0.046-0.005-0.073-0.005-0.168 0-0.476 0.079-0.654 0.598-0.112 0.32-0.116 0.581-0.014 0.777 0.067 0.131 0.166 0.201 0.233 0.236-0.049 0.014-0.11 0.039-0.154 0.075-0.079 0.065-0.128 0.152-0.13 0.156l-0.011 0.019 0.016 0.012c0.005 0.004 0.121 0.091 0.208 0.105 0.054 0.007 0.124-0.009 0.173-0.019-0.058 0.136-0.159 0.528 0.345 0.861 0.25 0.165 0.473 0.247 0.66 0.247 0.194 0 0.308-0.086 0.367-0.154 0 0.049 0.005 0.11 0.028 0.156 0.044 0.095 0.142 0.163 0.147 0.166l0.014 0.009 0.014-0.009c0.003-0.004 0.107-0.072 0.143-0.156 0.019-0.046 0.023-0.112 0.023-0.165 0.063 0.066 0.186 0.165 0.385 0.165 0.173 0 0.367-0.075 0.576-0.222 0.57-0.397 0.499-0.793 0.443-0.94 0.049 0.019 0.122 0.039 0.182 0.030 0.102-0.012 0.196-0.056 0.2-0.058l0.017-0.009-0.003-0.019c-0.003-0.005-0.040-0.136-0.108-0.198-0.042-0.040-0.131-0.059-0.191-0.072zM23.895 11.475c0.028-0.012 0.072-0.016 0.135-0.016 0.077 0 0.168 0.007 0.25 0.016 0.061 0.004 0.114 0.007 0.147 0.007h0.009c0.021 0 0.056-0.004 0.098-0.007 0.073-0.007 0.175-0.019 0.264-0.019 0.105 0 0.17 0.016 0.2 0.042 0.056 0.049 0.172 0.184 0.093 0.425-0.067 0.2-0.213 0.382-0.215 0.385-0.003 0.004-0.011 0.004-0.014 0.004-0.002-0.002-0.238-0.105-0.425-0.105-0.189 0-0.438 0.124-0.441 0.126s-0.005 0.002-0.005 0.002c-0.005 0-0.009-0.004-0.011-0.005-0.011-0.011-0.222-0.282-0.241-0.481-0.021-0.196 0.038-0.332 0.157-0.373zM22.738 13.061c0.002-0.079 0.073-0.236 0.131-0.359 0.026-0.061 0.052-0.114 0.061-0.143 0.007-0.019 0.016-0.054 0.026-0.096 0.038-0.15 0.098-0.378 0.18-0.422 0.037-0.019 0.095-0.042 0.166-0.042 0.091 0 0.18 0.033 0.268 0.1 0.168 0.131 0.289 0.331 0.291 0.334 0.003 0.004 0.003 0.011-0.002 0.014-0.002 0.002-0.18 0.185-0.243 0.361-0.065 0.178-0.033 0.453-0.033 0.457s-0.002 0.011-0.009 0.012c-0.002 0-0.229 0.073-0.418 0.073-0.046 0-0.086-0.004-0.121-0.012-0.192-0.049-0.301-0.15-0.297-0.277zM24.259 14.427c-0.084 0.136-0.186 0.212-0.287 0.212-0.021 0-0.044-0.004-0.063-0.011-0.077-0.023-0.205-0.138-0.308-0.229-0.051-0.044-0.095-0.082-0.121-0.1-0.017-0.012-0.047-0.030-0.082-0.053-0.135-0.082-0.338-0.205-0.357-0.297-0.014-0.070-0.024-0.25 0.184-0.394 0.175-0.121 0.404-0.178 0.406-0.18 0.005 0 0.012 0.002 0.014 0.007s0.126 0.226 0.275 0.339c0.154 0.114 0.425 0.163 0.429 0.163 0.007 0 0.012 0.007 0.012 0.012 0 0.014 0.007 0.357-0.102 0.53zM24.476 13.544c0 0 0.005 0.047-0.003 0.070-0.011 0.023-0.042 0.046-0.042 0.046s-0.030-0.021-0.042-0.049c-0.014-0.026-0.007-0.068-0.007-0.068s-0.072 0.15-0.313-0.009c-0.184-0.123-0.096-0.271-0.096-0.271s-0.044 0.016-0.068 0.012c-0.023-0.004-0.052-0.026-0.052-0.026s0.011-0.035 0.033-0.054c0.023-0.018 0.065-0.023 0.065-0.023s-0.17-0.046-0.082-0.301c0.079-0.226 0.233-0.17 0.233-0.17s-0.030-0.037-0.037-0.059c-0.005-0.026 0.009-0.059 0.009-0.059s0.035-0.002 0.061 0.014c0.024 0.014 0.044 0.053 0.044 0.053s-0.005-0.177 0.25-0.177c0.268 0 0.245 0.178 0.245 0.178s0.032-0.049 0.054-0.061c0.019-0.012 0.058-0.012 0.058-0.012s0.011 0.035 0.005 0.063c-0.005 0.030-0.037 0.058-0.037 0.058s0.159-0.053 0.241 0.191c0.070 0.201-0.075 0.285-0.075 0.285s0.047 0.011 0.063 0.028c0.019 0.016 0.032 0.053 0.032 0.053s-0.030 0.021-0.058 0.024c-0.030 0.004-0.070-0.016-0.070-0.016s0.098 0.133-0.114 0.282c-0.208 0.149-0.296 0-0.296 0zM25.829 14.002c-0.047 0.065-0.194 0.154-0.313 0.226-0.058 0.033-0.107 0.061-0.131 0.082-0.016 0.012-0.044 0.035-0.073 0.063-0.116 0.1-0.287 0.25-0.381 0.25h-0.011c-0.072-0.007-0.247-0.051-0.326-0.29-0.063-0.203-0.052-0.436-0.051-0.438 0-0.007 0.003-0.011 0.009-0.012 0.003 0 0.254-0.053 0.408-0.163 0.152-0.11 0.284-0.355 0.284-0.357 0.003-0.007 0.009-0.009 0.014-0.007 0.016 0.004 0.348 0.101 0.48 0.25 0.133 0.15 0.166 0.292 0.093 0.396zM26.102 13.138c-0.030 0.061-0.126 0.201-0.359 0.201h-0.028c-0.213-0.011-0.43-0.103-0.43-0.103-0.007-0.004-0.009-0.007-0.009-0.014 0-0.002 0.038-0.254-0.011-0.436-0.051-0.182-0.238-0.387-0.238-0.39-0.003-0.004-0.003-0.011 0-0.016 0.007-0.011 0.215-0.287 0.404-0.359 0.182-0.068 0.332-0.049 0.402 0.053 0.046 0.066 0.075 0.235 0.102 0.371 0.012 0.063 0.023 0.121 0.033 0.15 0.007 0.021 0.019 0.056 0.033 0.093 0.056 0.145 0.142 0.367 0.1 0.45z"></path>
</symbol>
<symbol id="icon-logo" viewBox="0 0 59 32">
<title>logo</title>
<path d="M5.147 7.7c0.57-0.472 0.93-1.18 0.93-1.972 0-0.019-0-0.038-0.001-0.057l0 0.003v-2.733h-1.526v0.319c-0.375-0.277-0.874-0.402-1.415-0.402-1.637 0-2.789 1.249-2.789 2.817-0 0.007-0 0.016-0 0.024 0 0.801 0.359 1.518 0.926 1.998l0.004 0.003c-0.272 0.151-0.499 0.351-0.675 0.591l-0.004 0.006 1.11 1.096c0.29-0.548 0.857-0.916 1.51-0.916 0.001 0 0.002 0 0.003 0h-0c1.027 0 1.693 0.708 1.693 1.748s-0.666 1.762-1.693 1.762c-0.929 0-1.429-0.527-1.637-1.207h-1.581c0.278 1.568 1.512 2.65 3.219 2.65 1.818 0 3.247-1.262 3.247-3.205 0-0.005 0-0.012 0-0.018 0-1.036-0.518-1.951-1.308-2.501l-0.010-0.007zM3.219 7.034c-0.777 0-1.346-0.541-1.346-1.359 0-0.832 0.568-1.373 1.346-1.373 0.763 0 1.332 0.541 1.332 1.373 0 0.818-0.569 1.359-1.332 1.359z"></path>
<path d="M8.698 6.049c0-1.027 0.68-1.72 1.651-1.72h0.139v-1.47c-0.971 0-1.457 0.361-1.79 0.805v-0.721h-1.526v6.937h1.526z"></path>
<path d="M14.178 9.961c1.568 0 2.913-0.846 3.385-2.109h-1.818c-0.291 0.444-0.86 0.666-1.568 0.666-0.006 0-0.012 0-0.019 0-0.952 0-1.747-0.673-1.935-1.569l-0.002-0.013h5.397c0.026-0.156 0.042-0.335 0.042-0.518 0-0.003 0-0.006 0-0.009v0c-0.016-1.934-1.587-3.496-3.524-3.496-1.946 0-3.524 1.578-3.524 3.524s1.578 3.524 3.524 3.524c0.015 0 0.029-0 0.044-0l-0.002 0zM14.136 4.273c0.874 0 1.623 0.583 1.845 1.304h-3.691c0.222-0.722 0.97-1.304 1.845-1.304z"></path>
<path d="M21.711 9.961c1.568 0 2.913-0.846 3.385-2.109h-1.818c-0.291 0.444-0.86 0.666-1.568 0.666-0.006 0-0.012 0-0.019 0-0.952 0-1.747-0.673-1.935-1.569l-0.002-0.013h5.397c0.026-0.156 0.041-0.335 0.041-0.518 0-0.003 0-0.007 0-0.010v0.001c-0.016-1.934-1.587-3.496-3.524-3.496-1.946 0-3.524 1.578-3.524 3.524s1.578 3.524 3.524 3.524c0.015 0 0.029-0 0.044-0l-0.002 0zM21.669 4.273c0.874 0 1.623 0.583 1.845 1.304h-3.69c0.222-0.722 0.971-1.304 1.845-1.304z"></path>
<path d="M27.426 6.049c0-1.027 0.527-1.748 1.526-1.748s1.512 0.527 1.512 1.748v3.829h1.526v-4.162c0-1.845-0.943-2.858-2.664-2.858-0.957 0-1.581 0.458-1.901 0.874v-0.791h-1.526v6.937h1.526z"></path>
<path d="M36.818 9.878l0.611-1.817 0.61 1.817h1.387l2.733-6.937h-1.554l-1.831 4.981-0.597-1.776 1.207-3.205h-1.499l-0.458 1.443-0.458-1.443h-1.498l1.207 3.205-0.597 1.776-1.831-4.981h-1.554l2.733 6.937h1.387z"></path>
<path d="M44.545 1.124c0 0.575-0.46 1.041-1.027 1.041s-1.027-0.466-1.027-1.041c0-0.575 0.46-1.041 1.027-1.041s1.027 0.466 1.027 1.041z"></path>
<path d="M42.755 2.941h1.526v6.937h-1.526v-6.937z"></path>
<path d="M48.513 9.961c2.012 0 3.538-1.526 3.538-3.552h-1.526c0 1.249-0.832 2.109-2.012 2.109-1.193 0-1.998-0.86-1.998-2.109s0.805-2.109 1.998-2.109c0.008-0 0.017-0 0.026-0 0.552 0 1.047 0.241 1.388 0.623l0.002 0.002 1.124-1.013c-0.62-0.651-1.494-1.055-2.462-1.055-0.027 0-0.054 0-0.081 0.001l0.004-0c-2.040 0-3.552 1.512-3.552 3.552s1.511 3.552 3.551 3.552z"></path>
<path d="M56.156 2.858c-0.902 0-1.568 0.375-1.984 0.874v-3.732l-1.526 0.167v9.711h1.526v-3.829c0-1.013 0.624-1.748 1.609-1.748 1.054 0 1.512 0.666 1.512 1.748v3.829h1.526v-4.162c0-1.845-1.013-2.858-2.664-2.858z"></path>
<path d="M13.374 16.997h-1.526c0 1.249-0.832 2.109-2.012 2.109-1.193 0-1.998-0.86-1.998-2.109s0.805-2.109 1.998-2.109c0.008-0 0.017-0 0.026-0 0.552 0 1.047 0.241 1.387 0.623l0.002 0.002 1.124-1.013c-0.621-0.651-1.494-1.055-2.462-1.055-0.027 0-0.054 0-0.081 0.001l0.004-0c-2.039 0-3.552 1.512-3.552 3.552s1.512 3.552 3.552 3.552c2.011 0 3.537-1.526 3.537-3.552z"></path>
<path d="M13.775 16.997c0 2.026 1.499 3.552 3.552 3.552s3.552-1.526 3.552-3.552-1.498-3.552-3.552-3.552-3.552 1.526-3.552 3.552zM19.325 16.997c0 1.207-0.805 2.081-1.998 2.081s-1.998-0.874-1.998-2.081 0.805-2.081 1.998-2.081 1.998 0.874 1.998 2.081z"></path>
<path d="M29.064 13.445c-0.999 0-1.568 0.402-2.095 0.957-0.375-0.61-0.971-0.957-1.817-0.957-0.009-0-0.020-0-0.031-0-0.72 0-1.36 0.34-1.769 0.869l-0.004 0.005v-0.791h-1.526v6.937h1.526v-4.162c0-0.902 0.527-1.415 1.235-1.415 0.805 0 1.236 0.513 1.236 1.415v4.162h1.526v-4.162c0-0.902 0.527-1.415 1.235-1.415 0.819 0 1.235 0.513 1.235 1.415v4.162h1.526v-4.551c-0.001-1.706-0.861-2.469-2.276-2.469z"></path>
<path d="M35.597 20.548c1.568 0 2.913-0.846 3.385-2.109h-1.817c-0.291 0.444-0.86 0.666-1.568 0.666-0.005 0-0.012 0-0.019 0-0.952 0-1.747-0.673-1.936-1.569l-0.002-0.013h5.397c0.026-0.156 0.042-0.336 0.042-0.519 0-0.003 0-0.006 0-0.009v0c-0.016-1.934-1.587-3.496-3.524-3.496-1.946 0-3.524 1.578-3.524 3.524s1.578 3.524 3.524 3.524c0.015 0 0.029-0 0.044-0l-0.002 0zM35.556 14.86c0.874 0 1.623 0.583 1.845 1.304h-3.69c0.222-0.722 0.971-1.304 1.845-1.304z"></path>
<path d="M39.565 16.997c0 2.164 1.374 3.552 3.441 3.552 0.012 0 0.027 0 0.042 0 0.776 0 1.48-0.307 1.998-0.806l-0.001 0.001v0.721h1.527v-9.878l-1.526 0.167v3.497c-0.43-0.472-1.179-0.805-2.039-0.805-2.068-0-3.442 1.387-3.442 3.551zM45.073 16.997c0 1.193-0.791 2.081-1.998 2.081s-2.012-0.888-2.012-2.081 0.805-2.081 2.012-2.081 1.998 0.888 1.998 2.081z"></path>
<path d="M50.219 17.565l-1.72-4.037h-1.581l2.539 5.716v2.973l-1.332 1.224v8.476h1.526v-7.995l1.332-1.223v-3.454l2.539-5.716h-1.582l-1.72 4.037z"></path>
<path d="M14.248 24.98h-2.22v-0.957c0-0.277 0.167-0.458 0.416-0.458 0.007-0 0.016-0.001 0.024-0.001 0.159 0 0.298 0.083 0.377 0.207l0.001 0.002 1.027-1.013c-0.361-0.444-0.874-0.638-1.498-0.638-0.971 0-1.873 0.527-1.873 1.804v1.054h-1.401v1.443h1.401v5.494h1.526v-5.494h2.22z"></path>
<path d="M17.674 24.897c-1.952 0.013-3.529 1.598-3.529 3.552 0 1.962 1.59 3.552 3.552 3.552 0.007 0 0.014-0 0.020-0h-0.001c1.568 0 2.913-0.846 3.385-2.109h-1.818c-0.291 0.444-0.86 0.666-1.568 0.666-0.006 0-0.012 0-0.019 0-0.952 0-1.747-0.673-1.935-1.569l-0.002-0.013h5.398c0.026-0.156 0.041-0.335 0.041-0.517 0-0.003 0-0.007-0-0.010v0.001c0-0.010 0-0.022 0-0.034 0-1.943-1.575-3.517-3.517-3.517-0.003 0-0.005 0-0.008 0h0zM15.829 27.616c0.222-0.721 0.971-1.304 1.845-1.304s1.623 0.583 1.845 1.304z"></path>
<path d="M24.971 27.685c-0.749-0.277-1.526-0.264-1.526-0.874-0-0.005-0-0.011-0-0.017 0-0.297 0.241-0.539 0.539-0.539 0.006 0 0.012 0 0.017 0l-0.001-0c0.285 0.009 0.523 0.196 0.609 0.452l0.001 0.005 0.943-0.929c-0.35-0.538-0.948-0.888-1.629-0.888-1.062 0-1.924 0.855-1.937 1.914v0.001c0 1.124 0.749 1.665 1.443 1.859 0.68 0.194 1.359 0.25 1.359 1.027 0 0.555-0.361 0.86-0.888 0.86-0.002 0-0.005 0-0.008 0-0.502 0-0.908-0.407-0.908-0.908 0-0.007 0-0.015 0-0.022l-0 0.001h-1.457c0 1.318 0.943 2.372 2.372 2.372 1.401 0 2.414-0.943 2.414-2.331 0.001-1.179-0.637-1.72-1.345-1.983z"></path>
<path d="M28.966 22.039l-1.526 0.167v2.775h-1.401v1.443h1.401v5.494h1.526v-5.494h2.081v-1.443h-2.081v-2.941z"></path>
<path d="M33.489 23.162c0 0.575-0.46 1.041-1.027 1.041s-1.027-0.466-1.027-1.041c0-0.575 0.46-1.041 1.027-1.041s1.027 0.466 1.027 1.041z"></path>
<path d="M31.699 24.98h1.526v6.937h-1.526v-6.937z"></path>
<path d="M38.705 24.98l-1.665 4.773-1.665-4.773h-1.637l2.553 6.937h1.498l2.553-6.937h-1.637z"></path>
<path d="M45.364 25.701c-0.291-0.375-1.068-0.805-1.984-0.805-1.984 0-3.482 1.47-3.482 3.552s1.498 3.552 3.482 3.552c0.93 0 1.693-0.43 1.984-0.805v0.721h1.554v-6.937h-1.554zM43.436 30.53c-1.133-0.022-2.042-0.945-2.042-2.081s0.91-2.059 2.040-2.081l0.002-0c1.124 0 1.984 0.943 1.984 2.081s-0.86 2.081-1.984 2.081z"></path>
</symbol>
<symbol id="icon-arrow_back" viewBox="0 0 32 32">
<title>arrow_back</title>
<path d="M26.688 14.688v2.625h-16.251l7.437 7.5-1.875 1.875-10.688-10.688 10.688-10.688 1.875 1.875-7.437 7.5h16.251z"></path>
</symbol>
<symbol id="icon-arrow_forward" viewBox="0 0 32 32">
<title>arrow_forward</title>
<path d="M16 5.312l10.688 10.688-10.688 10.688-1.875-1.875 7.437-7.5h-16.251v-2.625h16.251l-7.437-7.5z"></path>
</symbol>
<symbol id="icon-ents-24" viewBox="0 0 32 32">
<title>ents-24</title>
<path d="M15.527 12.001h1.084c-0.183 0.353-0.437 0.679-0.396 1.116 0.045 0.485 0.080 0.973 0.109 1.461 0.021 0.373 0.209 0.631 0.519 0.824 0.449 0.283 0.903 0.561 1.332 0.872 0.148 0.108 0.303 0.297 0.329 0.467 0.081 0.513 0.109 1.033 0.14 1.553 0.016 0.261-0.176 0.419-0.408 0.323-0.104-0.043-0.208-0.204-0.224-0.324-0.065-0.477-0.097-0.957-0.144-1.485-0.425 0.149-0.799 0.265-1.157 0.419-0.081 0.033-0.153 0.2-0.148 0.301 0.015 0.383 0.047 0.764 0.101 1.143 0.096 0.667 0.647 1.183 1.315 1.227 0.263 0.017 0.531-0.011 0.793-0.045 0.757-0.101 1.312-0.787 1.259-1.551-0.036-0.508-0.109-1.017-0.111-1.525-0.001-0.701-0.268-1.204-0.924-1.487-0.096-0.041-0.181-0.109-0.269-0.168-1.203-0.783-0.996-0.404-1.128-1.827-0.024-0.251 0.024-0.431 0.303-0.453 0.276-0.021 0.331 0.175 0.349 0.393l0.065 0.763c0.392-0.135 0.728-0.257 1.069-0.363 0.2-0.063 0.24-0.184 0.243-0.383 0.007-0.468-0.152-0.872-0.404-1.251h10.076c0.236 0.101 0.499 0.196 0.504 0.503 0.012 0.953 0.004 1.905 0.004 2.852-0.481 0.121-0.719 0.353-0.727 0.715-0.009 0.481 0.3 0.691 0.729 0.792v2.429c0 0.696-0.173 0.871-0.857 0.871h-14.492c0.080-0.045 0.161-0.053 0.243-0.057 0.413-0.024 0.417-0.024 0.387-0.423l-0.371-4.667-0.127-1.713c0.241-0.019 0.441-0.041 0.641-0.045 0.249-0.008 0.356-0.097 0.319-0.372-0.039-0.289-0.019-0.588-0.025-0.883l0.001 0.001zM25.643 13.473c-1.523-0.001-2.747 1.229-2.743 2.757 0.004 1.495 1.256 2.727 2.757 2.716s2.741-1.257 2.733-2.747c-0.008-1.503-1.241-2.725-2.748-2.725v-0.001zM12.976 12.001c-0.197 0.035-0.395 0.080-0.593 0.097-0.193 0.017-0.257 0.108-0.237 0.292 0.028 0.285 0.051 0.571 0.068 0.857 0.011 0.181 0.108 0.236 0.275 0.22l0.725-0.057 0.541 6.737h-1.8l-0.191-2.351c-0.143-1.757-0.289-3.513-0.417-5.273-0.023-0.296-0.143-0.359-0.403-0.319-0.22 0.033-0.444 0.048-0.667 0.053-0.247 0.007-0.328 0.109-0.307 0.357 0.085 0.952 0.156 1.907 0.231 2.859 0.012 0.156 0.023 0.311-0.020 0.481l-0.319-0.744c-0.347-0.833-0.696-1.663-1.033-2.501-0.093-0.231-0.219-0.324-0.481-0.296-0.791 0.084-0.777 0.073-0.711 0.873 0.187 2.233 0.364 4.467 0.544 6.701v0.147h-0.983l-0.029-0.403c-0.025-0.397-0.051-0.416-0.436-0.38-0.348 0.033-0.697 0.056-1.088 0.085l-0.196-2.364c0.363-0.033 0.699-0.075 1.036-0.091 0.211-0.009 0.28-0.099 0.259-0.299-0.031-0.275-0.056-0.551-0.067-0.827-0.008-0.201-0.104-0.253-0.287-0.237l-1.045 0.077-0.136-1.655c0.408-0.035 0.796-0.072 1.185-0.096 0.207-0.013 0.311-0.087 0.281-0.315-0.035-0.273-0.055-0.551-0.067-0.827-0.008-0.201-0.109-0.251-0.289-0.236-0.783 0.067-1.565 0.128-2.349 0.187-0.201 0.015-0.239 0.128-0.224 0.303 0.116 1.385 0.229 2.773 0.34 4.16 0.077 0.963 0.149 1.925 0.227 2.921-0.624 0-1.227 0.019-1.825-0.008-0.277-0.012-0.472-0.281-0.475-0.593-0.008-0.851-0.007-1.7 0.004-2.551 0.001-0.076 0.084-0.181 0.157-0.22 0.283-0.147 0.443-0.368 0.439-0.683-0.003-0.303-0.151-0.539-0.435-0.647-0.176-0.067-0.171-0.183-0.171-0.323 0.003-0.776 0.021-1.552-0.007-2.327-0.015-0.412 0.121-0.673 0.516-0.797 3.487-0.001 6.973-0.001 10.459-0.001l0.001 0.001zM9.34 16.679l1.429 3.468h-1.199l-0.276-3.451 0.045-0.017zM26.932 17.751h-0.484l-0.031-0.619h-0.803c0.065-0.275 0.107-0.496 0.173-0.708 0.188-0.593 0.387-1.183 0.592-1.813h0.588c0 0.445-0.019 0.887 0.007 1.327 0.016 0.268-0.151 0.588 0.191 0.795 0.048 0.029 0.047 0.273 0.004 0.296-0.313 0.163-0.144 0.472-0.236 0.723v0zM26.413 16.639v-0.907l-0.296 0.907h0.296zM24.639 17.271h0.756v0.493c-0.372 0-0.74 0.009-1.107-0.011-0.053-0.003-0.139-0.139-0.147-0.217-0.041-0.489 0.196-0.893 0.487-1.245 0.255-0.309 0.309-0.637 0.268-1.003-0.009-0.081-0.088-0.156-0.135-0.233-0.044 0.071-0.128 0.141-0.123 0.207 0.025 0.383-0.285 0.285-0.521 0.393 0-0.221-0.019-0.409 0.003-0.593 0.039-0.343 0.288-0.519 0.687-0.507 0.361 0.011 0.583 0.215 0.609 0.559 0.041 0.532-0.007 1.032-0.383 1.463-0.153 0.176-0.237 0.412-0.395 0.693h-0.001z"></path>
</symbol>
<symbol id="icon-facebook" viewBox="0 0 32 32">
<title>facebook</title>
<path d="M24 9.333c0.8 0 1.333-0.533 1.333-1.333v-5.333c0-0.8-0.533-1.333-1.333-1.333h-4c-4.4 0-8 3.6-8 8v2.667h-2.667c-0.8 0-1.333 0.533-1.333 1.333v5.333c0 0.8 0.533 1.333 1.333 1.333h2.667v9.333c0 0.8 0.533 1.333 1.333 1.333h5.333c0.8 0 1.333-0.533 1.333-1.333v-9.333h2.667c0.667 0 1.2-0.4 1.333-1.067l1.333-5.333c0.133-0.4 0-0.8-0.267-1.2s-0.667-0.4-1.067-0.4h-4v-2.667h4zM18.667 14.667h3.6l-0.667 2.667h-2.933c-0.8 0-1.333 0.533-1.333 1.333v9.333h-2.667v-9.333c0-0.8-0.533-1.333-1.333-1.333h-2.667v-2.667h2.667c0.8 0 1.333-0.533 1.333-1.333v-4c0-2.933 2.4-5.333 5.333-5.333h2.667v2.667h-2.667c-1.467 0-2.667 1.2-2.667 2.667v4c0 0.8 0.533 1.333 1.333 1.333z"></path>
</symbol>
<symbol id="icon-festivals" viewBox="0 0 32 32">
<title>festivals</title>
<path d="M11.743 14.239c0-1.047-0.371-1.94-1.111-2.68s-1.635-1.111-2.681-1.111c0-0.493 0-0.928 0-1.305 0-0.388 0-0.717 0-0.987 0-0.224 0-0.416 0-0.583 0-0.164 0-0.305 0-0.423 0-0.481 0-0.757 0-0.829s0-0.376 0-0.917c0.999 0 2.491 0 4.479 0 0 0.152 0 0.388 0 0.705-0.835 0-2.092 0-3.772 0 0 0.823 0 2.057 0 3.703 1.069 0.165 1.963 0.665 2.68 1.497 0.729 0.835 1.093 1.811 1.093 2.927 0 0.436-0.060 0.852-0.176 1.251-0.117 0.399-0.281 0.769-0.493 1.111-0.4 0.636-0.935 1.147-1.604 1.535-0.671 0.388-1.405 0.583-2.205 0.583v-0.705c1.047 0 1.94-0.364 2.68-1.093 0.741-0.74 1.112-1.633 1.112-2.68z"></path>
<path d="M23.325 11.137c-1.293 2.645-3.227 6.617-5.8 11.917-0.176 0-0.436 0-0.775 0 1.352-2.809 3.391-7.017 6.117-12.623-1.528 0-3.832 0-6.911 0 0-0.152 0-0.381 0-0.688 1.445 0 3.608 0 6.487 0 0.353 0 0.869 0 1.552 0-0.152 0.307-0.376 0.771-0.669 1.393z"></path>
<path d="M8.004 24.419h1.163v0.227h-0.909v0.731h0.849v0.227h-0.849v0.955h-0.253v-2.139z"></path>
<path d="M9.889 24.419h1.163v0.227h-0.909v0.7h0.833v0.227h-0.833v0.76h0.924v0.227h-1.179v-2.14z"></path>
<path d="M12.796 26.013c0-0.085-0.027-0.156-0.077-0.209s-0.115-0.101-0.191-0.144c-0.077-0.043-0.16-0.081-0.248-0.117-0.091-0.036-0.173-0.081-0.248-0.133-0.077-0.052-0.14-0.116-0.191-0.193s-0.077-0.175-0.077-0.292c0-0.167 0.059-0.299 0.175-0.396s0.281-0.147 0.495-0.147c0.125 0 0.236 0.009 0.339 0.028s0.181 0.043 0.239 0.069l-0.077 0.227c-0.047-0.023-0.116-0.045-0.207-0.067-0.091-0.020-0.193-0.032-0.307-0.032-0.135 0-0.235 0.031-0.301 0.091s-0.1 0.131-0.1 0.212c0 0.080 0.027 0.145 0.077 0.199 0.051 0.052 0.115 0.1 0.191 0.143 0.077 0.043 0.16 0.083 0.248 0.124 0.089 0.040 0.173 0.088 0.248 0.143 0.077 0.053 0.14 0.119 0.191 0.195s0.077 0.168 0.077 0.281c0 0.092-0.016 0.175-0.049 0.247-0.032 0.072-0.080 0.136-0.144 0.189-0.063 0.052-0.14 0.095-0.229 0.121-0.091 0.029-0.192 0.043-0.305 0.043-0.152 0-0.279-0.012-0.379-0.035s-0.177-0.049-0.232-0.079l0.085-0.227c0.047 0.027 0.116 0.051 0.208 0.076s0.195 0.037 0.308 0.037c0.067 0 0.131-0.007 0.189-0.020 0.060-0.013 0.111-0.035 0.152-0.064s0.077-0.067 0.101-0.112c0.028-0.040 0.040-0.095 0.040-0.156z"></path>
<path d="M15.137 24.645h-0.665v1.912h-0.253v-1.912h-0.665v-0.227h1.585v0.227z"></path>
<path d="M15.816 24.419h0.255v2.139h-0.255v-2.139z"></path>
<path d="M17.508 25.888l0.075 0.324h0.003l0.080-0.329 0.513-1.463h0.255l-0.808 2.172h-0.113l-0.824-2.172h0.277l0.544 1.469z"></path>
<path d="M19.869 25.964h-0.784l-0.213 0.592h-0.255l0.808-2.172h0.116l0.813 2.172h-0.268l-0.217-0.592zM19.168 25.744h0.625l-0.236-0.651-0.076-0.324h-0.003l-0.076 0.329-0.235 0.644z"></path>
<path d="M22.209 26.556h-1.264v-2.137h0.255v1.912h1.011v0.225z"></path>
<path d="M23.795 26.013c0-0.085-0.027-0.156-0.077-0.209s-0.115-0.101-0.191-0.144c-0.077-0.043-0.16-0.081-0.248-0.117-0.089-0.036-0.173-0.081-0.248-0.133-0.077-0.052-0.14-0.116-0.191-0.193s-0.077-0.175-0.077-0.292c0-0.167 0.059-0.299 0.175-0.396s0.281-0.147 0.495-0.147c0.125 0 0.236 0.009 0.34 0.028 0.101 0.019 0.181 0.043 0.239 0.069l-0.077 0.227c-0.047-0.023-0.116-0.045-0.207-0.067-0.089-0.020-0.193-0.032-0.307-0.032-0.135 0-0.235 0.031-0.301 0.091s-0.1 0.131-0.1 0.212c0 0.080 0.027 0.145 0.077 0.199 0.051 0.052 0.115 0.1 0.191 0.143 0.077 0.043 0.16 0.083 0.248 0.124 0.089 0.040 0.173 0.088 0.248 0.143 0.077 0.053 0.14 0.119 0.191 0.195s0.077 0.168 0.077 0.281c0 0.092-0.016 0.175-0.049 0.247-0.032 0.072-0.080 0.136-0.144 0.189-0.063 0.052-0.14 0.095-0.229 0.121-0.089 0.029-0.192 0.043-0.305 0.043-0.152 0-0.279-0.012-0.379-0.035s-0.177-0.049-0.232-0.079l0.085-0.227c0.047 0.027 0.116 0.051 0.208 0.076s0.195 0.037 0.308 0.037c0.067 0 0.131-0.007 0.189-0.020 0.060-0.013 0.111-0.035 0.152-0.064s0.077-0.067 0.101-0.112c0.027-0.040 0.039-0.095 0.039-0.156z"></path>
</symbol>
<symbol id="icon-info" viewBox="0 0 32 32">
<title>info</title>
<path d="M17.312 12v-2.688h-2.625v2.688h2.625zM17.312 22.688v-8h-2.625v8h2.625zM16 2.688c7.375 0 13.312 5.937 13.312 13.312s-5.937 13.312-13.312 13.312-13.312-5.937-13.312-13.312 5.937-13.312 13.312-13.312z"></path>
</symbol>
<symbol id="icon-instagram" viewBox="0 0 28 32">
<title>instagram</title>
<path d="M18.285 16c0-2.517-2.053-4.572-4.572-4.572s-4.572 2.053-4.572 4.572 2.053 4.572 4.572 4.572 4.572-2.053 4.572-4.572zM20.751 16c0 3.893-3.143 7.036-7.036 7.036s-7.036-3.143-7.036-7.036 3.143-7.036 7.036-7.036 7.036 3.143 7.036 7.036zM22.679 8.679c0 0.911-0.732 1.643-1.643 1.643s-1.643-0.732-1.643-1.643 0.732-1.643 1.643-1.643 1.643 0.732 1.643 1.643zM13.715 4.751c-2 0-6.285-0.161-8.089 0.553-0.625 0.251-1.089 0.553-1.572 1.036s-0.785 0.947-1.036 1.572c-0.715 1.804-0.553 6.089-0.553 8.089s-0.161 6.285 0.553 8.089c0.251 0.625 0.553 1.089 1.036 1.572s0.947 0.785 1.572 1.036c1.804 0.715 6.089 0.553 8.089 0.553s6.285 0.161 8.089-0.553c0.625-0.251 1.089-0.553 1.572-1.036s0.785-0.947 1.036-1.572c0.715-1.804 0.553-6.089 0.553-8.089s0.161-6.285-0.553-8.089c-0.251-0.625-0.553-1.089-1.036-1.572s-0.947-0.785-1.572-1.036c-1.804-0.715-6.089-0.553-8.089-0.553zM27.428 16c0 1.893 0.017 3.768-0.089 5.661-0.107 2.196-0.607 4.143-2.215 5.751s-3.553 2.107-5.751 2.215c-1.893 0.107-3.768 0.089-5.661 0.089s-3.768 0.017-5.661-0.089c-2.196-0.107-4.143-0.607-5.751-2.215s-2.107-3.553-2.215-5.751c-0.107-1.893-0.089-3.768-0.089-5.661s-0.017-3.768 0.089-5.661c0.107-2.196 0.607-4.143 2.215-5.751s3.553-2.107 5.751-2.215c1.893-0.107 3.768-0.089 5.661-0.089s3.768-0.017 5.661 0.089c2.196 0.107 4.143 0.607 5.751 2.215s2.107 3.553 2.215 5.751c0.107 1.893 0.089 3.768 0.089 5.661z"></path>
</symbol>
<symbol id="icon-menu" viewBox="0 0 32 32">
<title>menu</title>
<path d="M4 8h24v2.688h-24v-2.688zM4 17.312v-2.625h24v2.625h-24zM4 24v-2.688h24v2.688h-24z"></path>
</symbol>
<symbol id="icon-see-tickets" viewBox="0 0 32 32">
<title>see-tickets</title>
<path d="M24.225 15.779c-0.235-0.353-0.647-0.531-1.175-0.531-0.704 0-1.673 0.561-1.673 1.771 0 0.117 0 0.265 0.031 0.413l2.817-1.653zM23.227 21c-1.879 0-3.639-1.447-3.639-3.659 0-2.065 1.409-3.745 3.581-3.745 1.789 0 3.139 1.504 3.139 2.655l-4.255 2.508c0.352 0.412 0.939 0.531 1.497 0.531 0.527 0 1.379-0.267 2.467-1.061l-0.383 2.067c-0.675 0.471-1.556 0.708-2.405 0.708v0zM17.064 15.779c-0.235-0.353-0.647-0.531-1.173-0.531-0.704 0-1.673 0.561-1.673 1.771 0 0.117 0 0.265 0.029 0.413l2.819-1.653zM16.067 21c-1.879 0-3.639-1.447-3.639-3.659 0-2.065 1.408-3.745 3.579-3.745 1.789 0 3.139 1.504 3.139 2.655l-4.255 2.508c0.353 0.412 0.939 0.531 1.497 0.531 0.528 0 1.38-0.267 2.465-1.061l-0.383 2.067c-0.675 0.471-1.555 0.708-2.407 0.708v0zM5.591 18.257c0.881 0.679 1.703 1.003 2.495 1.003 1.173 0 1.615-0.501 1.615-1.121 0-0.441-0.263-0.825-1.379-1.593-0.911-0.619-1.849-1.535-1.849-2.773 0-1.444 1.027-2.772 3.287-2.772 0.88 0 1.996 0.324 2.817 0.827l-0.411 1.709c-0.793-0.561-1.615-0.797-2.289-0.797-0.851 0-1.379 0.296-1.379 0.944 0 0.472 0.411 0.855 1.379 1.504 1.201 0.856 1.907 1.681 1.907 2.832 0 1.623-1.32 2.981-3.521 2.981-1.233 0-2.289-0.355-3.081-0.944l0.411-1.799z"></path>
</symbol>
<symbol id="icon-twitter" viewBox="0 0 32 32">
<title>twitter</title>
<path d="M31.467 2.933c-0.4-0.267-1.067-0.267-1.467 0-0.933 0.667-2 1.2-3.067 1.6-2.667-2.4-6.8-2.533-9.6-0.133-1.733 1.467-2.667 3.467-2.667 5.6-3.867-0.267-7.333-2.267-9.6-5.467-0.267-0.4-0.667-0.533-1.2-0.533s-0.933 0.4-1.067 0.8c-0.133 0.133-1.467 3.333-1.333 7.2 0.133 3.333 1.467 7.6 6.4 10.667-2 0.933-4.267 1.333-6.533 1.333-0.533 0-1.2 0.4-1.333 0.933s0.133 1.2 0.667 1.467c3.333 1.867 6.933 2.8 10.267 2.8s6.533-0.8 9.467-2.533c5.733-3.2 8.933-9.333 8.933-16.667 0-0.267 0-0.4 0-0.667 1.333-1.467 2.267-3.2 2.667-5.067 0.133-0.533-0.133-1.067-0.533-1.333zM26.933 8c-0.267 0.267-0.4 0.8-0.4 1.2 0.133 0.267 0.133 0.533 0.133 0.8 0 6.4-2.8 11.6-7.6 14.4-3.733 2.133-8.133 2.667-12.533 1.6 1.733-0.533 3.333-1.2 4.8-2.267 0.533-0.267 0.667-0.667 0.667-1.2s-0.4-0.933-0.8-1.067c-7.733-3.467-7.467-10-6.667-13.333 2.933 2.933 7.067 4.667 11.467 4.533 0.667 0 1.333-0.667 1.333-1.333v-1.333c0-1.333 0.533-2.667 1.6-3.6 1.867-1.733 4.933-1.467 6.533 0.4 0.4 0.4 0.933 0.533 1.333 0.4 0.267-0.133 0.667-0.133 0.933-0.267-0.267 0.4-0.533 0.667-0.8 1.067z"></path>
</symbol>
<symbol id="icon-widgets" viewBox="0 0 32 32">
<title>widgets</title>
<path d="M22.188 2.251l7.563 7.563-7.563 7.5h5.812v10.688h-10.688v-10.688h4.875l-7.5-7.5v4.875h-10.688v-10.688h10.688v5.812zM4 28v-10.688h10.688v10.688h-10.688z"></path>
</symbol>
</defs>
</svg>
