<svg aria-hidden="true" style="position: absolute; width: 0; height: 0; overflow: hidden;" version="1.1" xmlns="http://www.w3.org/2000/svg" xmlns:xlink="http://www.w3.org/1999/xlink">
<defs>
<symbol id="icon-logo" viewBox="0 0 59 32">
<title>logo</title>
<path d="M5.147 7.7c0.57-0.472 0.93-1.18 0.93-1.972 0-0.019-0-0.038-0.001-0.057l0 0.003v-2.733h-1.526v0.319c-0.375-0.277-0.874-0.402-1.415-0.402-1.637 0-2.789 1.249-2.789 2.817-0 0.007-0 0.016-0 0.024 0 0.801 0.359 1.518 0.926 1.998l0.004 0.003c-0.272 0.151-0.499 0.351-0.675 0.591l-0.004 0.006 1.11 1.096c0.29-0.548 0.857-0.916 1.51-0.916 0.001 0 0.002 0 0.003 0h-0c1.027 0 1.693 0.708 1.693 1.748s-0.666 1.762-1.693 1.762c-0.929 0-1.429-0.527-1.637-1.207h-1.581c0.278 1.568 1.512 2.65 3.219 2.65 1.818 0 3.247-1.262 3.247-3.205 0-0.005 0-0.012 0-0.018 0-1.036-0.518-1.951-1.308-2.501l-0.010-0.007zM3.219 7.034c-0.777 0-1.346-0.541-1.346-1.359 0-0.832 0.568-1.373 1.346-1.373 0.763 0 1.332 0.541 1.332 1.373 0 0.818-0.569 1.359-1.332 1.359z"></path>
<path d="M8.698 6.049c0-1.027 0.68-1.72 1.651-1.72h0.139v-1.47c-0.971 0-1.457 0.361-1.79 0.805v-0.721h-1.526v6.937h1.526z"></path>
<path d="M14.178 9.961c1.568 0 2.913-0.846 3.385-2.109h-1.818c-0.291 0.444-0.86 0.666-1.568 0.666-0.006 0-0.012 0-0.019 0-0.952 0-1.747-0.673-1.935-1.569l-0.002-0.013h5.397c0.026-0.156 0.042-0.335 0.042-0.518 0-0.003 0-0.006 0-0.009v0c-0.016-1.934-1.587-3.496-3.524-3.496-1.946 0-3.524 1.578-3.524 3.524s1.578 3.524 3.524 3.524c0.015 0 0.029-0 0.044-0l-0.002 0zM14.136 4.273c0.874 0 1.623 0.583 1.845 1.304h-3.691c0.222-0.722 0.97-1.304 1.845-1.304z"></path>
<path d="M21.711 9.961c1.568 0 2.913-0.846 3.385-2.109h-1.818c-0.291 0.444-0.86 0.666-1.568 0.666-0.006 0-0.012 0-0.019 0-0.952 0-1.747-0.673-1.935-1.569l-0.002-0.013h5.397c0.026-0.156 0.041-0.335 0.041-0.518 0-0.003 0-0.007 0-0.010v0.001c-0.016-1.934-1.587-3.496-3.524-3.496-1.946 0-3.524 1.578-3.524 3.524s1.578 3.524 3.524 3.524c0.015 0 0.029-0 0.044-0l-0.002 0zM21.669 4.273c0.874 0 1.623 0.583 1.845 1.304h-3.69c0.222-0.722 0.971-1.304 1.845-1.304z"></path>
<path d="M27.426 6.049c0-1.027 0.527-1.748 1.526-1.748s1.512 0.527 1.512 1.748v3.829h1.526v-4.162c0-1.845-0.943-2.858-2.664-2.858-0.957 0-1.581 0.458-1.901 0.874v-0.791h-1.526v6.937h1.526z"></path>
<path d="M36.818 9.878l0.611-1.817 0.61 1.817h1.387l2.733-6.937h-1.554l-1.831 4.981-0.597-1.776 1.207-3.205h-1.499l-0.458 1.443-0.458-1.443h-1.498l1.207 3.205-0.597 1.776-1.831-4.981h-1.554l2.733 6.937h1.387z"></path>
<path d="M44.545 1.124c0 0.575-0.46 1.041-1.027 1.041s-1.027-0.466-1.027-1.041c0-0.575 0.46-1.041 1.027-1.041s1.027 0.466 1.027 1.041z"></path>
<path d="M42.755 2.941h1.526v6.937h-1.526v-6.937z"></path>
<path d="M48.513 9.961c2.012 0 3.538-1.526 3.538-3.552h-1.526c0 1.249-0.832 2.109-2.012 2.109-1.193 0-1.998-0.86-1.998-2.109s0.805-2.109 1.998-2.109c0.008-0 0.017-0 0.026-0 0.552 0 1.047 0.241 1.388 0.623l0.002 0.002 1.124-1.013c-0.62-0.651-1.494-1.055-2.462-1.055-0.027 0-0.054 0-0.081 0.001l0.004-0c-2.040 0-3.552 1.512-3.552 3.552s1.511 3.552 3.551 3.552z"></path>
<path d="M56.156 2.858c-0.902 0-1.568 0.375-1.984 0.874v-3.732l-1.526 0.167v9.711h1.526v-3.829c0-1.013 0.624-1.748 1.609-1.748 1.054 0 1.512 0.666 1.512 1.748v3.829h1.526v-4.162c0-1.845-1.013-2.858-2.664-2.858z"></path>
<path d="M13.374 16.997h-1.526c0 1.249-0.832 2.109-2.012 2.109-1.193 0-1.998-0.86-1.998-2.109s0.805-2.109 1.998-2.109c0.008-0 0.017-0 0.026-0 0.552 0 1.047 0.241 1.387 0.623l0.002 0.002 1.124-1.013c-0.621-0.651-1.494-1.055-2.462-1.055-0.027 0-0.054 0-0.081 0.001l0.004-0c-2.039 0-3.552 1.512-3.552 3.552s1.512 3.552 3.552 3.552c2.011 0 3.537-1.526 3.537-3.552z"></path>
<path d="M13.775 16.997c0 2.026 1.499 3.552 3.552 3.552s3.552-1.526 3.552-3.552-1.498-3.552-3.552-3.552-3.552 1.526-3.552 3.552zM19.325 16.997c0 1.207-0.805 2.081-1.998 2.081s-1.998-0.874-1.998-2.081 0.805-2.081 1.998-2.081 1.998 0.874 1.998 2.081z"></path>
<path d="M29.064 13.445c-0.999 0-1.568 0.402-2.095 0.957-0.375-0.61-0.971-0.957-1.817-0.957-0.009-0-0.020-0-0.031-0-0.72 0-1.36 0.34-1.769 0.869l-0.004 0.005v-0.791h-1.526v6.937h1.526v-4.162c0-0.902 0.527-1.415 1.235-1.415 0.805 0 1.236 0.513 1.236 1.415v4.162h1.526v-4.162c0-0.902 0.527-1.415 1.235-1.415 0.819 0 1.235 0.513 1.235 1.415v4.162h1.526v-4.551c-0.001-1.706-0.861-2.469-2.276-2.469z"></path>
<path d="M35.597 20.548c1.568 0 2.913-0.846 3.385-2.109h-1.817c-0.291 0.444-0.86 0.666-1.568 0.666-0.005 0-0.012 0-0.019 0-0.952 0-1.747-0.673-1.936-1.569l-0.002-0.013h5.397c0.026-0.156 0.042-0.336 0.042-0.519 0-0.003 0-0.006 0-0.009v0c-0.016-1.934-1.587-3.496-3.524-3.496-1.946 0-3.524 1.578-3.524 3.524s1.578 3.524 3.524 3.524c0.015 0 0.029-0 0.044-0l-0.002 0zM35.556 14.86c0.874 0 1.623 0.583 1.845 1.304h-3.69c0.222-0.722 0.971-1.304 1.845-1.304z"></path>
<path d="M39.565 16.997c0 2.164 1.374 3.552 3.441 3.552 0.012 0 0.027 0 0.042 0 0.776 0 1.48-0.307 1.998-0.806l-0.001 0.001v0.721h1.527v-9.878l-1.526 0.167v3.497c-0.43-0.472-1.179-0.805-2.039-0.805-2.068-0-3.442 1.387-3.442 3.551zM45.073 16.997c0 1.193-0.791 2.081-1.998 2.081s-2.012-0.888-2.012-2.081 0.805-2.081 2.012-2.081 1.998 0.888 1.998 2.081z"></path>
<path d="M50.219 17.565l-1.72-4.037h-1.581l2.539 5.716v2.973l-1.332 1.224v8.476h1.526v-7.995l1.332-1.223v-3.454l2.539-5.716h-1.582l-1.72 4.037z"></path>
<path d="M14.248 24.98h-2.22v-0.957c0-0.277 0.167-0.458 0.416-0.458 0.007-0 0.016-0.001 0.024-0.001 0.159 0 0.298 0.083 0.377 0.207l0.001 0.002 1.027-1.013c-0.361-0.444-0.874-0.638-1.498-0.638-0.971 0-1.873 0.527-1.873 1.804v1.054h-1.401v1.443h1.401v5.494h1.526v-5.494h2.22z"></path>
<path d="M17.674 24.897c-1.952 0.013-3.529 1.598-3.529 3.552 0 1.962 1.59 3.552 3.552 3.552 0.007 0 0.014-0 0.020-0h-0.001c1.568 0 2.913-0.846 3.385-2.109h-1.818c-0.291 0.444-0.86 0.666-1.568 0.666-0.006 0-0.012 0-0.019 0-0.952 0-1.747-0.673-1.935-1.569l-0.002-0.013h5.398c0.026-0.156 0.041-0.335 0.041-0.517 0-0.003 0-0.007-0-0.010v0.001c0-0.010 0-0.022 0-0.034 0-1.943-1.575-3.517-3.517-3.517-0.003 0-0.005 0-0.008 0h0zM15.829 27.616c0.222-0.721 0.971-1.304 1.845-1.304s1.623 0.583 1.845 1.304z"></path>
<path d="M24.971 27.685c-0.749-0.277-1.526-0.264-1.526-0.874-0-0.005-0-0.011-0-0.017 0-0.297 0.241-0.539 0.539-0.539 0.006 0 0.012 0 0.017 0l-0.001-0c0.285 0.009 0.523 0.196 0.609 0.452l0.001 0.005 0.943-0.929c-0.35-0.538-0.948-0.888-1.629-0.888-1.062 0-1.924 0.855-1.937 1.914v0.001c0 1.124 0.749 1.665 1.443 1.859 0.68 0.194 1.359 0.25 1.359 1.027 0 0.555-0.361 0.86-0.888 0.86-0.002 0-0.005 0-0.008 0-0.502 0-0.908-0.407-0.908-0.908 0-0.007 0-0.015 0-0.022l-0 0.001h-1.457c0 1.318 0.943 2.372 2.372 2.372 1.401 0 2.414-0.943 2.414-2.331 0.001-1.179-0.637-1.72-1.345-1.983z"></path>
<path d="M28.966 22.039l-1.526 0.167v2.775h-1.401v1.443h1.401v5.494h1.526v-5.494h2.081v-1.443h-2.081v-2.941z"></path>
<path d="M33.489 23.162c0 0.575-0.46 1.041-1.027 1.041s-1.027-0.466-1.027-1.041c0-0.575 0.46-1.041 1.027-1.041s1.027 0.466 1.027 1.041z"></path>
<path d="M31.699 24.98h1.526v6.937h-1.526v-6.937z"></path>
<path d="M38.705 24.98l-1.665 4.773-1.665-4.773h-1.637l2.553 6.937h1.498l2.553-6.937h-1.637z"></path>
<path d="M45.364 25.701c-0.291-0.375-1.068-0.805-1.984-0.805-1.984 0-3.482 1.47-3.482 3.552s1.498 3.552 3.482 3.552c0.93 0 1.693-0.43 1.984-0.805v0.721h1.554v-6.937h-1.554zM43.436 30.53c-1.133-0.022-2.042-0.945-2.042-2.081s0.91-2.059 2.040-2.081l0.002-0c1.124 0 1.984 0.943 1.984 2.081s-0.86 2.081-1.984 2.081z"></path>
</symbol>
<symbol id="icon-arrow_back" viewBox="0 0 32 32">
<title>arrow_back</title>
<path d="M26.688 14.688v2.625h-16.251l7.437 7.5-1.875 1.875-10.688-10.688 10.688-10.688 1.875 1.875-7.437 7.5h16.251z"></path>
</symbol>
<symbol id="icon-arrow_forward" viewBox="0 0 32 32">
<title>arrow_forward</title>
<path d="M16 5.312l10.688 10.688-10.688 10.688-1.875-1.875 7.437-7.5h-16.251v-2.625h16.251l-7.437-7.5z"></path>
</symbol>
<symbol id="icon-ents-24" viewBox="0 0 32 32">
<title>ents-24</title>
<path d="M15.527 12.001h1.084c-0.183 0.353-0.437 0.679-0.396 1.116 0.045 0.485 0.080 0.973 0.109 1.461 0.021 0.373 0.209 0.631 0.519 0.824 0.449 0.283 0.903 0.561 1.332 0.872 0.148 0.108 0.303 0.297 0.329 0.467 0.081 0.513 0.109 1.033 0.14 1.553 0.016 0.261-0.176 0.419-0.408 0.323-0.104-0.043-0.208-0.204-0.224-0.324-0.065-0.477-0.097-0.957-0.144-1.485-0.425 0.149-0.799 0.265-1.157 0.419-0.081 0.033-0.153 0.2-0.148 0.301 0.015 0.383 0.047 0.764 0.101 1.143 0.096 0.667 0.647 1.183 1.315 1.227 0.263 0.017 0.531-0.011 0.793-0.045 0.757-0.101 1.312-0.787 1.259-1.551-0.036-0.508-0.109-1.017-0.111-1.525-0.001-0.701-0.268-1.204-0.924-1.487-0.096-0.041-0.181-0.109-0.269-0.168-1.203-0.783-0.996-0.404-1.128-1.827-0.024-0.251 0.024-0.431 0.303-0.453 0.276-0.021 0.331 0.175 0.349 0.393l0.065 0.763c0.392-0.135 0.728-0.257 1.069-0.363 0.2-0.063 0.24-0.184 0.243-0.383 0.007-0.468-0.152-0.872-0.404-1.251h10.076c0.236 0.101 0.499 0.196 0.504 0.503 0.012 0.953 0.004 1.905 0.004 2.852-0.481 0.121-0.719 0.353-0.727 0.715-0.009 0.481 0.3 0.691 0.729 0.792v2.429c0 0.696-0.173 0.871-0.857 0.871h-14.492c0.080-0.045 0.161-0.053 0.243-0.057 0.413-0.024 0.417-0.024 0.387-0.423l-0.371-4.667-0.127-1.713c0.241-0.019 0.441-0.041 0.641-0.045 0.249-0.008 0.356-0.097 0.319-0.372-0.039-0.289-0.019-0.588-0.025-0.883l0.001 0.001zM25.643 13.473c-1.523-0.001-2.747 1.229-2.743 2.757 0.004 1.495 1.256 2.727 2.757 2.716s2.741-1.257 2.733-2.747c-0.008-1.503-1.241-2.725-2.748-2.725v-0.001zM12.976 12.001c-0.197 0.035-0.395 0.080-0.593 0.097-0.193 0.017-0.257 0.108-0.237 0.292 0.028 0.285 0.051 0.571 0.068 0.857 0.011 0.181 0.108 0.236 0.275 0.22l0.725-0.057 0.541 6.737h-1.8l-0.191-2.351c-0.143-1.757-0.289-3.513-0.417-5.273-0.023-0.296-0.143-0.359-0.403-0.319-0.22 0.033-0.444 0.048-0.667 0.053-0.247 0.007-0.328 0.109-0.307 0.357 0.085 0.952 0.156 1.907 0.231 2.859 0.012 0.156 0.023 0.311-0.020 0.481l-0.319-0.744c-0.347-0.833-0.696-1.663-1.033-2.501-0.093-0.231-0.219-0.324-0.481-0.296-0.791 0.084-0.777 0.073-0.711 0.873 0.187 2.233 0.364 4.467 0.544 6.701v0.147h-0.983l-0.029-0.403c-0.025-0.397-0.051-0.416-0.436-0.38-0.348 0.033-0.697 0.056-1.088 0.085l-0.196-2.364c0.363-0.033 0.699-0.075 1.036-0.091 0.211-0.009 0.28-0.099 0.259-0.299-0.031-0.275-0.056-0.551-0.067-0.827-0.008-0.201-0.104-0.253-0.287-0.237l-1.045 0.077-0.136-1.655c0.408-0.035 0.796-0.072 1.185-0.096 0.207-0.013 0.311-0.087 0.281-0.315-0.035-0.273-0.055-0.551-0.067-0.827-0.008-0.201-0.109-0.251-0.289-0.236-0.783 0.067-1.565 0.128-2.349 0.187-0.201 0.015-0.239 0.128-0.224 0.303 0.116 1.385 0.229 2.773 0.34 4.16 0.077 0.963 0.149 1.925 0.227 2.921-0.624 0-1.227 0.019-1.825-0.008-0.277-0.012-0.472-0.281-0.475-0.593-0.008-0.851-0.007-1.7 0.004-2.551 0.001-0.076 0.084-0.181 0.157-0.22 0.283-0.147 0.443-0.368 0.439-0.683-0.003-0.303-0.151-0.539-0.435-0.647-0.176-0.067-0.171-0.183-0.171-0.323 0.003-0.776 0.021-1.552-0.007-2.327-0.015-0.412 0.121-0.673 0.516-0.797 3.487-0.001 6.973-0.001 10.459-0.001l0.001 0.001zM9.34 16.679l1.429 3.468h-1.199l-0.276-3.451 0.045-0.017zM26.932 17.751h-0.484l-0.031-0.619h-0.803c0.065-0.275 0.107-0.496 0.173-0.708 0.188-0.593 0.387-1.183 0.592-1.813h0.588c0 0.445-0.019 0.887 0.007 1.327 0.016 0.268-0.151 0.588 0.191 0.795 0.048 0.029 0.047 0.273 0.004 0.296-0.313 0.163-0.144 0.472-0.236 0.723v0zM26.413 16.639v-0.907l-0.296 0.907h0.296zM24.639 17.271h0.756v0.493c-0.372 0-0.74 0.009-1.107-0.011-0.053-0.003-0.139-0.139-0.147-0.217-0.041-0.489 0.196-0.893 0.487-1.245 0.255-0.309 0.309-0.637 0.268-1.003-0.009-0.081-0.088-0.156-0.135-0.233-0.044 0.071-0.128 0.141-0.123 0.207 0.025 0.383-0.285 0.285-0.521 0.393 0-0.221-0.019-0.409 0.003-0.593 0.039-0.343 0.288-0.519 0.687-0.507 0.361 0.011 0.583 0.215 0.609 0.559 0.041 0.532-0.007 1.032-0.383 1.463-0.153 0.176-0.237 0.412-0.395 0.693h-0.001z"></path>
</symbol>
<symbol id="icon-facebook" viewBox="0 0 32 32">
<title>facebook</title>
<path d="M24 9.333c0.8 0 1.333-0.533 1.333-1.333v-5.333c0-0.8-0.533-1.333-1.333-1.333h-4c-4.4 0-8 3.6-8 8v2.667h-2.667c-0.8 0-1.333 0.533-1.333 1.333v5.333c0 0.8 0.533 1.333 1.333 1.333h2.667v9.333c0 0.8 0.533 1.333 1.333 1.333h5.333c0.8 0 1.333-0.533 1.333-1.333v-9.333h2.667c0.667 0 1.2-0.4 1.333-1.067l1.333-5.333c0.133-0.4 0-0.8-0.267-1.2s-0.667-0.4-1.067-0.4h-4v-2.667h4zM18.667 14.667h3.6l-0.667 2.667h-2.933c-0.8 0-1.333 0.533-1.333 1.333v9.333h-2.667v-9.333c0-0.8-0.533-1.333-1.333-1.333h-2.667v-2.667h2.667c0.8 0 1.333-0.533 1.333-1.333v-4c0-2.933 2.4-5.333 5.333-5.333h2.667v2.667h-2.667c-1.467 0-2.667 1.2-2.667 2.667v4c0 0.8 0.533 1.333 1.333 1.333z"></path>
</symbol>
<symbol id="icon-festivals" viewBox="0 0 32 32">
<title>festivals</title>
<path d="M11.743 14.239c0-1.047-0.371-1.94-1.111-2.68s-1.635-1.111-2.681-1.111c0-0.493 0-0.928 0-1.305 0-0.388 0-0.717 0-0.987 0-0.224 0-0.416 0-0.583 0-0.164 0-0.305 0-0.423 0-0.481 0-0.757 0-0.829s0-0.376 0-0.917c0.999 0 2.491 0 4.479 0 0 0.152 0 0.388 0 0.705-0.835 0-2.092 0-3.772 0 0 0.823 0 2.057 0 3.703 1.069 0.165 1.963 0.665 2.68 1.497 0.729 0.835 1.093 1.811 1.093 2.927 0 0.436-0.060 0.852-0.176 1.251-0.117 0.399-0.281 0.769-0.493 1.111-0.4 0.636-0.935 1.147-1.604 1.535-0.671 0.388-1.405 0.583-2.205 0.583v-0.705c1.047 0 1.94-0.364 2.68-1.093 0.741-0.74 1.112-1.633 1.112-2.68z"></path>
<path d="M23.325 11.137c-1.293 2.645-3.227 6.617-5.8 11.917-0.176 0-0.436 0-0.775 0 1.352-2.809 3.391-7.017 6.117-12.623-1.528 0-3.832 0-6.911 0 0-0.152 0-0.381 0-0.688 1.445 0 3.608 0 6.487 0 0.353 0 0.869 0 1.552 0-0.152 0.307-0.376 0.771-0.669 1.393z"></path>
<path d="M8.004 24.419h1.163v0.227h-0.909v0.731h0.849v0.227h-0.849v0.955h-0.253v-2.139z"></path>
<path d="M9.889 24.419h1.163v0.227h-0.909v0.7h0.833v0.227h-0.833v0.76h0.924v0.227h-1.179v-2.14z"></path>
<path d="M12.796 26.013c0-0.085-0.027-0.156-0.077-0.209s-0.115-0.101-0.191-0.144c-0.077-0.043-0.16-0.081-0.248-0.117-0.091-0.036-0.173-0.081-0.248-0.133-0.077-0.052-0.14-0.116-0.191-0.193s-0.077-0.175-0.077-0.292c0-0.167 0.059-0.299 0.175-0.396s0.281-0.147 0.495-0.147c0.125 0 0.236 0.009 0.339 0.028s0.181 0.043 0.239 0.069l-0.077 0.227c-0.047-0.023-0.116-0.045-0.207-0.067-0.091-0.020-0.193-0.032-0.307-0.032-0.135 0-0.235 0.031-0.301 0.091s-0.1 0.131-0.1 0.212c0 0.080 0.027 0.145 0.077 0.199 0.051 0.052 0.115 0.1 0.191 0.143 0.077 0.043 0.16 0.083 0.248 0.124 0.089 0.040 0.173 0.088 0.248 0.143 0.077 0.053 0.14 0.119 0.191 0.195s0.077 0.168 0.077 0.281c0 0.092-0.016 0.175-0.049 0.247-0.032 0.072-0.080 0.136-0.144 0.189-0.063 0.052-0.14 0.095-0.229 0.121-0.091 0.029-0.192 0.043-0.305 0.043-0.152 0-0.279-0.012-0.379-0.035s-0.177-0.049-0.232-0.079l0.085-0.227c0.047 0.027 0.116 0.051 0.208 0.076s0.195 0.037 0.308 0.037c0.067 0 0.131-0.007 0.189-0.020 0.060-0.013 0.111-0.035 0.152-0.064s0.077-0.067 0.101-0.112c0.028-0.040 0.040-0.095 0.040-0.156z"></path>
<path d="M15.137 24.645h-0.665v1.912h-0.253v-1.912h-0.665v-0.227h1.585v0.227z"></path>
<path d="M15.816 24.419h0.255v2.139h-0.255v-2.139z"></path>
<path d="M17.508 25.888l0.075 0.324h0.003l0.080-0.329 0.513-1.463h0.255l-0.808 2.172h-0.113l-0.824-2.172h0.277l0.544 1.469z"></path>
<path d="M19.869 25.964h-0.784l-0.213 0.592h-0.255l0.808-2.172h0.116l0.813 2.172h-0.268l-0.217-0.592zM19.168 25.744h0.625l-0.236-0.651-0.076-0.324h-0.003l-0.076 0.329-0.235 0.644z"></path>
<path d="M22.209 26.556h-1.264v-2.137h0.255v1.912h1.011v0.225z"></path>
<path d="M23.795 26.013c0-0.085-0.027-0.156-0.077-0.209s-0.115-0.101-0.191-0.144c-0.077-0.043-0.16-0.081-0.248-0.117-0.089-0.036-0.173-0.081-0.248-0.133-0.077-0.052-0.14-0.116-0.191-0.193s-0.077-0.175-0.077-0.292c0-0.167 0.059-0.299 0.175-0.396s0.281-0.147 0.495-0.147c0.125 0 0.236 0.009 0.34 0.028 0.101 0.019 0.181 0.043 0.239 0.069l-0.077 0.227c-0.047-0.023-0.116-0.045-0.207-0.067-0.089-0.020-0.193-0.032-0.307-0.032-0.135 0-0.235 0.031-0.301 0.091s-0.1 0.131-0.1 0.212c0 0.080 0.027 0.145 0.077 0.199 0.051 0.052 0.115 0.1 0.191 0.143 0.077 0.043 0.16 0.083 0.248 0.124 0.089 0.040 0.173 0.088 0.248 0.143 0.077 0.053 0.14 0.119 0.191 0.195s0.077 0.168 0.077 0.281c0 0.092-0.016 0.175-0.049 0.247-0.032 0.072-0.080 0.136-0.144 0.189-0.063 0.052-0.14 0.095-0.229 0.121-0.089 0.029-0.192 0.043-0.305 0.043-0.152 0-0.279-0.012-0.379-0.035s-0.177-0.049-0.232-0.079l0.085-0.227c0.047 0.027 0.116 0.051 0.208 0.076s0.195 0.037 0.308 0.037c0.067 0 0.131-0.007 0.189-0.020 0.060-0.013 0.111-0.035 0.152-0.064s0.077-0.067 0.101-0.112c0.027-0.040 0.039-0.095 0.039-0.156z"></path>
</symbol>
<symbol id="icon-info" viewBox="0 0 32 32">
<title>info</title>
<path d="M17.312 12v-2.688h-2.625v2.688h2.625zM17.312 22.688v-8h-2.625v8h2.625zM16 2.688c7.375 0 13.312 5.937 13.312 13.312s-5.937 13.312-13.312 13.312-13.312-5.937-13.312-13.312 5.937-13.312 13.312-13.312z"></path>
</symbol>
<symbol id="icon-instagram" viewBox="0 0 28 32">
<title>instagram</title>
<path d="M18.285 16c0-2.517-2.053-4.572-4.572-4.572s-4.572 2.053-4.572 4.572 2.053 4.572 4.572 4.572 4.572-2.053 4.572-4.572zM20.751 16c0 3.893-3.143 7.036-7.036 7.036s-7.036-3.143-7.036-7.036 3.143-7.036 7.036-7.036 7.036 3.143 7.036 7.036zM22.679 8.679c0 0.911-0.732 1.643-1.643 1.643s-1.643-0.732-1.643-1.643 0.732-1.643 1.643-1.643 1.643 0.732 1.643 1.643zM13.715 4.751c-2 0-6.285-0.161-8.089 0.553-0.625 0.251-1.089 0.553-1.572 1.036s-0.785 0.947-1.036 1.572c-0.715 1.804-0.553 6.089-0.553 8.089s-0.161 6.285 0.553 8.089c0.251 0.625 0.553 1.089 1.036 1.572s0.947 0.785 1.572 1.036c1.804 0.715 6.089 0.553 8.089 0.553s6.285 0.161 8.089-0.553c0.625-0.251 1.089-0.553 1.572-1.036s0.785-0.947 1.036-1.572c0.715-1.804 0.553-6.089 0.553-8.089s0.161-6.285-0.553-8.089c-0.251-0.625-0.553-1.089-1.036-1.572s-0.947-0.785-1.572-1.036c-1.804-0.715-6.089-0.553-8.089-0.553zM27.428 16c0 1.893 0.017 3.768-0.089 5.661-0.107 2.196-0.607 4.143-2.215 5.751s-3.553 2.107-5.751 2.215c-1.893 0.107-3.768 0.089-5.661 0.089s-3.768 0.017-5.661-0.089c-2.196-0.107-4.143-0.607-5.751-2.215s-2.107-3.553-2.215-5.751c-0.107-1.893-0.089-3.768-0.089-5.661s-0.017-3.768 0.089-5.661c0.107-2.196 0.607-4.143 2.215-5.751s3.553-2.107 5.751-2.215c1.893-0.107 3.768-0.089 5.661-0.089s3.768-0.017 5.661 0.089c2.196 0.107 4.143 0.607 5.751 2.215s2.107 3.553 2.215 5.751c0.107 1.893 0.089 3.768 0.089 5.661z"></path>
</symbol>
<symbol id="icon-menu" viewBox="0 0 32 32">
<title>menu</title>
<path d="M4 8h24v2.688h-24v-2.688zM4 17.312v-2.625h24v2.625h-24zM4 24v-2.688h24v2.688h-24z"></path>
</symbol>
<symbol id="icon-see-tickets" viewBox="0 0 32 32">
<title>see-tickets</title>
<path d="M24.225 15.779c-0.235-0.353-0.647-0.531-1.175-0.531-0.704 0-1.673 0.561-1.673 1.771 0 0.117 0 0.265 0.031 0.413l2.817-1.653zM23.227 21c-1.879 0-3.639-1.447-3.639-3.659 0-2.065 1.409-3.745 3.581-3.745 1.789 0 3.139 1.504 3.139 2.655l-4.255 2.508c0.352 0.412 0.939 0.531 1.497 0.531 0.527 0 1.379-0.267 2.467-1.061l-0.383 2.067c-0.675 0.471-1.556 0.708-2.405 0.708v0zM17.064 15.779c-0.235-0.353-0.647-0.531-1.173-0.531-0.704 0-1.673 0.561-1.673 1.771 0 0.117 0 0.265 0.029 0.413l2.819-1.653zM16.067 21c-1.879 0-3.639-1.447-3.639-3.659 0-2.065 1.408-3.745 3.579-3.745 1.789 0 3.139 1.504 3.139 2.655l-4.255 2.508c0.353 0.412 0.939 0.531 1.497 0.531 0.528 0 1.38-0.267 2.465-1.061l-0.383 2.067c-0.675 0.471-1.555 0.708-2.407 0.708v0zM5.591 18.257c0.881 0.679 1.703 1.003 2.495 1.003 1.173 0 1.615-0.501 1.615-1.121 0-0.441-0.263-0.825-1.379-1.593-0.911-0.619-1.849-1.535-1.849-2.773 0-1.444 1.027-2.772 3.287-2.772 0.88 0 1.996 0.324 2.817 0.827l-0.411 1.709c-0.793-0.561-1.615-0.797-2.289-0.797-0.851 0-1.379 0.296-1.379 0.944 0 0.472 0.411 0.855 1.379 1.504 1.201 0.856 1.907 1.681 1.907 2.832 0 1.623-1.32 2.981-3.521 2.981-1.233 0-2.289-0.355-3.081-0.944l0.411-1.799z"></path>
</symbol>
<symbol id="icon-twitter" viewBox="0 0 32 32">
<title>twitter</title>
<path d="M31.467 2.933c-0.4-0.267-1.067-0.267-1.467 0-0.933 0.667-2 1.2-3.067 1.6-2.667-2.4-6.8-2.533-9.6-0.133-1.733 1.467-2.667 3.467-2.667 5.6-3.867-0.267-7.333-2.267-9.6-5.467-0.267-0.4-0.667-0.533-1.2-0.533s-0.933 0.4-1.067 0.8c-0.133 0.133-1.467 3.333-1.333 7.2 0.133 3.333 1.467 7.6 6.4 10.667-2 0.933-4.267 1.333-6.533 1.333-0.533 0-1.2 0.4-1.333 0.933s0.133 1.2 0.667 1.467c3.333 1.867 6.933 2.8 10.267 2.8s6.533-0.8 9.467-2.533c5.733-3.2 8.933-9.333 8.933-16.667 0-0.267 0-0.4 0-0.667 1.333-1.467 2.267-3.2 2.667-5.067 0.133-0.533-0.133-1.067-0.533-1.333zM26.933 8c-0.267 0.267-0.4 0.8-0.4 1.2 0.133 0.267 0.133 0.533 0.133 0.8 0 6.4-2.8 11.6-7.6 14.4-3.733 2.133-8.133 2.667-12.533 1.6 1.733-0.533 3.333-1.2 4.8-2.267 0.533-0.267 0.667-0.667 0.667-1.2s-0.4-0.933-0.8-1.067c-7.733-3.467-7.467-10-6.667-13.333 2.933 2.933 7.067 4.667 11.467 4.533 0.667 0 1.333-0.667 1.333-1.333v-1.333c0-1.333 0.533-2.667 1.6-3.6 1.867-1.733 4.933-1.467 6.533 0.4 0.4 0.4 0.933 0.533 1.333 0.4 0.267-0.133 0.667-0.133 0.933-0.267-0.267 0.4-0.533 0.667-0.8 1.067z"></path>
</symbol>
<symbol id="icon-widgets" viewBox="0 0 32 32">
<title>widgets</title>
<path d="M22.188 2.251l7.563 7.563-7.563 7.5h5.812v10.688h-10.688v-10.688h4.875l-7.5-7.5v4.875h-10.688v-10.688h10.688v5.812zM4 28v-10.688h10.688v10.688h-10.688z"></path>
</symbol>
</defs>
</svg>
